<svg xmlns="http://www.w3.org/2000/svg" xmlns:xlink="http://www.w3.org/1999/xlink" width="500" zoomAndPan="magnify" viewBox="0 0 375 374.999991" height="500" preserveAspectRatio="xMidYMid meet" version="1.0"><defs><clipPath id="2e26d9ac07"><path d="M 25.609375 25.609375 L 348.859375 25.609375 L 348.859375 347 L 25.609375 347 Z M 25.609375 25.609375 " clip-rule="nonzero"/></clipPath><clipPath id="8fc5636611"><path d="M 120 88 L 260 88 L 260 348.859375 L 120 348.859375 Z M 120 88 " clip-rule="nonzero"/></clipPath></defs><g clip-path="url(#2e26d9ac07)"><path fill="#1877f2" d="M 348.859375 187.234375 C 348.859375 97.96875 276.496094 25.609375 187.234375 25.609375 C 97.96875 25.609375 25.609375 97.96875 25.609375 187.234375 C 25.609375 267.90625 84.710938 334.769531 161.980469 346.894531 L 161.980469 233.953125 L 120.941406 233.953125 L 120.941406 187.234375 L 161.980469 187.234375 L 161.980469 151.625 C 161.980469 111.117188 186.109375 88.742188 223.027344 88.742188 C 240.710938 88.742188 259.207031 91.898438 259.207031 91.898438 L 259.207031 131.675781 L 238.824219 131.675781 C 218.75 131.675781 212.488281 144.132812 212.488281 156.914062 L 212.488281 187.234375 L 257.3125 187.234375 L 250.148438 233.953125 L 212.488281 233.953125 L 212.488281 346.894531 C 289.753906 334.769531 348.859375 267.90625 348.859375 187.234375 " fill-opacity="1" fill-rule="nonzero"/></g><g clip-path="url(#8fc5636611)"><path fill="#ffffff" d="M 250.148438 233.953125 L 257.3125 187.234375 L 212.488281 187.234375 L 212.488281 156.914062 C 212.488281 144.132812 218.75 131.675781 238.824219 131.675781 L 259.207031 131.675781 L 259.207031 91.898438 C 259.207031 91.898438 240.710938 88.742188 223.027344 88.742188 C 186.109375 88.742188 161.980469 111.117188 161.980469 151.625 L 161.980469 187.234375 L 120.941406 187.234375 L 120.941406 233.953125 L 161.980469 233.953125 L 161.980469 346.894531 C 170.207031 348.1875 178.640625 348.859375 187.234375 348.859375 C 195.824219 348.859375 204.257812 348.1875 212.488281 346.894531 L 212.488281 233.953125 L 250.148438 233.953125 " fill-opacity="1" fill-rule="nonzero"/></g></svg>