<svg xmlns="http://www.w3.org/2000/svg" width="457.739" height="344.501" viewBox="0 0 457.739 344.501"><defs><style>.a{fill:#fff;}.b{fill:#645d5c;}.c{fill:#c6c6c6;}.d{fill:#211715;}.e{fill:#f6928f;}.f{fill:#fbd1cf;}.g{fill:#f2635f;}</style></defs><path class="a" d="M197.4,193.4c16.5-18.311,27.05-43.146,27.05-73.658C224.451,43.205,176.193,2.4,113.443,2.4S2.435,43.205,2.435,119.737c0,69.99,55.5,110.118,111.008,110.118a115.547,115.547,0,0,0,66.976-21.3c6.405,3.622,22.075,11.713,29.477,15.058C206.256,213.791,201.5,202.546,197.4,193.4Z"/><path class="b" d="M384.671,141.1c-1.574-8.729-3.858-15.821-6.041-26.183-1.834-8.729-2.759-19.917-6.4-27.472C369.5,81.8,363.84,73.079,355.142,69.07l-5.525-3.176-1.208-.7A57.812,57.812,0,0,0,325,60.648c-16.128,0-29.474,7.495-35.844,13.685-7.133,7.706-10.066,15.4-13.409,29.912-2.186,9.487-4.348,21.028-6.058,30.614-1.473,8.664-1.626,17.37,2.426,25.043,4.639,8.786,13.309,12.99,26.384,14.549l56.14.755c12.381.567,21.315-4.66,26.435-13.7a30.863,30.863,0,0,0,3.6-20.09"/><path class="a" d="M348.674,99.142q-1.041-1.618-2.141-3.256c-8.924,7.446-13.77,10.578-29.893,18.237-8.787,4.173-14.946,6-22.883,8.426l-5.943,3.369a6.09,6.09,0,0,0-4.418-1.651,5.673,5.673,0,0,0-5.113,2.839c-1.745,3.026-1.694,8.615-.543,12.077.814,2.452,2.15,6.2,5.394,8.9a6.56,6.56,0,0,0,5.665,1.433,46.65,46.65,0,0,0,8.714,16.224,38.252,38.252,0,0,0,12.97,10.435c-.009.785-.03,1.594-.129,2.96a11.508,11.508,0,0,1-.56,3.27,8.1,8.1,0,0,1-2.4,3.5A21.414,21.414,0,0,1,301.88,189q1.566,6.805,3.333,13.668a54.694,54.694,0,0,0,43.27.44l3.971-14.63a19.23,19.23,0,0,1-4.3-2.57,8.052,8.052,0,0,1-2.394-3.494,11.725,11.725,0,0,1-.564-3.273c-.13-1.876-.13-2.7-.13-3.892v-.032c9.415-4.818,16.886-17.673,18.227-21.312.256-.779,1-2.334,1.618-4.094a5.489,5.489,0,0,0,2.064.162,7.064,7.064,0,0,0,3.65-1.541c3.265-2.673,4.629-6.414,5.463-8.86,1.177-3.453,1.272-9.041-.45-12.08a5.674,5.674,0,0,0-5.091-2.88,6.09,6.09,0,0,0-4.431,1.617l-5.515-5.932A223.018,223.018,0,0,0,348.674,99.142Z"/><path class="a" d="M316.793,241.994l10.612-.075c6.294.046,12.581.089,18.666.13q-1.611-7.215-3.221-14.429a36.991,36.991,0,0,1-1.018-6.189,59.3,59.3,0,0,0,5.892-.783,13.722,13.722,0,0,1-7.3-7.426,21.691,21.691,0,0,1-.9-7.062,49.028,49.028,0,0,1-12.218,1.189,47.006,47.006,0,0,1-22.1-4.685c3.079,11.971,6.575,23.958,10.331,35.493C315.991,239.532,316.4,240.8,316.793,241.994Z"/><path class="c" d="M310.134,220.609c-3.29-11.293-6.272-22.784-8.814-34.071-1.648,1.056-3.718,2.411-5.838,3.939h-4.808c-15.68,7.67-29.15,13.3-37.1,25.37-4.73,7.18-7.849,16.91-8.93,28.08-1.517,15.678-1.958,22.751-3.7,46.48h153.6c2.726-5.4,4.654-9.205,4.654-9.205,5.222-12.667,9.583-21.472,9.973-37.276a46.035,46.035,0,0,0-8.93-28.08c-8.315-11.736-21.3-17.643-36.874-25.259.709,5.021.732,10.179,1.718,15.859.628,3.618,2.433,5.76,3.11,8.039a89.955,89.955,0,0,1-26.359,6.945,36.991,36.991,0,0,0,1.018,6.189l5.761,25.8h-27.97c-1.587-4.447-2.964-8.711-5.1-15.264C313.669,232.4,311.859,226.532,310.134,220.609Z"/><path class="d" d="M455.42,288.008H200.39c-3.088,0-3.093,4.8,0,4.8H455.42c3.089,0,3.094-4.8,0-4.8Z"/><path class="d" d="M380.39,292.808c3.089,0,3.094-4.8,0-4.8s-3.093,4.8,0,4.8Z"/><path class="d" d="M321.9,163.181q.429-.228.869-.434c.512-.242-.518.183.07-.024.212-.076.424-.152.64-.218a15.649,15.649,0,0,1,1.781-.4c-.337.062-.225.027.047,0,.175-.019.35-.035.526-.048.424-.031.85-.047,1.275-.05.4,0,.794.007,1.19.03.182.011.365.024.547.041.086.008.77.113.171.011a13.6,13.6,0,0,1,1.76.395c.242.076.481.2.726.261-.061-.016-.508-.243-.231-.093.1.055.207.1.308.152.148.078.294.161.436.251.2.126.729.536-.024-.051a2.465,2.465,0,0,0,3.394,0c.79-.86,1.058-2.57,0-3.394a12.9,12.9,0,0,0-8.03-2.4,16.361,16.361,0,0,0-7.878,1.831,2.419,2.419,0,0,0-.861,3.284,2.454,2.454,0,0,0,3.284.861Z"/><path class="d" d="M325.945,143.554a36.18,36.18,0,0,1,.847,3.876l-.086-.638a2.345,2.345,0,0,1,.015.536l.085-.638a1.235,1.235,0,0,1-.058.24l.242-.573a1.014,1.014,0,0,1-.085.155l.375-.486a.834.834,0,0,1-.127.125l.486-.375a2.64,2.64,0,0,1-.307.162l.573-.242a2.222,2.222,0,0,1-.517.151l.638-.086a2.026,2.026,0,0,1-.486,0l.638.086c-.183-.025-.363-.07-.546-.095a1.812,1.812,0,0,0-.957-.042,1.786,1.786,0,0,0-.893.284,2.4,2.4,0,0,0-.861,3.284,2.3,2.3,0,0,0,1.435,1.1c.453.061.893.175,1.355.2a4.419,4.419,0,0,0,2.044-.493,3.041,3.041,0,0,0,1.658-1.993,4.851,4.851,0,0,0-.019-2.1c-.211-1.249-.5-2.486-.821-3.711a2.4,2.4,0,0,0-2.952-1.677,2.446,2.446,0,0,0-1.676,2.953Z"/><path class="d" d="M305.843,132.465c-.647,2.1-.225,6.944,3.761,7.356,5.268-.032,5.548-5.883,3.775-8.634C311.927,128.934,307.657,128,305.843,132.465Z"/><path class="d" d="M348.029,132.465c.648,2.1.226,6.944-3.76,7.356-5.268-.032-5.548-5.883-3.775-8.635C341.946,128.934,346.215,128,348.029,132.465Z"/><path class="d" d="M267.372,134.221c-1.538,9.2-1.738,18.9,2.891,27.3,3.3,5.982,8.766,10.027,15.076,12.4a56.622,56.622,0,0,0,13.158,2.924,2.414,2.414,0,0,0,2.4-2.4,2.459,2.459,0,0,0-2.4-2.4c-6.337-.772-12.887-2.308-18.142-6.1-5.179-3.738-8.124-9.942-8.943-16.243A48.63,48.63,0,0,1,272,135.5a2.472,2.472,0,0,0-1.676-2.952,2.421,2.421,0,0,0-2.953,1.676Z"/><path class="d" d="M350.828,63.821A40.22,40.22,0,0,0,340.7,60.083a62.66,62.66,0,0,0-13.83-1.813,58.385,58.385,0,0,0-27.818,6.3,51.274,51.274,0,0,0-9.626,6.3,36.174,36.174,0,0,0-6.728,7.759c-4.415,6.585-6.693,14.338-8.552,21.966-2.706,11.1-4.76,22.374-6.77,33.622a2.469,2.469,0,0,0,1.677,2.953A2.421,2.421,0,0,0,272,135.5c1.719-9.624,3.5-19.245,5.643-28.786,1.722-7.684,3.5-15.65,7.337-22.6a38.7,38.7,0,0,1,5.653-7.841,33.971,33.971,0,0,1,7.492-5.7,52.613,52.613,0,0,1,24.186-7.447,58.384,58.384,0,0,1,15.5,1.213,56.342,56.342,0,0,1,6.383,1.819c.988.344,1.963.719,2.935,1.1.679.267.241.113.113.044.156.084.308.177.462.265l.7.4c2.683,1.542,5.1-2.6,2.423-4.145Z"/><path class="d" d="M382.357,142.056c2.008,12.256-4.877,25.734-17.03,29.511a31.415,31.415,0,0,1-10.69,1.239c-3.088-.126-3.083,4.674,0,4.8,6.965.285,14.158-1.177,19.906-5.285a31.3,31.3,0,0,0,11.941-17.986,33.674,33.674,0,0,0,.5-13.555,2.419,2.419,0,0,0-2.952-1.677,2.457,2.457,0,0,0-1.676,2.953Z"/><path class="d" d="M356.642,72.593c7.4,4.621,12.923,12.78,15.361,21.086a131.219,131.219,0,0,1,3.1,15.271c.9,5.36,2.06,10.652,3.364,15.927,1.384,5.6,2.853,11.185,3.888,16.866a2.422,2.422,0,0,0,2.952,1.677,2.453,2.453,0,0,0,1.676-2.953c-1.946-10.689-5.255-21.069-7.082-31.787a152,152,0,0,0-3.109-15.71,44.088,44.088,0,0,0-5.709-12.381,40.091,40.091,0,0,0-12.021-12.14c-2.628-1.64-5.04,2.511-2.422,4.144Z"/><path class="d" d="M344.836,94.189a99.456,99.456,0,0,1-14.677,10.384,168.418,168.418,0,0,1-23.308,11.149c-4.509,1.707-9.124,3.1-13.732,4.513-2.945.9-1.689,5.536,1.276,4.629,4.162-1.274,8.331-2.531,12.42-4.025,4.653-1.7,9.161-3.732,13.622-5.88a134.678,134.678,0,0,0,19.174-10.665c2.981-2.093,5.822-4.38,8.619-6.711a2.419,2.419,0,0,0,0-3.394,2.452,2.452,0,0,0-3.394,0Z"/><path class="d" d="M344.46,97.1a223.068,223.068,0,0,1,14.069,24.409c1.385,2.762,5.527.334,4.145-2.423a223.286,223.286,0,0,0-14.069-24.408c-1.712-2.553-5.872-.153-4.145,2.422Z"/><path class="d" d="M346.7,125.578q.855.265,1.68.611l-.573-.242a18.5,18.5,0,0,1,3.679,2.079,2.4,2.4,0,0,0,3.526-2.71l-.242-.574a2.416,2.416,0,0,0-.861-.861,20.411,20.411,0,0,0-5.933-2.932,2.422,2.422,0,0,0-2.952,1.676,2.453,2.453,0,0,0,1.676,2.953Z"/><path class="d" d="M363.447,145.761a21.071,21.071,0,0,1-1.477,5.056c-.251.62-.521,1.231-.768,1.852-.089.227-.534,1.335-.216.607a39.857,39.857,0,0,1-2.612,4.872,48.689,48.689,0,0,1-10.387,12.3,18.967,18.967,0,0,1-7.662,3.971c-3.007.7-1.734,5.329,1.276,4.628,6.008-1.4,11.022-5.75,14.956-10.311a54.366,54.366,0,0,0,8.36-12.553,33.741,33.741,0,0,0,3.159-9.14,2.484,2.484,0,0,0-1.677-2.953,2.418,2.418,0,0,0-2.952,1.676Z"/><path class="d" d="M285.609,146.882a49.732,49.732,0,0,0,10.9,21.374c5.228,6,12.176,11.1,20.206,12.3a2.479,2.479,0,0,0,2.953-1.676A2.419,2.419,0,0,0,318,175.927c-7.312-1.1-13.329-5.606-18.087-11.066a44.659,44.659,0,0,1-9.671-19.255c-.7-3.007-5.329-1.734-4.628,1.276Z"/><path class="d" d="M289.629,124.212a9.156,9.156,0,0,0-10.077-1.425,8.844,8.844,0,0,0-4.5,6.076,22.563,22.563,0,0,0,3.3,17.379c2.263,3.39,5.841,6.443,10.189,5.879a2.478,2.478,0,0,0,2.4-2.4,2.414,2.414,0,0,0-2.4-2.4c-3.206.416-5.37-2.167-6.79-4.73a18.689,18.689,0,0,1-2.352-7.146c-.225-2.464-.2-5.313,1.177-7.466q.141-.2-.074.079c.07-.087.143-.172.22-.253.062-.06.546-.511.36-.369a3.691,3.691,0,0,1,1.421-.645,4.116,4.116,0,0,1,3.726.816c2.3,2.05,5.7-1.333,3.394-3.395Z"/><path class="d" d="M367.638,127.607a4.125,4.125,0,0,1,3.726-.816,3.709,3.709,0,0,1,1.42.645c-.133-.1.766.914.453.464,1.465,2.1,1.454,5.1,1.23,7.545a18.631,18.631,0,0,1-2.268,6.992c-1.417,2.616-3.6,5.309-6.873,4.884a2.412,2.412,0,0,0-2.4,2.4,2.46,2.46,0,0,0,2.4,2.4c7.094.921,11.411-6.78,13.184-12.5,1.577-5.088,1.564-12.962-3.3-16.328a9.088,9.088,0,0,0-10.963.92c-2.31,2.061,1.095,5.446,3.394,3.395Z"/><path class="d" d="M302.622,191.272c3.156-1.314,6.5-2.918,8.386-5.911,1.729-2.745,1.833-6.043,1.876-9.194a2.4,2.4,0,0,0-4.8,0c-.015,1.137-.072,2.27-.163,3.4-.015.183-.03.366-.048.549s-.067.488-.01.137a8.508,8.508,0,0,1-.24,1.092c-.043.142-.094.281-.143.421-.217.61.129-.225-.041.1-.159.3-.3.608-.471.9-.069.116-.14.229-.215.341-.117.176-.252.342-.041.083a7.231,7.231,0,0,1-.7.745c-.1.095-.212.183-.317.275.3-.263-.073.052-.138.1q-.44.32-.9.612c-.565.36-1.149.689-1.746.991-.315.16-.634.311-.955.458q-.194.088-.39.174c-.037.016-.687.29-.225.1a2.465,2.465,0,0,0-1.676,2.952c.359,1.111,1.711,2.193,2.952,1.677Z"/><path class="d" d="M342.667,175.247c0,3.048.014,6.23,1.3,9.044,1.394,3.045,4.323,4.913,7.272,6.256a2.46,2.46,0,0,0,3.284-.861,2.429,2.429,0,0,0-.861-3.284,20.833,20.833,0,0,1-3.639-2.065c-.1-.07-.417-.333-.174-.129-.133-.112-.265-.225-.391-.345a7.061,7.061,0,0,1-.622-.672c.212.26.077.095-.041-.082-.074-.112-.145-.225-.214-.341-.175-.293-.312-.6-.47-.9s.11.34,0,0c-.06-.185-.135-.364-.19-.551a9.7,9.7,0,0,1-.229-1.054q-.041-.259.006.045l-.024-.237c-.013-.157-.029-.314-.043-.471-.032-.391-.059-.784-.082-1.176-.063-1.06-.083-2.118-.084-3.179a2.4,2.4,0,1,0-4.8,0Z"/><path class="d" d="M315.392,266.841c-9.215-15.973-18.323-32.018-26.828-48.382q-.836-1.606-1.661-3.217c-.045-.087-.421-.909-.33-.471.037.175-.492.632.239-.153q.651-.7,1.314-1.383c1.885-1.942,3.848-3.805,5.821-5.656a2.422,2.422,0,0,0-.486-3.769l-3.565-2.035-1.678-.958-.838-.479-.42-.239c-.307-.2-.286-.15.062.144l.327,1.212c-.023.543.247-.289.373-.491.208-.337.43-.668.67-.983a19.9,19.9,0,0,1,1.54-1.744,43.526,43.526,0,0,1,4.057-3.644,97.792,97.792,0,0,1,8.542-5.982l-3.526-1.435a591.106,591.106,0,0,0,18.906,65.707c1.805,5.141,3.8,10.209,5.847,15.258a2.475,2.475,0,0,0,2.952,1.676,2.416,2.416,0,0,0,1.677-2.952,509.761,509.761,0,0,1-19.864-61.017q-2.625-9.928-4.889-19.948a2.418,2.418,0,0,0-3.526-1.434,77.521,77.521,0,0,0-13.2,10.006c-1.653,1.654-4.321,4.284-4.345,6.8-.021,2.1,1.882,2.92,3.448,3.813l5.032,2.873-.485-3.769c-1.857,1.742-3.7,3.5-5.487,5.314-1.755,1.791-3.85,3.634-3.1,6.4a17.183,17.183,0,0,0,1.512,3.167q.887,1.719,1.783,3.432,1.659,3.173,3.348,6.328c4.668,8.73,9.483,17.381,14.367,25.992q4.105,7.239,8.269,14.443c1.543,2.675,5.693.261,4.145-2.422Z"/><path class="d" d="M243.374,290c1.03-14.041,1.978-28.089,3.292-42.108.788-8.4,2.024-16.794,5.543-24.551a42.029,42.029,0,0,1,14.227-17.123c7.866-5.574,16.823-9.45,25.449-13.665a2.424,2.424,0,0,0,.861-3.284,2.451,2.451,0,0,0-3.284-.861c-14.925,7.293-31.595,14.094-39.9,29.485-4.383,8.121-6.463,17.242-7.35,26.368q-.912,9.387-1.648,18.791c-.7,8.98-1.331,17.965-1.99,26.948a2.421,2.421,0,0,0,2.4,2.4,2.446,2.446,0,0,0,2.4-2.4Z"/><path class="d" d="M401.508,281.841c2.752-6.667,5.737-13.278,7.611-20.262a64.764,64.764,0,0,0,2.133-24.163,49.635,49.635,0,0,0-8.212-21.722,54.694,54.694,0,0,0-15.356-14.838c-7.348-4.887-15.428-8.584-23.336-12.451a2.462,2.462,0,0,0-3.283.861,2.421,2.421,0,0,0,.861,3.284c12.562,6.141,26.757,12.007,35.482,23.475a46.1,46.1,0,0,1,8.715,19.345c1.4,7.5.613,15.577-1.133,22.955-1.825,7.71-5.1,14.945-8.11,22.24a2.414,2.414,0,0,0,1.676,2.952,2.46,2.46,0,0,0,2.952-1.676Z"/><path class="d" d="M304.919,205.177a57.1,57.1,0,0,0,44.776,0,2.419,2.419,0,0,0,.861-3.284,2.457,2.457,0,0,0-3.284-.861,52.842,52.842,0,0,1-39.931,0,2.471,2.471,0,0,0-3.283.861,2.419,2.419,0,0,0,.861,3.284Z"/><path class="a" d="M367.447,148.28c-3.144,0-5.318,2.212-5.318,4.8,0,2.9,2.22,4.89,5.319,4.89,3.217,0,5.318-2.013,5.318-4.89C372.766,150.474,370.581,148.28,367.447,148.28Z"/><path class="d" d="M367.447,145.88a7.711,7.711,0,0,0-7.364,5.02,7.184,7.184,0,0,0,2.729,8.108,8.641,8.641,0,0,0,8.675.4,7.192,7.192,0,0,0,3.535-7.691c-.61-3.594-4.125-5.792-7.575-5.833a2.4,2.4,0,1,0,0,4.8c.16,0,.319.014.479.017.419.007-.122,0-.176-.035a3.2,3.2,0,0,0,.732.156c.14.04.275.09.413.134.382.121-.149-.043-.179-.079.124.152.546.284.724.4.057.038.441.286.083.052-.342-.224,0,.013.062.072.154.143.287.351.449.48-.394-.312-.234-.341-.105-.119.055.093.117.182.17.276s.092.2.15.287q.118.252-.112-.276c.031.08.061.162.088.244a4.232,4.232,0,0,0,.158.632c-.017-.032-.05-.635-.034-.245,0,.134.017.267.017.4,0,.093,0,.187-.007.28-.011.243-.153.528.033-.1-.068.228-.088.473-.158.7a2.049,2.049,0,0,0-.1.3c.061-.479.2-.41.066-.169-.1.182-.2.36-.313.538-.14.231-.271.151.115-.14a1.662,1.662,0,0,0-.164.186c-.085.09-.173.178-.265.261-.221.2-.341.131.095-.059-.187.081-.36.241-.544.339a3.623,3.623,0,0,0-.354.173c.039-.028.565-.2.2-.094-.223.064-.441.14-.668.191a2.26,2.26,0,0,0-.426.079l.344-.048c-.1.011-.2.019-.3.026a7.383,7.383,0,0,1-.773.008c-.1,0-.2-.016-.3-.02-.533-.022.571.114.056.008-.231-.047-.46-.1-.687-.166-.088-.027-.174-.06-.261-.087-.4-.121.533.27-.045-.025-.2-.1-.376-.22-.562-.336s-.117-.218.176.143a3.321,3.321,0,0,0-.286-.254c-.093-.09-.49-.575-.236-.23s.006,0-.035-.066c-.07-.107-.135-.217-.195-.329-.125-.231-.091-.46.024.106a2.335,2.335,0,0,0-.09-.245c-.071-.213-.115-.429-.167-.646-.117-.487.027.6.013.09,0-.094-.012-.189-.014-.283,0-.137,0-.274.006-.41.019-.332.16-.314-.025.115a7.705,7.705,0,0,0,.2-.753c.108-.36-.069.184-.095.214a3.3,3.3,0,0,0,.242-.457c.045-.074.1-.144.14-.218.228-.376-.405.419-.014.023a3.346,3.346,0,0,0,.52-.509l-.275.209c.072-.054.146-.107.221-.157.114-.076.231-.148.35-.215.1-.056.217-.1.31-.16.166-.078.082-.044-.25.1q.134-.054.27-.1a7.687,7.687,0,0,1,.86-.22c.351-.075-.115.1-.18.024a3.756,3.756,0,0,0,.636-.031,2.4,2.4,0,0,0,0-4.8Z"/><path class="a" d="M341.917,169.362l.167.047c7.044,1.981,15.716,6.781,18.962,12.318,3.337,7.954,2.465,15.675,4.035,24.72.628,3.617,2.432,5.759,3.115,8.036a91.088,91.088,0,0,1-20.471,6.163,13.715,13.715,0,0,1-7.3-7.424c-.86-2.237-1-6.159-.843-8.4-2.434.07-4.623,0-7.1-.081-2.425-.083-3.226-1.7-3.53-3.466a5.24,5.24,0,0,1,1.007-3.778s.192-.233.459-.551c-1.656.15-3.295-1.8-3.691-3.777a3.643,3.643,0,0,1,1.855-4.033l-.259-.032c-2.3-.277-3.41-2.624-3.583-3.944a4.52,4.52,0,0,1,3.39-5.3c-2.3-3.938.468-6.122,4.189-8.734,1.92-1.348,4.535-2.737,6.206-2.493A28.488,28.488,0,0,1,341.917,169.362Z"/><path class="d" d="M345.487,223.419a86.893,86.893,0,0,0,23.409-6.627,2.416,2.416,0,0,0,.861-3.283,2.457,2.457,0,0,0-3.283-.861,82.9,82.9,0,0,1-22.263,6.142,2.414,2.414,0,0,0-1.676,2.952,2.464,2.464,0,0,0,2.952,1.677Z"/><path class="d" d="M370.557,214.029c-.705-2.423-2.224-4.5-2.881-6.947a54.007,54.007,0,0,1-1.221-9.583c-.252-3.086-.5-6.178-1.042-9.231-.493-2.795-1.145-6.109-2.762-8.49-2.888-4.253-7.419-7.309-11.961-9.563a47.155,47.155,0,0,0-7.312-2.929c-2.363-.714-4.987-1.475-7.422-.732a22.85,22.85,0,0,0-8.444,5.281,7.135,7.135,0,0,0-1.8,8.6A2.415,2.415,0,0,0,329,181.3a2.461,2.461,0,0,0,.861-3.283c-.674-1.556.921-2.781,2.239-3.794,1.617-1.243,3.851-3.091,5.98-3.212,1.53-.087,3.994.861,5.638,1.435a40.613,40.613,0,0,1,6.014,2.68,32.872,32.872,0,0,1,5.452,3.6,15.143,15.143,0,0,1,3.716,4.054c1.248,2.33,1.7,5.419,2.085,8s.54,5.2.758,7.8a55.855,55.855,0,0,0,1.3,9.779c.659,2.45,2.193,4.584,2.88,6.947.861,2.961,5.494,1.7,4.629-1.276Z"/><path class="d" d="M339.813,174.957c-2.753.518-5.5,1.083-8.234,1.678-2.553.555-5.467.827-7.385,2.8-3.51,3.615-1.9,11.17,3.485,11.981a2.465,2.465,0,0,0,2.952-1.677c.26-1.142-.348-2.752-1.676-2.952a4.139,4.139,0,0,1-.808-.195c.382.139.054-.011-.126-.111-.433-.238.182.248-.108-.1-.092-.109-.532-.727-.221-.222-.1-.154-.2-.3-.284-.46-.068-.123-.261-.635-.051-.047-.081-.226-.352-.758-.29-1.007.043.35.055.423.036.221-.009-.1-.015-.193-.019-.289a5.055,5.055,0,0,0,.012-.661c.015-.184,0-.125-.033.177.02-.12.044-.239.073-.358.043-.178.1-.345.158-.519-.184.572.039-.013.111-.153.045-.078.1-.154.147-.227q-.29.363-.029.059c.142-.128.265-.266.413-.388-.428.352.151-.063.262-.123.092-.051.187-.1.283-.143q-.357.15.049,0c.233-.06.461-.133.7-.188.576-.136,1.156-.252,1.734-.378q1.533-.334,3.066-.667,3.522-.756,7.063-1.424a2.423,2.423,0,0,0,1.676-2.953,2.451,2.451,0,0,0-2.952-1.676Z"/><path class="d" d="M340.771,184.026c-2.5.517-5.018.928-7.524,1.405s-5.344.794-7.242,2.657a6.211,6.211,0,0,0-1.487,6.166,7.805,7.805,0,0,0,2.322,3.714,5.7,5.7,0,0,0,2.112,1.2,6.232,6.232,0,0,0,2.758,0c1.345-.2,2.688-.417,4.034-.614.343-.05.687-.1,1.03-.147-.036.006-.392.051-.1.014l.554-.071c.848-.107,1.7-.2,2.548-.293a2.455,2.455,0,0,0,2.4-2.4,2.425,2.425,0,0,0-2.4-2.4c-2.293.243-4.577.552-6.857.9l-1.59.245-.891.135c-.01,0-.449.079-.184.027q.222-.027-.1-.012l.265.037c-.032-.037-.364-.07-.079,0s-.079-.045-.16-.094a2.934,2.934,0,0,1-.258-.169c.107.081.271.262,0-.044-.078-.087-.406-.5-.2-.206a6.37,6.37,0,0,1-.47-.8c.16.322-.092-.287-.125-.409a2.588,2.588,0,0,0-.091-.393c-.083-.179.046.327.042.346a2.265,2.265,0,0,0-.025-.431c0-.126.039-.7,0-.26s.043-.095.068-.2c.009-.034.084-.263.089-.262.063.016-.271.446-.1.25.038-.043.263-.443.266-.44.033.037-.34.342-.133.184a3.1,3.1,0,0,0,.286-.287c.052-.052.271-.184.025-.028-.285.181.061-.029.13-.067.112-.06.687-.325.238-.154a10.99,10.99,0,0,1,1.481-.415c1.078-.247,2.163-.461,3.249-.668,2.467-.468,4.946-.873,7.405-1.383a2.416,2.416,0,0,0,1.676-2.952,2.458,2.458,0,0,0-2.952-1.676Z"/><path class="d" d="M327.881,196.286a7.414,7.414,0,0,0,.508,9.236c1.331,1.357,3.145,1.59,4.951,1.648,2.079.067,4.158.105,6.238.052l-2.4-2.4A21.462,21.462,0,0,0,338.585,215a16.091,16.091,0,0,0,7.49,7.524,2.46,2.46,0,0,0,3.283-.861,2.422,2.422,0,0,0-.861-3.284,11.77,11.77,0,0,1-5.768-5.8q-.106-.234.006.01c-.066-.172-.125-.347-.179-.523-.089-.287-.162-.579-.227-.872a14.915,14.915,0,0,1-.3-1.994,29.419,29.419,0,0,1-.054-4.373,2.42,2.42,0,0,0-2.4-2.4c-1.452.037-2.9.034-4.356,0-.7-.016-1.4-.038-2.1-.061a5.213,5.213,0,0,1-1.212-.145c-.3-.16-.211-.124-.344-.412.126.273-.068-.167-.1-.262a5.087,5.087,0,0,1-.163-.643c.048.293-.009-.447-.007-.469-.014.161.071-.4.083-.449a3.39,3.39,0,0,1,.64-1.274,2.417,2.417,0,0,0-.861-3.284,2.459,2.459,0,0,0-3.284.861Z"/><path class="d" d="M372.147,217.134c1.586,4.531,3.2,9.057,4.887,13.551a2.454,2.454,0,0,0,2.953,1.676,2.427,2.427,0,0,0,1.676-2.952c-1.69-4.494-3.3-9.02-4.887-13.551a2.4,2.4,0,1,0-4.629,1.276Z"/><path class="d" d="M339.411,220.412a39.312,39.312,0,0,0,1.233,8.333l1.9,8.519,3.75,16.795c.673,3.014,5.3,1.738,4.629-1.276l-3.641-16.308-1.794-8.032a37.759,37.759,0,0,1-1.279-8.031c-.015-3.088-4.815-3.094-4.8,0Z"/><path class="a" d="M327.4,241.919c-28.573.207-57.009.373-67.106.407a2.9,2.9,0,0,0-2.894,2.916c.059,16.4.85,73.175,1.453,94.042a2.907,2.907,0,0,0,2.956,2.822c9.125-.141,37.386-.054,65.591.042,28.206-.1,56.467-.183,65.591-.042a2.908,2.908,0,0,0,2.957-2.822c.6-20.867,1.394-77.638,1.452-94.042a2.9,2.9,0,0,0-2.894-2.916C384.415,242.292,355.979,242.126,327.4,241.919Z"/><path class="d" d="M260.3,239.926a5.5,5.5,0,0,0-4.52,2.545,6.713,6.713,0,0,0-.77,3.674q.012,2.359.031,4.719.052,6.354.128,12.709.188,16.332.445,32.662.248,15.9.571,31.794.067,3.171.144,6.342a35.667,35.667,0,0,0,.245,5.887,5.434,5.434,0,0,0,5.607,4.243c.588,0,1.176-.011,1.764-.015,4.833-.033,9.666-.039,14.5-.049q11.625-.022,23.251-.028,13.666-.01,27.331-.009,13.6,0,27.2.011,11.176.009,22.353.031c4.415.01,8.83.013,13.246.051a8.782,8.782,0,0,0,2.938-.284,5.329,5.329,0,0,0,3.445-3.79,14.907,14.907,0,0,0,.2-3.062q.168-6.277.289-12.557.333-16.358.566-32.717.24-15.95.419-31.9.065-5.873.108-11.744c.013-1.914.3-4.1-.678-5.827a5.685,5.685,0,0,0-5.254-2.687q-6.2-.015-12.4-.012-10.971-.006-21.941-.008-13.471,0-26.945,0-13.868,0-27.735,0-12.163,0-24.325.006-8.181,0-16.361.011-1.923,0-3.845.007c-3.088.011-3.094,4.811,0,4.8,3.553-.012,7.105-.01,10.658-.013q10.145-.006,20.29-.008,12.865,0,25.732,0,13.694,0,27.387,0l24.87,0q9.147,0,18.294.01,2.7,0,5.394.006a9.188,9.188,0,0,1,1.565,0c.917.171.508,2.389.5,3.172-.054,8.572-.162,17.143-.272,25.714q-.215,16.572-.493,33.142c-.16,9.5-.328,19-.566,28.5q-.033,1.3-.068,2.6c-.013.47.16,1.477-.255,1.772-.312.222-1.194.068-1.586.065q-2.559-.021-5.119-.027-8.886-.035-17.772-.04-12.3-.018-24.61-.021-13.6-.006-27.2,0-12.81,0-25.619.017-9.927.011-19.854.036-3.218.009-6.435.024l-2.15.015c-.392,0-1.228.145-1.528-.084-.431-.329-.235-1.439-.249-1.952q-.034-1.31-.067-2.619-.077-3.05-.142-6.1-.157-7.211-.284-14.422-.3-16.563-.524-33.127-.2-14.306-.338-28.612-.021-2.4-.038-4.79c0-.662-.4-3.207.48-3.261C263.368,244.539,263.39,239.738,260.3,239.926Z"/><path class="d" d="M271.067,332.442c13.781-.086,27.564-.013,41.345.029,16.7.051,33.4-.025,50.1-.051,6.589-.01,13.177-.019,19.766.022,3.089.019,3.093-4.781,0-4.8-13.478-.084-26.957-.012-40.434.03-16.864.053-33.726-.028-50.59-.052-6.728-.01-13.457-.02-20.186.022-3.088.019-3.1,4.819,0,4.8Z"/><path class="d" d="M318.3,284.805q-.006,2.819,0,5.636c0,2.119-.288,4.447,1.358,6.082,1.6,1.587,3.788,1.325,5.843,1.323q2.775,0,5.55,0a6.067,6.067,0,0,0,3.113-.586,4.56,4.56,0,0,0,2.182-2.863,14.523,14.523,0,0,0,.149-3.093q0-1.484,0-2.968,0-1.357,0-2.713a5.758,5.758,0,0,0-.687-3.22,4.527,4.527,0,0,0-3.188-2.082,19.542,19.542,0,0,0-2.607-.074h-6.193a5.842,5.842,0,0,0-3.43.734,4.712,4.712,0,0,0-2.089,3.821,2.417,2.417,0,0,0,2.4,2.4,2.452,2.452,0,0,0,2.4-2.4c.027-.61-.142.486.037-.078l-.1.251q.213-.333-.069.062c.158-.1.267-.126-.087.037.5-.228-.488.008.07-.044-.678.063.247.017.415.017h7.879a2.95,2.95,0,0,1,.871.008l-.279-.025c.256.083.229.067-.079-.046.492.2-.342-.2.062.053l-.16-.212c.129.231.126.2-.006-.1.173.545.05-.514.037.078-.007.305,0,.611,0,.917q0,1.143,0,2.287,0,2.365-.01,4.73a2.23,2.23,0,0,1,0,.567l.052-.27a2.19,2.19,0,0,1-.092.347c.1-.1.069-.464,0-.1l.158-.213q-.288.269.085-.039c-.549.143.382-.063.014.016-.352.075.6.023.007.007-.348-.01-.7,0-1.045,0q-2.266-.006-4.533,0l-2.219,0-.9,0a1.637,1.637,0,0,1-.519-.007q.457.071.194,0t.164.073c-.54-.228.412.272-.065-.05.186.264.209.285.066.063l.1.252-.053-.17q-.087-.4.012.093c-.072-.065,0-.654,0-.763q-.007-1.27-.008-2.542,0-2.6,0-5.2a2.4,2.4,0,0,0-4.8,0Z"/><path class="e" d="M147.271,169.517v.81c-7.69,0-15.69.01-23.7.02v-38.31h23.7Z"/><path class="f" d="M108.871,169.517v.84c-8.18,0-16.18,0-23.7.02v-68.34h23.7Z"/><path class="a" d="M70.481,169.517v.86c-9.66,0-17.87.01-23.7.01V72.037h23.7Z"/><path class="g" d="M185.663,159.69c0-1.631,0-2.654,0-2.654h-23.7v13.275c8.817-.007,16.9-.016,23.706-.026C185.664,166.321,185.663,162.254,185.663,159.69Z"/><path class="d" d="M164.36,168.87V157.036l-2.4,2.4h23.7l-2.4-2.4v12.485c0,3.088,4.8,3.093,4.8,0V157.036a2.435,2.435,0,0,0-2.4-2.4h-23.7a2.435,2.435,0,0,0-2.4,2.4V168.87c0,3.088,4.8,3.093,4.8,0Z"/><path class="d" d="M125.966,168.87V132.036l-2.4,2.4h23.7l-2.4-2.4v37.485c0,3.088,4.8,3.093,4.8,0V132.036a2.435,2.435,0,0,0-2.4-2.4h-23.7a2.435,2.435,0,0,0-2.4,2.4V168.87c0,3.088,4.8,3.093,4.8,0Z"/><path class="d" d="M87.572,168.87V102.036l-2.4,2.4h23.7l-2.4-2.4v67.485c0,3.088,4.8,3.093,4.8,0V102.036a2.435,2.435,0,0,0-2.4-2.4h-23.7a2.435,2.435,0,0,0-2.4,2.4V168.87c0,3.088,4.8,3.093,4.8,0Z"/><path class="d" d="M49.178,168.87V85.082c0-4.186.194-8.426,0-12.609-.007-.145,0-.292,0-.437l-2.4,2.4h23.7l-2.4-2.4V156.28c0,4.26-.077,8.529,0,12.789,0,.151,0,.3,0,.452,0,3.088,4.8,3.093,4.8,0V85.277c0-4.26.078-8.529,0-12.789,0-.151,0-.3,0-.452a2.435,2.435,0,0,0-2.4-2.4h-23.7a2.435,2.435,0,0,0-2.4,2.4v83.788c0,4.2-.078,8.409,0,12.609,0,.145,0,.291,0,.437,0,3.088,4.8,3.093,4.8,0Z"/><path class="d" d="M199.1,195.092a106.852,106.852,0,0,0,19.919-32.256,117.094,117.094,0,0,0,7.816-40.919,155.8,155.8,0,0,0-3.857-37.757,118.908,118.908,0,0,0-11.649-30.725A99.426,99.426,0,0,0,168.936,12.5a113.014,113.014,0,0,0-28.614-9.857A136.749,136.749,0,0,0,108.248.1,128.558,128.558,0,0,0,76.968,5,107.629,107.629,0,0,0,49.711,17.163,98.744,98.744,0,0,0,27.386,36.409a104.623,104.623,0,0,0-16.33,26.152A128.755,128.755,0,0,0,1.785,95.439a149.629,149.629,0,0,0-.933,38.73A113.577,113.577,0,0,0,10.734,169.5a105.019,105.019,0,0,0,18.947,27.646,110.2,110.2,0,0,0,25.727,19.964,117.577,117.577,0,0,0,30.154,11.828,118.751,118.751,0,0,0,77.455-7.528,112.728,112.728,0,0,0,18.613-10.779h-2.423c9.584,5.409,19.454,10.516,29.478,15.058a2.447,2.447,0,0,0,2.665-.187,2.375,2.375,0,0,0,.861-2.523c-3.867-10.412-8.2-20.654-12.738-30.791a2.417,2.417,0,0,0-3.283-.861,2.458,2.458,0,0,0-.861,3.284c4.365,9.759,8.53,19.62,12.253,29.644l3.526-2.71c-10.024-4.543-19.9-9.65-29.478-15.058a2.375,2.375,0,0,0-2.423,0,112.684,112.684,0,0,1-39.356,17.867A114,114,0,0,1,71.289,219.4a108.08,108.08,0,0,1-26.836-15.314A101.046,101.046,0,0,1,8.9,150.776a123.052,123.052,0,0,1-3.966-36.957,143.412,143.412,0,0,1,5.22-34.627,109.31,109.31,0,0,1,12.5-28.318A95.1,95.1,0,0,1,41.4,29.187,97.93,97.93,0,0,1,65.392,14.266a113.44,113.44,0,0,1,28.057-8,134.979,134.979,0,0,1,31.082-1.028,118.782,118.782,0,0,1,29.239,6.021,100.482,100.482,0,0,1,25.2,12.864,94.45,94.45,0,0,1,20.2,19.444A103.3,103.3,0,0,1,213.671,69.9a130.976,130.976,0,0,1,7.527,32.7c1.361,13.281,1.291,26.85-1.284,39.981a104.374,104.374,0,0,1-13.828,35.351A100.243,100.243,0,0,1,195.7,191.7C193.645,193.991,197.029,197.4,199.1,195.092Z"/><path class="d" d="M196.429,167.865q-14.247.03-28.5.04-19.584.02-39.17.033-20.519.015-41.039.026-16.826.011-33.65.017-8.732,0-17.463.007h-.6c-3.089,0-3.094,4.8,0,4.8q7.416,0,14.831-.006l32.126-.016,40.628-.025q19.935-.015,39.871-.033,15.153-.015,30.305-.039l2.653,0c3.088-.007,3.094-4.807,0-4.8Z"/><path class="g" d="M185.266,110.436c-9.611-5.178-20.046-11.245-31-13.886a.9.9,0,0,1,0-1.758l9.813-2.4a.911.911,0,0,0,.5-1.457c-15.148-18.512-43.618-35.753-68.248-45.695a1.111,1.111,0,0,1,.6-2.125,140.713,140.713,0,0,1,41.085,13C152,62.968,163.359,69.535,172.449,80.814a.863.863,0,0,0,1.43-.1c1.452-2.557,3.647-6.036,5.653-9.387a.9.9,0,0,1,1.657.268,363.1,363.1,0,0,1,5.4,37.966A.9.9,0,0,1,185.266,110.436Z"/></svg>