<svg xmlns="http://www.w3.org/2000/svg" xmlns:xlink="http://www.w3.org/1999/xlink" width="200" zoomAndPan="magnify" viewBox="0 0 150 112.499997" height="150" preserveAspectRatio="xMidYMid meet" version="1.0"><defs><g/><clipPath id="48fd9a4d33"><path d="M 111 31.0625 L 122 31.0625 L 122 74 L 111 74 Z M 111 31.0625 " clip-rule="nonzero"/></clipPath><clipPath id="9a43c83afe"><path d="M 111 31.0625 L 122 31.0625 L 122 75 L 111 75 Z M 111 31.0625 " clip-rule="nonzero"/></clipPath><clipPath id="95d2628a27"><path d="M 70.65625 55 L 85 55 L 85 64 L 70.65625 64 Z M 70.65625 55 " clip-rule="nonzero"/></clipPath><clipPath id="6d6afcbbd8"><path d="M 134 97 L 143.832031 97 L 143.832031 101.996094 L 134 101.996094 Z M 134 97 " clip-rule="nonzero"/></clipPath><clipPath id="092f7cce90"><path d="M 135 63 L 143.832031 63 L 143.832031 73 L 135 73 Z M 135 63 " clip-rule="nonzero"/></clipPath><clipPath id="0489a56b4b"><path d="M 131 72 L 143.832031 72 L 143.832031 87 L 131 87 Z M 131 72 " clip-rule="nonzero"/></clipPath><clipPath id="497537972a"><path d="M 134 85 L 143.832031 85 L 143.832031 99 L 134 99 Z M 134 85 " clip-rule="nonzero"/></clipPath><clipPath id="7ec1d559f4"><path d="M 142 86 L 143.832031 86 L 143.832031 99 L 142 99 Z M 142 86 " clip-rule="nonzero"/></clipPath><clipPath id="ee180c9f8c"><path d="M 139 97 L 143.832031 97 L 143.832031 99 L 139 99 Z M 139 97 " clip-rule="nonzero"/></clipPath><clipPath id="de5fd35245"><path d="M 133 97 L 140 97 L 140 101.996094 L 133 101.996094 Z M 133 97 " clip-rule="nonzero"/></clipPath><clipPath id="348a12e885"><path d="M 140 97 L 143.832031 97 L 143.832031 101.996094 L 140 101.996094 Z M 140 97 " clip-rule="nonzero"/></clipPath><clipPath id="d2c896c718"><path d="M 133 72 L 143.832031 72 L 143.832031 87 L 133 87 Z M 133 72 " clip-rule="nonzero"/></clipPath><clipPath id="916547a7bf"><path d="M 133 63 L 143.832031 63 L 143.832031 74 L 133 74 Z M 133 63 " clip-rule="nonzero"/></clipPath></defs><path fill="#211715" d="M 101.261719 45.6875 C 101.261719 43.304688 101.261719 40.925781 101.261719 38.546875 C 101.261719 38.46875 101.242188 38.398438 101.203125 38.335938 C 101.164062 38.269531 101.113281 38.21875 101.046875 38.179688 C 100.980469 38.144531 100.910156 38.125 100.832031 38.125 C 100.757812 38.125 100.6875 38.140625 100.621094 38.179688 L 90.679688 43.875 L 81.234375 49.289062 L 77.015625 51.707031 C 76.875 51.792969 76.804688 51.914062 76.804688 52.074219 C 76.804688 55.269531 76.804688 58.464844 76.804688 61.660156 C 76.804688 65.566406 76.808594 69.476562 76.808594 73.386719 C 76.808594 75.78125 76.808594 78.175781 76.808594 80.570312 C 76.808594 80.648438 76.828125 80.71875 76.867188 80.78125 C 76.90625 80.847656 76.957031 80.898438 77.023438 80.9375 C 77.089844 80.972656 77.160156 80.992188 77.238281 80.992188 C 77.3125 80.992188 77.386719 80.976562 77.453125 80.9375 C 79.324219 79.863281 81.195312 78.789062 83.070312 77.714844 C 83.546875 77.445312 83.117188 76.710938 82.636719 76.984375 C 80.765625 78.058594 78.890625 79.128906 77.019531 80.203125 L 77.664062 80.570312 C 77.664062 76.402344 77.664062 72.234375 77.660156 68.0625 C 77.660156 64.425781 77.660156 60.789062 77.660156 57.152344 C 77.660156 55.460938 77.65625 53.769531 77.65625 52.074219 L 77.445312 52.441406 L 85.574219 47.785156 L 95.425781 42.136719 L 101.050781 38.914062 L 100.40625 38.546875 C 100.40625 40.925781 100.40625 43.308594 100.40625 45.6875 C 100.40625 46.234375 101.261719 46.234375 101.261719 45.6875 Z M 101.261719 45.6875 " fill-opacity="1" fill-rule="nonzero"/><path fill="#ffffff" d="M 94.386719 66.53125 C 93.980469 66.300781 92.96875 65.714844 91.777344 65.023438 L 85.011719 68.90625 C 85.011719 70.089844 85.015625 86.332031 85.015625 87.363281 C 86.371094 88.144531 87.4375 88.738281 87.898438 89.007812 Z M 94.386719 66.53125 " fill-opacity="1" fill-rule="nonzero"/><path fill="#8cb8df" d="M 94.320312 66.828125 C 92.320312 67.976562 90.160156 69.214844 87.914062 70.503906 C 87.914062 72.527344 87.914062 86.367188 87.914062 89.019531 C 87.988281 88.976562 92.398438 86.445312 94.378906 85.308594 C 94.378906 84.4375 94.375 70.058594 94.375 66.796875 Z M 94.320312 66.828125 " fill-opacity="1" fill-rule="nonzero"/><g clip-path="url(#48fd9a4d33)"><path fill="#ffffff" d="M 121.050781 32.996094 C 120.644531 32.761719 119.628906 32.175781 118.4375 31.488281 L 111.675781 35.367188 C 111.675781 36.550781 111.675781 71.089844 111.675781 72.121094 C 113.035156 72.902344 114.097656 73.496094 114.5625 73.765625 Z M 121.050781 32.996094 " fill-opacity="1" fill-rule="nonzero"/></g><path fill="#ffffff" d="M 107.503906 47.375 C 107.097656 47.140625 106.085938 46.554688 104.894531 45.867188 L 98.128906 49.746094 C 98.128906 50.929688 98.132812 78.78125 98.132812 79.816406 C 99.488281 80.597656 100.554688 81.191406 101.015625 81.457031 Z M 107.503906 47.375 " fill-opacity="1" fill-rule="nonzero"/><path fill="#65a0d4" d="M 107.4375 47.667969 L 101.027344 51.347656 C 101.027344 53.367188 101.03125 78.816406 101.03125 81.46875 C 101.105469 81.425781 105.515625 78.894531 107.496094 77.757812 C 107.496094 76.886719 107.492188 50.898438 107.492188 47.636719 Z M 107.4375 47.667969 " fill-opacity="1" fill-rule="nonzero"/><path fill="#3f88c9" d="M 120.980469 33.289062 L 114.574219 36.96875 C 114.574219 38.988281 114.578125 71.125 114.578125 73.777344 C 114.648438 73.734375 119.058594 71.203125 121.039062 70.066406 C 121.039062 69.195312 121.035156 36.519531 121.035156 33.257812 Z M 120.980469 33.289062 " fill-opacity="1" fill-rule="nonzero"/><g clip-path="url(#9a43c83afe)"><path fill="#211715" d="M 121.265625 32.628906 C 120.394531 32.125 119.523438 31.625 118.652344 31.121094 C 118.507812 31.039062 118.363281 31.039062 118.222656 31.121094 L 113.640625 33.75 L 112.421875 34.449219 L 111.828125 34.789062 C 111.625 34.90625 111.332031 35.007812 111.261719 35.253906 C 111.246094 35.347656 111.238281 35.4375 111.246094 35.53125 C 111.246094 36.210938 111.246094 36.886719 111.246094 37.566406 C 111.246094 38.835938 111.246094 40.109375 111.246094 41.378906 C 111.246094 43.0625 111.246094 44.742188 111.246094 46.425781 L 111.246094 52.15625 C 111.246094 54.117188 111.246094 56.078125 111.246094 58.039062 L 111.246094 63.496094 C 111.246094 65.007812 111.246094 66.523438 111.246094 68.039062 C 111.246094 69.0625 111.246094 70.082031 111.246094 71.101562 L 111.246094 71.910156 C 111.246094 71.972656 111.242188 72.035156 111.246094 72.097656 C 111.265625 72.433594 111.5625 72.546875 111.820312 72.695312 C 112.1875 72.902344 112.550781 73.113281 112.917969 73.320312 C 113.394531 73.589844 113.867188 73.855469 114.34375 74.125 C 114.820312 74.402344 115.25 73.667969 114.773438 73.394531 C 113.8125 72.84375 112.847656 72.304688 111.890625 71.753906 L 112.101562 72.117188 C 112.101562 70.800781 112.101562 69.484375 112.101562 68.164062 C 112.101562 65.300781 112.101562 62.433594 112.101562 59.570312 C 112.101562 56.125 112.101562 52.679688 112.101562 49.238281 L 112.101562 40.246094 C 112.101562 38.667969 112.101562 37.085938 112.101562 35.503906 L 112.101562 35.363281 L 111.890625 35.730469 L 118.652344 31.851562 L 118.222656 31.851562 C 119.089844 32.355469 119.960938 32.859375 120.832031 33.359375 C 121.3125 33.632812 121.742188 32.902344 121.265625 32.625 Z M 121.265625 32.628906 " fill-opacity="1" fill-rule="nonzero"/></g><path fill="#211715" d="M 111.65625 35.839844 C 112.46875 36.308594 113.285156 36.78125 114.097656 37.25 C 114.203125 37.308594 114.308594 37.324219 114.425781 37.292969 C 114.539062 37.265625 114.625 37.199219 114.683594 37.097656 C 114.746094 36.996094 114.757812 36.886719 114.730469 36.773438 C 114.699219 36.660156 114.632812 36.574219 114.53125 36.515625 C 113.714844 36.046875 112.902344 35.578125 112.085938 35.105469 C 111.984375 35.046875 111.878906 35.03125 111.761719 35.0625 C 111.648438 35.09375 111.5625 35.15625 111.503906 35.257812 C 111.441406 35.359375 111.429688 35.46875 111.457031 35.582031 C 111.488281 35.695312 111.554688 35.78125 111.65625 35.839844 Z M 111.65625 35.839844 " fill-opacity="1" fill-rule="nonzero"/><path fill="#211715" d="M 107.722656 47.007812 C 106.847656 46.503906 105.980469 46.003906 105.109375 45.5 C 104.964844 45.417969 104.820312 45.417969 104.675781 45.5 L 100.890625 47.671875 C 100.21875 48.058594 99.546875 48.441406 98.875 48.828125 C 98.558594 49.011719 98.214844 49.175781 97.914062 49.378906 C 97.765625 49.476562 97.695312 49.617188 97.703125 49.792969 C 97.683594 50.292969 97.703125 50.796875 97.703125 51.300781 C 97.703125 53.707031 97.703125 56.117188 97.703125 58.523438 C 97.703125 61.75 97.703125 64.976562 97.703125 68.203125 C 97.703125 70.992188 97.703125 73.777344 97.703125 76.5625 C 97.703125 77.402344 97.703125 78.238281 97.703125 79.078125 C 97.703125 79.28125 97.703125 79.488281 97.703125 79.695312 C 97.675781 79.898438 97.746094 80.0625 97.914062 80.183594 C 98.472656 80.5625 99.101562 80.863281 99.691406 81.195312 C 100.058594 81.40625 100.429688 81.613281 100.796875 81.824219 C 101.273438 82.097656 101.707031 81.363281 101.226562 81.089844 C 100.269531 80.539062 99.304688 80 98.34375 79.449219 L 98.558594 79.816406 C 98.558594 78.71875 98.558594 77.625 98.558594 76.527344 C 98.558594 74.191406 98.558594 71.851562 98.558594 69.511719 C 98.558594 66.722656 98.558594 63.933594 98.558594 61.144531 C 98.558594 58.699219 98.558594 56.25 98.558594 53.804688 C 98.558594 52.496094 98.558594 51.1875 98.558594 49.878906 L 98.558594 49.746094 L 98.34375 50.113281 L 105.109375 46.234375 L 104.675781 46.234375 C 105.546875 46.738281 106.417969 47.238281 107.289062 47.742188 C 107.765625 48.015625 108.199219 47.28125 107.71875 47.007812 Z M 107.722656 47.007812 " fill-opacity="1" fill-rule="nonzero"/><path fill="#211715" d="M 98.109375 50.21875 C 98.925781 50.6875 99.742188 51.160156 100.554688 51.628906 C 100.65625 51.6875 100.765625 51.703125 100.878906 51.671875 C 100.992188 51.644531 101.082031 51.578125 101.140625 51.476562 C 101.199219 51.375 101.214844 51.265625 101.183594 51.152344 C 101.15625 51.039062 101.089844 50.953125 100.988281 50.894531 C 100.171875 50.425781 99.355469 49.957031 98.542969 49.484375 C 98.441406 49.425781 98.332031 49.410156 98.21875 49.441406 C 98.105469 49.472656 98.015625 49.535156 97.957031 49.636719 C 97.898438 49.738281 97.882812 49.847656 97.914062 49.960938 C 97.941406 50.074219 98.007812 50.160156 98.109375 50.21875 Z M 98.109375 50.21875 " fill-opacity="1" fill-rule="nonzero"/><path fill="#211715" d="M 84.585938 81.960938 C 84.585938 83.375 84.585938 84.792969 84.585938 86.210938 C 84.585938 86.550781 84.585938 86.886719 84.585938 87.226562 C 84.566406 87.503906 84.683594 87.695312 84.9375 87.8125 C 85.300781 88.019531 85.667969 88.230469 86.035156 88.4375 C 86.582031 88.75 87.132812 89.058594 87.683594 89.371094 C 88.160156 89.644531 88.589844 88.910156 88.113281 88.636719 C 87.15625 88.085938 86.191406 87.546875 85.230469 86.996094 L 85.441406 87.363281 C 85.441406 85.5625 85.441406 83.761719 85.441406 81.957031 C 85.441406 81.410156 84.585938 81.410156 84.585938 81.957031 Z M 84.585938 81.960938 " fill-opacity="1" fill-rule="nonzero"/><path fill="#211715" d="M 94.605469 66.167969 C 93.734375 65.664062 92.863281 65.164062 91.992188 64.660156 C 91.847656 64.574219 91.703125 64.574219 91.558594 64.660156 L 86.347656 67.648438 L 84.980469 68.433594 C 84.773438 68.554688 84.597656 68.660156 84.585938 68.921875 C 84.582031 68.953125 84.585938 68.988281 84.585938 69.019531 L 84.585938 69.84375 C 84.585938 72.363281 84.585938 74.882812 84.585938 77.402344 C 84.585938 78.941406 84.585938 80.480469 84.585938 82.023438 C 84.585938 82.570312 85.441406 82.570312 85.441406 82.023438 C 85.4375 78.113281 85.4375 74.203125 85.4375 70.292969 C 85.4375 69.832031 85.4375 69.371094 85.4375 68.90625 L 85.226562 69.273438 L 91.988281 65.390625 L 91.558594 65.390625 C 92.429688 65.894531 93.300781 66.398438 94.171875 66.898438 C 94.648438 67.175781 95.082031 66.441406 94.605469 66.167969 Z M 94.605469 66.167969 " fill-opacity="1" fill-rule="nonzero"/><path fill="#211715" d="M 84.996094 69.378906 C 85.808594 69.847656 86.625 70.320312 87.4375 70.789062 C 87.539062 70.847656 87.648438 70.863281 87.761719 70.832031 C 87.878906 70.800781 87.964844 70.738281 88.023438 70.636719 C 88.082031 70.535156 88.097656 70.425781 88.066406 70.3125 C 88.039062 70.199219 87.972656 70.113281 87.871094 70.054688 C 87.054688 69.585938 86.238281 69.117188 85.425781 68.644531 C 85.324219 68.585938 85.214844 68.570312 85.101562 68.601562 C 84.988281 68.628906 84.898438 68.695312 84.839844 68.796875 C 84.78125 68.898438 84.765625 69.007812 84.796875 69.121094 C 84.828125 69.234375 84.890625 69.320312 84.996094 69.378906 Z M 84.996094 69.378906 " fill-opacity="1" fill-rule="nonzero"/><path fill="#211715" d="M 123.476562 69.101562 C 125.410156 67.992188 127.339844 66.882812 129.273438 65.773438 L 130.859375 64.863281 C 131.335938 64.589844 130.902344 63.855469 130.425781 64.132812 C 128.308594 65.347656 126.191406 66.5625 124.078125 67.777344 L 123.042969 68.367188 C 122.566406 68.640625 122.996094 69.375 123.476562 69.101562 Z M 123.476562 69.101562 " fill-opacity="1" fill-rule="nonzero"/><path fill="#211715" d="M 77.851562 95.402344 C 79.785156 94.292969 81.71875 93.183594 83.648438 92.074219 L 85.234375 91.164062 C 85.710938 90.890625 85.28125 90.15625 84.804688 90.429688 C 82.6875 91.644531 80.570312 92.859375 78.453125 94.074219 C 78.109375 94.273438 77.765625 94.472656 77.421875 94.667969 C 76.945312 94.941406 77.375 95.675781 77.851562 95.402344 Z M 77.851562 95.402344 " fill-opacity="1" fill-rule="nonzero"/><path fill="#211715" d="M 121.464844 44.207031 C 121.464844 40.984375 121.464844 37.757812 121.464844 34.53125 C 121.464844 34.105469 121.464844 33.683594 121.464844 33.257812 C 121.464844 33.183594 121.445312 33.113281 121.40625 33.046875 C 121.367188 32.980469 121.3125 32.929688 121.25 32.890625 C 121.183594 32.855469 121.113281 32.835938 121.035156 32.835938 C 120.960938 32.835938 120.886719 32.851562 120.820312 32.890625 L 116.632812 35.292969 C 115.90625 35.710938 115.160156 36.105469 114.449219 36.546875 C 114.214844 36.671875 114.113281 36.867188 114.144531 37.132812 C 114.144531 37.773438 114.144531 38.417969 114.144531 39.058594 C 114.144531 41.730469 114.144531 44.402344 114.144531 47.074219 C 114.144531 50.625 114.144531 54.171875 114.144531 57.71875 C 114.144531 61.042969 114.144531 64.367188 114.144531 67.691406 C 114.144531 69.628906 114.144531 71.570312 114.144531 73.507812 L 114.144531 73.777344 C 114.148438 73.851562 114.167969 73.921875 114.207031 73.988281 C 114.246094 74.054688 114.296875 74.105469 114.363281 74.140625 C 114.429688 74.179688 114.5 74.199219 114.574219 74.199219 C 114.652344 74.199219 114.722656 74.179688 114.789062 74.144531 C 116.359375 73.226562 117.941406 72.332031 119.519531 71.429688 L 120.96875 70.597656 C 121.203125 70.460938 121.449219 70.359375 121.464844 70.050781 C 121.46875 70.011719 121.464844 69.972656 121.464844 69.929688 L 121.464844 62.789062 C 121.464844 59.96875 121.464844 57.144531 121.464844 54.324219 C 121.464844 51.308594 121.464844 48.289062 121.464844 45.273438 L 121.464844 44.207031 C 121.464844 43.660156 120.609375 43.660156 120.609375 44.207031 L 120.609375 57.472656 C 120.609375 60.933594 120.609375 64.390625 120.609375 67.851562 C 120.609375 68.589844 120.609375 69.328125 120.609375 70.066406 L 120.820312 69.699219 C 118.871094 70.820312 116.917969 71.941406 114.964844 73.0625 C 114.761719 73.175781 114.558594 73.292969 114.359375 73.410156 L 115.003906 73.777344 C 115.003906 72.277344 115.003906 70.777344 115.003906 69.273438 C 115.003906 66.425781 115.003906 63.578125 115.003906 60.730469 C 115.003906 57.402344 115.003906 54.074219 115 50.742188 L 115 42 C 115 40.386719 115 38.777344 115 37.164062 L 115 36.96875 L 114.789062 37.332031 L 121.253906 33.625 L 120.609375 33.257812 C 120.609375 35.996094 120.609375 38.734375 120.609375 41.46875 C 120.609375 42.382812 120.609375 43.296875 120.609375 44.207031 C 120.609375 44.753906 121.464844 44.757812 121.464844 44.207031 Z M 121.464844 44.207031 " fill-opacity="1" fill-rule="nonzero"/><path fill="#211715" d="M 107.21875 47.300781 L 103.890625 49.214844 L 102.140625 50.214844 L 101.273438 50.714844 C 101 50.871094 100.621094 50.996094 100.601562 51.351562 C 100.574219 51.832031 100.601562 52.316406 100.601562 52.796875 L 100.601562 59.152344 C 100.601562 62.070312 100.601562 64.988281 100.601562 67.90625 C 100.601562 70.65625 100.601562 73.40625 100.601562 76.15625 C 100.601562 77.84375 100.601562 79.527344 100.601562 81.210938 L 100.601562 81.46875 C 100.601562 81.542969 100.621094 81.613281 100.660156 81.679688 C 100.699219 81.746094 100.753906 81.796875 100.816406 81.832031 C 100.882812 81.871094 100.957031 81.890625 101.03125 81.890625 C 101.105469 81.890625 101.179688 81.871094 101.246094 81.835938 C 102.363281 81.183594 103.488281 80.546875 104.609375 79.902344 L 107.085938 78.480469 C 107.390625 78.308594 107.898438 78.132812 107.917969 77.742188 C 107.921875 77.6875 107.917969 77.632812 107.917969 77.578125 L 107.917969 72.542969 C 107.917969 69.511719 107.917969 66.480469 107.917969 63.449219 L 107.917969 54.039062 C 107.917969 52.015625 107.917969 49.992188 107.917969 47.96875 L 107.917969 47.636719 C 107.917969 47.5625 107.898438 47.492188 107.859375 47.425781 C 107.820312 47.359375 107.769531 47.308594 107.703125 47.269531 C 107.636719 47.234375 107.566406 47.214844 107.488281 47.214844 C 107.414062 47.214844 107.339844 47.234375 107.273438 47.269531 L 107.21875 47.300781 C 106.742188 47.574219 107.171875 48.308594 107.648438 48.035156 L 107.707031 48.003906 L 107.0625 47.636719 C 107.0625 49.019531 107.0625 50.40625 107.0625 51.789062 C 107.0625 54.195312 107.0625 56.601562 107.0625 59.003906 C 107.0625 61.71875 107.0625 64.433594 107.0625 67.144531 C 107.0625 69.453125 107.0625 71.765625 107.0625 74.074219 C 107.0625 75.265625 107.0625 76.457031 107.0625 77.652344 L 107.0625 77.757812 L 107.273438 77.390625 C 105.324219 78.511719 103.371094 79.632812 101.417969 80.753906 C 101.214844 80.871094 101.011719 80.984375 100.8125 81.101562 L 101.457031 81.46875 C 101.457031 80.191406 101.457031 78.914062 101.457031 77.636719 C 101.457031 75.320312 101.457031 73.007812 101.457031 70.695312 C 101.457031 68.003906 101.457031 65.3125 101.457031 62.617188 C 101.457031 60.269531 101.457031 57.921875 101.457031 55.574219 C 101.457031 54.226562 101.457031 52.878906 101.457031 51.535156 L 101.457031 51.347656 L 101.242188 51.710938 L 107.648438 48.035156 C 108.128906 47.761719 107.699219 47.027344 107.21875 47.300781 Z M 107.21875 47.300781 " fill-opacity="1" fill-rule="nonzero"/><path fill="#211715" d="M 87.484375 80.398438 C 87.484375 83.273438 87.488281 86.144531 87.488281 89.019531 C 87.488281 89.09375 87.507812 89.164062 87.546875 89.230469 C 87.585938 89.296875 87.640625 89.347656 87.703125 89.382812 C 87.769531 89.421875 87.84375 89.441406 87.917969 89.441406 C 87.992188 89.441406 88.066406 89.421875 88.132812 89.386719 C 89.683594 88.480469 91.246094 87.597656 92.800781 86.703125 L 94.242188 85.878906 C 94.488281 85.738281 94.789062 85.625 94.808594 85.300781 C 94.808594 85.253906 94.808594 85.207031 94.808594 85.160156 C 94.808594 84.714844 94.808594 84.269531 94.808594 83.820312 C 94.808594 82.050781 94.808594 80.277344 94.808594 78.503906 C 94.808594 76.347656 94.804688 74.191406 94.804688 72.035156 C 94.804688 70.410156 94.804688 68.78125 94.804688 67.15625 L 94.804688 66.796875 C 94.804688 66.71875 94.785156 66.648438 94.746094 66.585938 C 94.707031 66.519531 94.65625 66.46875 94.589844 66.429688 C 94.523438 66.394531 94.453125 66.375 94.375 66.375 C 94.300781 66.375 94.226562 66.390625 94.160156 66.429688 L 89.972656 68.832031 C 89.246094 69.25 88.5 69.644531 87.789062 70.085938 C 87.566406 70.199219 87.464844 70.382812 87.484375 70.628906 L 87.484375 70.988281 C 87.484375 72.949219 87.484375 74.914062 87.484375 76.875 C 87.484375 78.085938 87.484375 79.300781 87.484375 80.511719 C 87.484375 81.058594 88.339844 81.058594 88.339844 80.511719 C 88.339844 77.582031 88.339844 74.652344 88.339844 71.722656 L 88.339844 70.503906 L 88.128906 70.871094 L 94.589844 67.164062 L 93.945312 66.796875 C 93.945312 69.277344 93.945312 71.757812 93.945312 74.242188 C 93.945312 77.179688 93.949219 80.117188 93.949219 83.058594 C 93.949219 83.808594 93.949219 84.558594 93.949219 85.308594 L 94.160156 84.941406 C 92.207031 86.0625 90.253906 87.183594 88.304688 88.300781 C 88.101562 88.417969 87.898438 88.535156 87.695312 88.652344 L 88.339844 89.019531 C 88.339844 86.144531 88.339844 83.269531 88.339844 80.398438 C 88.339844 79.851562 87.484375 79.847656 87.484375 80.398438 Z M 87.484375 80.398438 " fill-opacity="1" fill-rule="nonzero"/><path fill="#211715" d="M 119.273438 43.324219 C 121.136719 42.253906 123 41.183594 124.863281 40.109375 C 125.339844 39.835938 124.910156 39.101562 124.433594 39.375 C 122.570312 40.445312 120.703125 41.519531 118.839844 42.589844 C 118.363281 42.863281 118.792969 43.597656 119.273438 43.324219 Z M 119.273438 43.324219 " fill-opacity="1" fill-rule="nonzero"/><g clip-path="url(#95d2628a27)"><path fill="#211715" d="M 71.328125 63.253906 C 72.65625 62.492188 73.988281 61.730469 75.316406 60.964844 L 81.253906 57.558594 L 83.980469 55.992188 C 84.457031 55.71875 84.027344 54.984375 83.546875 55.257812 C 81.78125 56.273438 80.015625 57.285156 78.25 58.300781 L 72.675781 61.5 L 70.898438 62.523438 C 70.421875 62.792969 70.851562 63.527344 71.328125 63.253906 Z M 71.328125 63.253906 " fill-opacity="1" fill-rule="nonzero"/></g><g clip-path="url(#6d6afcbbd8)"><path fill="#ffffff" d="M 143.066406 98.085938 L 142.851562 97.972656 C 142.175781 98.292969 140.042969 98.335938 139.640625 98.042969 C 138.867188 98.925781 137.757812 99.050781 136.757812 98.917969 C 136.621094 98.910156 136.484375 98.882812 136.355469 98.839844 C 135.992188 98.71875 135.671875 98.53125 135.386719 98.277344 C 135.382812 98.277344 135.378906 98.273438 135.375 98.269531 C 135.300781 98.277344 135.253906 98.28125 135.253906 98.28125 C 135.089844 98.183594 134.585938 98.285156 134.378906 98.59375 C 134.175781 98.902344 134.179688 99.496094 134.296875 99.847656 C 134.550781 100.609375 135.292969 101 136.058594 101.273438 C 136.859375 101.574219 137.683594 101.648438 138.527344 101.492188 C 138.894531 101.398438 139.167969 101.1875 139.347656 100.855469 C 139.449219 100.667969 139.511719 100.46875 139.535156 100.257812 L 140.851562 100.558594 C 141.117188 100.628906 141.390625 100.660156 141.667969 100.664062 C 141.800781 100.660156 141.929688 100.652344 142.0625 100.640625 C 142.472656 100.617188 142.796875 100.441406 143.039062 100.113281 C 143.171875 99.863281 143.234375 99.597656 143.230469 99.3125 C 143.242188 99.035156 143.058594 98.363281 143.066406 98.085938 Z M 143.066406 98.085938 " fill-opacity="1" fill-rule="nonzero"/></g><path fill="#ffffff" d="M 139.410156 69.175781 C 139.375 69.347656 139.308594 69.507812 139.210938 69.652344 C 139.011719 69.945312 138.75 70.175781 138.429688 70.335938 C 138.710938 70.839844 139.082031 71.265625 139.542969 71.617188 C 140.003906 71.96875 140.515625 72.210938 141.082031 72.347656 C 140.878906 72.53125 140.714844 72.742188 140.59375 72.988281 C 140.113281 72.957031 139.640625 72.992188 139.167969 73.097656 C 137.992188 73.324219 136.367188 73.855469 135.941406 74.128906 C 135.671875 74.308594 135.4375 74.527344 135.234375 74.785156 L 135.507812 73.914062 C 135.617188 73.585938 135.617188 73.261719 135.515625 72.933594 C 135.378906 72.609375 135.15625 72.363281 134.84375 72.195312 L 134.957031 71.59375 C 134.953125 71.59375 134.953125 71.589844 134.949219 71.589844 C 134.402344 71.015625 134.054688 70.339844 133.914062 69.5625 C 133.785156 68.882812 133.796875 68.203125 133.949219 67.527344 C 134.101562 66.847656 134.382812 66.230469 134.796875 65.671875 C 134.984375 65.417969 135.195312 65.1875 135.425781 64.976562 C 136.125 66.191406 137.070312 67.171875 138.257812 67.925781 C 138.46875 67.875 138.671875 67.890625 138.871094 67.980469 C 139.070312 68.066406 139.222656 68.203125 139.328125 68.394531 C 139.445312 68.644531 139.472656 68.90625 139.410156 69.175781 Z M 139.410156 69.175781 " fill-opacity="1" fill-rule="nonzero"/><path fill="#ffffff" d="M 134.394531 72.023438 C 134.15625 71.960938 133.914062 71.957031 133.671875 72.011719 C 133.5 72.046875 133.339844 72.113281 133.191406 72.210938 C 133.046875 72.304688 132.917969 72.425781 132.816406 72.566406 C 132.710938 72.707031 132.636719 72.863281 132.589844 73.03125 C 132.542969 73.199219 132.527344 73.371094 132.542969 73.542969 L 132.574219 73.96875 C 132.636719 73.972656 132.699219 73.984375 132.757812 74.011719 C 133.203125 74.21875 134.460938 74.914062 134.792969 75.128906 L 134.917969 75.207031 C 135.160156 74.832031 135.457031 74.507812 135.800781 74.226562 L 135.507812 73.914062 C 135.613281 73.585938 135.617188 73.261719 135.511719 72.933594 C 135.296875 72.441406 134.921875 72.136719 134.394531 72.023438 Z M 134.394531 72.023438 " fill-opacity="1" fill-rule="nonzero"/><g clip-path="url(#092f7cce90)"><path fill="#7a7473" d="M 137.703125 63.816406 C 136.835938 64 136.078125 64.382812 135.425781 64.976562 C 136.125 66.191406 137.070312 67.171875 138.257812 67.925781 C 138.46875 67.875 138.671875 67.890625 138.871094 67.980469 C 139.070312 68.066406 139.222656 68.203125 139.328125 68.394531 C 139.523438 68.835938 139.484375 69.253906 139.214844 69.652344 C 139.011719 69.949219 138.75 70.175781 138.429688 70.335938 C 138.710938 70.839844 139.082031 71.265625 139.542969 71.617188 C 140.003906 71.96875 140.515625 72.210938 141.082031 72.347656 C 141.101562 72.328125 141.121094 72.304688 141.144531 72.28125 C 141.738281 71.632812 142.167969 71.179688 142.53125 70.542969 C 143.0625 69.625 143.257812 68.640625 143.117188 67.59375 C 142.824219 65.546875 141.070312 63.835938 138.992188 63.722656 C 138.558594 63.695312 138.128906 63.726562 137.703125 63.816406 Z M 137.703125 63.816406 " fill-opacity="1" fill-rule="nonzero"/></g><path fill="#211715" d="M 136.027344 67.683594 C 135.996094 67.894531 135.890625 68.054688 135.707031 68.164062 C 135.582031 68.230469 135.449219 68.242188 135.3125 68.203125 C 135.121094 68.152344 134.988281 68.035156 134.914062 67.851562 C 134.867188 67.707031 134.863281 67.566406 134.90625 67.425781 C 134.953125 67.28125 135.035156 67.164062 135.152344 67.074219 C 135.273438 66.992188 135.402344 66.964844 135.542969 66.984375 C 135.6875 67.003906 135.804688 67.070312 135.894531 67.179688 C 136.019531 67.324219 136.0625 67.492188 136.027344 67.683594 Z M 136.027344 67.683594 " fill-opacity="1" fill-rule="nonzero"/><g clip-path="url(#0489a56b4b)"><path fill="#ffffff" d="M 141.171875 85.984375 C 141.414062 85.945312 141.660156 85.90625 141.914062 85.867188 C 142.261719 85.808594 142.839844 85.660156 143.027344 85.4375 C 143.265625 85.152344 143.253906 84.851562 143.265625 84.433594 C 143.363281 81.1875 143.554688 78.769531 142.984375 76.003906 C 142.804688 75.136719 142.554688 74.238281 141.933594 73.609375 C 141.308594 72.976562 140.511719 72.835938 139.167969 73.097656 C 137.988281 73.324219 136.367188 73.855469 135.941406 74.128906 C 135.527344 74.421875 135.1875 74.78125 134.917969 75.207031 L 134.792969 75.125 C 134.460938 74.914062 133.203125 74.21875 132.757812 74.007812 C 132.660156 73.972656 132.5625 73.957031 132.457031 73.96875 C 132.328125 73.988281 132.261719 74.132812 132.222656 74.257812 C 131.910156 75.347656 131.679688 76.457031 131.527344 77.578125 C 131.328125 78.71875 131.304688 79.863281 131.460938 81.011719 C 131.539062 81.46875 131.769531 81.832031 132.152344 82.097656 C 132.46875 82.363281 132.945312 82.335938 133.347656 82.242188 C 133.769531 82.144531 134.160156 81.976562 134.519531 81.738281 L 134.503906 83.140625 C 134.503906 83.796875 134.53125 84.554688 134.53125 84.554688 C 134.519531 84.910156 134.707031 85.511719 135 85.710938 C 135.261719 85.890625 135.609375 85.96875 136.394531 86.113281 C 137.996094 86.402344 139.433594 86.253906 141.171875 85.984375 Z M 141.171875 85.984375 " fill-opacity="1" fill-rule="nonzero"/></g><g clip-path="url(#497537972a)"><path fill="#cfcfcf" d="M 138.234375 86.269531 C 137.617188 86.273438 137.003906 86.222656 136.394531 86.113281 C 135.511719 85.953125 135.179688 85.871094 134.90625 85.636719 C 134.890625 87.550781 135.042969 95.0625 135.191406 97.792969 L 135.238281 98.019531 C 135.300781 98.347656 135.8125 98.625 136.355469 98.839844 C 136.484375 98.882812 136.617188 98.910156 136.757812 98.917969 C 137.753906 99.050781 138.867188 98.925781 139.636719 98.042969 C 140.132812 98.398438 143.214844 98.261719 143.050781 97.714844 C 142.953125 95 142.863281 89.519531 142.945312 87.085938 C 142.945312 87.085938 142.925781 86.25 142.90625 85.542969 C 142.59375 85.707031 142.265625 85.816406 141.917969 85.867188 C 140.699219 86.097656 139.472656 86.230469 138.234375 86.269531 Z M 138.234375 86.269531 " fill-opacity="1" fill-rule="nonzero"/></g><path fill="#211715" d="M 134.476562 86.164062 C 134.488281 89.324219 134.566406 92.488281 134.675781 95.644531 C 134.699219 96.371094 134.726562 97.097656 134.765625 97.820312 C 134.792969 98.363281 135.648438 98.367188 135.621094 97.820312 C 135.445312 94.664062 135.402344 91.5 135.355469 88.339844 C 135.34375 87.617188 135.335938 86.890625 135.332031 86.164062 C 135.332031 85.617188 134.476562 85.617188 134.476562 86.164062 Z M 134.476562 86.164062 " fill-opacity="1" fill-rule="nonzero"/><g clip-path="url(#7ec1d559f4)"><path fill="#211715" d="M 142.515625 87.085938 C 142.421875 90.042969 142.496094 93.011719 142.570312 95.96875 C 142.589844 96.675781 142.609375 97.382812 142.640625 98.085938 C 142.660156 98.628906 143.515625 98.632812 143.496094 98.085938 C 143.375 95.128906 143.332031 92.160156 143.34375 89.199219 C 143.34375 88.496094 143.351562 87.789062 143.371094 87.085938 C 143.390625 86.539062 142.535156 86.539062 142.515625 87.085938 Z M 142.515625 87.085938 " fill-opacity="1" fill-rule="nonzero"/></g><path fill="#211715" d="M 139.160156 90.097656 C 139.039062 92.433594 138.976562 94.777344 138.949219 97.117188 C 138.945312 97.519531 138.933594 97.929688 138.964844 98.332031 C 139.003906 98.875 139.859375 98.878906 139.820312 98.332031 C 139.75 97.425781 139.8125 96.496094 139.832031 95.589844 C 139.863281 94.269531 139.902344 92.945312 139.953125 91.625 C 139.972656 91.113281 139.988281 90.605469 140.015625 90.097656 C 140.046875 89.550781 139.191406 89.554688 139.160156 90.097656 Z M 139.160156 90.097656 " fill-opacity="1" fill-rule="nonzero"/><path fill="#211715" d="M 134.824219 98.132812 C 134.929688 98.546875 135.320312 98.816406 135.683594 99.003906 C 135.902344 99.125 136.128906 99.222656 136.371094 99.289062 C 136.601562 99.335938 136.835938 99.367188 137.070312 99.378906 C 138.019531 99.472656 138.871094 99.230469 139.628906 98.648438 C 139.710938 98.566406 139.75 98.464844 139.75 98.347656 C 139.75 98.230469 139.710938 98.132812 139.628906 98.046875 C 139.542969 97.96875 139.441406 97.929688 139.324219 97.929688 C 139.207031 97.929688 139.105469 97.96875 139.023438 98.046875 C 138.476562 98.4375 137.867188 98.601562 137.195312 98.535156 C 136.863281 98.53125 136.542969 98.464844 136.238281 98.332031 C 136.078125 98.261719 135.925781 98.175781 135.785156 98.070312 C 135.742188 98.035156 135.703125 98 135.664062 97.957031 C 135.683594 97.976562 135.679688 97.96875 135.652344 97.925781 C 135.664062 97.960938 135.664062 97.957031 135.648438 97.910156 C 135.511719 97.378906 134.6875 97.601562 134.824219 98.132812 Z M 134.824219 98.132812 " fill-opacity="1" fill-rule="nonzero"/><g clip-path="url(#ee180c9f8c)"><path fill="#211715" d="M 139.6875 98.527344 C 140.238281 98.664062 140.796875 98.707031 141.359375 98.65625 C 141.949219 98.660156 142.519531 98.554688 143.066406 98.339844 C 143.167969 98.277344 143.234375 98.191406 143.265625 98.078125 C 143.292969 97.964844 143.28125 97.859375 143.222656 97.757812 C 143.160156 97.660156 143.074219 97.59375 142.960938 97.566406 C 142.847656 97.535156 142.738281 97.546875 142.636719 97.605469 C 142.558594 97.640625 142.738281 97.570312 142.652344 97.601562 C 142.628906 97.605469 142.609375 97.613281 142.589844 97.621094 C 142.539062 97.636719 142.488281 97.652344 142.4375 97.664062 C 142.320312 97.695312 142.199219 97.71875 142.078125 97.738281 L 141.988281 97.753906 C 141.9375 97.761719 142.054688 97.746094 141.972656 97.753906 C 141.902344 97.761719 141.832031 97.769531 141.761719 97.777344 C 141.613281 97.792969 141.46875 97.800781 141.320312 97.808594 C 141.042969 97.820312 140.761719 97.816406 140.484375 97.800781 C 140.425781 97.796875 140.367188 97.789062 140.308594 97.785156 C 140.277344 97.78125 140.242188 97.777344 140.210938 97.773438 C 140.324219 97.785156 140.222656 97.773438 140.199219 97.773438 C 140.105469 97.757812 140.007812 97.734375 139.917969 97.707031 C 139.800781 97.675781 139.695312 97.691406 139.589844 97.75 C 139.488281 97.804688 139.421875 97.890625 139.390625 98.003906 C 139.359375 98.117188 139.371094 98.226562 139.429688 98.328125 C 139.488281 98.429688 139.574219 98.496094 139.6875 98.527344 Z M 139.6875 98.527344 " fill-opacity="1" fill-rule="nonzero"/></g><g clip-path="url(#de5fd35245)"><path fill="#211715" d="M 135.46875 97.914062 C 135.101562 97.765625 134.753906 97.792969 134.417969 98.003906 C 134.03125 98.234375 133.828125 98.578125 133.804688 99.023438 C 133.757812 99.445312 133.824219 99.847656 134.011719 100.234375 C 134.195312 100.617188 134.46875 100.921875 134.828125 101.152344 C 135.640625 101.671875 136.527344 101.953125 137.496094 101.992188 C 138.398438 102.035156 139.371094 101.847656 139.78125 100.945312 C 140.128906 100.171875 139.988281 99.261719 139.804688 98.464844 C 139.679688 97.929688 138.855469 98.15625 138.976562 98.691406 C 139.082031 99.097656 139.132812 99.507812 139.132812 99.925781 C 139.132812 100.050781 139.121094 100.175781 139.097656 100.300781 C 139.082031 100.355469 139.070312 100.414062 139.050781 100.472656 C 139.046875 100.488281 138.984375 100.636719 139.027344 100.550781 C 138.660156 101.335938 137.535156 101.203125 136.828125 101.050781 C 136.132812 100.898438 135.210938 100.609375 134.820312 99.964844 C 134.644531 99.660156 134.59375 99.339844 134.671875 99 C 134.6875 98.867188 134.753906 98.773438 134.875 98.71875 C 134.933594 98.695312 135.003906 98.695312 135.058594 98.667969 C 135.085938 98.65625 135.117188 98.6875 135.035156 98.648438 C 135.53125 98.882812 135.964844 98.152344 135.46875 97.914062 Z M 135.46875 97.914062 " fill-opacity="1" fill-rule="nonzero"/></g><g clip-path="url(#348a12e885)"><path fill="#211715" d="M 142.640625 98.085938 C 142.65625 98.40625 142.703125 98.722656 142.777344 99.035156 C 142.789062 99.078125 142.792969 99.121094 142.796875 99.164062 C 142.796875 99.050781 142.792969 99.140625 142.796875 99.167969 C 142.804688 99.230469 142.804688 99.289062 142.804688 99.351562 C 142.800781 99.402344 142.796875 99.453125 142.792969 99.503906 C 142.785156 99.605469 142.804688 99.460938 142.785156 99.550781 C 142.773438 99.605469 142.765625 99.65625 142.75 99.710938 C 142.746094 99.726562 142.707031 99.84375 142.71875 99.8125 C 142.734375 99.777344 142.675781 99.882812 142.671875 99.898438 C 142.644531 99.9375 142.644531 99.941406 142.671875 99.902344 C 142.660156 99.917969 142.648438 99.933594 142.632812 99.945312 C 142.605469 99.980469 142.574219 100.007812 142.539062 100.039062 C 142.605469 99.980469 142.5 100.058594 142.484375 100.070312 C 142.445312 100.09375 142.40625 100.109375 142.367188 100.132812 C 142.320312 100.152344 142.320312 100.152344 142.363281 100.132812 C 142.34375 100.140625 142.324219 100.148438 142.308594 100.152344 C 142.21875 100.179688 142.132812 100.203125 142.042969 100.21875 C 142.011719 100.222656 142.019531 100.222656 142.0625 100.214844 C 142.03125 100.21875 141.996094 100.222656 141.964844 100.222656 C 141.914062 100.226562 141.859375 100.230469 141.804688 100.234375 C 141.707031 100.238281 141.605469 100.238281 141.507812 100.234375 C 141.457031 100.230469 141.410156 100.226562 141.363281 100.222656 C 141.3125 100.21875 141.308594 100.21875 141.351562 100.222656 C 141.332031 100.21875 141.3125 100.21875 141.289062 100.214844 C 141.179688 100.195312 141.070312 100.171875 140.960938 100.148438 C 140.847656 100.117188 140.742188 100.128906 140.636719 100.1875 C 140.535156 100.246094 140.46875 100.332031 140.4375 100.445312 C 140.40625 100.558594 140.417969 100.664062 140.476562 100.769531 C 140.535156 100.871094 140.621094 100.9375 140.734375 100.96875 C 141.621094 101.171875 142.886719 101.203125 143.417969 100.3125 C 143.628906 99.925781 143.703125 99.515625 143.640625 99.082031 C 143.613281 98.875 143.574219 98.671875 143.539062 98.464844 C 143.53125 98.421875 143.523438 98.375 143.515625 98.332031 C 143.511719 98.308594 143.507812 98.289062 143.503906 98.269531 C 143.5 98.21875 143.5 98.226562 143.507812 98.289062 C 143.492188 98.222656 143.488281 98.15625 143.492188 98.085938 C 143.492188 97.96875 143.453125 97.871094 143.367188 97.785156 C 143.285156 97.703125 143.183594 97.664062 143.066406 97.664062 C 142.949219 97.664062 142.847656 97.703125 142.765625 97.785156 C 142.679688 97.871094 142.636719 97.96875 142.640625 98.085938 Z M 142.640625 98.085938 " fill-opacity="1" fill-rule="nonzero"/></g><path fill="#211715" d="M 136.40625 79.136719 C 135.828125 79.925781 135.210938 80.761719 134.386719 81.320312 C 133.992188 81.597656 133.558594 81.78125 133.078125 81.867188 C 132.855469 81.90625 132.644531 81.875 132.445312 81.769531 C 132.246094 81.667969 132.097656 81.511719 132.003906 81.308594 C 131.90625 81.101562 131.851562 80.886719 131.84375 80.660156 C 131.808594 80.34375 131.789062 80.023438 131.785156 79.703125 C 131.777344 79.0625 131.824219 78.421875 131.921875 77.789062 C 132.011719 77.199219 132.109375 76.605469 132.226562 76.019531 C 132.285156 75.726562 132.347656 75.433594 132.421875 75.140625 C 132.460938 74.980469 132.503906 74.820312 132.546875 74.660156 C 132.566406 74.59375 132.585938 74.53125 132.605469 74.46875 C 132.617188 74.433594 132.628906 74.398438 132.636719 74.359375 C 132.652344 74.3125 132.617188 74.320312 132.53125 74.390625 C 132.53125 74.386719 132.90625 74.558594 132.933594 74.574219 C 133.148438 74.6875 133.363281 74.800781 133.574219 74.917969 C 133.910156 75.101562 134.25 75.285156 134.578125 75.492188 C 135.042969 75.789062 135.472656 75.054688 135.007812 74.761719 C 134.65625 74.535156 134.28125 74.335938 133.914062 74.132812 C 133.539062 73.929688 133.097656 73.609375 132.667969 73.554688 C 131.835938 73.441406 131.71875 74.414062 131.574219 75.011719 C 131.402344 75.726562 131.277344 76.449219 131.160156 77.167969 C 131.03125 77.90625 130.953125 78.648438 130.929688 79.394531 C 130.925781 79.734375 130.9375 80.074219 130.964844 80.410156 C 130.972656 80.773438 131.035156 81.128906 131.144531 81.476562 C 131.359375 82.019531 131.855469 82.570312 132.449219 82.695312 C 133.050781 82.820312 133.695312 82.632812 134.242188 82.382812 C 135.492188 81.808594 136.359375 80.640625 137.144531 79.566406 C 137.203125 79.464844 137.21875 79.355469 137.1875 79.242188 C 137.160156 79.128906 137.09375 79.042969 136.992188 78.984375 C 136.890625 78.925781 136.78125 78.914062 136.667969 78.941406 C 136.554688 78.972656 136.46875 79.035156 136.40625 79.136719 Z M 136.40625 79.136719 " fill-opacity="1" fill-rule="nonzero"/><path fill="#211715" d="M 135.917969 74.027344 C 135.996094 73.8125 136.035156 73.589844 136.027344 73.363281 C 136.019531 73.132812 135.96875 72.914062 135.878906 72.707031 C 135.789062 72.496094 135.664062 72.308594 135.5 72.148438 C 135.339844 71.988281 135.152344 71.859375 134.941406 71.769531 C 134.152344 71.402344 133.15625 71.5 132.574219 72.1875 C 132.238281 72.578125 132.085938 73.03125 132.117188 73.542969 C 132.117188 73.660156 132.160156 73.757812 132.242188 73.84375 C 132.324219 73.925781 132.425781 73.964844 132.542969 73.96875 C 132.660156 73.96875 132.761719 73.925781 132.84375 73.84375 C 132.925781 73.761719 132.96875 73.660156 132.972656 73.542969 C 132.96875 73.488281 132.964844 73.433594 132.96875 73.378906 C 132.96875 73.363281 132.988281 73.203125 132.972656 73.292969 C 132.988281 73.203125 133.011719 73.117188 133.042969 73.027344 C 133.058594 72.984375 133.058594 72.980469 133.042969 73.023438 C 133.050781 73 133.0625 72.976562 133.074219 72.953125 C 133.09375 72.921875 133.113281 72.886719 133.132812 72.855469 C 133.140625 72.839844 133.234375 72.722656 133.175781 72.789062 C 133.210938 72.75 133.246094 72.710938 133.28125 72.675781 C 133.308594 72.652344 133.339844 72.625 133.367188 72.601562 C 133.300781 72.65625 133.425781 72.566406 133.4375 72.554688 C 133.484375 72.527344 133.53125 72.503906 133.578125 72.480469 C 133.503906 72.519531 133.617188 72.46875 133.625 72.464844 C 133.675781 72.445312 133.730469 72.433594 133.785156 72.421875 C 133.808594 72.414062 133.835938 72.410156 133.863281 72.40625 C 133.8125 72.410156 133.816406 72.410156 133.867188 72.40625 C 133.960938 72.398438 134.050781 72.398438 134.144531 72.40625 C 134.195312 72.410156 134.199219 72.410156 134.148438 72.40625 C 134.175781 72.410156 134.203125 72.414062 134.230469 72.417969 C 134.269531 72.425781 134.308594 72.4375 134.347656 72.449219 C 134.398438 72.460938 134.449219 72.480469 134.5 72.5 C 134.421875 72.46875 134.566406 72.53125 134.578125 72.539062 C 134.613281 72.554688 134.648438 72.574219 134.683594 72.597656 C 134.695312 72.605469 134.824219 72.695312 134.761719 72.644531 C 134.832031 72.703125 134.898438 72.765625 134.960938 72.832031 C 134.992188 72.871094 134.996094 72.875 134.96875 72.839844 C 134.984375 72.859375 135 72.882812 135.015625 72.902344 C 135.042969 72.945312 135.066406 72.992188 135.09375 73.039062 C 135.136719 73.113281 135.085938 72.988281 135.113281 73.082031 C 135.132812 73.140625 135.148438 73.199219 135.15625 73.257812 C 135.148438 73.199219 135.160156 73.335938 135.160156 73.351562 C 135.160156 73.40625 135.15625 73.460938 135.152344 73.519531 C 135.148438 73.570312 135.148438 73.582031 135.152344 73.542969 C 135.148438 73.574219 135.144531 73.605469 135.136719 73.632812 C 135.125 73.691406 135.113281 73.746094 135.09375 73.800781 C 135.0625 73.914062 135.078125 74.019531 135.136719 74.121094 C 135.195312 74.222656 135.28125 74.289062 135.394531 74.320312 C 135.507812 74.351562 135.617188 74.339844 135.71875 74.28125 C 135.820312 74.222656 135.886719 74.140625 135.921875 74.027344 Z M 135.917969 74.027344 " fill-opacity="1" fill-rule="nonzero"/><g clip-path="url(#d2c896c718)"><path fill="#211715" d="M 134.078125 83.140625 C 134.078125 83.609375 134.09375 84.078125 134.105469 84.550781 C 134.09375 85.085938 134.269531 85.554688 134.628906 85.957031 C 134.933594 86.246094 135.390625 86.347656 135.789062 86.429688 C 136.414062 86.5625 137.046875 86.648438 137.6875 86.683594 C 139.007812 86.746094 140.320312 86.546875 141.617188 86.339844 C 142.136719 86.257812 142.726562 86.191406 143.167969 85.875 C 143.675781 85.511719 143.679688 84.890625 143.695312 84.328125 C 143.773438 81.804688 143.941406 79.273438 143.554688 76.765625 C 143.371094 75.585938 143.136719 74.277344 142.292969 73.371094 C 141.558594 72.582031 140.53125 72.46875 139.511719 72.609375 C 138.285156 72.78125 137.109375 73.121094 135.984375 73.628906 C 135.425781 73.921875 134.980469 74.332031 134.644531 74.863281 C 134.203125 75.476562 133.820312 76.128906 133.503906 76.816406 C 133.449219 76.917969 133.433594 77.027344 133.464844 77.136719 C 133.492188 77.25 133.558594 77.335938 133.65625 77.398438 C 133.757812 77.457031 133.867188 77.46875 133.980469 77.441406 C 134.09375 77.410156 134.183594 77.347656 134.242188 77.246094 C 134.496094 76.699219 134.789062 76.175781 135.121094 75.671875 C 135.40625 75.234375 135.726562 74.753906 136.183594 74.476562 C 136.496094 74.308594 136.824219 74.175781 137.164062 74.078125 C 137.65625 73.910156 138.15625 73.765625 138.664062 73.640625 C 139.472656 73.445312 140.515625 73.179688 141.285156 73.636719 C 142.140625 74.144531 142.398438 75.265625 142.578125 76.160156 C 143.023438 78.332031 142.972656 80.546875 142.894531 82.746094 C 142.875 83.367188 142.851562 83.984375 142.832031 84.605469 C 142.828125 84.777344 142.839844 85.023438 142.703125 85.160156 C 142.554688 85.269531 142.386719 85.339844 142.199219 85.371094 C 141.640625 85.5 141.078125 85.597656 140.507812 85.65625 C 139.9375 85.738281 139.363281 85.800781 138.789062 85.832031 C 138.171875 85.863281 137.550781 85.84375 136.933594 85.769531 C 136.402344 85.730469 135.886719 85.621094 135.386719 85.441406 C 135.25 85.382812 135.152344 85.28125 135.089844 85.144531 C 135.003906 84.957031 134.960938 84.761719 134.960938 84.554688 C 134.949219 84.082031 134.933594 83.613281 134.933594 83.140625 C 134.933594 82.59375 134.078125 82.59375 134.078125 83.140625 Z M 134.078125 83.140625 " fill-opacity="1" fill-rule="nonzero"/></g><g clip-path="url(#916547a7bf)"><path fill="#211715" d="M 141.011719 73.109375 C 141.25 72.773438 141.515625 72.460938 141.8125 72.179688 C 142.144531 71.824219 142.445312 71.449219 142.71875 71.050781 C 143.28125 70.199219 143.574219 69.261719 143.589844 68.242188 C 143.582031 67.375 143.363281 66.5625 142.9375 65.808594 C 142.511719 65.050781 141.925781 64.445312 141.1875 63.988281 C 139.695312 63.066406 137.796875 63.09375 136.253906 63.886719 C 135.410156 64.332031 134.734375 64.960938 134.226562 65.761719 C 133.71875 66.566406 133.441406 67.441406 133.402344 68.390625 C 133.300781 70.496094 134.65625 72.933594 137.035156 72.863281 C 137.585938 72.84375 137.585938 71.996094 137.035156 72.011719 C 135.273438 72.066406 134.289062 70.289062 134.253906 68.738281 C 134.230469 67.933594 134.414062 67.179688 134.796875 66.46875 C 135.183594 65.761719 135.71875 65.199219 136.410156 64.773438 C 137.644531 64.035156 139.25 63.894531 140.535156 64.589844 C 141.15625 64.929688 141.660156 65.390625 142.050781 65.980469 C 142.4375 66.570312 142.660156 67.214844 142.722656 67.914062 C 142.78125 68.914062 142.523438 69.828125 141.957031 70.65625 C 141.691406 71.03125 141.398438 71.386719 141.082031 71.71875 C 140.777344 72.011719 140.507812 72.332031 140.273438 72.679688 C 139.996094 73.152344 140.734375 73.578125 141.011719 73.109375 Z M 141.011719 73.109375 " fill-opacity="1" fill-rule="nonzero"/></g><path fill="#211715" d="M 135.214844 65.457031 C 135.925781 66.582031 136.839844 67.507812 137.957031 68.238281 C 138.058594 68.296875 138.167969 68.308594 138.28125 68.28125 C 138.394531 68.25 138.484375 68.183594 138.542969 68.085938 C 138.597656 67.984375 138.613281 67.875 138.582031 67.765625 C 138.554688 67.652344 138.488281 67.566406 138.390625 67.503906 C 138.261719 67.421875 138.132812 67.332031 138.011719 67.242188 L 137.921875 67.179688 L 137.886719 67.152344 C 137.910156 67.167969 137.910156 67.167969 137.886719 67.152344 C 137.824219 67.101562 137.761719 67.050781 137.699219 67 C 137.46875 66.8125 137.246094 66.609375 137.039062 66.394531 C 136.828125 66.183594 136.632812 65.957031 136.441406 65.722656 L 136.414062 65.691406 C 136.433594 65.714844 136.433594 65.714844 136.414062 65.691406 C 136.394531 65.660156 136.371094 65.632812 136.347656 65.601562 C 136.304688 65.546875 136.261719 65.484375 136.222656 65.425781 C 136.128906 65.296875 136.039062 65.164062 135.953125 65.027344 C 135.894531 64.925781 135.808594 64.859375 135.691406 64.828125 C 135.578125 64.800781 135.472656 64.816406 135.367188 64.875 C 135.265625 64.933594 135.199219 65.019531 135.171875 65.132812 C 135.140625 65.246094 135.15625 65.355469 135.214844 65.457031 Z M 135.214844 65.457031 " fill-opacity="1" fill-rule="nonzero"/><path fill="#211715" d="M 138.359375 68.335938 C 138.382812 68.332031 138.484375 68.320312 138.382812 68.328125 C 138.414062 68.324219 138.449219 68.320312 138.484375 68.320312 C 138.519531 68.320312 138.550781 68.324219 138.585938 68.328125 C 138.527344 68.320312 138.539062 68.320312 138.589844 68.332031 C 138.621094 68.339844 138.65625 68.355469 138.6875 68.359375 C 138.734375 68.371094 138.628906 68.328125 138.695312 68.363281 C 138.726562 68.382812 138.757812 68.394531 138.785156 68.414062 C 138.808594 68.429688 138.871094 68.492188 138.808594 68.429688 C 138.832031 68.453125 138.859375 68.476562 138.886719 68.5 C 138.945312 68.558594 138.855469 68.441406 138.902344 68.519531 C 138.917969 68.542969 138.933594 68.566406 138.949219 68.59375 C 138.957031 68.609375 138.964844 68.625 138.972656 68.644531 C 138.957031 68.605469 138.957031 68.601562 138.964844 68.628906 C 138.976562 68.65625 138.984375 68.6875 138.992188 68.71875 C 139 68.75 139.015625 68.835938 139.007812 68.757812 C 139.011719 68.835938 139.015625 68.914062 139.011719 68.992188 C 139.007812 69.082031 139.027344 68.9375 139.003906 69.035156 C 138.996094 69.066406 138.992188 69.097656 138.984375 69.128906 C 138.972656 69.167969 138.960938 69.207031 138.949219 69.242188 C 138.9375 69.269531 138.914062 69.324219 138.941406 69.269531 C 138.90625 69.339844 138.867188 69.40625 138.824219 69.472656 C 138.753906 69.574219 138.875 69.417969 138.792969 69.511719 C 138.769531 69.542969 138.742188 69.570312 138.714844 69.601562 C 138.664062 69.65625 138.609375 69.707031 138.550781 69.753906 C 138.535156 69.769531 138.480469 69.8125 138.527344 69.773438 C 138.496094 69.800781 138.460938 69.824219 138.425781 69.84375 C 138.359375 69.890625 138.289062 69.929688 138.21875 69.964844 C 138.183594 69.984375 138.148438 70 138.109375 70.015625 C 138.179688 69.988281 138.085938 70.023438 138.066406 70.03125 C 137.953125 70.0625 137.867188 70.128906 137.808594 70.230469 C 137.75 70.332031 137.738281 70.441406 137.769531 70.554688 C 137.800781 70.667969 137.867188 70.75 137.972656 70.808594 C 138.074219 70.867188 138.183594 70.878906 138.296875 70.851562 C 139.128906 70.558594 139.859375 69.835938 139.871094 68.910156 C 139.886719 68.425781 139.695312 68.035156 139.304688 67.738281 C 138.949219 67.484375 138.558594 67.410156 138.136719 67.515625 C 138.023438 67.550781 137.9375 67.617188 137.878906 67.71875 C 137.820312 67.820312 137.804688 67.925781 137.835938 68.039062 C 137.871094 68.152344 137.9375 68.234375 138.039062 68.292969 C 138.140625 68.351562 138.25 68.367188 138.363281 68.335938 Z M 138.359375 68.335938 " fill-opacity="1" fill-rule="nonzero"/><path fill="#211715" d="M 138.195312 70.773438 C 138.804688 71.710938 139.644531 72.347656 140.714844 72.683594 C 140.828125 72.714844 140.9375 72.699219 141.039062 72.644531 C 141.140625 72.585938 141.210938 72.5 141.242188 72.386719 C 141.269531 72.273438 141.253906 72.167969 141.195312 72.066406 C 141.140625 71.964844 141.054688 71.898438 140.941406 71.863281 C 140.832031 71.828125 140.722656 71.789062 140.613281 71.746094 C 140.710938 71.78125 140.601562 71.742188 140.589844 71.734375 C 140.566406 71.726562 140.546875 71.714844 140.527344 71.707031 C 140.476562 71.683594 140.421875 71.65625 140.371094 71.632812 C 140.164062 71.523438 139.96875 71.402344 139.777344 71.265625 C 139.726562 71.226562 139.855469 71.328125 139.769531 71.257812 C 139.75 71.242188 139.726562 71.222656 139.703125 71.207031 C 139.660156 71.167969 139.617188 71.132812 139.574219 71.09375 C 139.488281 71.019531 139.40625 70.9375 139.328125 70.855469 C 139.289062 70.8125 139.25 70.769531 139.210938 70.726562 C 139.195312 70.703125 139.175781 70.679688 139.15625 70.660156 C 139.148438 70.652344 139.089844 70.574219 139.125 70.621094 C 139.160156 70.664062 139.101562 70.585938 139.09375 70.578125 C 139.078125 70.554688 139.058594 70.53125 139.042969 70.507812 C 139.003906 70.453125 138.96875 70.398438 138.933594 70.34375 C 138.875 70.242188 138.785156 70.175781 138.671875 70.148438 C 138.558594 70.117188 138.449219 70.132812 138.347656 70.191406 C 138.246094 70.25 138.179688 70.335938 138.148438 70.449219 C 138.121094 70.566406 138.132812 70.671875 138.195312 70.773438 Z M 138.195312 70.773438 " fill-opacity="1" fill-rule="nonzero"/><g fill="#0c52a1" fill-opacity="1"><g transform="translate(2.445124, 25.303164)"><g><path d="M 7.453125 0.335938 C 11.539062 0.335938 13.953125 -2.125 13.953125 -5.019531 C 13.953125 -7.574219 12.542969 -8.9375 10.394531 -9.820312 L 8.074219 -10.800781 C 6.570312 -11.398438 5.304688 -11.851562 5.304688 -13.117188 C 5.304688 -14.289062 6.308594 -14.980469 7.859375 -14.980469 C 9.320312 -14.980469 10.488281 -14.457031 11.613281 -13.523438 L 13.40625 -15.746094 C 11.972656 -17.203125 9.914062 -18.015625 7.859375 -18.015625 C 4.277344 -18.015625 1.746094 -15.792969 1.746094 -12.902344 C 1.746094 -10.320312 3.535156 -8.886719 5.328125 -8.148438 L 7.695312 -7.144531 C 9.269531 -6.476562 10.347656 -6.070312 10.347656 -4.753906 C 10.347656 -3.511719 9.367188 -2.722656 7.527344 -2.722656 C 5.972656 -2.722656 4.300781 -3.511719 3.035156 -4.683594 L 1.003906 -2.246094 C 2.722656 -0.597656 5.089844 0.335938 7.453125 0.335938 Z M 7.453125 0.335938 "/></g></g></g><g fill="#0c52a1" fill-opacity="1"><g transform="translate(17.354893, 25.303164)"><g><path d="M 5.6875 0 L 9.222656 0 L 9.222656 -14.742188 L 14.242188 -14.742188 L 14.242188 -17.679688 L 0.71875 -17.679688 L 0.71875 -14.742188 L 5.6875 -14.742188 Z M 5.6875 0 "/></g></g></g><g fill="#0c52a1" fill-opacity="1"><g transform="translate(32.288555, 25.303164)"><g><path d="M 2.175781 0 L 13.285156 0 L 13.285156 -2.960938 L 5.710938 -2.960938 L 5.710938 -7.695312 L 11.921875 -7.695312 L 11.921875 -10.65625 L 5.710938 -10.65625 L 5.710938 -14.742188 L 13.023438 -14.742188 L 13.023438 -17.679688 L 2.175781 -17.679688 Z M 2.175781 0 "/></g></g></g><g fill="#0c52a1" fill-opacity="1"><g transform="translate(46.983272, 25.303164)"><g><path d="M 2.175781 0 L 5.710938 0 L 5.710938 -6.285156 L 8.074219 -6.285156 C 11.875 -6.285156 14.910156 -8.101562 14.910156 -12.136719 C 14.910156 -16.320312 11.898438 -17.679688 7.980469 -17.679688 L 2.175781 -17.679688 Z M 5.710938 -9.078125 L 5.710938 -14.886719 L 7.71875 -14.886719 C 10.15625 -14.886719 11.445312 -14.191406 11.445312 -12.136719 C 11.445312 -10.105469 10.273438 -9.078125 7.835938 -9.078125 Z M 5.710938 -9.078125 "/></g></g></g><g fill="#0c52a1" fill-opacity="1"><g transform="translate(62.920469, 25.303164)"><g/></g></g><g fill="#0c52a1" fill-opacity="1"><g transform="translate(68.344368, 25.303164)"><g><path d="M 1.027344 0 L 12.878906 0 L 12.878906 -2.960938 L 9.03125 -2.960938 C 8.21875 -2.960938 7.046875 -2.867188 6.164062 -2.773438 C 9.390625 -5.925781 12.042969 -9.367188 12.042969 -12.566406 C 12.042969 -15.867188 9.820312 -18.015625 6.476562 -18.015625 C 4.0625 -18.015625 2.484375 -17.058594 0.859375 -15.339844 L 2.773438 -13.429688 C 3.65625 -14.40625 4.730469 -15.246094 6.019531 -15.246094 C 7.695312 -15.246094 8.671875 -14.167969 8.671875 -12.378906 C 8.671875 -9.652344 5.832031 -6.332031 1.027344 -2.03125 Z M 1.027344 0 "/></g></g></g></svg>