<svg xmlns="http://www.w3.org/2000/svg" xmlns:xlink="http://www.w3.org/1999/xlink" width="200" zoomAndPan="magnify" viewBox="0 0 150 112.499997" height="150" preserveAspectRatio="xMidYMid meet" version="1.0"><defs><g/><clipPath id="4f7f8cfa85"><path d="M 133 85 L 141.074219 85 L 141.074219 94 L 133 94 Z M 133 85 " clip-rule="nonzero"/></clipPath><clipPath id="32e5afa0d3"><path d="M 47.738281 37.863281 L 56 37.863281 L 56 47 L 47.738281 47 Z M 47.738281 37.863281 " clip-rule="nonzero"/></clipPath><clipPath id="0389d64a48"><path d="M 81 91 L 106 91 L 106 102.824219 L 81 102.824219 Z M 81 91 " clip-rule="nonzero"/></clipPath><clipPath id="86728e3c85"><path d="M 81 99 L 106 99 L 106 102.824219 L 81 102.824219 Z M 81 99 " clip-rule="nonzero"/></clipPath><clipPath id="b036ccf83f"><path d="M 81 91 L 106 91 L 106 102.824219 L 81 102.824219 Z M 81 91 " clip-rule="nonzero"/></clipPath></defs><path fill="#ffffff" d="M 137.082031 93.121094 C 137.074219 93.144531 137.058594 93.15625 137.035156 93.15625 C 137.011719 93.15625 136.996094 93.144531 136.992188 93.121094 C 136.816406 92.382812 136.457031 91.171875 135.902344 90.648438 C 135.253906 90.101562 134.511719 89.765625 133.671875 89.644531 C 133.644531 89.644531 133.628906 89.625 133.628906 89.597656 C 133.628906 89.566406 133.644531 89.550781 133.675781 89.550781 C 134.660156 89.410156 135.476562 89.113281 136.09375 88.339844 C 136.660156 87.632812 136.847656 86.898438 136.9375 86.042969 C 136.941406 86.019531 136.953125 86.003906 136.980469 86.003906 C 137.003906 86 137.019531 86.011719 137.027344 86.035156 C 137.203125 86.804688 137.628906 87.914062 138.003906 88.390625 C 138.5625 89.105469 139.304688 89.324219 140.46875 89.546875 C 140.5 89.546875 140.511719 89.5625 140.511719 89.59375 C 140.511719 89.625 140.496094 89.640625 140.464844 89.636719 C 139.527344 89.710938 138.722656 90.078125 138.054688 90.734375 C 137.480469 91.257812 137.203125 92.617188 137.082031 93.121094 Z M 137.082031 93.121094 " fill-opacity="1" fill-rule="nonzero"/><path fill="#ffffff" d="M 51.75 45.527344 C 51.742188 45.550781 51.730469 45.5625 51.703125 45.5625 C 51.679688 45.5625 51.664062 45.550781 51.660156 45.527344 C 51.484375 44.792969 51.125 43.578125 50.570312 43.054688 C 49.921875 42.507812 49.179688 42.171875 48.339844 42.050781 C 48.3125 42.050781 48.296875 42.035156 48.296875 42.003906 C 48.296875 41.972656 48.3125 41.957031 48.34375 41.957031 C 49.328125 41.816406 50.144531 41.519531 50.761719 40.746094 C 51.328125 40.039062 51.515625 39.304688 51.605469 38.449219 C 51.609375 38.425781 51.621094 38.410156 51.648438 38.40625 C 51.671875 38.40625 51.691406 38.417969 51.695312 38.441406 C 51.875 39.210938 52.296875 40.320312 52.671875 40.796875 C 53.234375 41.511719 53.972656 41.730469 55.136719 41.953125 C 55.167969 41.953125 55.183594 41.96875 55.179688 42 C 55.179688 42.03125 55.164062 42.046875 55.132812 42.046875 C 54.195312 42.117188 53.394531 42.484375 52.722656 43.144531 C 52.148438 43.664062 51.871094 45.023438 51.75 45.527344 Z M 51.75 45.527344 " fill-opacity="1" fill-rule="nonzero"/><g clip-path="url(#4f7f8cfa85)"><path fill="#211715" d="M 136.691406 92.730469 L 136.664062 92.761719 L 137.054688 92.601562 L 137.015625 92.601562 L 137.40625 92.761719 L 137.382812 92.730469 L 137.523438 92.972656 C 137.3125 92.09375 137.035156 91.144531 136.453125 90.433594 C 136.136719 90.078125 135.765625 89.800781 135.332031 89.605469 C 135.097656 89.488281 134.855469 89.386719 134.605469 89.304688 C 134.476562 89.257812 134.34375 89.222656 134.210938 89.1875 C 134.148438 89.175781 133.914062 89.140625 133.917969 89.144531 L 134.1875 89.617188 L 134.1875 89.578125 L 133.917969 90.054688 C 133.914062 90.058594 134.125 90.035156 134.171875 90.023438 C 134.285156 90.003906 134.394531 89.980469 134.507812 89.949219 C 134.738281 89.886719 134.96875 89.804688 135.1875 89.707031 C 135.628906 89.519531 136.011719 89.25 136.335938 88.898438 C 137.074219 88.097656 137.367188 87.105469 137.484375 86.042969 L 137.410156 86.324219 L 137.433594 86.285156 L 136.960938 86.558594 L 137 86.554688 L 136.609375 86.394531 L 136.636719 86.425781 L 136.496094 86.183594 C 136.71875 87.117188 137.0625 88.167969 137.710938 88.898438 C 138.375 89.652344 139.375 89.898438 140.320312 90.078125 L 140.078125 89.9375 L 140.113281 89.964844 L 139.953125 89.574219 L 139.949219 89.617188 L 140.222656 89.140625 L 140.1875 89.164062 L 140.464844 89.089844 C 139.390625 89.195312 138.25 89.632812 137.539062 90.480469 C 136.953125 91.175781 136.757812 92.117188 136.550781 92.976562 C 136.382812 93.664062 137.441406 93.957031 137.609375 93.269531 C 137.722656 92.648438 137.910156 92.058594 138.175781 91.488281 C 138.480469 90.929688 139.171875 90.507812 139.796875 90.320312 C 140.207031 90.199219 140.890625 90.269531 141.03125 89.761719 C 141.066406 89.628906 141.058594 89.496094 141.003906 89.367188 C 140.953125 89.238281 140.867188 89.140625 140.746094 89.070312 C 140.511719 88.976562 140.273438 88.917969 140.023438 88.890625 C 139.394531 88.746094 138.757812 88.519531 138.390625 87.988281 C 138.191406 87.683594 138.027344 87.359375 137.90625 87.011719 C 137.835938 86.820312 137.765625 86.628906 137.707031 86.433594 C 137.660156 86.226562 137.601562 86.023438 137.53125 85.824219 C 137.425781 85.570312 137.234375 85.445312 136.960938 85.457031 C 136.558594 85.472656 136.421875 85.796875 136.378906 86.140625 C 136.335938 86.523438 136.246094 86.898438 136.105469 87.261719 C 135.796875 88.035156 135.25 88.554688 134.457031 88.816406 C 134.269531 88.875 134.074219 88.925781 133.882812 88.960938 C 133.628906 89.011719 133.378906 89.023438 133.210938 89.246094 C 133.113281 89.371094 133.078125 89.511719 133.09375 89.667969 C 133.113281 89.824219 133.183594 89.953125 133.308594 90.050781 C 133.507812 90.171875 133.726562 90.242188 133.960938 90.261719 C 134.417969 90.375 134.847656 90.5625 135.242188 90.820312 C 135.550781 91.035156 135.78125 91.316406 135.929688 91.660156 C 136.113281 92.054688 136.261719 92.464844 136.367188 92.890625 C 136.394531 93.125 136.476562 93.335938 136.617188 93.527344 C 136.734375 93.648438 136.878906 93.707031 137.046875 93.703125 C 137.214844 93.699219 137.355469 93.636719 137.46875 93.511719 C 137.574219 93.402344 137.625 93.273438 137.625 93.121094 C 137.625 92.972656 137.574219 92.839844 137.46875 92.734375 C 137.363281 92.625 137.234375 92.570312 137.082031 92.570312 C 136.929688 92.570312 136.800781 92.625 136.691406 92.730469 Z M 136.691406 92.730469 " fill-opacity="1" fill-rule="nonzero"/></g><g clip-path="url(#32e5afa0d3)"><path fill="#211715" d="M 51.359375 45.136719 L 51.335938 45.167969 L 51.722656 45.007812 L 51.6875 45.007812 L 52.074219 45.167969 L 52.050781 45.136719 L 52.191406 45.378906 C 51.980469 44.5 51.703125 43.550781 51.121094 42.839844 C 50.808594 42.484375 50.433594 42.207031 50 42.011719 C 49.765625 41.894531 49.523438 41.792969 49.273438 41.710938 C 49.144531 41.667969 49.011719 41.628906 48.878906 41.59375 C 48.816406 41.582031 48.582031 41.546875 48.585938 41.550781 L 48.859375 42.023438 L 48.859375 41.984375 L 48.585938 42.460938 C 48.582031 42.460938 48.792969 42.441406 48.839844 42.429688 C 48.953125 42.40625 49.066406 42.382812 49.175781 42.355469 C 49.410156 42.292969 49.636719 42.210938 49.855469 42.113281 C 50.296875 41.925781 50.679688 41.65625 51.007812 41.304688 C 51.746094 40.503906 52.039062 39.511719 52.15625 38.449219 L 52.078125 38.730469 L 52.101562 38.691406 L 51.628906 38.964844 L 51.667969 38.960938 L 51.277344 38.800781 L 51.304688 38.832031 L 51.164062 38.589844 C 51.386719 39.523438 51.734375 40.570312 52.378906 41.300781 C 53.046875 42.058594 54.042969 42.300781 54.988281 42.484375 L 54.746094 42.34375 L 54.78125 42.371094 L 54.621094 41.980469 L 54.621094 42.019531 L 54.890625 41.546875 L 54.855469 41.566406 L 55.132812 41.492188 C 54.058594 41.597656 52.921875 42.035156 52.207031 42.886719 C 51.625 43.578125 51.429688 44.519531 51.21875 45.378906 C 51.050781 46.066406 52.113281 46.363281 52.28125 45.671875 C 52.390625 45.054688 52.582031 44.460938 52.847656 43.894531 C 53.148438 43.335938 53.84375 42.910156 54.46875 42.726562 C 54.875 42.605469 55.5625 42.675781 55.699219 42.167969 C 55.734375 42.035156 55.726562 41.902344 55.675781 41.773438 C 55.621094 41.644531 55.535156 41.546875 55.414062 41.480469 C 55.183594 41.386719 54.941406 41.324219 54.691406 41.300781 C 54.0625 41.152344 53.425781 40.929688 53.058594 40.398438 C 52.859375 40.089844 52.699219 39.765625 52.574219 39.421875 C 52.503906 39.230469 52.4375 39.035156 52.375 38.839844 C 52.328125 38.632812 52.269531 38.429688 52.199219 38.230469 C 52.09375 37.976562 51.90625 37.851562 51.628906 37.863281 C 51.226562 37.875 51.089844 38.199219 51.046875 38.542969 C 51.003906 38.929688 50.914062 39.304688 50.773438 39.667969 C 50.464844 40.441406 49.917969 40.960938 49.125 41.222656 C 48.9375 41.28125 48.746094 41.332031 48.550781 41.367188 C 48.296875 41.417969 48.050781 41.425781 47.878906 41.648438 C 47.78125 41.773438 47.746094 41.914062 47.765625 42.074219 C 47.78125 42.230469 47.851562 42.355469 47.976562 42.457031 C 48.179688 42.574219 48.394531 42.644531 48.628906 42.667969 C 49.089844 42.78125 49.515625 42.96875 49.910156 43.226562 C 50.21875 43.441406 50.449219 43.722656 50.597656 44.066406 C 50.78125 44.460938 50.925781 44.871094 51.035156 45.296875 C 51.0625 45.53125 51.144531 45.742188 51.285156 45.933594 C 51.402344 46.054688 51.546875 46.113281 51.714844 46.109375 C 51.882812 46.105469 52.023438 46.042969 52.140625 45.917969 C 52.242188 45.808594 52.292969 45.675781 52.292969 45.527344 C 52.292969 45.375 52.242188 45.246094 52.140625 45.136719 C 52.03125 45.03125 51.902344 44.976562 51.75 44.976562 C 51.597656 44.976562 51.46875 45.03125 51.359375 45.136719 Z M 51.359375 45.136719 " fill-opacity="1" fill-rule="nonzero"/></g><path fill="#ffffff" d="M 60.066406 44.808594 C 60.695312 44.398438 61.386719 44.195312 62.140625 44.195312 C 74.535156 44.195312 111.90625 44.203125 124.890625 44.207031 C 125.398438 44.207031 125.886719 44.304688 126.355469 44.496094 C 126.824219 44.691406 127.238281 44.96875 127.59375 45.328125 C 127.953125 45.6875 128.230469 46.101562 128.421875 46.570312 C 128.617188 47.039062 128.714844 47.527344 128.714844 48.035156 C 128.71875 55.757812 128.730469 73.941406 128.738281 84.257812 L 128.660156 84.257812 C 127.589844 84.320312 63.804688 84.378906 58.421875 84.378906 L 58.410156 84.378906 C 58.382812 74.296875 58.332031 56.457031 58.316406 48.035156 C 58.316406 47.382812 58.46875 46.769531 58.78125 46.199219 C 59.089844 45.625 59.519531 45.160156 60.066406 44.808594 Z M 60.066406 44.808594 " fill-opacity="1" fill-rule="nonzero"/><g clip-path="url(#0389d64a48)"><path fill="#ffffff" d="M 85.152344 102.253906 L 82.347656 102.253906 C 81.753906 102.253906 81.699219 100.667969 81.878906 100.277344 C 82.0625 99.882812 82.417969 99.628906 83.042969 99.511719 C 85.195312 99.101562 85.726562 97.9375 85.90625 95.871094 C 85.980469 94.988281 86.0625 94.4375 86.105469 93.554688 C 86.132812 92.984375 86.183594 92.351562 86.265625 91.484375 C 91.035156 91.480469 95.988281 91.472656 100.765625 91.464844 C 100.847656 92.339844 100.898438 92.980469 100.925781 93.554688 C 100.972656 94.4375 101.050781 94.988281 101.125 95.871094 C 101.304688 97.9375 101.839844 99.101562 103.992188 99.511719 C 104.613281 99.628906 104.972656 99.882812 105.152344 100.277344 C 105.335938 100.667969 105.363281 102.261719 104.75 102.261719 C 103.839844 102.257812 91.050781 102.257812 85.152344 102.253906 Z M 85.152344 102.253906 " fill-opacity="1" fill-rule="nonzero"/></g><path fill="#d9d9d9" d="M 60.519531 91.066406 C 61.054688 91.335938 61.625 91.472656 62.222656 91.472656 C 74.464844 91.519531 112.394531 91.445312 124.921875 91.421875 C 125.429688 91.421875 125.917969 91.324219 126.382812 91.128906 C 126.851562 90.933594 127.265625 90.65625 127.621094 90.296875 C 127.980469 89.9375 128.257812 89.523438 128.449219 89.054688 C 128.644531 88.585938 128.738281 88.097656 128.738281 87.589844 C 128.738281 86.613281 128.738281 85.492188 128.738281 84.253906 L 128.660156 84.253906 C 127.589844 84.316406 63.804688 84.378906 58.421875 84.378906 L 58.410156 84.378906 C 58.410156 85.589844 58.414062 86.691406 58.414062 87.648438 C 58.417969 88.371094 58.605469 89.039062 58.984375 89.65625 C 59.363281 90.269531 59.875 90.742188 60.519531 91.066406 Z M 60.519531 91.066406 " fill-opacity="1" fill-rule="nonzero"/><g clip-path="url(#86728e3c85)"><path fill="#ffffff" d="M 86.980469 102.257812 L 82.347656 102.257812 C 81.753906 102.257812 81.699219 100.671875 81.878906 100.277344 C 82.0625 99.882812 82.417969 99.628906 83.042969 99.511719 C 83.546875 99.429688 84.023438 99.261719 84.46875 99.003906 C 89.3125 99.003906 97.871094 99.003906 102.566406 99.003906 C 103.011719 99.261719 103.484375 99.429688 103.992188 99.511719 C 104.613281 99.632812 104.972656 99.882812 105.152344 100.277344 C 105.335938 100.671875 105.363281 102.261719 104.75 102.261719 Z M 86.980469 102.257812 " fill-opacity="1" fill-rule="nonzero"/></g><g clip-path="url(#b036ccf83f)"><path fill="#211715" d="M 100.238281 91.726562 C 100.367188 93.070312 100.445312 94.417969 100.566406 95.761719 C 100.65625 96.730469 100.773438 97.773438 101.34375 98.589844 C 101.941406 99.4375 102.859375 99.832031 103.84375 100.042969 C 104.0625 100.074219 104.265625 100.148438 104.457031 100.261719 C 104.527344 100.316406 104.589844 100.386719 104.632812 100.46875 C 104.667969 100.515625 104.6875 100.636719 104.648438 100.480469 C 104.65625 100.519531 104.667969 100.554688 104.675781 100.59375 C 104.6875 100.640625 104.695312 100.683594 104.703125 100.730469 C 104.6875 100.621094 104.703125 100.738281 104.703125 100.765625 C 104.710938 100.871094 104.71875 100.976562 104.71875 101.082031 C 104.722656 101.269531 104.699219 101.453125 104.652344 101.632812 C 104.640625 101.691406 104.636719 101.773438 104.59375 101.773438 L 104.628906 101.734375 L 104.601562 101.761719 L 104.65625 101.726562 C 104.601562 101.757812 104.613281 101.753906 104.683594 101.71875 C 104.75 101.671875 104.75 101.710938 104.664062 101.707031 C 104.558594 101.703125 104.453125 101.707031 104.347656 101.707031 L 99.429688 101.707031 L 89.3125 101.703125 L 84.964844 101.703125 C 84.132812 101.703125 83.296875 101.683594 82.464844 101.703125 C 82.375 101.707031 82.332031 101.667969 82.417969 101.714844 C 82.484375 101.75 82.484375 101.71875 82.503906 101.773438 C 82.488281 101.730469 82.453125 101.6875 82.433594 101.648438 C 82.472656 101.738281 82.421875 101.601562 82.417969 101.578125 C 82.367188 101.417969 82.34375 101.253906 82.339844 101.082031 C 82.335938 100.984375 82.335938 100.890625 82.339844 100.792969 C 82.34375 100.738281 82.347656 100.6875 82.351562 100.632812 C 82.363281 100.492188 82.332031 100.707031 82.359375 100.59375 C 82.367188 100.550781 82.433594 100.40625 82.382812 100.496094 C 82.421875 100.410156 82.476562 100.339844 82.550781 100.28125 C 82.773438 100.144531 83.011719 100.058594 83.269531 100.027344 C 83.78125 99.929688 84.261719 99.753906 84.714844 99.496094 C 85.527344 98.988281 86.035156 98.261719 86.234375 97.320312 C 86.359375 96.773438 86.4375 96.21875 86.472656 95.65625 C 86.535156 94.992188 86.613281 94.332031 86.648438 93.664062 C 86.683594 93.015625 86.734375 92.371094 86.792969 91.726562 C 86.792969 91.574219 86.738281 91.445312 86.632812 91.335938 C 86.523438 91.230469 86.394531 91.175781 86.246094 91.175781 C 86.09375 91.175781 85.964844 91.230469 85.859375 91.339844 C 85.753906 91.445312 85.699219 91.574219 85.695312 91.726562 C 85.5625 93.105469 85.480469 94.488281 85.355469 95.871094 C 85.324219 96.359375 85.238281 96.835938 85.097656 97.304688 C 84.996094 97.660156 84.816406 97.976562 84.554688 98.242188 C 84.441406 98.363281 84.308594 98.464844 84.160156 98.546875 C 83.953125 98.667969 83.734375 98.765625 83.5 98.832031 C 82.90625 99.015625 82.289062 99.054688 81.800781 99.480469 C 81.117188 100.074219 81.105469 101.230469 81.410156 102.023438 C 81.578125 102.46875 81.886719 102.789062 82.382812 102.804688 C 82.503906 102.808594 82.621094 102.804688 82.742188 102.804688 L 87.964844 102.804688 L 98.414062 102.808594 L 102.632812 102.808594 C 103.332031 102.808594 104.035156 102.835938 104.734375 102.808594 C 105.757812 102.765625 105.878906 101.46875 105.796875 100.683594 C 105.773438 100.175781 105.566406 99.761719 105.179688 99.4375 C 104.675781 99.03125 104.054688 99 103.464844 98.808594 C 103.070312 98.691406 102.730469 98.488281 102.4375 98.199219 C 102.1875 97.921875 102.011719 97.601562 101.917969 97.242188 C 101.78125 96.753906 101.699219 96.261719 101.667969 95.757812 C 101.605469 95.078125 101.523438 94.398438 101.484375 93.714844 C 101.449219 93.046875 101.402344 92.386719 101.339844 91.722656 C 101.335938 91.570312 101.28125 91.441406 101.171875 91.335938 C 101.066406 91.230469 100.9375 91.175781 100.789062 91.171875 C 100.636719 91.171875 100.507812 91.226562 100.402344 91.332031 C 100.292969 91.441406 100.242188 91.570312 100.238281 91.722656 Z M 100.238281 91.726562 " fill-opacity="1" fill-rule="nonzero"/></g><path fill="#211715" d="M 87.101562 99.554688 L 99.953125 99.554688 C 100.660156 99.554688 100.660156 98.453125 99.953125 98.453125 L 87.101562 98.453125 C 86.394531 98.453125 86.394531 99.554688 87.101562 99.554688 Z M 87.101562 99.554688 " fill-opacity="1" fill-rule="nonzero"/><path fill="#211715" d="M 57.765625 48.035156 C 57.773438 51.753906 57.78125 55.476562 57.792969 59.199219 C 57.804688 63.730469 57.816406 68.261719 57.828125 72.792969 C 57.839844 76.816406 57.851562 80.839844 57.859375 84.859375 L 57.863281 87.164062 C 57.867188 88.214844 58.007812 89.214844 58.621094 90.101562 C 59.265625 91.050781 60.148438 91.65625 61.261719 91.914062 C 61.972656 92.070312 62.710938 92.027344 63.429688 92.03125 C 66.367188 92.039062 69.300781 92.042969 72.234375 92.039062 C 76.050781 92.042969 79.867188 92.039062 83.6875 92.035156 C 87.894531 92.03125 92.105469 92.027344 96.3125 92.023438 C 100.417969 92.015625 104.527344 92.011719 108.632812 92.003906 C 112.15625 91.996094 115.679688 91.992188 119.203125 91.984375 L 123.320312 91.976562 C 123.933594 91.976562 124.554688 92.003906 125.167969 91.964844 C 126.328125 91.894531 127.308594 91.4375 128.105469 90.589844 C 128.902344 89.726562 129.296875 88.707031 129.289062 87.53125 C 129.292969 86.792969 129.289062 86.050781 129.289062 85.3125 C 129.289062 83.507812 129.289062 81.703125 129.285156 79.898438 L 129.277344 66.78125 C 129.273438 62.550781 129.269531 58.320312 129.269531 54.085938 C 129.265625 52.425781 129.265625 50.761719 129.265625 49.101562 C 129.265625 48.214844 129.304688 47.324219 128.980469 46.484375 C 128.570312 45.410156 127.851562 44.621094 126.828125 44.109375 C 125.441406 43.441406 123.757812 43.65625 122.257812 43.65625 L 117.742188 43.65625 L 106.660156 43.652344 L 94.046875 43.652344 L 81.402344 43.648438 L 70.214844 43.644531 L 63.644531 43.644531 C 63.019531 43.644531 62.371094 43.605469 61.746094 43.664062 C 61.207031 43.71875 60.691406 43.871094 60.203125 44.113281 C 59.71875 44.359375 59.289062 44.683594 58.921875 45.085938 C 58.554688 45.492188 58.273438 45.945312 58.074219 46.453125 C 57.875 46.960938 57.773438 47.488281 57.765625 48.035156 C 57.757812 48.746094 58.859375 48.746094 58.867188 48.035156 C 58.867188 47.527344 58.980469 47.046875 59.199219 46.589844 C 59.421875 46.132812 59.730469 45.75 60.125 45.433594 C 60.855469 44.867188 61.675781 44.746094 62.570312 44.746094 L 76.339844 44.746094 L 88.3125 44.75 L 100.9375 44.75 L 112.710938 44.753906 L 124.160156 44.753906 C 124.988281 44.753906 125.773438 44.757812 126.519531 45.1875 C 126.953125 45.4375 127.308594 45.769531 127.59375 46.183594 C 127.875 46.597656 128.054688 47.050781 128.132812 47.546875 C 128.242188 48.253906 128.167969 49.023438 128.167969 49.738281 C 128.167969 53.449219 128.171875 57.160156 128.171875 60.871094 L 128.179688 74.070312 C 128.183594 77.886719 128.1875 81.703125 128.1875 85.519531 C 128.1875 86.273438 128.222656 87.035156 128.183594 87.785156 C 128.15625 88.273438 128.023438 88.730469 127.792969 89.160156 C 127.558594 89.589844 127.25 89.945312 126.855469 90.238281 C 125.660156 91.113281 124.03125 90.871094 122.628906 90.875 L 113.414062 90.890625 C 109.574219 90.898438 105.738281 90.902344 101.898438 90.910156 C 97.75 90.914062 93.605469 90.921875 89.457031 90.925781 C 85.453125 90.929688 81.453125 90.933594 77.449219 90.933594 C 74.074219 90.9375 70.703125 90.9375 67.328125 90.933594 C 66.03125 90.929688 64.730469 90.929688 63.433594 90.925781 C 62.785156 90.921875 62.09375 90.984375 61.464844 90.828125 C 60.980469 90.707031 60.546875 90.492188 60.164062 90.175781 C 59.777344 89.859375 59.480469 89.476562 59.265625 89.023438 C 58.894531 88.234375 58.964844 87.371094 58.960938 86.523438 C 58.960938 85.746094 58.957031 84.96875 58.957031 84.1875 C 58.953125 82.300781 58.949219 80.410156 58.941406 78.519531 C 58.929688 74.113281 58.917969 69.710938 58.90625 65.304688 C 58.894531 61.125 58.886719 56.945312 58.875 52.765625 C 58.871094 51.1875 58.867188 49.613281 58.867188 48.035156 C 58.863281 47.328125 57.765625 47.324219 57.765625 48.035156 Z M 57.765625 48.035156 " fill-opacity="1" fill-rule="nonzero"/><path fill="#211715" d="M 58.410156 84.929688 C 59.449219 84.929688 60.488281 84.929688 61.527344 84.925781 C 63.464844 84.925781 65.40625 84.925781 67.34375 84.921875 C 69.9375 84.921875 72.535156 84.917969 75.132812 84.914062 C 78.179688 84.910156 81.226562 84.910156 84.273438 84.90625 C 87.519531 84.902344 90.765625 84.898438 94.015625 84.894531 C 97.246094 84.886719 100.480469 84.882812 103.710938 84.878906 C 106.703125 84.875 109.695312 84.871094 112.6875 84.863281 C 115.210938 84.859375 117.734375 84.851562 120.257812 84.847656 C 122.097656 84.84375 123.933594 84.835938 125.769531 84.828125 C 126.675781 84.824219 127.585938 84.828125 128.496094 84.8125 C 128.574219 84.808594 128.65625 84.808594 128.738281 84.808594 C 129.445312 84.808594 129.445312 83.707031 128.738281 83.707031 C 128.0625 83.707031 127.390625 83.71875 126.714844 83.722656 C 125.085938 83.730469 123.453125 83.738281 121.820312 83.742188 C 119.445312 83.746094 117.066406 83.753906 114.691406 83.757812 C 111.78125 83.761719 108.871094 83.769531 105.964844 83.773438 C 102.769531 83.777344 99.574219 83.785156 96.378906 83.789062 C 93.113281 83.792969 89.847656 83.796875 86.585938 83.800781 L 77.261719 83.8125 L 69.089844 83.820312 C 66.96875 83.820312 64.84375 83.824219 62.722656 83.824219 C 61.445312 83.824219 60.167969 83.828125 58.890625 83.828125 L 58.410156 83.828125 C 57.699219 83.828125 57.699219 84.929688 58.410156 84.929688 Z M 58.410156 84.929688 " fill-opacity="1" fill-rule="nonzero"/><path fill="#211715" d="M 95.050781 87.960938 C 95.050781 88.15625 95.015625 88.347656 94.941406 88.53125 C 94.863281 88.710938 94.753906 88.871094 94.609375 89.007812 C 94.46875 89.144531 94.304688 89.25 94.117188 89.316406 C 93.933594 89.382812 93.742188 89.414062 93.542969 89.402344 C 92.527344 89.402344 92.003906 88.707031 92.003906 87.957031 C 92.003906 87.761719 92.039062 87.570312 92.113281 87.386719 C 92.1875 87.203125 92.292969 87.042969 92.433594 86.902344 C 92.570312 86.765625 92.730469 86.65625 92.914062 86.582031 C 93.097656 86.507812 93.289062 86.472656 93.484375 86.476562 C 93.6875 86.472656 93.878906 86.507812 94.066406 86.578125 C 94.257812 86.652344 94.421875 86.757812 94.570312 86.898438 C 94.714844 87.035156 94.832031 87.195312 94.914062 87.382812 C 94.996094 87.566406 95.042969 87.757812 95.050781 87.960938 Z M 95.050781 87.960938 " fill-opacity="1" fill-rule="nonzero"/><path fill="#ffffff" d="M 73.394531 66.824219 C 73.398438 68.84375 73.410156 73.492188 73.410156 74.148438 C 75.273438 74.144531 77.515625 74.140625 79.988281 74.136719 C 79.988281 73.226562 79.988281 66.289062 79.988281 65.894531 L 73.394531 65.894531 C 73.394531 65.953125 73.394531 66.300781 73.394531 66.824219 Z M 73.394531 66.824219 " fill-opacity="1" fill-rule="nonzero"/><path fill="#ffffff" d="M 84.421875 62.980469 C 84.421875 62.273438 84.417969 61.816406 84.417969 61.761719 L 91.015625 61.761719 L 91.015625 74.113281 L 84.433594 74.125 C 84.433594 73.316406 84.425781 65.945312 84.421875 62.980469 Z M 84.421875 62.980469 " fill-opacity="1" fill-rule="nonzero"/><path fill="#ffffff" d="M 95.445312 58.972656 C 95.445312 58.175781 95.445312 57.679688 95.445312 57.628906 L 102.039062 57.628906 L 102.039062 74.085938 L 95.457031 74.101562 C 95.460938 73.058594 95.449219 62.71875 95.445312 58.972656 Z M 95.445312 58.972656 " fill-opacity="1" fill-rule="nonzero"/><path fill="#3f88c9" d="M 106.46875 56.207031 C 106.46875 54.613281 106.464844 53.5625 106.464844 53.5 L 113.0625 53.5 L 113.0625 74.0625 C 111.191406 74.066406 108.953125 74.070312 106.484375 74.074219 C 106.480469 72.875 106.472656 61.515625 106.46875 56.207031 Z M 106.46875 56.207031 " fill-opacity="1" fill-rule="nonzero"/><path fill="#211715" d="M 73.960938 74.152344 C 73.960938 71.75 73.949219 69.347656 73.945312 66.945312 C 73.945312 66.59375 73.945312 66.246094 73.945312 65.894531 L 73.394531 66.445312 L 79.988281 66.445312 L 79.441406 65.894531 L 79.441406 74.140625 C 79.441406 74.847656 80.539062 74.847656 80.539062 74.140625 L 80.539062 65.894531 C 80.539062 65.742188 80.484375 65.613281 80.375 65.507812 C 80.269531 65.398438 80.140625 65.34375 79.988281 65.34375 L 73.394531 65.34375 C 73.242188 65.34375 73.113281 65.398438 73.007812 65.507812 C 72.902344 65.613281 72.847656 65.742188 72.84375 65.894531 C 72.84375 68.203125 72.855469 70.515625 72.859375 72.828125 C 72.859375 73.269531 72.859375 73.710938 72.859375 74.152344 C 72.859375 74.859375 73.960938 74.863281 73.960938 74.152344 Z M 73.960938 74.152344 " fill-opacity="1" fill-rule="nonzero"/><path fill="#211715" d="M 84.984375 74.128906 C 84.984375 72.621094 84.980469 71.109375 84.980469 69.601562 L 84.972656 63.292969 C 84.972656 62.785156 84.96875 62.273438 84.96875 61.761719 L 84.417969 62.3125 L 91.015625 62.3125 L 90.464844 61.761719 L 90.464844 74.117188 C 90.464844 74.824219 91.566406 74.824219 91.566406 74.117188 L 91.566406 61.761719 C 91.5625 61.609375 91.507812 61.480469 91.402344 61.375 C 91.296875 61.269531 91.167969 61.214844 91.015625 61.210938 L 84.417969 61.210938 C 84.269531 61.214844 84.140625 61.269531 84.035156 61.375 C 83.925781 61.480469 83.871094 61.609375 83.871094 61.761719 C 83.871094 63.101562 83.871094 64.445312 83.875 65.785156 C 83.878906 67.933594 83.878906 70.082031 83.882812 72.230469 C 83.882812 72.863281 83.882812 73.496094 83.882812 74.128906 C 83.882812 74.839844 84.984375 74.839844 84.984375 74.128906 Z M 84.984375 74.128906 " fill-opacity="1" fill-rule="nonzero"/><path fill="#211715" d="M 96.007812 74.105469 C 96.007812 72.085938 96.007812 70.0625 96.003906 68.042969 C 96 65.242188 95.996094 62.441406 95.996094 59.640625 C 95.996094 58.972656 95.996094 58.300781 95.992188 57.628906 L 95.441406 58.183594 L 102.039062 58.183594 L 101.488281 57.628906 L 101.488281 74.089844 C 101.488281 74.796875 102.589844 74.796875 102.589844 74.089844 L 102.589844 57.628906 C 102.585938 57.480469 102.53125 57.351562 102.425781 57.242188 C 102.320312 57.136719 102.191406 57.082031 102.039062 57.078125 L 95.441406 57.078125 C 95.292969 57.082031 95.164062 57.136719 95.054688 57.242188 C 94.949219 57.351562 94.894531 57.480469 94.894531 57.628906 C 94.894531 59.417969 94.894531 61.207031 94.898438 62.996094 C 94.902344 65.859375 94.902344 68.726562 94.90625 71.59375 C 94.90625 72.429688 94.910156 73.265625 94.910156 74.105469 C 94.910156 74.8125 96.007812 74.8125 96.007812 74.105469 Z M 96.007812 74.105469 " fill-opacity="1" fill-rule="nonzero"/><path fill="#211715" d="M 107.03125 74.078125 C 107.03125 71.554688 107.03125 69.027344 107.027344 66.5 C 107.023438 62.996094 107.019531 59.488281 107.019531 55.984375 C 107.019531 55.15625 107.015625 54.328125 107.015625 53.5 L 106.464844 54.050781 L 113.0625 54.050781 L 112.511719 53.5 L 112.511719 74.0625 C 112.511719 74.769531 113.613281 74.773438 113.613281 74.0625 L 113.613281 53.5 C 113.609375 53.347656 113.554688 53.21875 113.449219 53.113281 C 113.34375 53.003906 113.214844 52.949219 113.0625 52.949219 L 106.464844 52.949219 C 106.316406 52.949219 106.1875 53.003906 106.078125 53.113281 C 105.972656 53.21875 105.917969 53.347656 105.917969 53.5 C 105.917969 55.722656 105.917969 57.941406 105.921875 60.164062 C 105.925781 63.757812 105.925781 67.347656 105.929688 70.9375 C 105.929688 71.984375 105.933594 73.03125 105.933594 74.078125 C 105.933594 74.789062 107.03125 74.789062 107.03125 74.078125 Z M 107.03125 74.078125 " fill-opacity="1" fill-rule="nonzero"/><path fill="#211715" d="M 118.46875 73.5 C 117.769531 73.5 117.070312 73.503906 116.371094 73.503906 C 115.113281 73.507812 113.851562 73.507812 112.59375 73.511719 C 110.914062 73.515625 109.238281 73.519531 107.558594 73.523438 L 101.605469 73.535156 L 95.148438 73.550781 L 88.578125 73.566406 L 82.292969 73.582031 C 80.433594 73.585938 78.570312 73.589844 76.707031 73.59375 C 75.191406 73.59375 73.675781 73.597656 72.160156 73.601562 C 71.128906 73.601562 70.101562 73.605469 69.070312 73.605469 L 68.585938 73.605469 C 67.875 73.605469 67.875 74.707031 68.585938 74.707031 C 69.476562 74.707031 70.367188 74.707031 71.257812 74.703125 L 75.488281 74.695312 C 77.273438 74.691406 79.0625 74.6875 80.847656 74.683594 L 87.007812 74.671875 L 93.539062 74.65625 L 100.0625 74.640625 L 106.175781 74.628906 L 111.464844 74.617188 L 115.589844 74.605469 C 116.4375 74.605469 117.285156 74.605469 118.132812 74.601562 L 118.46875 74.601562 C 119.175781 74.601562 119.175781 73.5 118.46875 73.5 Z M 118.46875 73.5 " fill-opacity="1" fill-rule="nonzero"/><g fill="#0c52a1" fill-opacity="1"><g transform="translate(2.445124, 25.303164)"><g><path d="M 7.453125 0.335938 C 11.539062 0.335938 13.953125 -2.125 13.953125 -5.019531 C 13.953125 -7.574219 12.542969 -8.9375 10.394531 -9.820312 L 8.074219 -10.800781 C 6.570312 -11.398438 5.304688 -11.851562 5.304688 -13.117188 C 5.304688 -14.289062 6.308594 -14.980469 7.859375 -14.980469 C 9.320312 -14.980469 10.488281 -14.457031 11.613281 -13.523438 L 13.40625 -15.746094 C 11.972656 -17.203125 9.914062 -18.015625 7.859375 -18.015625 C 4.277344 -18.015625 1.746094 -15.792969 1.746094 -12.902344 C 1.746094 -10.320312 3.535156 -8.886719 5.328125 -8.148438 L 7.695312 -7.144531 C 9.269531 -6.476562 10.347656 -6.070312 10.347656 -4.753906 C 10.347656 -3.511719 9.367188 -2.722656 7.527344 -2.722656 C 5.972656 -2.722656 4.300781 -3.511719 3.035156 -4.683594 L 1.003906 -2.246094 C 2.722656 -0.597656 5.089844 0.335938 7.453125 0.335938 Z M 7.453125 0.335938 "/></g></g></g><g fill="#0c52a1" fill-opacity="1"><g transform="translate(17.354893, 25.303164)"><g><path d="M 5.6875 0 L 9.222656 0 L 9.222656 -14.742188 L 14.242188 -14.742188 L 14.242188 -17.679688 L 0.71875 -17.679688 L 0.71875 -14.742188 L 5.6875 -14.742188 Z M 5.6875 0 "/></g></g></g><g fill="#0c52a1" fill-opacity="1"><g transform="translate(32.288555, 25.303164)"><g><path d="M 2.175781 0 L 13.285156 0 L 13.285156 -2.960938 L 5.710938 -2.960938 L 5.710938 -7.695312 L 11.921875 -7.695312 L 11.921875 -10.65625 L 5.710938 -10.65625 L 5.710938 -14.742188 L 13.023438 -14.742188 L 13.023438 -17.679688 L 2.175781 -17.679688 Z M 2.175781 0 "/></g></g></g><g fill="#0c52a1" fill-opacity="1"><g transform="translate(46.983272, 25.303164)"><g><path d="M 2.175781 0 L 5.710938 0 L 5.710938 -6.285156 L 8.074219 -6.285156 C 11.875 -6.285156 14.910156 -8.101562 14.910156 -12.136719 C 14.910156 -16.320312 11.898438 -17.679688 7.980469 -17.679688 L 2.175781 -17.679688 Z M 5.710938 -9.078125 L 5.710938 -14.886719 L 7.71875 -14.886719 C 10.15625 -14.886719 11.445312 -14.191406 11.445312 -12.136719 C 11.445312 -10.105469 10.273438 -9.078125 7.835938 -9.078125 Z M 5.710938 -9.078125 "/></g></g></g><g fill="#0c52a1" fill-opacity="1"><g transform="translate(62.920469, 25.303164)"><g/></g></g><g fill="#0c52a1" fill-opacity="1"><g transform="translate(68.344368, 25.303164)"><g><path d="M 6.546875 0.335938 C 9.914062 0.335938 12.757812 -1.554688 12.757812 -4.800781 C 12.757812 -7.121094 11.230469 -8.601562 9.222656 -9.152344 L 9.222656 -9.269531 C 11.109375 -10.011719 12.1875 -11.398438 12.1875 -13.308594 C 12.1875 -16.34375 9.867188 -18.015625 6.453125 -18.015625 C 4.371094 -18.015625 2.675781 -17.179688 1.148438 -15.839844 L 2.9375 -13.691406 C 3.992188 -14.648438 5.019531 -15.246094 6.285156 -15.269531 C 7.789062 -15.246094 8.648438 -14.433594 8.648438 -13.046875 C 8.648438 -11.46875 7.597656 -10.347656 4.347656 -10.347656 L 4.347656 -7.8125 C 8.195312 -7.8125 9.222656 -6.738281 9.222656 -4.992188 C 9.222656 -3.417969 8.003906 -2.53125 6.210938 -2.53125 C 4.613281 -2.53125 3.320312 -3.320312 2.269531 -4.347656 L 0.621094 -2.125 C 1.863281 -0.71875 3.75 0.335938 6.546875 0.335938 Z M 6.546875 0.335938 "/></g></g></g></svg>