<svg xmlns="http://www.w3.org/2000/svg" xmlns:xlink="http://www.w3.org/1999/xlink" width="200" zoomAndPan="magnify" viewBox="0 0 150 112.499997" height="150" preserveAspectRatio="xMidYMid meet" version="1.0"><defs><g/><clipPath id="c75ffddd6b"><path d="M 108 77 L 143.582031 77 L 143.582031 102 L 108 102 Z M 108 77 " clip-rule="nonzero"/></clipPath><clipPath id="3c01bcf775"><path d="M 50.246094 77 L 86 77 L 86 102 L 50.246094 102 Z M 50.246094 77 " clip-rule="nonzero"/></clipPath><clipPath id="c7dbf08574"><path d="M 108 76 L 143.582031 76 L 143.582031 102.144531 L 108 102.144531 Z M 108 76 " clip-rule="nonzero"/></clipPath><clipPath id="36df6ac81b"><path d="M 50.246094 76 L 86 76 L 86 102.144531 L 50.246094 102.144531 Z M 50.246094 76 " clip-rule="nonzero"/></clipPath><clipPath id="8823cc5753"><path d="M 84 50.625 L 108 50.625 L 108 67 L 84 67 Z M 84 50.625 " clip-rule="nonzero"/></clipPath></defs><g clip-path="url(#c75ffddd6b)"><path fill="#ffffff" d="M 112.574219 90.222656 C 112.574219 86.585938 112.570312 81.789062 112.570312 78.632812 C 112.570312 78.457031 112.601562 78.289062 112.667969 78.128906 C 112.738281 77.964844 112.832031 77.820312 112.957031 77.699219 C 113.082031 77.574219 113.226562 77.476562 113.386719 77.410156 C 113.550781 77.34375 113.71875 77.308594 113.894531 77.308594 L 137.925781 77.300781 C 138.101562 77.300781 138.269531 77.335938 138.433594 77.402344 C 138.59375 77.46875 138.738281 77.566406 138.863281 77.6875 C 138.988281 77.8125 139.082031 77.957031 139.148438 78.117188 C 139.21875 78.28125 139.25 78.449219 139.25 78.625 C 139.25 82.863281 139.253906 89.566406 139.253906 93.863281 C 140.136719 95.105469 142.035156 97.71875 142.960938 99.296875 C 143.054688 99.457031 143.097656 99.628906 143.097656 99.8125 C 143.097656 99.972656 143.09375 100.726562 143.09375 100.925781 C 143.09375 101.140625 143.019531 101.320312 142.867188 101.472656 C 142.714844 101.625 142.535156 101.699219 142.320312 101.699219 L 109.375 101.699219 C 109.195312 101.699219 109.042969 101.636719 108.917969 101.511719 C 108.792969 101.382812 108.730469 101.230469 108.730469 101.054688 C 108.730469 100.058594 108.726562 100.789062 108.726562 99.808594 C 108.722656 99.625 108.769531 99.453125 108.863281 99.296875 C 109.796875 97.699219 111.703125 95.003906 112.574219 93.78125 C 112.574219 92.882812 112.574219 91.640625 112.574219 90.222656 Z M 112.574219 90.222656 " fill-opacity="1" fill-rule="nonzero"/></g><g clip-path="url(#3c01bcf775)"><path fill="#ffffff" d="M 54.570312 90.222656 C 54.566406 86.585938 54.566406 81.789062 54.566406 78.632812 C 54.5625 78.457031 54.597656 78.289062 54.664062 78.128906 C 54.730469 77.964844 54.828125 77.820312 54.953125 77.699219 C 55.078125 77.574219 55.21875 77.476562 55.382812 77.410156 C 55.546875 77.34375 55.714844 77.308594 55.890625 77.308594 L 79.917969 77.300781 C 80.097656 77.300781 80.265625 77.335938 80.425781 77.402344 C 80.589844 77.46875 80.734375 77.566406 80.859375 77.6875 C 80.984375 77.8125 81.078125 77.957031 81.144531 78.117188 C 81.210938 78.28125 81.246094 78.449219 81.246094 78.625 C 81.246094 82.863281 81.246094 89.566406 81.25 93.863281 C 82.132812 95.105469 84.03125 97.71875 84.957031 99.296875 C 85.050781 99.457031 85.09375 99.628906 85.09375 99.8125 C 85.09375 99.972656 85.089844 100.726562 85.089844 100.925781 C 85.089844 101.140625 85.015625 101.320312 84.863281 101.472656 C 84.710938 101.625 84.527344 101.699219 84.316406 101.699219 L 51.371094 101.699219 C 51.191406 101.699219 51.039062 101.636719 50.914062 101.511719 C 50.789062 101.382812 50.722656 101.230469 50.722656 101.054688 C 50.722656 100.058594 50.722656 100.789062 50.722656 99.808594 C 50.71875 99.625 50.765625 99.453125 50.859375 99.296875 C 51.792969 97.699219 53.699219 95.003906 54.570312 93.78125 C 54.570312 92.882812 54.570312 91.640625 54.570312 90.222656 Z M 54.570312 90.222656 " fill-opacity="1" fill-rule="nonzero"/></g><path fill="#211715" d="M 77.390625 72 C 78.640625 69.863281 80.277344 68.085938 82.300781 66.660156 C 84.707031 64.972656 87.488281 63.917969 90.363281 63.34375 C 92.113281 63.003906 93.878906 62.816406 95.660156 62.785156 C 97.523438 62.730469 99.375 62.84375 101.21875 63.121094 C 104.238281 63.558594 107.042969 64.578125 109.640625 66.183594 C 111.769531 67.554688 113.589844 69.253906 115.105469 71.28125 C 115.285156 71.515625 115.460938 71.757812 115.632812 72 C 115.949219 72.449219 116.695312 72.019531 116.375 71.566406 C 114.882812 69.414062 113.078125 67.574219 110.957031 66.039062 C 108.4375 64.277344 105.671875 63.101562 102.65625 62.507812 C 98.910156 61.769531 95.152344 61.699219 91.378906 62.292969 C 88.308594 62.765625 85.28125 63.746094 82.640625 65.402344 C 80.414062 66.800781 78.574219 68.59375 77.128906 70.789062 C 76.960938 71.042969 76.800781 71.304688 76.648438 71.566406 C 76.367188 72.042969 77.109375 72.476562 77.390625 72 Z M 77.390625 72 " fill-opacity="1" fill-rule="nonzero"/><path fill="#ffffff" d="M 85.34375 52.320312 C 85.34375 56.238281 85.339844 61.3125 85.339844 65.261719 C 85.339844 65.433594 85.371094 65.601562 85.4375 65.761719 C 85.503906 65.921875 85.597656 66.0625 85.722656 66.183594 C 85.84375 66.308594 85.984375 66.402344 86.144531 66.46875 C 86.308594 66.535156 86.472656 66.566406 86.648438 66.566406 C 91.191406 66.566406 100.867188 66.574219 105.621094 66.574219 C 105.796875 66.574219 105.960938 66.539062 106.121094 66.472656 C 106.28125 66.410156 106.425781 66.3125 106.546875 66.191406 C 106.667969 66.070312 106.765625 65.929688 106.832031 65.769531 C 106.898438 65.609375 106.929688 65.441406 106.929688 65.269531 C 106.929688 61.320312 106.929688 56.246094 106.933594 52.328125 C 106.933594 52.152344 106.902344 51.988281 106.835938 51.828125 C 106.769531 51.667969 106.675781 51.523438 106.550781 51.402344 C 106.429688 51.28125 106.289062 51.1875 106.128906 51.121094 C 105.96875 51.054688 105.800781 51.019531 105.628906 51.019531 C 101.640625 51.019531 91.09375 51.015625 86.652344 51.015625 C 86.476562 51.015625 86.3125 51.046875 86.152344 51.113281 C 85.992188 51.179688 85.847656 51.273438 85.726562 51.394531 C 85.605469 51.519531 85.507812 51.660156 85.441406 51.820312 C 85.375 51.980469 85.34375 52.144531 85.34375 52.320312 Z M 85.34375 52.320312 " fill-opacity="1" fill-rule="nonzero"/><path fill="#cfcfcf" d="M 137.140625 95.179688 C 137.378906 95.179688 137.5625 95.277344 137.695312 95.46875 C 137.996094 95.898438 138.316406 96.363281 138.621094 96.828125 C 138.765625 97.054688 138.773438 97.285156 138.644531 97.519531 C 138.519531 97.753906 138.320312 97.871094 138.050781 97.871094 L 113.773438 97.871094 C 113.503906 97.871094 113.304688 97.753906 113.175781 97.519531 C 113.046875 97.285156 113.058594 97.054688 113.203125 96.828125 C 113.507812 96.363281 113.824219 95.898438 114.125 95.46875 C 114.261719 95.273438 114.445312 95.179688 114.679688 95.179688 C 119.5 95.179688 132.320312 95.179688 137.144531 95.179688 " fill-opacity="1" fill-rule="nonzero"/><path fill="#211715" d="M 137.324219 95.683594 C 137.582031 96.046875 137.832031 96.414062 138.078125 96.78125 C 138.1875 96.945312 138.433594 97.203125 138.214844 97.382812 C 138.148438 97.433594 138.070312 97.453125 137.988281 97.441406 C 137.753906 97.449219 137.523438 97.441406 137.289062 97.441406 L 114.015625 97.441406 C 113.824219 97.441406 113.523438 97.476562 113.519531 97.199219 C 113.539062 97.089844 113.585938 96.996094 113.660156 96.914062 C 113.792969 96.710938 113.929688 96.507812 114.066406 96.308594 C 114.21875 96.085938 114.402344 95.628906 114.703125 95.605469 C 115.105469 95.578125 115.519531 95.605469 115.925781 95.605469 L 135.679688 95.605469 C 136.234375 95.605469 136.234375 94.75 135.679688 94.75 L 115.367188 94.75 C 114.808594 94.75 114.214844 94.679688 113.824219 95.164062 C 113.535156 95.519531 113.289062 95.921875 113.035156 96.304688 C 112.824219 96.621094 112.628906 96.917969 112.671875 97.3125 C 112.707031 97.59375 112.828125 97.824219 113.039062 98.015625 C 113.25 98.203125 113.492188 98.296875 113.773438 98.300781 C 113.941406 98.308594 114.109375 98.300781 114.273438 98.300781 L 137.890625 98.300781 C 138.480469 98.300781 139.039062 98.007812 139.144531 97.371094 C 139.179688 97.003906 139.082031 96.675781 138.847656 96.390625 C 138.59375 96.007812 138.332031 95.628906 138.066406 95.25 C 137.753906 94.800781 137.007812 95.230469 137.324219 95.683594 Z M 137.324219 95.683594 " fill-opacity="1" fill-rule="nonzero"/><path fill="#211715" d="M 114.203125 79.335938 C 114.203125 81.472656 114.203125 83.609375 114.203125 85.746094 C 114.207031 87.808594 114.207031 89.871094 114.207031 91.933594 C 114.207031 92.359375 114.207031 92.789062 114.207031 93.214844 C 114.210938 93.332031 114.25 93.433594 114.335938 93.515625 C 114.417969 93.597656 114.519531 93.640625 114.636719 93.644531 L 122.921875 93.640625 L 133.300781 93.636719 C 134.597656 93.636719 135.894531 93.636719 137.191406 93.632812 C 137.308594 93.632812 137.410156 93.589844 137.492188 93.507812 C 137.578125 93.425781 137.617188 93.324219 137.621094 93.207031 C 137.621094 89.472656 137.617188 85.738281 137.617188 82.007812 L 137.613281 79.328125 C 137.613281 79.210938 137.570312 79.109375 137.488281 79.027344 C 137.402344 78.945312 137.304688 78.902344 137.183594 78.898438 L 135.265625 78.898438 L 130.535156 78.902344 L 124.535156 78.902344 L 118.8125 78.90625 L 114.628906 78.90625 C 114.078125 78.90625 114.078125 79.765625 114.628906 79.765625 L 118.195312 79.765625 L 123.773438 79.761719 L 129.820312 79.761719 L 134.796875 79.757812 L 136.398438 79.757812 C 136.648438 79.773438 136.898438 79.773438 137.152344 79.757812 C 137.164062 79.757812 137.171875 79.757812 137.183594 79.757812 L 136.753906 79.328125 C 136.757812 82.945312 136.757812 86.5625 136.761719 90.175781 L 136.761719 93.207031 L 137.191406 92.777344 C 134.457031 92.777344 131.726562 92.777344 128.992188 92.78125 L 118.585938 92.78125 L 114.636719 92.785156 L 115.066406 93.214844 C 115.066406 92.011719 115.066406 90.8125 115.066406 89.609375 C 115.0625 87.285156 115.0625 84.960938 115.0625 82.640625 C 115.0625 81.539062 115.0625 80.4375 115.058594 79.335938 C 115.0625 78.785156 114.203125 78.785156 114.203125 79.335938 Z M 114.203125 79.335938 " fill-opacity="1" fill-rule="nonzero"/><g clip-path="url(#c7dbf08574)"><path fill="#211715" d="M 113.003906 90.222656 C 113.003906 87.734375 113 85.25 113 82.761719 C 113 81.601562 113 80.445312 113 79.285156 C 113 78.832031 112.914062 78.316406 113.285156 77.976562 C 113.578125 77.707031 113.941406 77.738281 114.308594 77.738281 L 124.96875 77.734375 L 136.5625 77.730469 L 137.640625 77.730469 C 138.058594 77.730469 138.441406 77.765625 138.6875 78.152344 C 138.925781 78.535156 138.820312 79.109375 138.820312 79.539062 L 138.820312 81.136719 C 138.820312 83.53125 138.820312 85.921875 138.824219 88.316406 C 138.824219 89.476562 138.824219 90.640625 138.824219 91.800781 L 138.824219 93.375 C 138.824219 93.621094 138.777344 93.90625 138.910156 94.121094 C 139.019531 94.300781 139.15625 94.46875 139.28125 94.636719 C 139.898438 95.5 140.511719 96.363281 141.113281 97.234375 C 141.421875 97.6875 141.726562 98.136719 142.019531 98.597656 C 142.148438 98.792969 142.273438 98.988281 142.394531 99.1875 C 142.546875 99.378906 142.636719 99.59375 142.667969 99.835938 C 142.671875 100.195312 142.691406 100.566406 142.664062 100.925781 C 142.636719 101.257812 142.359375 101.269531 142.097656 101.269531 L 109.621094 101.269531 C 109.421875 101.269531 109.199219 101.304688 109.160156 101.050781 C 109.136719 100.792969 109.136719 100.535156 109.15625 100.277344 C 109.125 100.039062 109.140625 99.804688 109.199219 99.570312 C 109.308594 99.359375 109.429688 99.15625 109.566406 98.960938 C 110.136719 98.042969 110.746094 97.144531 111.359375 96.253906 C 111.660156 95.824219 111.957031 95.394531 112.257812 94.964844 C 112.382812 94.789062 112.507812 94.617188 112.632812 94.441406 C 112.777344 94.277344 112.898438 94.097656 112.988281 93.894531 C 113.027344 93.640625 113.03125 93.382812 113.003906 93.125 L 113.003906 92.285156 C 113.003906 91.597656 113.003906 90.910156 113.003906 90.21875 C 113.003906 89.667969 112.144531 89.667969 112.144531 90.21875 C 112.144531 91.40625 112.144531 92.59375 112.144531 93.78125 L 112.203125 93.566406 C 111.5625 94.464844 110.929688 95.371094 110.304688 96.28125 C 109.960938 96.78125 109.625 97.289062 109.292969 97.796875 C 108.949219 98.257812 108.65625 98.746094 108.40625 99.261719 C 108.253906 99.640625 108.292969 100.066406 108.300781 100.46875 C 108.304688 101.027344 108.257812 101.585938 108.777344 101.945312 C 109.1875 102.222656 109.832031 102.125 110.308594 102.125 L 141.84375 102.125 C 142.089844 102.144531 142.335938 102.132812 142.582031 102.097656 C 143.230469 101.953125 143.523438 101.382812 143.523438 100.765625 C 143.527344 100.3125 143.597656 99.78125 143.453125 99.34375 C 143.347656 99.085938 143.210938 98.839844 143.050781 98.613281 C 142.890625 98.355469 142.726562 98.101562 142.5625 97.851562 C 141.882812 96.820312 141.171875 95.816406 140.457031 94.8125 C 140.179688 94.421875 139.902344 94.035156 139.625 93.648438 L 139.683594 93.863281 C 139.683594 89.726562 139.679688 85.59375 139.679688 81.457031 C 139.679688 80.535156 139.6875 79.613281 139.679688 78.691406 C 139.683594 78.449219 139.640625 78.214844 139.550781 77.988281 C 139.457031 77.765625 139.328125 77.566406 139.15625 77.394531 C 138.984375 77.222656 138.785156 77.089844 138.558594 77 C 138.332031 76.910156 138.097656 76.867188 137.855469 76.871094 C 136.4375 76.863281 135.019531 76.871094 133.601562 76.871094 L 122.667969 76.875 L 117.636719 76.878906 L 115.492188 76.878906 C 114.917969 76.878906 114.316406 76.828125 113.746094 76.886719 C 113.210938 76.9375 112.785156 77.175781 112.46875 77.609375 C 112.171875 78.015625 112.140625 78.46875 112.140625 78.953125 C 112.140625 79.957031 112.140625 80.964844 112.140625 81.96875 L 112.140625 90.21875 C 112.144531 90.773438 113.003906 90.773438 113.003906 90.222656 Z M 113.003906 90.222656 " fill-opacity="1" fill-rule="nonzero"/></g><path fill="#211715" d="M 139.953125 99.273438 L 115.324219 99.273438 C 114.191406 99.273438 113.050781 99.234375 111.917969 99.273438 C 111.902344 99.273438 111.886719 99.273438 111.871094 99.273438 C 111.316406 99.273438 111.316406 100.132812 111.871094 100.132812 L 136.5 100.132812 C 137.632812 100.132812 138.773438 100.171875 139.90625 100.132812 C 139.921875 100.132812 139.9375 100.132812 139.953125 100.132812 C 140.507812 100.132812 140.507812 99.273438 139.953125 99.273438 Z M 139.953125 99.273438 " fill-opacity="1" fill-rule="nonzero"/><path fill="#cfcfcf" d="M 79.136719 95.179688 C 79.371094 95.179688 79.558594 95.277344 79.691406 95.46875 C 79.992188 95.898438 80.3125 96.363281 80.613281 96.828125 C 80.761719 97.054688 80.769531 97.285156 80.640625 97.519531 C 80.511719 97.753906 80.316406 97.871094 80.046875 97.871094 L 55.765625 97.871094 C 55.5 97.871094 55.300781 97.753906 55.171875 97.519531 C 55.042969 97.285156 55.050781 97.054688 55.199219 96.828125 C 55.503906 96.363281 55.820312 95.898438 56.121094 95.46875 C 56.257812 95.273438 56.441406 95.179688 56.675781 95.179688 C 61.496094 95.179688 74.316406 95.179688 79.136719 95.179688 " fill-opacity="1" fill-rule="nonzero"/><path fill="#211715" d="M 79.320312 95.683594 C 79.574219 96.046875 79.828125 96.414062 80.074219 96.78125 C 80.183594 96.945312 80.425781 97.203125 80.210938 97.382812 C 80.140625 97.433594 80.066406 97.453125 79.980469 97.441406 C 79.75 97.449219 79.519531 97.441406 79.285156 97.441406 L 56.011719 97.441406 C 55.820312 97.441406 55.519531 97.476562 55.515625 97.199219 C 55.535156 97.089844 55.582031 96.996094 55.65625 96.914062 C 55.789062 96.710938 55.925781 96.507812 56.0625 96.308594 C 56.214844 96.085938 56.398438 95.628906 56.699219 95.609375 C 57.101562 95.578125 57.515625 95.609375 57.921875 95.609375 L 77.675781 95.609375 C 78.230469 95.609375 78.230469 94.75 77.675781 94.75 L 57.363281 94.75 C 56.804688 94.75 56.210938 94.679688 55.820312 95.164062 C 55.53125 95.523438 55.28125 95.921875 55.027344 96.304688 C 54.816406 96.621094 54.625 96.917969 54.667969 97.3125 C 54.703125 97.59375 54.824219 97.828125 55.035156 98.015625 C 55.242188 98.203125 55.488281 98.296875 55.769531 98.300781 C 55.9375 98.308594 56.101562 98.300781 56.269531 98.300781 L 79.886719 98.300781 C 80.476562 98.300781 81.035156 98.011719 81.136719 97.371094 C 81.175781 97.003906 81.078125 96.679688 80.84375 96.390625 C 80.589844 96.007812 80.328125 95.628906 80.0625 95.25 C 79.75 94.800781 79.003906 95.230469 79.320312 95.683594 Z M 79.320312 95.683594 " fill-opacity="1" fill-rule="nonzero"/><path fill="#211715" d="M 56.199219 79.335938 C 56.199219 81.472656 56.199219 83.609375 56.199219 85.746094 C 56.199219 87.808594 56.203125 89.871094 56.203125 91.933594 C 56.203125 92.359375 56.203125 92.789062 56.203125 93.214844 C 56.203125 93.332031 56.246094 93.433594 56.332031 93.515625 C 56.414062 93.597656 56.515625 93.640625 56.632812 93.644531 L 64.914062 93.640625 L 75.296875 93.636719 C 76.59375 93.636719 77.890625 93.636719 79.1875 93.632812 C 79.304688 93.632812 79.40625 93.589844 79.488281 93.507812 C 79.570312 93.425781 79.613281 93.324219 79.617188 93.207031 C 79.613281 89.472656 79.613281 85.738281 79.609375 82.007812 L 79.609375 79.328125 C 79.609375 79.210938 79.566406 79.109375 79.480469 79.027344 C 79.398438 78.945312 79.296875 78.902344 79.179688 78.898438 L 77.261719 78.898438 L 72.527344 78.902344 L 66.53125 78.902344 L 60.808594 78.90625 L 56.628906 78.90625 C 56.074219 78.90625 56.074219 79.765625 56.628906 79.765625 L 60.191406 79.765625 L 65.769531 79.761719 L 71.816406 79.761719 L 76.792969 79.757812 L 78.394531 79.757812 C 78.644531 79.773438 78.894531 79.773438 79.148438 79.757812 C 79.160156 79.757812 79.171875 79.757812 79.179688 79.757812 L 78.75 79.328125 C 78.753906 82.945312 78.753906 86.5625 78.757812 90.175781 L 78.757812 93.207031 L 79.1875 92.777344 C 76.453125 92.777344 73.722656 92.777344 70.988281 92.78125 L 60.582031 92.78125 L 56.632812 92.785156 L 57.0625 93.214844 C 57.0625 92.011719 57.0625 90.8125 57.0625 89.609375 C 57.058594 87.285156 57.058594 84.960938 57.058594 82.640625 C 57.058594 81.539062 57.058594 80.4375 57.054688 79.335938 C 57.054688 78.785156 56.195312 78.785156 56.199219 79.335938 Z M 56.199219 79.335938 " fill-opacity="1" fill-rule="nonzero"/><g clip-path="url(#36df6ac81b)"><path fill="#211715" d="M 55 90.222656 C 54.996094 87.734375 54.996094 85.25 54.996094 82.761719 C 54.996094 81.601562 54.996094 80.445312 54.996094 79.285156 C 54.996094 78.832031 54.910156 78.316406 55.28125 77.976562 C 55.574219 77.707031 55.933594 77.738281 56.304688 77.738281 L 66.960938 77.734375 L 78.558594 77.730469 L 79.636719 77.730469 C 80.054688 77.730469 80.4375 77.765625 80.683594 78.152344 C 80.921875 78.535156 80.816406 79.109375 80.816406 79.539062 L 80.816406 81.136719 C 80.816406 83.53125 80.816406 85.921875 80.816406 88.316406 C 80.816406 89.476562 80.816406 90.640625 80.816406 91.800781 L 80.816406 93.375 C 80.816406 93.621094 80.773438 93.90625 80.90625 94.121094 C 81.015625 94.300781 81.152344 94.46875 81.273438 94.636719 C 81.890625 95.5 82.507812 96.363281 83.105469 97.234375 C 83.414062 97.6875 83.722656 98.136719 84.015625 98.597656 C 84.144531 98.792969 84.265625 98.988281 84.390625 99.1875 C 84.542969 99.378906 84.632812 99.59375 84.664062 99.835938 C 84.667969 100.195312 84.6875 100.566406 84.660156 100.925781 C 84.632812 101.257812 84.355469 101.269531 84.09375 101.269531 L 51.617188 101.269531 C 51.417969 101.269531 51.195312 101.304688 51.152344 101.050781 C 51.132812 100.792969 51.132812 100.535156 51.152344 100.277344 C 51.121094 100.039062 51.132812 99.804688 51.195312 99.570312 C 51.300781 99.359375 51.421875 99.15625 51.5625 98.960938 C 52.132812 98.042969 52.742188 97.144531 53.355469 96.253906 C 53.652344 95.824219 53.953125 95.394531 54.253906 94.964844 C 54.378906 94.789062 54.503906 94.617188 54.625 94.441406 C 54.773438 94.277344 54.894531 94.097656 54.984375 93.894531 C 55.019531 93.640625 55.027344 93.382812 55 93.125 L 55 92.285156 C 55 91.597656 55 90.910156 55 90.21875 C 55 89.667969 54.140625 89.667969 54.140625 90.21875 C 54.140625 91.40625 54.140625 92.59375 54.140625 93.78125 L 54.199219 93.566406 C 53.558594 94.464844 52.925781 95.371094 52.300781 96.28125 C 51.957031 96.78125 51.621094 97.289062 51.285156 97.796875 C 50.945312 98.257812 50.652344 98.746094 50.402344 99.261719 C 50.246094 99.644531 50.289062 100.066406 50.292969 100.472656 C 50.300781 101.03125 50.25 101.589844 50.773438 101.945312 C 51.183594 102.226562 51.824219 102.128906 52.304688 102.128906 L 83.835938 102.128906 C 84.085938 102.144531 84.332031 102.136719 84.578125 102.097656 C 85.226562 101.957031 85.519531 101.386719 85.519531 100.769531 C 85.523438 100.316406 85.59375 99.785156 85.449219 99.347656 C 85.339844 99.085938 85.207031 98.84375 85.042969 98.613281 C 84.886719 98.359375 84.722656 98.105469 84.554688 97.851562 C 83.878906 96.824219 83.167969 95.816406 82.453125 94.8125 C 82.175781 94.425781 81.898438 94.035156 81.621094 93.648438 L 81.679688 93.867188 C 81.679688 89.730469 81.675781 85.59375 81.675781 81.457031 C 81.675781 80.535156 81.683594 79.617188 81.675781 78.695312 C 81.679688 78.453125 81.636719 78.21875 81.546875 77.992188 C 81.453125 77.765625 81.324219 77.566406 81.148438 77.394531 C 80.976562 77.222656 80.777344 77.09375 80.554688 77.003906 C 80.328125 76.910156 80.09375 76.867188 79.851562 76.871094 C 78.433594 76.863281 77.015625 76.871094 75.597656 76.875 L 64.664062 76.878906 L 57.488281 76.878906 C 56.910156 76.878906 56.3125 76.832031 55.738281 76.886719 C 55.207031 76.9375 54.78125 77.179688 54.464844 77.613281 C 54.167969 78.015625 54.132812 78.472656 54.132812 78.953125 C 54.132812 79.960938 54.132812 80.964844 54.132812 81.96875 L 54.136719 88.667969 L 54.136719 90.222656 C 54.140625 90.773438 55 90.773438 55 90.222656 Z M 55 90.222656 " fill-opacity="1" fill-rule="nonzero"/></g><path fill="#211715" d="M 81.949219 99.273438 L 57.320312 99.273438 C 56.1875 99.273438 55.046875 99.234375 53.914062 99.273438 C 53.898438 99.273438 53.882812 99.273438 53.867188 99.273438 C 53.3125 99.273438 53.3125 100.132812 53.867188 100.132812 L 78.496094 100.132812 C 79.628906 100.132812 80.769531 100.171875 81.902344 100.132812 C 81.917969 100.132812 81.933594 100.132812 81.949219 100.132812 C 82.503906 100.132812 82.503906 99.273438 81.949219 99.273438 Z M 81.949219 99.273438 " fill-opacity="1" fill-rule="nonzero"/><g clip-path="url(#8823cc5753)"><path fill="#211715" d="M 84.96875 52.351562 L 84.964844 61.226562 L 84.964844 64.382812 C 84.945312 64.753906 84.953125 65.121094 84.988281 65.488281 C 85.039062 65.796875 85.160156 66.074219 85.355469 66.316406 C 85.554688 66.558594 85.800781 66.734375 86.09375 66.847656 C 86.542969 67.019531 87.078125 66.957031 87.554688 66.957031 C 92.300781 66.957031 97.046875 66.960938 101.789062 66.960938 L 104.914062 66.960938 C 105.445312 66.960938 105.992188 67.003906 106.46875 66.714844 C 106.738281 66.546875 106.945312 66.324219 107.09375 66.042969 C 107.246094 65.765625 107.316406 65.46875 107.304688 65.152344 C 107.324219 62.214844 107.304688 59.277344 107.308594 56.339844 C 107.308594 55.613281 107.308594 54.882812 107.308594 54.15625 C 107.308594 53.808594 107.308594 53.460938 107.308594 53.113281 C 107.324219 52.773438 107.316406 52.4375 107.285156 52.097656 C 107.238281 51.789062 107.113281 51.515625 106.917969 51.273438 C 106.71875 51.03125 106.476562 50.851562 106.183594 50.742188 C 105.765625 50.582031 105.289062 50.632812 104.851562 50.632812 L 98.828125 50.628906 L 91.75 50.625 L 87.320312 50.625 C 86.820312 50.625 86.324219 50.59375 85.867188 50.839844 C 85.59375 50.992188 85.375 51.207031 85.214844 51.476562 C 85.054688 51.746094 84.972656 52.039062 84.96875 52.355469 C 84.953125 52.90625 85.8125 52.90625 85.828125 52.355469 C 85.832031 52.113281 85.917969 51.910156 86.085938 51.742188 C 86.257812 51.574219 86.460938 51.488281 86.699219 51.484375 C 87.078125 51.46875 87.460938 51.484375 87.839844 51.484375 L 97.355469 51.484375 L 103.515625 51.488281 L 104.730469 51.488281 C 105.070312 51.488281 105.492188 51.421875 105.820312 51.523438 C 106.035156 51.585938 106.199219 51.710938 106.316406 51.898438 C 106.441406 52.148438 106.484375 52.414062 106.445312 52.691406 C 106.445312 53.359375 106.445312 54.023438 106.445312 54.691406 C 106.445312 57.527344 106.445312 60.367188 106.445312 63.203125 C 106.445312 63.851562 106.445312 64.5 106.445312 65.152344 C 106.460938 65.390625 106.394531 65.601562 106.238281 65.789062 C 106.085938 65.972656 105.886719 66.078125 105.648438 66.101562 C 105.210938 66.140625 104.757812 66.105469 104.320312 66.105469 L 102.835938 66.105469 L 89.085938 66.097656 L 87.058594 66.097656 C 86.832031 66.121094 86.605469 66.101562 86.386719 66.042969 C 85.835938 65.835938 85.824219 65.3125 85.824219 64.808594 L 85.824219 62.792969 C 85.824219 59.957031 85.824219 57.121094 85.828125 54.285156 L 85.828125 52.351562 C 85.828125 51.800781 84.96875 51.800781 84.96875 52.351562 Z M 84.96875 52.351562 " fill-opacity="1" fill-rule="nonzero"/></g><path fill="#211715" d="M 87.148438 53.9375 C 89.355469 55.890625 91.601562 57.800781 93.882812 59.664062 C 94.140625 59.875 94.398438 60.082031 94.65625 60.289062 C 94.929688 60.539062 95.21875 60.769531 95.523438 60.976562 C 95.820312 61.148438 96.128906 61.1875 96.457031 61.085938 C 96.816406 60.976562 97.121094 60.652344 97.410156 60.425781 C 98.644531 59.453125 99.855469 58.457031 101.054688 57.441406 C 102.425781 56.28125 103.78125 55.101562 105.125 53.902344 C 105.539062 53.535156 104.929688 52.929688 104.515625 53.292969 C 102.253906 55.308594 99.960938 57.285156 97.601562 59.183594 C 97.335938 59.398438 97.070312 59.609375 96.804688 59.820312 C 96.625 59.960938 96.320312 60.316406 96.074219 60.28125 C 95.941406 60.234375 95.824219 60.160156 95.730469 60.058594 C 95.597656 59.953125 95.464844 59.847656 95.335938 59.742188 C 95.066406 59.523438 94.796875 59.304688 94.527344 59.085938 C 93.445312 58.203125 92.367188 57.304688 91.300781 56.398438 C 90.109375 55.386719 88.925781 54.367188 87.757812 53.332031 C 87.34375 52.964844 86.734375 53.570312 87.148438 53.9375 Z M 87.148438 53.9375 " fill-opacity="1" fill-rule="nonzero"/><path fill="#211715" d="M 116.265625 68.375 L 115.792969 71.714844 C 115.765625 71.828125 115.78125 71.9375 115.839844 72.039062 C 115.898438 72.140625 115.984375 72.207031 116.09375 72.242188 C 116.210938 72.273438 116.320312 72.257812 116.421875 72.199219 C 116.523438 72.140625 116.59375 72.054688 116.625 71.941406 L 117.09375 68.601562 C 117.121094 68.488281 117.105469 68.378906 117.050781 68.277344 C 116.992188 68.175781 116.90625 68.109375 116.792969 68.074219 C 116.679688 68.042969 116.570312 68.058594 116.46875 68.117188 C 116.363281 68.175781 116.296875 68.261719 116.265625 68.375 Z M 116.265625 68.375 " fill-opacity="1" fill-rule="nonzero"/><path fill="#211715" d="M 112.816406 72.050781 L 116.1875 72.28125 C 116.304688 72.28125 116.40625 72.238281 116.488281 72.152344 C 116.574219 72.070312 116.617188 71.96875 116.617188 71.851562 C 116.617188 71.730469 116.574219 71.628906 116.488281 71.546875 C 116.40625 71.464844 116.304688 71.421875 116.1875 71.421875 L 112.816406 71.195312 C 112.699219 71.195312 112.597656 71.234375 112.511719 71.320312 C 112.429688 71.402344 112.386719 71.503906 112.386719 71.625 C 112.386719 71.742188 112.429688 71.84375 112.511719 71.925781 C 112.597656 72.011719 112.699219 72.050781 112.816406 72.050781 Z M 112.816406 72.050781 " fill-opacity="1" fill-rule="nonzero"/><g fill="#0c52a1" fill-opacity="1"><g transform="translate(2.445124, 25.303164)"><g><path d="M 7.453125 0.335938 C 11.539062 0.335938 13.953125 -2.125 13.953125 -5.019531 C 13.953125 -7.574219 12.542969 -8.9375 10.394531 -9.820312 L 8.074219 -10.800781 C 6.570312 -11.398438 5.304688 -11.851562 5.304688 -13.117188 C 5.304688 -14.289062 6.308594 -14.980469 7.859375 -14.980469 C 9.320312 -14.980469 10.488281 -14.457031 11.613281 -13.523438 L 13.40625 -15.746094 C 11.972656 -17.203125 9.914062 -18.015625 7.859375 -18.015625 C 4.277344 -18.015625 1.746094 -15.792969 1.746094 -12.902344 C 1.746094 -10.320312 3.535156 -8.886719 5.328125 -8.148438 L 7.695312 -7.144531 C 9.269531 -6.476562 10.347656 -6.070312 10.347656 -4.753906 C 10.347656 -3.511719 9.367188 -2.722656 7.527344 -2.722656 C 5.972656 -2.722656 4.300781 -3.511719 3.035156 -4.683594 L 1.003906 -2.246094 C 2.722656 -0.597656 5.089844 0.335938 7.453125 0.335938 Z M 7.453125 0.335938 "/></g></g></g><g fill="#0c52a1" fill-opacity="1"><g transform="translate(17.354893, 25.303164)"><g><path d="M 5.6875 0 L 9.222656 0 L 9.222656 -14.742188 L 14.242188 -14.742188 L 14.242188 -17.679688 L 0.71875 -17.679688 L 0.71875 -14.742188 L 5.6875 -14.742188 Z M 5.6875 0 "/></g></g></g><g fill="#0c52a1" fill-opacity="1"><g transform="translate(32.288555, 25.303164)"><g><path d="M 2.175781 0 L 13.285156 0 L 13.285156 -2.960938 L 5.710938 -2.960938 L 5.710938 -7.695312 L 11.921875 -7.695312 L 11.921875 -10.65625 L 5.710938 -10.65625 L 5.710938 -14.742188 L 13.023438 -14.742188 L 13.023438 -17.679688 L 2.175781 -17.679688 Z M 2.175781 0 "/></g></g></g><g fill="#0c52a1" fill-opacity="1"><g transform="translate(46.983272, 25.303164)"><g><path d="M 2.175781 0 L 5.710938 0 L 5.710938 -6.285156 L 8.074219 -6.285156 C 11.875 -6.285156 14.910156 -8.101562 14.910156 -12.136719 C 14.910156 -16.320312 11.898438 -17.679688 7.980469 -17.679688 L 2.175781 -17.679688 Z M 5.710938 -9.078125 L 5.710938 -14.886719 L 7.71875 -14.886719 C 10.15625 -14.886719 11.445312 -14.191406 11.445312 -12.136719 C 11.445312 -10.105469 10.273438 -9.078125 7.835938 -9.078125 Z M 5.710938 -9.078125 "/></g></g></g><g fill="#0c52a1" fill-opacity="1"><g transform="translate(62.920469, 25.303164)"><g/></g></g><g fill="#0c52a1" fill-opacity="1"><g transform="translate(68.344368, 25.303164)"><g><path d="M 1.960938 0 L 12.59375 0 L 12.59375 -2.84375 L 9.269531 -2.84375 L 9.269531 -17.679688 L 6.667969 -17.679688 C 5.542969 -16.988281 4.324219 -16.535156 2.554688 -16.199219 L 2.554688 -14.027344 L 5.757812 -14.027344 L 5.757812 -2.84375 L 1.960938 -2.84375 Z M 1.960938 0 "/></g></g></g></svg>