<svg xmlns="http://www.w3.org/2000/svg" xmlns:xlink="http://www.w3.org/1999/xlink" width="200" zoomAndPan="magnify" viewBox="0 0 150 112.499997" height="150" preserveAspectRatio="xMidYMid meet" version="1.0"><defs><g/><clipPath id="539b164230"><path d="M 82.421875 61 L 130 61 L 130 101 L 82.421875 101 Z M 82.421875 61 " clip-rule="nonzero"/></clipPath><clipPath id="24cc298ea0"><path d="M 93 27.851562 L 112 27.851562 L 112 46 L 93 46 Z M 93 27.851562 " clip-rule="nonzero"/></clipPath><clipPath id="99d4105f9f"><path d="M 116 62 L 130.210938 62 L 130.210938 101.027344 L 116 101.027344 Z M 116 62 " clip-rule="nonzero"/></clipPath><clipPath id="8c9a80254b"><path d="M 82.421875 62 L 98 62 L 98 101 L 82.421875 101 Z M 82.421875 62 " clip-rule="nonzero"/></clipPath></defs><path fill="#ffffff" d="M 106.6875 62.90625 C 106.367188 62.675781 102.128906 59.300781 101.921875 59.128906 C 101.921875 59.128906 101.921875 58.851562 101.921875 58.492188 C 100.910156 57.851562 100.03125 57.0625 99.277344 56.128906 C 98.230469 54.847656 97.464844 53.414062 96.984375 51.828125 C 96.429688 51.929688 95.941406 51.800781 95.511719 51.4375 C 94.636719 50.714844 94.273438 49.710938 94.054688 49.050781 C 93.742188 48.121094 93.722656 46.621094 94.1875 45.808594 C 94.328125 45.5625 94.519531 45.371094 94.765625 45.230469 C 95.011719 45.09375 95.273438 45.03125 95.554688 45.039062 C 96.011719 45.019531 96.40625 45.164062 96.742188 45.476562 C 96.742188 45.476562 95.382812 35.785156 107.058594 35.785156 C 118.734375 35.785156 117.378906 45.476562 117.378906 45.476562 C 117.714844 45.164062 118.109375 45.019531 118.566406 45.039062 C 118.847656 45.027344 119.109375 45.09375 119.355469 45.230469 C 119.601562 45.371094 119.792969 45.5625 119.933594 45.804688 C 120.398438 46.621094 120.378906 48.121094 120.066406 49.050781 C 119.847656 49.710938 119.484375 50.714844 118.609375 51.4375 C 118.203125 51.777344 117.738281 51.914062 117.214844 51.84375 L 117.121094 51.828125 C 116.953125 52.3125 116.746094 52.746094 116.679688 52.960938 C 116.339844 53.890625 114.527344 57.054688 112.199219 58.464844 C 112.199219 58.839844 112.199219 59.128906 112.199219 59.128906 C 111.992188 59.300781 107.753906 62.675781 107.433594 62.90625 Z M 106.6875 62.90625 " fill-opacity="1" fill-rule="nonzero"/><g clip-path="url(#539b164230)"><path fill="#b3b3b3" d="M 106.824219 84.890625 C 105.351562 81.21875 104.972656 80.003906 103.820312 76.433594 C 102.265625 71.613281 100.824219 66.3125 99.71875 61.351562 C 98.996094 61.824219 98.304688 62.335938 97.640625 62.882812 C 94.683594 63.800781 92.367188 64.714844 89.707031 66.421875 C 88.652344 67.105469 87.789062 67.984375 87.113281 69.050781 C 86.296875 70.324219 85.679688 72.042969 85.332031 73.527344 C 84.929688 75.246094 84.742188 76.199219 84.367188 78.488281 C 83.667969 82.636719 83.207031 86.816406 82.984375 91.023438 C 82.875 92.804688 83.046875 94.722656 83.707031 96.375 C 84.371094 98.023438 86.035156 99.582031 87.6875 100.097656 C 88.925781 100.507812 90.144531 100.464844 91.351562 99.96875 C 91.667969 99.96875 91.851562 99.96875 91.851562 99.96875 L 121.089844 99.96875 C 122.425781 100.5625 123.792969 100.644531 125.191406 100.207031 C 126.847656 99.707031 128.101562 98.265625 128.765625 96.652344 C 129.429688 95.042969 129.582031 93.265625 129.644531 91.523438 C 129.835938 86.144531 129.257812 81.335938 128.0625 75.378906 C 127.78125 73.617188 127.320312 71.90625 126.683594 70.242188 C 126.394531 69.441406 126.019531 68.6875 125.5625 67.972656 C 124.613281 66.554688 123.191406 65.515625 121.660156 64.78125 C 120.132812 64.046875 118.488281 63.589844 116.855469 63.140625 L 116.75 63.113281 C 116.003906 62.476562 115.222656 61.886719 114.402344 61.351562 C 113.296875 66.3125 111.851562 71.613281 110.300781 76.433594 C 109.148438 80.003906 108.769531 81.21875 107.296875 84.890625 " fill-opacity="1" fill-rule="nonzero"/></g><path fill="#ffffff" d="M 103.445312 75.246094 C 102.175781 71.199219 100.996094 66.871094 100.03125 62.726562 L 100.019531 62.425781 C 99.859375 61.988281 100.066406 61.382812 100.347656 61.054688 C 100.828125 60.492188 101.429688 59.683594 101.917969 59.128906 C 102.128906 59.300781 106.367188 62.675781 106.6875 62.90625 L 107.433594 62.90625 C 107.757812 62.675781 111.996094 59.300781 112.203125 59.128906 C 112.691406 59.683594 113.292969 60.492188 113.773438 61.054688 C 114.054688 61.382812 114.261719 61.988281 114.101562 62.425781 L 114.128906 62.554688 C 113.066406 67.160156 111.730469 72 110.300781 76.433594 C 109.089844 80.191406 108.734375 81.335938 107.058594 85.476562 C 105.386719 81.335938 105.03125 80.1875 103.820312 76.433594 C 103.695312 76.042969 103.570312 75.644531 103.445312 75.246094 Z M 103.445312 75.246094 " fill-opacity="1" fill-rule="nonzero"/><path fill="#3d8dcc" d="M 104.941406 71.464844 C 105.199219 69.609375 105.378906 68.277344 105.378906 68.152344 C 105.347656 67.695312 105.257812 67.253906 105.101562 66.824219 C 105.015625 66.429688 104.902344 66.046875 104.753906 65.671875 C 104.753906 65.671875 104.722656 65.605469 104.679688 65.507812 C 105.359375 64.578125 106.183594 63.480469 106.6875 62.90625 L 107.433594 62.90625 C 107.9375 63.480469 108.765625 64.585938 109.449219 65.515625 L 109.441406 65.546875 C 109.296875 66.136719 109.277344 66.421875 109.152344 66.984375 C 109.132812 67.09375 109.105469 67.207031 109.078125 67.320312 C 109.011719 67.566406 108.972656 67.816406 108.964844 68.070312 C 108.964844 68.214844 109.59375 73.128906 110.058594 77.183594 C 109.035156 80.363281 108.617188 81.625 107.0625 85.476562 C 105.53125 81.691406 105.105469 80.410156 104.117188 77.351562 C 104.40625 75.292969 104.707031 73.160156 104.941406 71.464844 Z M 104.941406 71.464844 " fill-opacity="1" fill-rule="nonzero"/><path fill="#211715" d="M 108.796875 66.867188 C 107.695312 66.867188 106.589844 66.855469 105.484375 66.855469 C 105.339844 66.855469 105.214844 66.90625 105.109375 67.011719 C 105.007812 67.117188 104.953125 67.242188 104.953125 67.390625 C 104.953125 67.535156 105.007812 67.664062 105.109375 67.765625 C 105.214844 67.871094 105.339844 67.925781 105.484375 67.925781 C 106.589844 67.925781 107.695312 67.9375 108.796875 67.9375 C 108.945312 67.9375 109.070312 67.882812 109.171875 67.78125 C 109.277344 67.675781 109.328125 67.546875 109.328125 67.402344 C 109.328125 67.253906 109.277344 67.128906 109.171875 67.023438 C 109.070312 66.917969 108.945312 66.867188 108.796875 66.867188 Z M 108.796875 66.867188 " fill-opacity="1" fill-rule="nonzero"/><path fill="#211715" d="M 108.929688 65.402344 C 108.828125 65.832031 108.761719 66.265625 108.671875 66.699219 C 108.578125 67.148438 108.414062 67.617188 108.433594 68.082031 C 108.445312 68.386719 108.503906 68.699219 108.539062 69 C 108.730469 70.566406 108.925781 72.132812 109.117188 73.699219 C 109.25 74.808594 109.382812 75.921875 109.511719 77.03125 C 109.515625 77.179688 109.570312 77.304688 109.671875 77.40625 C 109.773438 77.511719 109.898438 77.5625 110.042969 77.566406 C 110.1875 77.566406 110.3125 77.515625 110.414062 77.410156 C 110.515625 77.304688 110.570312 77.179688 110.570312 77.03125 C 110.355469 75.160156 110.128906 73.285156 109.894531 71.414062 C 109.761719 70.332031 109.582031 69.238281 109.496094 68.148438 C 109.5 67.828125 109.550781 67.515625 109.644531 67.210938 C 109.753906 66.703125 109.832031 66.191406 109.949219 65.6875 C 110.109375 65.019531 109.085938 64.734375 108.929688 65.402344 Z M 108.929688 65.402344 " fill-opacity="1" fill-rule="nonzero"/><path fill="#211715" d="M 104.675781 77.128906 C 104.945312 75.226562 105.210938 73.328125 105.476562 71.429688 C 105.574219 70.742188 105.667969 70.054688 105.761719 69.367188 C 105.8125 68.988281 105.878906 68.601562 105.902344 68.21875 C 105.910156 67.8125 105.847656 67.417969 105.71875 67.03125 C 105.589844 66.476562 105.417969 65.933594 105.210938 65.402344 C 105.136719 65.277344 105.027344 65.195312 104.886719 65.15625 C 104.746094 65.121094 104.613281 65.136719 104.484375 65.210938 C 104.363281 65.289062 104.28125 65.398438 104.246094 65.539062 C 104.210938 65.679688 104.226562 65.816406 104.296875 65.945312 C 104.457031 66.375 104.585938 66.816406 104.683594 67.265625 C 104.789062 67.566406 104.84375 67.878906 104.847656 68.195312 C 104.839844 68.3125 104.824219 68.429688 104.808594 68.542969 C 104.796875 68.628906 104.789062 68.714844 104.777344 68.800781 C 104.769531 68.855469 104.761719 68.910156 104.753906 68.964844 C 104.742188 69.042969 104.738281 69.089844 104.738281 69.085938 C 104.539062 70.582031 104.328125 72.074219 104.117188 73.570312 C 103.960938 74.660156 103.808594 75.75 103.65625 76.84375 C 103.621094 76.984375 103.640625 77.117188 103.710938 77.246094 C 103.78125 77.371094 103.886719 77.457031 104.027344 77.5 C 104.167969 77.539062 104.300781 77.523438 104.425781 77.449219 C 104.554688 77.375 104.636719 77.269531 104.675781 77.128906 Z M 104.675781 77.128906 " fill-opacity="1" fill-rule="nonzero"/><path fill="#211715" d="M 101.546875 58.75 C 101.242188 59.097656 100.957031 59.460938 100.667969 59.820312 C 100.386719 60.179688 100.058594 60.519531 99.804688 60.898438 C 99.59375 61.1875 99.476562 61.507812 99.453125 61.867188 C 99.425781 62.222656 99.496094 62.5625 99.664062 62.878906 C 100.289062 63.949219 100.996094 64.960938 101.777344 65.917969 C 102.222656 66.507812 102.742188 67.011719 103.339844 67.441406 C 103.464844 67.511719 103.597656 67.527344 103.738281 67.492188 C 103.878906 67.453125 103.988281 67.371094 104.0625 67.25 C 105.046875 65.921875 105.972656 64.53125 107.0625 63.285156 C 107.179688 63.160156 107.230469 63.011719 107.207031 62.839844 C 107.183594 62.667969 107.101562 62.539062 106.957031 62.445312 C 106.890625 62.398438 106.828125 62.347656 106.761719 62.300781 L 106.6875 62.242188 C 106.6875 62.242188 106.765625 62.304688 106.679688 62.238281 C 106.609375 62.179688 106.535156 62.121094 106.460938 62.0625 C 106.085938 61.769531 105.714844 61.472656 105.339844 61.179688 C 104.539062 60.542969 103.738281 59.90625 102.9375 59.265625 C 102.722656 59.097656 102.507812 58.925781 102.296875 58.753906 C 102.191406 58.652344 102.066406 58.601562 101.921875 58.601562 C 101.777344 58.601562 101.652344 58.652344 101.546875 58.753906 C 101.445312 58.859375 101.394531 58.984375 101.394531 59.128906 C 101.394531 59.277344 101.445312 59.402344 101.546875 59.507812 C 102.894531 60.609375 104.265625 61.679688 105.628906 62.753906 C 105.890625 62.960938 106.152344 63.175781 106.421875 63.371094 L 106.316406 62.53125 C 105.167969 63.84375 104.1875 65.308594 103.152344 66.707031 L 103.875 66.515625 C 103.6875 66.390625 103.519531 66.25 103.363281 66.089844 C 103.144531 65.878906 102.945312 65.65625 102.75 65.425781 C 102.335938 64.941406 101.957031 64.429688 101.59375 63.90625 C 101.296875 63.476562 101.007812 63.042969 100.734375 62.597656 C 100.65625 62.46875 100.574219 62.34375 100.507812 62.210938 C 100.5 62.195312 100.492188 62.183594 100.484375 62.167969 C 100.527344 62.277344 100.496094 62.128906 100.496094 62.09375 C 100.496094 61.929688 100.53125 61.777344 100.605469 61.632812 C 100.777344 61.269531 101.113281 60.960938 101.359375 60.648438 C 101.667969 60.265625 101.972656 59.878906 102.296875 59.507812 C 102.742188 58.996094 102 58.234375 101.546875 58.75 Z M 101.546875 58.75 " fill-opacity="1" fill-rule="nonzero"/><path fill="#211715" d="M 103.644531 84.777344 C 100.996094 80.136719 98.378906 75.476562 95.9375 70.722656 C 95.84375 70.542969 95.75 70.363281 95.660156 70.183594 C 95.570312 70.042969 95.496094 69.890625 95.433594 69.738281 C 95.398438 69.625 95.421875 69.648438 95.53125 69.527344 C 95.660156 69.386719 95.789062 69.246094 95.921875 69.109375 C 96.453125 68.5625 97 68.035156 97.554688 67.511719 C 97.609375 67.453125 97.652344 67.382812 97.675781 67.304688 C 97.703125 67.226562 97.710938 67.148438 97.699219 67.066406 C 97.691406 66.984375 97.664062 66.910156 97.617188 66.839844 C 97.574219 66.769531 97.515625 66.714844 97.445312 66.671875 L 96.394531 66.066406 L 95.914062 65.789062 C 95.820312 65.734375 95.722656 65.679688 95.628906 65.625 L 95.53125 65.566406 C 95.453125 65.519531 95.460938 65.523438 95.554688 65.589844 L 95.628906 65.859375 C 95.597656 65.925781 95.59375 65.9375 95.613281 65.890625 C 95.625 65.863281 95.640625 65.839844 95.652344 65.8125 C 95.675781 65.765625 95.703125 65.722656 95.726562 65.679688 C 95.78125 65.585938 95.839844 65.496094 95.902344 65.40625 C 96.03125 65.21875 96.171875 65.042969 96.320312 64.871094 C 96.695312 64.453125 97.089844 64.058594 97.511719 63.691406 C 98.289062 63.003906 99.117188 62.378906 99.984375 61.8125 L 99.207031 61.496094 C 100.652344 67.96875 102.460938 74.335938 104.628906 80.597656 C 105.148438 82.089844 105.722656 83.566406 106.3125 85.03125 C 106.355469 85.171875 106.4375 85.277344 106.5625 85.351562 C 106.6875 85.421875 106.820312 85.441406 106.960938 85.40625 C 107.101562 85.367188 107.210938 85.28125 107.28125 85.152344 C 107.351562 85.027344 107.371094 84.890625 107.332031 84.75 C 105.011719 78.953125 103.179688 72.949219 101.605469 66.902344 C 101.113281 65.015625 100.65625 63.117188 100.226562 61.210938 C 100.207031 61.132812 100.167969 61.0625 100.113281 61 C 100.058594 60.9375 99.992188 60.890625 99.917969 60.859375 C 99.839844 60.828125 99.761719 60.816406 99.679688 60.820312 C 99.597656 60.828125 99.523438 60.851562 99.449219 60.890625 C 98.128906 61.730469 96.921875 62.710938 95.828125 63.835938 C 95.5625 64.117188 95.3125 64.414062 95.082031 64.730469 C 94.855469 65 94.691406 65.304688 94.582031 65.644531 C 94.445312 66.257812 95.042969 66.519531 95.476562 66.769531 L 96.910156 67.59375 L 96.804688 66.753906 C 96.289062 67.242188 95.777344 67.734375 95.28125 68.242188 C 94.796875 68.742188 94.136719 69.289062 94.425781 70.066406 C 94.695312 70.695312 95.003906 71.304688 95.347656 71.898438 C 95.664062 72.507812 95.980469 73.117188 96.304688 73.722656 C 97.632812 76.230469 99 78.71875 100.390625 81.191406 C 101.164062 82.570312 101.945312 83.945312 102.730469 85.316406 C 103.070312 85.914062 103.984375 85.375 103.644531 84.777344 Z M 103.644531 84.777344 " fill-opacity="1" fill-rule="nonzero"/><path fill="#211715" d="M 111.390625 85.316406 C 114.171875 80.445312 116.921875 75.550781 119.464844 70.546875 C 119.652344 70.175781 119.847656 69.8125 119.730469 69.386719 C 119.621094 68.996094 119.285156 68.710938 119.019531 68.429688 C 118.464844 67.855469 117.894531 67.304688 117.316406 66.757812 L 117.207031 67.597656 L 118.644531 66.769531 C 119.074219 66.519531 119.675781 66.261719 119.535156 65.644531 C 119.429688 65.308594 119.261719 65.003906 119.039062 64.730469 C 118.808594 64.417969 118.558594 64.117188 118.289062 63.835938 C 117.199219 62.710938 115.992188 61.730469 114.667969 60.894531 C 114.597656 60.851562 114.523438 60.828125 114.441406 60.824219 C 114.359375 60.816406 114.277344 60.828125 114.203125 60.859375 C 114.128906 60.890625 114.0625 60.9375 114.007812 61 C 113.953125 61.0625 113.914062 61.132812 113.890625 61.210938 C 112.449219 67.683594 110.640625 74.050781 108.46875 80.316406 C 107.949219 81.808594 107.375 83.28125 106.789062 84.75 C 106.75 84.894531 106.765625 85.027344 106.839844 85.15625 C 106.910156 85.285156 107.015625 85.367188 107.15625 85.410156 C 107.296875 85.445312 107.429688 85.425781 107.558594 85.351562 C 107.683594 85.28125 107.765625 85.175781 107.808594 85.035156 C 110.128906 79.238281 111.960938 73.234375 113.535156 67.191406 C 114.027344 65.300781 114.484375 63.402344 114.914062 61.496094 L 114.132812 61.816406 C 115.003906 62.382812 115.832031 63.007812 116.609375 63.695312 C 117.023438 64.054688 117.410156 64.4375 117.777344 64.84375 C 117.929688 65.015625 118.070312 65.191406 118.203125 65.378906 C 118.265625 65.46875 118.324219 65.558594 118.378906 65.652344 C 118.410156 65.703125 118.441406 65.757812 118.46875 65.8125 L 118.496094 65.863281 C 118.53125 65.9375 118.53125 65.933594 118.496094 65.859375 L 118.570312 65.589844 C 118.652344 65.53125 118.667969 65.519531 118.617188 65.550781 C 118.578125 65.578125 118.535156 65.601562 118.496094 65.625 C 118.414062 65.667969 118.335938 65.714844 118.253906 65.761719 L 117.730469 66.066406 L 116.675781 66.671875 C 116.605469 66.714844 116.550781 66.769531 116.503906 66.839844 C 116.460938 66.910156 116.433594 66.984375 116.421875 67.066406 C 116.410156 67.148438 116.417969 67.226562 116.445312 67.304688 C 116.472656 67.382812 116.511719 67.453125 116.570312 67.511719 C 117.058594 67.976562 117.546875 68.441406 118.019531 68.925781 C 118.128906 69.035156 118.234375 69.148438 118.34375 69.261719 C 118.425781 69.347656 118.65625 69.527344 118.695312 69.640625 C 118.714844 69.691406 118.707031 69.6875 118.667969 69.78125 C 118.59375 69.949219 118.5 70.109375 118.417969 70.273438 C 117.824219 71.433594 117.222656 72.585938 116.609375 73.734375 C 115.339844 76.117188 114.042969 78.484375 112.714844 80.835938 C 111.972656 82.152344 111.230469 83.464844 110.480469 84.777344 C 110.136719 85.375 111.054688 85.914062 111.394531 85.316406 Z M 111.390625 85.316406 " fill-opacity="1" fill-rule="nonzero"/><path fill="#211715" d="M 111.828125 59.507812 C 112.367188 60.125 112.914062 60.769531 113.398438 61.433594 C 113.480469 61.546875 113.539062 61.667969 113.582031 61.804688 C 113.601562 61.871094 113.617188 61.941406 113.625 62.015625 C 113.628906 62.0625 113.617188 62.222656 113.625 62.191406 C 113.640625 62.136719 113.597656 62.242188 113.582031 62.265625 C 113.546875 62.332031 113.507812 62.398438 113.46875 62.464844 C 112.894531 63.429688 112.253906 64.34375 111.550781 65.214844 C 111.332031 65.480469 111.109375 65.738281 110.867188 65.980469 C 110.757812 66.089844 110.644531 66.199219 110.527344 66.304688 C 110.441406 66.382812 110.347656 66.453125 110.246094 66.515625 L 110.972656 66.707031 C 109.933594 65.308594 108.953125 63.84375 107.808594 62.527344 L 107.699219 63.371094 C 108.304688 62.933594 108.878906 62.449219 109.460938 61.988281 C 110.28125 61.339844 111.097656 60.6875 111.914062 60.035156 C 112.136719 59.859375 112.355469 59.6875 112.574219 59.507812 C 112.675781 59.40625 112.726562 59.277344 112.726562 59.132812 C 112.726562 58.984375 112.675781 58.859375 112.574219 58.753906 C 112.46875 58.652344 112.34375 58.601562 112.199219 58.601562 C 112.054688 58.601562 111.929688 58.652344 111.824219 58.753906 C 110.492188 59.835938 109.140625 60.894531 107.792969 61.957031 L 107.535156 62.160156 L 107.425781 62.246094 C 107.320312 62.328125 107.5 62.1875 107.410156 62.257812 C 107.328125 62.320312 107.246094 62.386719 107.164062 62.445312 C 107.019531 62.539062 106.933594 62.667969 106.914062 62.839844 C 106.890625 63.011719 106.9375 63.160156 107.058594 63.285156 C 108.144531 64.53125 109.070312 65.921875 110.054688 67.25 C 110.132812 67.375 110.238281 67.453125 110.378906 67.492188 C 110.519531 67.53125 110.652344 67.511719 110.78125 67.441406 C 111.90625 66.695312 112.742188 65.464844 113.5 64.363281 C 113.808594 63.914062 114.109375 63.457031 114.390625 62.988281 C 114.484375 62.847656 114.5625 62.695312 114.621094 62.535156 C 114.738281 62.058594 114.6875 61.601562 114.464844 61.164062 C 114.265625 60.730469 113.890625 60.375 113.59375 60.003906 C 113.261719 59.582031 112.929688 59.15625 112.574219 58.753906 C 112.121094 58.234375 111.375 58.996094 111.828125 59.507812 Z M 111.828125 59.507812 " fill-opacity="1" fill-rule="nonzero"/><path fill="#85807f" d="M 112.425781 39.265625 C 113.527344 39.613281 114.394531 40.273438 115.023438 41.253906 C 115.679688 42.199219 115.945312 43.136719 116.253906 44.484375 L 117.417969 45.46875 C 117.75 45.160156 118.140625 45.015625 118.589844 45.039062 C 118.8125 45.042969 119.027344 45.085938 119.238281 45.167969 C 119.863281 42.09375 119.921875 38.597656 118.589844 35.621094 C 118.425781 35.253906 117.71875 33.355469 116.105469 32.054688 C 114.800781 31.003906 114.160156 30.785156 113.253906 30.792969 L 111.472656 30.078125 C 110.988281 29.539062 110.398438 29.164062 109.707031 28.960938 C 106.875 27.96875 103.613281 28.363281 101.039062 29.695312 C 99.730469 30.378906 98.585938 31.269531 97.59375 32.371094 C 96.605469 33.46875 95.832031 34.707031 95.28125 36.085938 C 94.261719 38.714844 94.210938 42.4375 94.730469 45.246094 C 94.980469 45.109375 95.246094 45.042969 95.53125 45.039062 C 95.980469 45.019531 96.371094 45.164062 96.703125 45.472656 L 97.121094 45.878906 C 97.199219 45.074219 97.398438 44.28125 98.015625 43.644531 C 98.417969 43.226562 98.988281 42.890625 99.226562 42.410156 C 99.429688 42 99.464844 41.554688 99.675781 41.148438 C 99.835938 40.839844 100.054688 40.585938 100.335938 40.386719 C 100.722656 40.132812 101.140625 39.957031 101.589844 39.859375 C 102.226562 39.6875 105.34375 39.464844 106.183594 39.425781 C 106.183594 39.425781 108.515625 38.949219 109.78125 38.949219 C 110.675781 38.941406 111.558594 39.046875 112.425781 39.265625 Z M 112.425781 39.265625 " fill-opacity="1" fill-rule="nonzero"/><path fill="#211715" d="M 112.289062 39.78125 C 113.285156 40.113281 114.066406 40.726562 114.632812 41.621094 C 115.238281 42.527344 115.503906 43.574219 115.746094 44.628906 C 115.898438 45.300781 116.917969 45.015625 116.765625 44.34375 C 116.492188 43.152344 116.167969 41.960938 115.457031 40.949219 C 114.746094 39.878906 113.78125 39.148438 112.566406 38.75 C 111.914062 38.542969 111.636719 39.578125 112.285156 39.78125 Z M 112.289062 39.78125 " fill-opacity="1" fill-rule="nonzero"/><path fill="#211715" d="M 113.253906 31.328125 C 113.609375 31.308594 113.949219 31.367188 114.277344 31.496094 C 114.722656 31.699219 115.132812 31.953125 115.511719 32.261719 C 116.371094 32.925781 117.054688 33.734375 117.566406 34.695312 C 118.527344 36.480469 119.046875 38.386719 119.121094 40.417969 C 119.171875 41.851562 119.0625 43.269531 118.792969 44.675781 C 118.757812 44.820312 118.777344 44.953125 118.847656 45.082031 C 118.921875 45.207031 119.023438 45.292969 119.164062 45.335938 C 119.304688 45.375 119.4375 45.355469 119.566406 45.28125 C 119.691406 45.210938 119.773438 45.101562 119.816406 44.960938 C 120.316406 42.257812 120.394531 39.398438 119.578125 36.746094 C 118.980469 34.820312 117.984375 32.875 116.394531 31.609375 C 115.453125 30.855469 114.492188 30.25 113.253906 30.257812 C 112.574219 30.261719 112.570312 31.332031 113.253906 31.328125 Z M 113.253906 31.328125 " fill-opacity="1" fill-rule="nonzero"/><g clip-path="url(#24cc298ea0)"><path fill="#211715" d="M 95.242188 45.105469 C 94.910156 43.273438 94.84375 41.433594 95.03125 39.582031 C 95.183594 37.792969 95.707031 36.125 96.609375 34.578125 C 98.5 31.4375 101.816406 29.257812 105.464844 28.976562 C 106.542969 28.882812 107.613281 28.960938 108.667969 29.210938 C 109.589844 29.4375 110.4375 29.746094 111.09375 30.453125 C 111.5625 30.957031 112.3125 30.199219 111.84375 29.699219 C 111.183594 29.023438 110.398438 28.570312 109.492188 28.328125 C 108.480469 28.023438 107.449219 27.871094 106.398438 27.871094 C 104.292969 27.863281 102.316406 28.371094 100.46875 29.394531 C 98.742188 30.371094 97.308594 31.675781 96.171875 33.308594 C 95.058594 34.914062 94.367188 36.683594 94.09375 38.625 C 93.761719 40.886719 93.804688 43.140625 94.21875 45.390625 C 94.257812 45.53125 94.34375 45.636719 94.46875 45.710938 C 94.597656 45.78125 94.730469 45.800781 94.871094 45.761719 C 95.007812 45.71875 95.113281 45.636719 95.1875 45.507812 C 95.257812 45.382812 95.277344 45.246094 95.242188 45.105469 Z M 95.242188 45.105469 " fill-opacity="1" fill-rule="nonzero"/></g><path fill="#211715" d="M 106.183594 38.890625 C 104.738281 38.960938 103.28125 39.058594 101.851562 39.269531 C 101.015625 39.390625 100.105469 39.71875 99.550781 40.394531 C 99.152344 40.882812 99.035156 41.421875 98.828125 42 C 98.660156 42.453125 98.230469 42.726562 97.882812 43.035156 C 96.875 43.925781 96.613281 45.160156 96.550781 46.457031 C 96.519531 47.144531 97.578125 47.144531 97.609375 46.457031 C 97.65625 45.496094 97.800781 44.554688 98.539062 43.875 C 98.910156 43.535156 99.324219 43.246094 99.605469 42.8125 C 99.898438 42.367188 99.910156 41.808594 100.167969 41.351562 C 100.554688 40.675781 101.347656 40.425781 102.070312 40.308594 C 102.097656 40.304688 102.128906 40.300781 102.15625 40.296875 C 102.238281 40.285156 102.070312 40.308594 102.15625 40.296875 C 102.234375 40.285156 102.3125 40.277344 102.386719 40.269531 C 102.566406 40.246094 102.742188 40.226562 102.917969 40.210938 C 103.292969 40.171875 103.671875 40.140625 104.046875 40.109375 C 104.757812 40.050781 105.46875 39.996094 106.183594 39.960938 C 106.859375 39.929688 106.863281 38.859375 106.183594 38.890625 Z M 106.183594 38.890625 " fill-opacity="1" fill-rule="nonzero"/><path fill="#211715" d="M 106.085938 37.957031 C 106.429688 37.917969 106.773438 37.910156 107.121094 37.929688 C 107.15625 37.933594 107.191406 37.9375 107.230469 37.941406 C 107.328125 37.949219 107.109375 37.917969 107.28125 37.945312 C 107.355469 37.957031 107.425781 37.972656 107.5 37.988281 C 107.675781 38.03125 107.847656 38.082031 108.015625 38.148438 C 107.964844 38.128906 108.039062 38.15625 108.050781 38.164062 C 108.085938 38.179688 108.117188 38.195312 108.152344 38.214844 C 108.230469 38.25 108.304688 38.292969 108.378906 38.339844 C 108.453125 38.386719 108.519531 38.433594 108.585938 38.480469 C 108.605469 38.492188 108.652344 38.53125 108.609375 38.496094 C 108.636719 38.519531 108.664062 38.542969 108.691406 38.5625 C 108.804688 38.660156 108.910156 38.765625 109.007812 38.875 C 109.027344 38.898438 109.042969 38.921875 109.0625 38.945312 C 109.035156 38.914062 109.027344 38.886719 109.058594 38.9375 C 109.09375 38.988281 109.125 39.039062 109.15625 39.09375 C 109.230469 39.222656 109.335938 39.304688 109.480469 39.34375 C 109.621094 39.378906 109.757812 39.363281 109.882812 39.289062 C 110.007812 39.210938 110.089844 39.101562 110.128906 38.960938 C 110.164062 38.816406 110.144531 38.679688 110.070312 38.550781 C 109.683594 37.921875 109.152344 37.46875 108.476562 37.1875 C 107.703125 36.882812 106.90625 36.78125 106.085938 36.882812 C 105.9375 36.882812 105.8125 36.9375 105.710938 37.039062 C 105.605469 37.144531 105.554688 37.269531 105.554688 37.417969 C 105.554688 37.566406 105.605469 37.691406 105.710938 37.796875 C 105.8125 37.902344 105.9375 37.953125 106.085938 37.953125 Z M 106.085938 37.957031 " fill-opacity="1" fill-rule="nonzero"/><path fill="#211715" d="M 122.722656 76.433594 C 122.457031 78.535156 122.191406 80.636719 121.929688 82.738281 C 121.871094 83.199219 121.8125 83.664062 121.757812 84.125 C 121.757812 84.273438 121.808594 84.398438 121.914062 84.503906 C 122.015625 84.609375 122.140625 84.660156 122.285156 84.660156 C 122.429688 84.65625 122.554688 84.605469 122.65625 84.5 C 122.757812 84.398438 122.8125 84.273438 122.816406 84.125 C 123.078125 81.984375 123.351562 79.839844 123.621094 77.695312 L 123.78125 76.433594 C 123.78125 76.285156 123.726562 76.160156 123.625 76.054688 C 123.523438 75.953125 123.398438 75.898438 123.25 75.898438 C 123.105469 75.902344 122.984375 75.957031 122.878906 76.058594 C 122.777344 76.164062 122.726562 76.289062 122.722656 76.433594 Z M 122.722656 76.433594 " fill-opacity="1" fill-rule="nonzero"/><path fill="#211715" d="M 92.226562 82.332031 C 91.894531 79.652344 91.542969 76.972656 91.195312 74.292969 C 91.152344 73.960938 91.105469 73.628906 91.066406 73.296875 C 91.0625 73.152344 91.011719 73.027344 90.90625 72.921875 C 90.804688 72.820312 90.683594 72.765625 90.539062 72.761719 C 90.390625 72.761719 90.269531 72.816406 90.164062 72.917969 C 90.0625 73.023438 90.007812 73.148438 90.007812 73.296875 C 90.273438 75.53125 90.585938 77.761719 90.871094 79.996094 C 90.972656 80.773438 91.070312 81.550781 91.167969 82.332031 C 91.171875 82.476562 91.222656 82.601562 91.328125 82.703125 C 91.429688 82.808594 91.550781 82.859375 91.695312 82.867188 C 91.839844 82.863281 91.964844 82.8125 92.070312 82.707031 C 92.171875 82.605469 92.222656 82.476562 92.226562 82.332031 Z M 92.226562 82.332031 " fill-opacity="1" fill-rule="nonzero"/><path fill="#211715" d="M 91.347656 100.503906 L 121.085938 100.503906 C 121.765625 100.503906 121.769531 99.433594 121.085938 99.433594 L 91.347656 99.433594 C 90.664062 99.433594 90.664062 100.503906 91.347656 100.503906 Z M 91.347656 100.503906 " fill-opacity="1" fill-rule="nonzero"/><g clip-path="url(#99d4105f9f)"><path fill="#211715" d="M 118.304688 98.644531 C 119.550781 99.988281 121.078125 100.769531 122.890625 100.980469 C 123.722656 101.066406 124.535156 100.976562 125.328125 100.71875 C 126.125 100.457031 126.832031 100.046875 127.457031 99.484375 C 130.074219 97.101562 130.183594 93.21875 130.207031 89.914062 C 130.210938 86.441406 129.925781 82.992188 129.359375 79.566406 C 129.0625 77.710938 128.734375 75.84375 128.34375 74.003906 C 127.980469 72.167969 127.398438 70.402344 126.597656 68.714844 C 125.824219 67.179688 124.710938 65.960938 123.257812 65.0625 C 121.753906 64.09375 120.046875 63.5 118.34375 63.003906 C 117.894531 62.875 117.445312 62.75 116.996094 62.625 C 116.335938 62.445312 116.054688 63.476562 116.714844 63.65625 C 119.707031 64.484375 123.140625 65.417969 125.03125 68.132812 C 126.007812 69.535156 126.550781 71.277344 126.996094 72.917969 C 127.226562 73.777344 127.394531 74.648438 127.550781 75.523438 C 127.714844 76.425781 127.90625 77.320312 128.0625 78.226562 C 128.664062 81.472656 129.019531 84.746094 129.128906 88.046875 C 129.191406 89.710938 129.15625 91.375 129.027344 93.035156 C 128.894531 94.601562 128.566406 96.195312 127.710938 97.53125 C 127.347656 98.136719 126.878906 98.636719 126.304688 99.042969 C 125.730469 99.445312 125.101562 99.714844 124.414062 99.847656 C 122.78125 100.160156 121.164062 99.625 119.863281 98.628906 C 119.574219 98.402344 119.304688 98.15625 119.050781 97.890625 C 118.578125 97.394531 117.828125 98.148438 118.300781 98.644531 Z M 118.304688 98.644531 " fill-opacity="1" fill-rule="nonzero"/></g><g clip-path="url(#8c9a80254b)"><path fill="#211715" d="M 96.691406 62.625 C 94.683594 63.253906 92.757812 64.070312 90.910156 65.074219 C 89.960938 65.566406 89.082031 66.164062 88.265625 66.859375 C 87.511719 67.546875 86.882812 68.34375 86.382812 69.238281 C 85.414062 70.957031 84.914062 72.867188 84.503906 74.789062 C 84.136719 76.519531 83.859375 78.269531 83.589844 80.015625 C 83.007812 83.746094 82.625 87.496094 82.441406 91.265625 C 82.347656 93.335938 82.570312 95.683594 83.675781 97.480469 C 84.710938 99.164062 86.449219 100.503906 88.40625 100.816406 C 91.550781 101.3125 94.042969 99.085938 96.339844 97.25 L 96.597656 97.046875 C 96.699219 96.941406 96.75 96.8125 96.75 96.667969 C 96.75 96.519531 96.699219 96.394531 96.597656 96.289062 C 96.492188 96.1875 96.367188 96.136719 96.222656 96.136719 C 96.078125 96.136719 95.953125 96.1875 95.847656 96.289062 L 93.886719 97.855469 C 93.726562 97.984375 93.558594 98.089844 93.316406 98.257812 C 92.917969 98.53125 92.511719 98.792969 92.089844 99.027344 C 91.371094 99.457031 90.597656 99.71875 89.765625 99.8125 C 87.9375 99.960938 86.273438 99.039062 85.109375 97.660156 C 83.839844 96.160156 83.503906 94.070312 83.484375 92.15625 C 83.472656 91.082031 83.574219 90.003906 83.652344 88.933594 C 83.71875 87.988281 83.796875 87.046875 83.886719 86.101562 C 84.042969 84.476562 84.234375 82.859375 84.472656 81.242188 C 84.722656 79.527344 84.992188 77.8125 85.316406 76.113281 C 85.640625 74.410156 86 72.691406 86.664062 71.085938 C 87.402344 69.289062 88.550781 67.773438 90.191406 66.742188 C 91.886719 65.679688 93.671875 64.8125 95.550781 64.140625 C 96.023438 63.972656 96.496094 63.8125 96.972656 63.65625 C 97.617188 63.445312 97.339844 62.414062 96.691406 62.625 Z M 96.691406 62.625 " fill-opacity="1" fill-rule="nonzero"/></g><path fill="#211715" d="M 116.804688 50.957031 C 116.722656 51.40625 116.585938 51.835938 116.398438 52.25 C 116.332031 52.414062 116.261719 52.574219 116.199219 52.734375 C 116.183594 52.773438 116.167969 52.816406 116.152344 52.855469 C 116.105469 52.996094 116.179688 52.800781 116.144531 52.878906 C 115.9375 53.328125 115.703125 53.769531 115.441406 54.191406 C 114.703125 55.453125 113.777344 56.554688 112.664062 57.496094 C 112.066406 58.003906 111.386719 58.355469 110.632812 58.550781 C 109.96875 58.707031 110.25 59.734375 110.914062 59.582031 C 112.492188 59.210938 113.808594 58.042969 114.839844 56.832031 C 115.726562 55.824219 116.453125 54.710938 117.027344 53.496094 C 117.429688 52.691406 117.707031 51.84375 117.863281 50.957031 C 117.863281 50.808594 117.808594 50.683594 117.707031 50.578125 C 117.605469 50.472656 117.480469 50.421875 117.332031 50.421875 C 117.1875 50.425781 117.066406 50.476562 116.964844 50.582031 C 116.859375 50.683594 116.808594 50.808594 116.804688 50.957031 Z M 116.804688 50.957031 " fill-opacity="1" fill-rule="nonzero"/><path fill="#211715" d="M 96.226562 51.054688 C 96.96875 54.285156 98.96875 57.414062 101.859375 59.078125 C 102.644531 59.539062 103.488281 59.839844 104.386719 59.984375 C 104.523438 60.019531 104.660156 60 104.785156 59.929688 C 104.910156 59.855469 104.992188 59.75 105.035156 59.613281 C 105.074219 59.46875 105.058594 59.332031 104.984375 59.207031 C 104.914062 59.078125 104.808594 58.992188 104.667969 58.953125 C 101.554688 58.484375 99.144531 55.699219 97.941406 52.921875 C 97.644531 52.226562 97.414062 51.511719 97.25 50.773438 C 97.09375 50.101562 96.074219 50.386719 96.226562 51.054688 Z M 96.226562 51.054688 " fill-opacity="1" fill-rule="nonzero"/><path fill="#211715" d="M 97.113281 45.097656 C 96.765625 44.78125 96.355469 44.589844 95.890625 44.527344 C 95.425781 44.460938 94.980469 44.535156 94.558594 44.742188 C 93.933594 45.089844 93.554688 45.617188 93.425781 46.328125 C 93.261719 47.121094 93.257812 47.914062 93.414062 48.707031 C 93.570312 49.503906 93.875 50.234375 94.328125 50.902344 C 94.964844 51.84375 95.871094 52.519531 97.042969 52.359375 C 97.183594 52.320312 97.289062 52.234375 97.363281 52.105469 C 97.433594 51.980469 97.453125 51.84375 97.414062 51.703125 C 97.371094 51.5625 97.289062 51.457031 97.160156 51.382812 C 97.035156 51.3125 96.902344 51.292969 96.761719 51.328125 C 95.941406 51.441406 95.308594 50.546875 94.972656 49.914062 C 94.636719 49.292969 94.433594 48.628906 94.371094 47.921875 C 94.335938 47.535156 94.351562 47.148438 94.414062 46.765625 C 94.445312 46.589844 94.492188 46.421875 94.554688 46.257812 C 94.582031 46.183594 94.621094 46.113281 94.660156 46.046875 C 94.671875 46.023438 94.773438 45.886719 94.699219 45.980469 C 94.859375 45.761719 95.078125 45.632812 95.347656 45.59375 C 95.730469 45.511719 96.070312 45.597656 96.367188 45.855469 C 96.871094 46.316406 97.621094 45.5625 97.113281 45.097656 Z M 97.113281 45.097656 " fill-opacity="1" fill-rule="nonzero"/><path fill="#211715" d="M 117.753906 45.855469 C 118.050781 45.597656 118.390625 45.511719 118.773438 45.59375 C 119.042969 45.632812 119.257812 45.761719 119.421875 45.980469 C 119.347656 45.886719 119.449219 46.027344 119.460938 46.046875 C 119.5 46.113281 119.539062 46.183594 119.566406 46.257812 C 119.628906 46.421875 119.675781 46.589844 119.703125 46.765625 C 119.769531 47.148438 119.785156 47.535156 119.75 47.921875 C 119.6875 48.628906 119.484375 49.292969 119.148438 49.914062 C 118.8125 50.546875 118.179688 51.441406 117.359375 51.328125 C 117.21875 51.292969 117.085938 51.3125 116.960938 51.382812 C 116.835938 51.457031 116.753906 51.5625 116.710938 51.699219 C 116.671875 51.84375 116.6875 51.976562 116.761719 52.105469 C 116.832031 52.234375 116.9375 52.320312 117.078125 52.359375 C 118.992188 52.625 120.105469 50.722656 120.601562 49.125 C 120.839844 48.308594 120.890625 47.476562 120.753906 46.632812 C 120.648438 45.941406 120.363281 45.277344 119.78125 44.867188 C 119.570312 44.730469 119.339844 44.632812 119.097656 44.570312 C 118.851562 44.511719 118.605469 44.488281 118.355469 44.511719 C 118.105469 44.53125 117.863281 44.589844 117.632812 44.691406 C 117.402344 44.792969 117.195312 44.929688 117.007812 45.097656 C 116.5 45.5625 117.253906 46.316406 117.757812 45.855469 Z M 117.753906 45.855469 " fill-opacity="1" fill-rule="nonzero"/><path fill="#211715" d="M 105.136719 54.875 C 105.777344 55.207031 106.453125 55.363281 107.167969 55.347656 C 107.921875 55.382812 108.605469 55.175781 109.21875 54.738281 C 109.324219 54.632812 109.375 54.507812 109.375 54.359375 C 109.375 54.210938 109.324219 54.085938 109.21875 53.980469 C 109.113281 53.878906 108.988281 53.828125 108.84375 53.828125 C 108.699219 53.828125 108.574219 53.878906 108.472656 53.980469 C 108.632812 53.855469 108.507812 53.949219 108.464844 53.976562 C 108.425781 54.003906 108.382812 54.027344 108.339844 54.050781 C 108.320312 54.0625 108.296875 54.074219 108.273438 54.085938 C 108.1875 54.128906 108.296875 54.074219 108.296875 54.078125 C 108.238281 54.101562 108.183594 54.125 108.125 54.140625 C 107.964844 54.191406 107.800781 54.230469 107.636719 54.253906 C 107.714844 54.242188 107.625 54.253906 107.59375 54.257812 C 107.546875 54.261719 107.496094 54.265625 107.449219 54.269531 C 107.335938 54.277344 107.21875 54.28125 107.105469 54.277344 C 107.003906 54.277344 106.898438 54.273438 106.796875 54.265625 C 106.75 54.265625 106.703125 54.261719 106.65625 54.253906 C 106.648438 54.253906 106.480469 54.230469 106.585938 54.25 C 106.433594 54.222656 106.285156 54.191406 106.132812 54.148438 C 106.070312 54.128906 106.007812 54.105469 105.945312 54.082031 C 105.8125 54.035156 106.023438 54.125 105.902344 54.066406 C 105.824219 54.027344 105.75 53.988281 105.671875 53.949219 C 105.546875 53.878906 105.414062 53.859375 105.273438 53.898438 C 105.132812 53.9375 105.023438 54.015625 104.949219 54.140625 C 104.875 54.269531 104.859375 54.40625 104.894531 54.546875 C 104.933594 54.6875 105.011719 54.796875 105.136719 54.875 Z M 105.136719 54.875 " fill-opacity="1" fill-rule="nonzero"/><path fill="#211715" d="M 106.898438 50.039062 C 106.992188 50.382812 107.066406 50.726562 107.125 51.078125 L 107.105469 50.933594 C 107.113281 50.980469 107.113281 51.027344 107.109375 51.078125 L 107.128906 50.933594 C 107.125 50.957031 107.121094 50.976562 107.113281 51 L 107.164062 50.871094 C 107.160156 50.886719 107.152344 50.898438 107.144531 50.914062 L 107.226562 50.804688 C 107.214844 50.816406 107.207031 50.828125 107.191406 50.839844 L 107.300781 50.753906 C 107.273438 50.769531 107.246094 50.785156 107.21875 50.796875 L 107.34375 50.742188 C 107.300781 50.761719 107.253906 50.777344 107.207031 50.785156 L 107.347656 50.765625 C 107.304688 50.769531 107.261719 50.769531 107.21875 50.765625 L 107.359375 50.785156 C 107.3125 50.777344 107.265625 50.765625 107.214844 50.757812 C 107.148438 50.734375 107.078125 50.734375 107.003906 50.75 C 106.933594 50.753906 106.867188 50.773438 106.808594 50.8125 C 106.683594 50.886719 106.601562 50.996094 106.5625 51.140625 C 106.527344 51.28125 106.542969 51.417969 106.617188 51.542969 C 106.691406 51.671875 106.796875 51.753906 106.933594 51.789062 C 107.046875 51.804688 107.152344 51.832031 107.265625 51.839844 C 107.4375 51.839844 107.601562 51.800781 107.753906 51.722656 C 107.957031 51.628906 108.085938 51.472656 108.144531 51.253906 C 108.179688 51.085938 108.175781 50.914062 108.136719 50.75 C 108.082031 50.414062 108.007812 50.082031 107.921875 49.753906 C 107.882812 49.613281 107.800781 49.503906 107.671875 49.433594 C 107.546875 49.359375 107.410156 49.34375 107.269531 49.382812 C 107.128906 49.421875 107.023438 49.503906 106.949219 49.632812 C 106.878906 49.761719 106.863281 49.898438 106.902344 50.039062 Z M 106.898438 50.039062 " fill-opacity="1" fill-rule="nonzero"/><path fill="#211715" d="M 101.484375 47.105469 C 101.3125 47.664062 101.421875 48.953125 102.476562 49.066406 C 103.863281 49.058594 103.9375 47.496094 103.472656 46.765625 C 103.085938 46.164062 101.960938 45.914062 101.484375 47.105469 Z M 101.484375 47.105469 " fill-opacity="1" fill-rule="nonzero"/><path fill="#211715" d="M 112.636719 47.105469 C 112.808594 47.664062 112.699219 48.953125 111.644531 49.066406 C 110.253906 49.058594 110.179688 47.496094 110.648438 46.765625 C 111.03125 46.164062 112.160156 45.914062 112.636719 47.105469 Z M 112.636719 47.105469 " fill-opacity="1" fill-rule="nonzero"/><path fill="#ffffff" d="M 99.933594 89.296875 L 100.101562 89.070312 C 100.308594 88.792969 100.816406 88.054688 100.921875 87.957031 C 101.054688 87.847656 101.203125 87.753906 101.367188 87.6875 C 101.996094 87.449219 102.789062 87.566406 103.304688 87.246094 C 104.222656 86.679688 104.253906 86.203125 104.929688 85.53125 C 105.507812 82.40625 106.40625 77.535156 106.839844 75.203125 C 106.796875 75.203125 106.757812 75.203125 106.714844 75.203125 C 106.378906 75.234375 106.054688 75.316406 105.742188 75.441406 C 104.730469 75.804688 103.753906 76.238281 102.804688 76.75 C 102.796875 76.742188 102.789062 76.738281 102.777344 76.730469 C 102.746094 76.710938 102.707031 76.691406 102.671875 76.675781 C 102.664062 76.667969 102.652344 76.664062 102.640625 76.660156 C 102.609375 76.644531 102.578125 76.632812 102.546875 76.621094 C 102.535156 76.617188 102.527344 76.613281 102.519531 76.609375 C 102.5 76.605469 102.484375 76.597656 102.464844 76.59375 C 102.445312 76.585938 102.421875 76.582031 102.398438 76.578125 C 102.394531 76.574219 102.386719 76.574219 102.378906 76.570312 C 102.355469 76.566406 102.332031 76.5625 102.3125 76.558594 C 102.285156 76.554688 102.261719 76.550781 102.234375 76.546875 C 102.21875 76.546875 102.203125 76.542969 102.1875 76.542969 C 102.15625 76.539062 102.125 76.539062 102.09375 76.539062 C 102.042969 76.539062 101.992188 76.542969 101.9375 76.546875 C 101.683594 76.582031 101.453125 76.683594 101.257812 76.851562 C 100.996094 77.054688 100.703125 77.148438 100.375 77.128906 C 100.113281 77.128906 99.875 77.203125 99.660156 77.355469 C 99.453125 77.507812 99.222656 77.589844 98.964844 77.601562 C 98.9375 77.601562 98.910156 77.605469 98.878906 77.609375 C 98.789062 77.621094 98.703125 77.636719 98.617188 77.664062 C 98.5 77.703125 98.390625 77.75 98.285156 77.8125 C 98.042969 77.953125 97.835938 78.132812 97.660156 78.351562 C 97.363281 78.75 97.121094 79.175781 96.929688 79.632812 C 95.90625 81.851562 95.464844 82.578125 94.398438 84.816406 C 94.773438 85.773438 95.285156 86.65625 95.925781 87.460938 C 96.355469 88.046875 96.875 88.539062 97.480469 88.9375 C 98.039062 89.277344 99.125 89.371094 99.90625 89.339844 Z M 99.933594 89.296875 " fill-opacity="1" fill-rule="nonzero"/><path fill="#211715" d="M 103.347656 77.066406 C 104.027344 76.710938 104.726562 76.398438 105.441406 76.121094 C 105.792969 75.972656 106.152344 75.855469 106.523438 75.765625 C 106.789062 75.6875 107.039062 75.722656 107.277344 75.863281 C 107.382812 75.960938 107.507812 76.011719 107.652344 76.011719 C 107.796875 76.011719 107.921875 75.960938 108.027344 75.863281 C 108.128906 75.757812 108.179688 75.632812 108.179688 75.484375 C 108.179688 75.335938 108.128906 75.210938 108.027344 75.105469 C 107.222656 74.460938 106.289062 74.671875 105.398438 75 C 104.511719 75.328125 103.648438 75.707031 102.808594 76.144531 C 102.683594 76.21875 102.601562 76.324219 102.566406 76.46875 C 102.527344 76.613281 102.546875 76.746094 102.621094 76.875 C 102.695312 77 102.800781 77.082031 102.945312 77.121094 C 103.085938 77.160156 103.21875 77.140625 103.34375 77.066406 Z M 103.347656 77.066406 " fill-opacity="1" fill-rule="nonzero"/><path fill="#211715" d="M 100.558594 89.339844 C 100.675781 89.179688 100.792969 89.015625 100.90625 88.855469 C 100.972656 88.765625 101.039062 88.671875 101.105469 88.582031 C 101.136719 88.539062 101.164062 88.5 101.195312 88.457031 C 101.230469 88.414062 101.277344 88.359375 101.214844 88.433594 C 101.238281 88.40625 101.339844 88.292969 101.253906 88.367188 C 101.332031 88.304688 101.417969 88.25 101.507812 88.203125 C 101.765625 88.109375 102.035156 88.054688 102.308594 88.042969 C 102.609375 88.019531 102.902344 87.96875 103.1875 87.882812 C 103.5 87.765625 103.78125 87.597656 104.035156 87.378906 C 104.226562 87.222656 104.398438 87.046875 104.546875 86.851562 C 104.632812 86.742188 104.714844 86.632812 104.796875 86.519531 C 104.863281 86.425781 104.929688 86.335938 104.976562 86.273438 C 105.074219 86.167969 105.125 86.042969 105.125 85.898438 C 105.125 85.75 105.074219 85.625 104.976562 85.519531 C 104.871094 85.414062 104.746094 85.363281 104.601562 85.363281 C 104.457031 85.363281 104.332031 85.414062 104.226562 85.519531 C 103.902344 85.933594 103.71875 86.285156 103.308594 86.605469 C 103.105469 86.773438 102.875 86.882812 102.617188 86.925781 C 102.335938 86.984375 102.03125 87 101.742188 87.046875 C 101.222656 87.097656 100.792969 87.316406 100.441406 87.707031 C 100.164062 88.0625 99.914062 88.4375 99.644531 88.800781 C 99.574219 88.929688 99.554688 89.0625 99.59375 89.207031 C 99.628906 89.347656 99.710938 89.457031 99.835938 89.53125 C 99.960938 89.601562 100.097656 89.621094 100.238281 89.582031 C 100.375 89.546875 100.484375 89.464844 100.558594 89.339844 Z M 100.558594 89.339844 " fill-opacity="1" fill-rule="nonzero"/><path fill="#211715" d="M 103.480469 76.632812 C 103.195312 76.316406 102.84375 76.117188 102.425781 76.042969 C 102.007812 75.96875 101.609375 76.03125 101.234375 76.226562 C 101.074219 76.34375 100.914062 76.449219 100.742188 76.542969 C 100.519531 76.59375 100.292969 76.621094 100.066406 76.625 C 99.628906 76.699219 99.316406 77.03125 98.878906 77.074219 C 97.792969 77.179688 97.089844 78.082031 96.640625 79.007812 C 96.246094 79.820312 95.871094 80.644531 95.46875 81.457031 C 95.046875 82.304688 94.613281 83.148438 94.199219 84 C 94.132812 84.128906 94.113281 84.261719 94.152344 84.402344 C 94.1875 84.546875 94.269531 84.65625 94.390625 84.730469 C 94.515625 84.804688 94.652344 84.824219 94.792969 84.785156 C 94.933594 84.75 95.039062 84.667969 95.117188 84.539062 C 95.785156 83.164062 96.492188 81.808594 97.144531 80.425781 C 97.496094 79.675781 97.8125 78.65625 98.589844 78.253906 C 98.738281 78.179688 98.894531 78.140625 99.058594 78.128906 C 99.324219 78.105469 99.574219 78.027344 99.808594 77.894531 C 99.945312 77.789062 100.097656 77.714844 100.261719 77.671875 C 100.476562 77.640625 100.6875 77.65625 100.898438 77.609375 C 101.128906 77.554688 101.335938 77.457031 101.523438 77.316406 C 101.664062 77.1875 101.832031 77.109375 102.015625 77.078125 C 102.308594 77.054688 102.546875 77.160156 102.730469 77.390625 C 103.1875 77.902344 103.9375 77.144531 103.480469 76.632812 Z M 103.480469 76.632812 " fill-opacity="1" fill-rule="nonzero"/><path fill="#211715" d="M 103.9375 79.859375 C 104.191406 80.382812 104.382812 80.929688 104.511719 81.503906 C 104.578125 81.769531 104.617188 82.042969 104.636719 82.316406 C 104.609375 82.53125 104.5625 82.738281 104.484375 82.941406 C 104.417969 83.179688 104.339844 83.421875 104.25 83.652344 C 104.199219 83.8125 104.125 83.957031 104.015625 84.085938 C 103.78125 84.300781 103.207031 84.257812 103.113281 83.941406 C 102.921875 83.285156 101.898438 83.566406 102.09375 84.226562 C 102.339844 85.054688 103.289062 85.4375 104.074219 85.226562 C 104.824219 85.027344 105.121094 84.382812 105.355469 83.703125 C 105.457031 83.410156 105.542969 83.113281 105.613281 82.8125 C 105.6875 82.429688 105.6875 82.042969 105.613281 81.660156 C 105.476562 80.839844 105.222656 80.058594 104.851562 79.316406 C 104.773438 79.191406 104.667969 79.109375 104.527344 79.074219 C 104.386719 79.035156 104.25 79.054688 104.125 79.125 C 104 79.203125 103.921875 79.3125 103.882812 79.453125 C 103.847656 79.59375 103.863281 79.730469 103.933594 79.859375 Z M 103.9375 79.859375 " fill-opacity="1" fill-rule="nonzero"/><path fill="#211715" d="M 101.664062 80.378906 C 101.796875 80.699219 101.949219 81.007812 102.097656 81.316406 C 102.210938 81.527344 102.285156 81.75 102.324219 81.984375 C 102.324219 82.269531 102.285156 82.550781 102.210938 82.828125 C 102.179688 82.96875 102.148438 83.105469 102.117188 83.242188 C 102.097656 83.308594 102.082031 83.371094 102.0625 83.4375 C 102.054688 83.460938 102.046875 83.488281 102.035156 83.515625 C 102.054688 83.46875 102.050781 83.476562 102.027344 83.53125 C 102.003906 83.578125 101.976562 83.621094 101.953125 83.664062 C 101.917969 83.714844 101.917969 83.71875 101.949219 83.671875 C 101.929688 83.699219 101.910156 83.71875 101.886719 83.742188 C 101.855469 83.773438 101.78125 83.820312 101.859375 83.773438 C 101.835938 83.789062 101.808594 83.804688 101.785156 83.816406 C 101.84375 83.796875 101.847656 83.792969 101.789062 83.816406 C 101.765625 83.820312 101.636719 83.839844 101.757812 83.832031 C 101.730469 83.832031 101.550781 83.816406 101.664062 83.835938 C 101.5625 83.824219 101.46875 83.789062 101.386719 83.734375 C 101.363281 83.722656 101.261719 83.636719 101.34375 83.714844 C 101.3125 83.683594 101.230469 83.558594 101.292969 83.667969 C 101.273438 83.632812 101.25 83.601562 101.234375 83.5625 C 101.292969 83.691406 101.234375 83.523438 101.226562 83.492188 C 101.199219 83.386719 101.222656 83.582031 101.222656 83.457031 C 101.222656 83.398438 101.21875 83.339844 101.222656 83.28125 C 101.226562 83.175781 101.242188 82.976562 101.25 82.929688 C 101.285156 82.785156 101.265625 82.652344 101.195312 82.527344 C 101.121094 82.398438 101.019531 82.3125 100.878906 82.269531 C 100.738281 82.234375 100.605469 82.25 100.480469 82.324219 C 100.351562 82.394531 100.269531 82.503906 100.230469 82.644531 C 100.160156 83.164062 100.074219 83.765625 100.390625 84.226562 C 100.558594 84.464844 100.777344 84.640625 101.042969 84.761719 C 101.308594 84.878906 101.585938 84.921875 101.875 84.886719 C 102.464844 84.804688 102.855469 84.335938 103.058594 83.796875 C 103.140625 83.542969 103.207031 83.285156 103.25 83.019531 C 103.332031 82.699219 103.375 82.375 103.386719 82.042969 C 103.367188 81.324219 102.953125 80.738281 102.6875 80.09375 C 102.644531 79.957031 102.558594 79.847656 102.433594 79.777344 C 102.308594 79.707031 102.175781 79.6875 102.035156 79.722656 C 101.894531 79.761719 101.789062 79.84375 101.714844 79.972656 C 101.644531 80.101562 101.628906 80.238281 101.664062 80.378906 Z M 101.664062 80.378906 " fill-opacity="1" fill-rule="nonzero"/><path fill="#211715" d="M 93.726562 84.414062 C 93.933594 85.210938 94.261719 85.953125 94.710938 86.640625 C 95.132812 87.34375 95.628906 87.992188 96.199219 88.582031 C 96.734375 89.175781 97.386719 89.5625 98.160156 89.738281 C 98.863281 89.882812 99.570312 89.917969 100.28125 89.847656 C 100.425781 89.84375 100.546875 89.789062 100.648438 89.683594 C 100.75 89.582031 100.804688 89.457031 100.808594 89.3125 C 100.808594 89.164062 100.753906 89.039062 100.652344 88.933594 C 100.550781 88.828125 100.425781 88.777344 100.28125 88.777344 C 99.691406 88.84375 99.101562 88.824219 98.519531 88.722656 C 97.863281 88.59375 97.316406 88.273438 96.882812 87.757812 C 96.394531 87.242188 95.96875 86.675781 95.601562 86.0625 C 95.210938 85.464844 94.925781 84.820312 94.75 84.128906 C 94.597656 83.457031 93.574219 83.738281 93.726562 84.410156 Z M 93.726562 84.414062 " fill-opacity="1" fill-rule="nonzero"/><path fill="#ffffff" d="M 110.140625 79.953125 C 110.90625 80.40625 113.945312 82.238281 115.941406 83.460938 L 116.273438 81.675781 C 117.359375 82.199219 118.355469 82.867188 119.253906 83.675781 C 119.644531 84.078125 119.921875 84.542969 120.089844 85.078125 C 120.4375 86.101562 120.742188 87.574219 120.550781 88.90625 L 120.527344 89.0625 C 119.800781 90.621094 118.78125 91.953125 117.46875 93.054688 C 116.304688 93.074219 115.148438 92.988281 114 92.792969 C 113.183594 92.601562 112.441406 92.253906 111.773438 91.742188 C 110.167969 90.640625 108.773438 89.3125 107.59375 87.753906 C 107.46875 87.582031 107.398438 87.390625 107.375 87.179688 C 107.335938 86.960938 107.394531 86.769531 107.546875 86.609375 L 107.980469 86.199219 C 107.8125 86.066406 107.695312 85.96875 107.644531 85.917969 C 107.410156 85.722656 107.238281 85.480469 107.117188 85.199219 C 107.058594 85.011719 107.058594 84.828125 107.109375 84.640625 C 107.132812 84.441406 107.222656 84.28125 107.382812 84.160156 C 107.542969 84.042969 107.71875 84 107.917969 84.035156 L 108.3125 84.09375 C 107.867188 83.765625 107.539062 83.519531 107.421875 83.425781 C 107.371094 83.382812 107.316406 83.335938 107.265625 83.289062 C 106.941406 83.015625 106.679688 82.691406 106.480469 82.316406 C 106.296875 81.90625 106.347656 81.53125 106.628906 81.183594 C 106.933594 80.773438 107.464844 80.636719 108.167969 80.859375 C 108.082031 80.503906 108.171875 80.199219 108.4375 79.953125 C 108.878906 79.460938 109.6875 79.6875 110.03125 79.886719 Z M 110.140625 79.953125 " fill-opacity="1" fill-rule="nonzero"/><path fill="#211715" d="M 121.058594 89.050781 C 121.179688 88.128906 121.144531 87.214844 120.960938 86.304688 C 120.835938 85.511719 120.582031 84.761719 120.210938 84.054688 C 119.816406 83.367188 119.175781 82.878906 118.546875 82.421875 C 117.902344 81.960938 117.226562 81.554688 116.515625 81.199219 C 115.914062 80.886719 115.375 81.808594 115.984375 82.125 C 116.617188 82.445312 117.230469 82.804688 117.820312 83.203125 C 118.335938 83.5625 118.917969 83.96875 119.25 84.515625 C 119.582031 85.121094 119.800781 85.765625 119.914062 86.449219 C 120.085938 87.214844 120.128906 87.984375 120.039062 88.765625 C 120.003906 88.90625 120.023438 89.042969 120.09375 89.167969 C 120.167969 89.296875 120.269531 89.378906 120.410156 89.421875 C 120.550781 89.460938 120.683594 89.445312 120.808594 89.371094 C 120.9375 89.296875 121.019531 89.191406 121.058594 89.050781 Z M 121.058594 89.050781 " fill-opacity="1" fill-rule="nonzero"/><path fill="#ececec" d="M 104.398438 88.390625 L 107.445312 71.921875 C 107.472656 71.773438 107.527344 71.632812 107.609375 71.507812 C 107.695312 71.378906 107.796875 71.269531 107.921875 71.183594 C 108.046875 71.097656 108.183594 71.039062 108.328125 71.007812 C 108.476562 70.976562 108.625 70.976562 108.773438 71.003906 L 116.808594 72.523438 C 116.957031 72.550781 117.09375 72.605469 117.222656 72.6875 C 117.347656 72.773438 117.453125 72.875 117.539062 73.003906 C 117.625 73.128906 117.683594 73.265625 117.714844 73.414062 C 117.746094 73.5625 117.746094 73.714844 117.71875 73.863281 L 114.671875 90.332031 C 114.644531 90.484375 114.589844 90.621094 114.507812 90.75 C 114.425781 90.875 114.320312 90.984375 114.195312 91.070312 C 114.074219 91.15625 113.9375 91.214844 113.789062 91.246094 C 113.640625 91.277344 113.492188 91.28125 113.34375 91.25 L 105.308594 89.734375 C 105.160156 89.707031 105.023438 89.648438 104.898438 89.566406 C 104.769531 89.484375 104.664062 89.378906 104.578125 89.253906 C 104.492188 89.128906 104.4375 88.988281 104.40625 88.839844 C 104.375 88.691406 104.371094 88.542969 104.398438 88.390625 Z M 104.398438 88.390625 " fill-opacity="1" fill-rule="nonzero"/><path fill="#211715" d="M 105.167969 90.25 L 110.894531 91.332031 C 111.65625 91.472656 112.414062 91.628906 113.179688 91.761719 C 113.382812 91.804688 113.585938 91.8125 113.792969 91.777344 C 114 91.746094 114.195312 91.679688 114.375 91.574219 C 114.558594 91.46875 114.714844 91.335938 114.847656 91.171875 C 114.980469 91.007812 115.078125 90.824219 115.144531 90.625 C 115.183594 90.488281 115.210938 90.347656 115.230469 90.207031 L 116.226562 84.824219 L 117.609375 77.355469 L 118.085938 74.773438 C 118.203125 74.144531 118.386719 73.507812 118.085938 72.890625 C 117.640625 71.980469 116.609375 71.941406 115.746094 71.777344 L 112.152344 71.097656 L 109.195312 70.539062 C 108.785156 70.425781 108.375 70.433594 107.972656 70.5625 C 107.699219 70.671875 107.46875 70.839844 107.28125 71.066406 C 107.097656 71.292969 106.976562 71.554688 106.921875 71.84375 C 106.625 73.398438 106.347656 74.957031 106.0625 76.511719 L 104.660156 84.085938 C 104.402344 85.472656 104.121094 86.855469 103.890625 88.246094 C 103.847656 88.464844 103.84375 88.683594 103.886719 88.902344 C 103.925781 89.121094 104.007812 89.324219 104.125 89.511719 C 104.246094 89.699219 104.394531 89.855469 104.574219 89.984375 C 104.753906 90.113281 104.953125 90.199219 105.167969 90.25 C 105.832031 90.398438 106.117188 89.367188 105.449219 89.21875 C 104.746094 89.0625 104.925781 88.449219 105.019531 87.941406 L 105.449219 85.628906 L 106.773438 78.457031 L 107.839844 72.703125 C 107.921875 72.253906 107.941406 71.542969 108.542969 71.519531 C 108.734375 71.53125 108.925781 71.558594 109.109375 71.609375 L 110.398438 71.855469 L 116.539062 73.011719 C 116.90625 73.082031 117.25 73.277344 117.210938 73.722656 C 117.199219 73.8125 117.175781 73.90625 117.160156 73.996094 L 116.800781 75.9375 L 115.511719 82.882812 L 114.359375 89.113281 C 114.292969 89.472656 114.238281 89.832031 114.160156 90.191406 C 113.980469 91.035156 113.003906 90.644531 112.4375 90.535156 L 105.953125 89.3125 L 105.449219 89.21875 C 105.308594 89.183594 105.175781 89.199219 105.050781 89.273438 C 104.925781 89.34375 104.839844 89.449219 104.796875 89.589844 C 104.761719 89.734375 104.777344 89.867188 104.851562 89.996094 C 104.921875 90.125 105.027344 90.207031 105.167969 90.25 Z M 105.167969 90.25 " fill-opacity="1" fill-rule="nonzero"/><path fill="#ffffff" d="M 116.757812 84.285156 L 116.773438 83.972656 C 114.832031 82.769531 110.632812 80.238281 110.03125 79.886719 C 109.6875 79.6875 108.878906 79.460938 108.4375 79.949219 C 108.175781 80.199219 108.082031 80.5 108.164062 80.855469 C 108.074219 80.828125 108.019531 80.816406 108.019531 80.816406 C 107.386719 80.660156 106.910156 80.804688 106.628906 81.183594 C 106.347656 81.53125 106.296875 81.90625 106.480469 82.316406 C 106.71875 82.753906 107.03125 83.121094 107.421875 83.425781 C 107.539062 83.519531 107.867188 83.765625 108.3125 84.09375 L 107.917969 84.035156 C 107.71875 84 107.542969 84.042969 107.382812 84.160156 C 107.222656 84.28125 107.132812 84.441406 107.109375 84.640625 C 107.054688 84.828125 107.058594 85.011719 107.117188 85.195312 C 107.238281 85.480469 107.410156 85.722656 107.644531 85.917969 C 107.695312 85.96875 107.8125 86.066406 107.980469 86.199219 L 107.546875 86.605469 C 107.394531 86.769531 107.335938 86.957031 107.375 87.179688 C 107.398438 87.390625 107.46875 87.582031 107.59375 87.753906 C 108.773438 89.3125 110.167969 90.640625 111.777344 91.742188 C 112.441406 92.253906 113.183594 92.601562 114 92.789062 C 114.792969 92.898438 115.585938 92.90625 116.382812 92.816406 Z M 116.757812 84.285156 " fill-opacity="1" fill-rule="nonzero"/><path fill="#211715" d="M 117.039062 83.511719 C 114.859375 82.164062 112.671875 80.835938 110.46875 79.523438 C 109.9375 79.210938 109.296875 79.003906 108.683594 79.191406 C 107.894531 79.429688 107.363281 80.394531 107.730469 81.175781 C 107.960938 81.671875 108.511719 82.003906 108.929688 82.324219 C 109.445312 82.714844 109.964844 83.101562 110.488281 83.484375 C 111.65625 84.339844 112.832031 85.199219 114.03125 86.015625 C 114.601562 86.398438 115.128906 85.472656 114.566406 85.089844 C 113.609375 84.441406 112.667969 83.757812 111.730469 83.078125 C 111.203125 82.691406 110.671875 82.300781 110.144531 81.910156 C 109.921875 81.746094 109.703125 81.582031 109.484375 81.414062 C 109.394531 81.347656 109.308594 81.28125 109.21875 81.210938 C 109.121094 81.136719 109.246094 81.230469 109.179688 81.179688 C 109.140625 81.148438 109.101562 81.117188 109.0625 81.085938 C 108.910156 80.964844 108.6875 80.8125 108.660156 80.636719 C 108.664062 80.566406 108.6875 80.5 108.730469 80.441406 C 108.773438 80.347656 108.839844 80.28125 108.933594 80.234375 C 109.285156 80.050781 109.679688 80.296875 109.984375 80.476562 C 110.898438 81.023438 111.8125 81.574219 112.726562 82.125 C 113.988281 82.890625 115.25 83.65625 116.507812 84.433594 C 117.089844 84.792969 117.621094 83.867188 117.042969 83.507812 Z M 117.039062 83.511719 " fill-opacity="1" fill-rule="nonzero"/><path fill="#211715" d="M 108.160156 80.300781 C 107.558594 80.164062 106.9375 80.195312 106.445312 80.605469 C 106.195312 80.820312 106.019531 81.089844 105.925781 81.40625 C 105.835938 81.726562 105.835938 82.046875 105.933594 82.367188 C 106.195312 83.164062 106.914062 83.710938 107.558594 84.195312 C 108.769531 85.105469 109.992188 85.996094 111.21875 86.886719 C 111.734375 87.261719 112.246094 87.636719 112.769531 88.003906 C 112.894531 88.078125 113.03125 88.097656 113.171875 88.058594 C 113.3125 88.019531 113.417969 87.9375 113.492188 87.8125 C 113.566406 87.683594 113.582031 87.550781 113.546875 87.410156 C 113.507812 87.265625 113.429688 87.15625 113.304688 87.082031 C 112.332031 86.398438 111.382812 85.691406 110.425781 84.992188 C 109.859375 84.578125 109.296875 84.164062 108.730469 83.746094 C 108.519531 83.589844 108.304688 83.429688 108.089844 83.269531 C 108.019531 83.214844 107.945312 83.160156 107.875 83.105469 C 107.847656 83.085938 107.820312 83.066406 107.796875 83.046875 C 107.707031 82.980469 107.902344 83.140625 107.8125 83.058594 C 107.492188 82.777344 106.875 82.324219 106.914062 81.832031 C 106.953125 81.308594 107.472656 81.238281 107.878906 81.332031 C 108.539062 81.484375 108.824219 80.453125 108.160156 80.300781 Z M 108.160156 80.300781 " fill-opacity="1" fill-rule="nonzero"/><path fill="#211715" d="M 107.917969 83.5 C 107.074219 83.402344 106.519531 84.175781 106.542969 84.964844 C 106.5625 85.601562 107.03125 86.113281 107.5 86.492188 C 108.402344 87.222656 109.34375 87.914062 110.269531 88.617188 C 110.753906 88.980469 111.234375 89.34375 111.71875 89.707031 C 111.84375 89.777344 111.976562 89.796875 112.121094 89.761719 C 112.261719 89.722656 112.367188 89.640625 112.441406 89.515625 C 112.511719 89.386719 112.53125 89.25 112.492188 89.109375 C 112.457031 88.96875 112.375 88.859375 112.253906 88.78125 C 111.449219 88.175781 110.648438 87.574219 109.847656 86.964844 C 109.429688 86.648438 109.011719 86.332031 108.597656 86.011719 C 108.570312 85.992188 108.488281 85.925781 108.5625 85.984375 L 108.445312 85.890625 C 108.378906 85.839844 108.3125 85.789062 108.246094 85.734375 C 108.167969 85.671875 108.089844 85.609375 108.015625 85.539062 C 107.804688 85.34375 107.554688 85.101562 107.617188 84.78125 C 107.628906 84.730469 107.644531 84.675781 107.664062 84.625 C 107.613281 84.75 107.738281 84.519531 107.675781 84.609375 C 107.703125 84.570312 107.699219 84.574219 107.722656 84.566406 C 107.789062 84.558594 107.851562 84.558594 107.914062 84.570312 C 108.0625 84.566406 108.1875 84.515625 108.289062 84.410156 C 108.390625 84.308594 108.445312 84.179688 108.445312 84.035156 C 108.441406 83.886719 108.386719 83.761719 108.285156 83.660156 C 108.183594 83.554688 108.058594 83.503906 107.914062 83.5 Z M 107.917969 83.5 " fill-opacity="1" fill-rule="nonzero"/><path fill="#211715" d="M 107.171875 86.230469 C 106.84375 86.597656 106.753906 87.019531 106.898438 87.496094 C 107.015625 87.953125 107.34375 88.308594 107.632812 88.664062 C 108.175781 89.328125 108.765625 89.953125 109.402344 90.53125 C 110.054688 91.125 110.746094 91.671875 111.46875 92.179688 C 112.195312 92.6875 113.003906 93.160156 113.886719 93.3125 C 114.714844 93.445312 115.546875 93.457031 116.382812 93.351562 C 116.527344 93.34375 116.648438 93.292969 116.75 93.1875 C 116.851562 93.085938 116.90625 92.960938 116.910156 92.816406 C 116.910156 92.667969 116.859375 92.542969 116.753906 92.4375 C 116.652344 92.332031 116.527344 92.28125 116.382812 92.28125 C 115.601562 92.390625 114.824219 92.382812 114.046875 92.257812 C 113.082031 92.054688 112.253906 91.453125 111.472656 90.871094 C 110.714844 90.304688 110.007812 89.679688 109.351562 89 C 109.011719 88.648438 108.6875 88.285156 108.382812 87.90625 C 108.261719 87.761719 107.71875 87.210938 107.921875 86.984375 C 108.382812 86.480469 107.636719 85.722656 107.171875 86.226562 Z M 107.171875 86.230469 " fill-opacity="1" fill-rule="nonzero"/><path fill="#211715" d="M 120.414062 87.867188 C 120.050781 89.003906 119.496094 90.035156 118.753906 90.964844 C 118.046875 91.878906 117.195312 92.742188 116.164062 93.277344 C 115.558594 93.589844 116.09375 94.515625 116.699219 94.199219 C 117.847656 93.601562 118.800781 92.636719 119.585938 91.613281 C 120.414062 90.574219 121.03125 89.421875 121.4375 88.152344 C 121.636719 87.492188 120.613281 87.207031 120.414062 87.867188 Z M 120.414062 87.867188 " fill-opacity="1" fill-rule="nonzero"/><path fill="#211715" d="M 110.949219 73.199219 C 110.5 73.117188 110.050781 73.03125 109.605469 72.945312 C 109.460938 72.910156 109.324219 72.929688 109.195312 73 C 109.070312 73.074219 108.988281 73.183594 108.949219 73.324219 C 108.914062 73.46875 108.933594 73.605469 109.007812 73.730469 C 109.078125 73.855469 109.183594 73.9375 109.324219 73.976562 C 109.769531 74.0625 110.21875 74.144531 110.667969 74.230469 C 110.8125 74.265625 110.945312 74.25 111.074219 74.175781 C 111.203125 74.101562 111.285156 73.992188 111.320312 73.851562 C 111.359375 73.707031 111.339844 73.574219 111.265625 73.445312 C 111.195312 73.320312 111.089844 73.238281 110.949219 73.199219 Z M 110.949219 73.199219 " fill-opacity="1" fill-rule="nonzero"/><g fill="#32cd99" fill-opacity="1"><g transform="translate(2.445124, 25.303164)"><g><path d="M 7.453125 0.335938 C 11.539062 0.335938 13.953125 -2.125 13.953125 -5.019531 C 13.953125 -7.574219 12.542969 -8.9375 10.394531 -9.820312 L 8.074219 -10.800781 C 6.570312 -11.398438 5.304688 -11.851562 5.304688 -13.117188 C 5.304688 -14.289062 6.308594 -14.980469 7.859375 -14.980469 C 9.320312 -14.980469 10.488281 -14.457031 11.613281 -13.523438 L 13.40625 -15.746094 C 11.972656 -17.203125 9.914062 -18.015625 7.859375 -18.015625 C 4.277344 -18.015625 1.746094 -15.792969 1.746094 -12.902344 C 1.746094 -10.320312 3.535156 -8.886719 5.328125 -8.148438 L 7.695312 -7.144531 C 9.269531 -6.476562 10.347656 -6.070312 10.347656 -4.753906 C 10.347656 -3.511719 9.367188 -2.722656 7.527344 -2.722656 C 5.972656 -2.722656 4.300781 -3.511719 3.035156 -4.683594 L 1.003906 -2.246094 C 2.722656 -0.597656 5.089844 0.335938 7.453125 0.335938 Z M 7.453125 0.335938 "/></g></g></g><g fill="#32cd99" fill-opacity="1"><g transform="translate(17.354893, 25.303164)"><g><path d="M 5.6875 0 L 9.222656 0 L 9.222656 -14.742188 L 14.242188 -14.742188 L 14.242188 -17.679688 L 0.71875 -17.679688 L 0.71875 -14.742188 L 5.6875 -14.742188 Z M 5.6875 0 "/></g></g></g><g fill="#32cd99" fill-opacity="1"><g transform="translate(32.288555, 25.303164)"><g><path d="M 2.175781 0 L 13.285156 0 L 13.285156 -2.960938 L 5.710938 -2.960938 L 5.710938 -7.695312 L 11.921875 -7.695312 L 11.921875 -10.65625 L 5.710938 -10.65625 L 5.710938 -14.742188 L 13.023438 -14.742188 L 13.023438 -17.679688 L 2.175781 -17.679688 Z M 2.175781 0 "/></g></g></g><g fill="#32cd99" fill-opacity="1"><g transform="translate(46.983272, 25.303164)"><g><path d="M 2.175781 0 L 5.710938 0 L 5.710938 -6.285156 L 8.074219 -6.285156 C 11.875 -6.285156 14.910156 -8.101562 14.910156 -12.136719 C 14.910156 -16.320312 11.898438 -17.679688 7.980469 -17.679688 L 2.175781 -17.679688 Z M 5.710938 -9.078125 L 5.710938 -14.886719 L 7.71875 -14.886719 C 10.15625 -14.886719 11.445312 -14.191406 11.445312 -12.136719 C 11.445312 -10.105469 10.273438 -9.078125 7.835938 -9.078125 Z M 5.710938 -9.078125 "/></g></g></g><g fill="#32cd99" fill-opacity="1"><g transform="translate(62.920469, 25.303164)"><g/></g></g><g fill="#32cd99" fill-opacity="1"><g transform="translate(68.344368, 25.303164)"><g><path d="M 1.960938 0 L 12.59375 0 L 12.59375 -2.84375 L 9.269531 -2.84375 L 9.269531 -17.679688 L 6.667969 -17.679688 C 5.542969 -16.988281 4.324219 -16.535156 2.554688 -16.199219 L 2.554688 -14.027344 L 5.757812 -14.027344 L 5.757812 -2.84375 L 1.960938 -2.84375 Z M 1.960938 0 "/></g></g></g></svg>