<svg xmlns="http://www.w3.org/2000/svg" xmlns:xlink="http://www.w3.org/1999/xlink" width="200" zoomAndPan="magnify" viewBox="0 0 150 112.499997" height="150" preserveAspectRatio="xMidYMid meet" version="1.0"><defs><g/><clipPath id="925e995350"><path d="M 131 84 L 138.585938 84 L 138.585938 92 L 131 92 Z M 131 84 " clip-rule="nonzero"/></clipPath><clipPath id="3f5af9df4b"><path d="M 130 84 L 138.585938 84 L 138.585938 92 L 130 92 Z M 130 84 " clip-rule="nonzero"/></clipPath><clipPath id="0de8d978cb"><path d="M 49 38.652344 L 57 38.652344 L 57 47 L 49 47 Z M 49 38.652344 " clip-rule="nonzero"/></clipPath><clipPath id="a19806f07d"><path d="M 81 89 L 105 89 L 105 100.625 L 81 100.625 Z M 81 89 " clip-rule="nonzero"/></clipPath><clipPath id="5facee8915"><path d="M 81 96 L 105 96 L 105 100.625 L 81 100.625 Z M 81 96 " clip-rule="nonzero"/></clipPath><clipPath id="432671ab5c"><path d="M 81 89 L 105 89 L 105 100.625 L 81 100.625 Z M 81 89 " clip-rule="nonzero"/></clipPath></defs><g clip-path="url(#925e995350)"><path fill="#ffffff" d="M 134.761719 91.371094 C 134.757812 91.394531 134.742188 91.402344 134.71875 91.402344 C 134.695312 91.402344 134.683594 91.394531 134.675781 91.371094 C 134.507812 90.667969 134.160156 89.507812 133.632812 89.011719 C 133.007812 88.488281 132.296875 88.167969 131.492188 88.054688 C 131.460938 88.050781 131.445312 88.039062 131.449219 88.007812 C 131.449219 87.980469 131.464844 87.964844 131.492188 87.964844 C 132.4375 87.828125 133.21875 87.546875 133.8125 86.808594 C 134.355469 86.132812 134.539062 85.433594 134.625 84.617188 C 134.625 84.59375 134.640625 84.582031 134.664062 84.578125 C 134.6875 84.578125 134.703125 84.589844 134.710938 84.613281 C 134.878906 85.34375 135.289062 86.40625 135.648438 86.859375 C 136.1875 87.539062 136.894531 87.75 138.015625 87.960938 C 138.042969 87.960938 138.058594 87.976562 138.054688 88.007812 C 138.054688 88.035156 138.039062 88.050781 138.011719 88.046875 C 137.113281 88.117188 136.339844 88.46875 135.695312 89.097656 C 135.144531 89.59375 134.878906 90.890625 134.761719 91.371094 Z M 134.761719 91.371094 " fill-opacity="1" fill-rule="nonzero"/></g><path fill="#ffffff" d="M 52.828125 45.964844 C 52.824219 45.988281 52.808594 46 52.785156 46 C 52.765625 46 52.75 45.988281 52.746094 45.964844 C 52.578125 45.261719 52.230469 44.105469 51.699219 43.605469 C 51.078125 43.082031 50.363281 42.765625 49.558594 42.648438 C 49.527344 42.648438 49.515625 42.632812 49.515625 42.601562 C 49.515625 42.574219 49.53125 42.558594 49.558594 42.5625 C 50.507812 42.425781 51.289062 42.140625 51.882812 41.40625 C 52.425781 40.730469 52.605469 40.03125 52.691406 39.214844 C 52.695312 39.1875 52.707031 39.175781 52.734375 39.171875 C 52.757812 39.171875 52.773438 39.183594 52.777344 39.207031 C 52.949219 39.941406 53.355469 41 53.714844 41.453125 C 54.253906 42.136719 54.964844 42.34375 56.082031 42.554688 C 56.113281 42.558594 56.125 42.570312 56.125 42.601562 C 56.125 42.628906 56.109375 42.644531 56.078125 42.644531 C 55.179688 42.714844 54.410156 43.0625 53.765625 43.691406 C 53.214844 44.1875 52.949219 45.484375 52.828125 45.964844 Z M 52.828125 45.964844 " fill-opacity="1" fill-rule="nonzero"/><g clip-path="url(#3f5af9df4b)"><path fill="#211715" d="M 134.386719 91 L 134.363281 91.03125 L 134.738281 90.875 L 134.699219 90.875 L 135.074219 91.03125 L 135.050781 91 L 135.1875 91.230469 C 134.984375 90.394531 134.71875 89.484375 134.160156 88.808594 C 133.855469 88.46875 133.5 88.203125 133.082031 88.015625 C 132.855469 87.90625 132.625 87.808594 132.386719 87.730469 C 132.261719 87.6875 132.132812 87.652344 132.003906 87.621094 C 131.945312 87.605469 131.722656 87.574219 131.722656 87.574219 L 131.984375 88.03125 L 131.984375 87.992188 L 131.722656 88.445312 C 131.71875 88.449219 131.921875 88.425781 131.96875 88.417969 C 132.078125 88.394531 132.183594 88.375 132.289062 88.34375 C 132.515625 88.285156 132.730469 88.207031 132.945312 88.117188 C 133.367188 87.933594 133.734375 87.675781 134.046875 87.34375 C 134.757812 86.578125 135.039062 85.632812 135.152344 84.621094 L 135.078125 84.886719 L 135.101562 84.851562 L 134.644531 85.109375 L 134.683594 85.105469 L 134.308594 84.953125 L 134.335938 84.984375 L 134.199219 84.753906 C 134.414062 85.644531 134.746094 86.644531 135.367188 87.339844 C 136.003906 88.0625 136.964844 88.296875 137.871094 88.46875 L 137.640625 88.335938 L 137.671875 88.359375 L 137.519531 87.988281 L 137.515625 88.027344 L 137.777344 87.574219 L 137.742188 87.59375 L 138.007812 87.523438 C 136.980469 87.625 135.886719 88.042969 135.199219 88.851562 C 134.640625 89.515625 134.453125 90.414062 134.25 91.230469 C 134.089844 91.890625 135.109375 92.167969 135.269531 91.511719 C 135.378906 90.921875 135.558594 90.355469 135.8125 89.8125 C 136.105469 89.28125 136.769531 88.875 137.371094 88.699219 C 137.761719 88.585938 138.421875 88.648438 138.554688 88.167969 C 138.589844 88.039062 138.582031 87.914062 138.53125 87.789062 C 138.480469 87.667969 138.394531 87.574219 138.28125 87.507812 C 138.058594 87.417969 137.828125 87.363281 137.585938 87.335938 C 136.984375 87.195312 136.371094 86.984375 136.019531 86.476562 C 135.828125 86.183594 135.671875 85.875 135.554688 85.542969 C 135.484375 85.363281 135.421875 85.175781 135.363281 84.992188 C 135.316406 84.792969 135.261719 84.601562 135.191406 84.410156 C 135.089844 84.167969 134.910156 84.050781 134.644531 84.058594 C 134.257812 84.074219 134.128906 84.382812 134.085938 84.710938 C 134.046875 85.078125 133.960938 85.433594 133.828125 85.78125 C 133.53125 86.519531 133.003906 87.015625 132.242188 87.265625 C 132.0625 87.320312 131.875 87.367188 131.6875 87.402344 C 131.445312 87.453125 131.207031 87.460938 131.042969 87.671875 C 130.953125 87.792969 130.917969 87.925781 130.933594 88.078125 C 130.953125 88.226562 131.019531 88.347656 131.136719 88.441406 C 131.332031 88.554688 131.542969 88.621094 131.765625 88.644531 C 132.207031 88.753906 132.617188 88.929688 132.996094 89.175781 C 133.292969 89.382812 133.511719 89.648438 133.65625 89.976562 C 133.835938 90.355469 133.972656 90.746094 134.074219 91.152344 C 134.101562 91.375 134.183594 91.578125 134.316406 91.757812 C 134.429688 91.875 134.566406 91.929688 134.730469 91.925781 C 134.890625 91.921875 135.027344 91.863281 135.136719 91.742188 C 135.234375 91.640625 135.285156 91.515625 135.285156 91.371094 C 135.285156 91.226562 135.234375 91.105469 135.136719 91 C 135.03125 90.898438 134.90625 90.847656 134.761719 90.847656 C 134.617188 90.847656 134.492188 90.898438 134.386719 91 Z M 134.386719 91 " fill-opacity="1" fill-rule="nonzero"/></g><g clip-path="url(#0de8d978cb)"><path fill="#211715" d="M 52.457031 45.59375 L 52.433594 45.625 L 52.804688 45.472656 L 52.769531 45.472656 L 53.144531 45.625 L 53.117188 45.59375 L 53.253906 45.824219 C 53.050781 44.988281 52.785156 44.082031 52.226562 43.402344 C 51.925781 43.0625 51.566406 42.800781 51.152344 42.609375 C 50.925781 42.5 50.691406 42.40625 50.453125 42.324219 C 50.328125 42.28125 50.203125 42.246094 50.074219 42.214844 C 50.015625 42.199219 49.789062 42.167969 49.792969 42.171875 L 50.054688 42.625 L 50.054688 42.585938 L 49.792969 43.039062 C 49.789062 43.042969 49.992188 43.019531 50.039062 43.011719 C 50.144531 42.988281 50.253906 42.964844 50.359375 42.9375 C 50.582031 42.878906 50.800781 42.800781 51.011719 42.710938 C 51.433594 42.527344 51.800781 42.269531 52.117188 41.9375 C 52.824219 41.171875 53.105469 40.226562 53.21875 39.214844 L 53.148438 39.480469 L 53.167969 39.445312 L 52.714844 39.703125 L 52.753906 39.699219 L 52.378906 39.546875 L 52.40625 39.578125 L 52.269531 39.347656 C 52.480469 40.238281 52.816406 41.238281 53.433594 41.933594 C 54.074219 42.65625 55.03125 42.886719 55.941406 43.0625 L 55.707031 42.925781 L 55.742188 42.953125 L 55.585938 42.582031 L 55.585938 42.621094 L 55.847656 42.167969 L 55.8125 42.1875 L 56.078125 42.117188 C 55.050781 42.21875 53.953125 42.636719 53.269531 43.445312 C 52.710938 44.105469 52.523438 45.003906 52.320312 45.824219 C 52.160156 46.480469 53.179688 46.761719 53.339844 46.105469 C 53.445312 45.515625 53.628906 44.949219 53.882812 44.40625 C 54.175781 43.875 54.839844 43.46875 55.441406 43.292969 C 55.832031 43.179688 56.488281 43.246094 56.625 42.761719 C 56.65625 42.632812 56.648438 42.507812 56.597656 42.386719 C 56.546875 42.261719 56.464844 42.167969 56.347656 42.101562 C 56.125 42.015625 55.894531 41.957031 55.65625 41.933594 C 55.054688 41.792969 54.4375 41.578125 54.085938 41.070312 C 53.894531 40.777344 53.742188 40.46875 53.625 40.140625 C 53.554688 39.957031 53.488281 39.773438 53.429688 39.585938 C 53.386719 39.390625 53.328125 39.195312 53.261719 39.003906 C 53.160156 38.761719 52.980469 38.644531 52.714844 38.652344 C 52.328125 38.667969 52.195312 38.976562 52.15625 39.304688 C 52.113281 39.671875 52.027344 40.027344 51.894531 40.375 C 51.597656 41.113281 51.070312 41.609375 50.3125 41.855469 C 50.128906 41.914062 49.945312 41.960938 49.757812 41.996094 C 49.515625 42.042969 49.277344 42.054688 49.113281 42.265625 C 49.023438 42.386719 48.984375 42.519531 49.003906 42.667969 C 49.019531 42.820312 49.089844 42.941406 49.207031 43.035156 C 49.402344 43.148438 49.609375 43.214844 49.835938 43.238281 C 50.273438 43.34375 50.683594 43.523438 51.0625 43.769531 C 51.359375 43.976562 51.582031 44.242188 51.726562 44.570312 C 51.902344 44.949219 52.042969 45.339844 52.144531 45.746094 C 52.171875 45.96875 52.25 46.171875 52.382812 46.351562 C 52.496094 46.46875 52.636719 46.523438 52.796875 46.519531 C 52.960938 46.515625 53.09375 46.457031 53.203125 46.335938 C 53.304688 46.234375 53.351562 46.109375 53.351562 45.964844 C 53.351562 45.820312 53.304688 45.699219 53.203125 45.59375 C 53.101562 45.492188 52.976562 45.441406 52.832031 45.441406 C 52.683594 45.441406 52.558594 45.492188 52.457031 45.59375 Z M 52.457031 45.59375 " fill-opacity="1" fill-rule="nonzero"/></g><path fill="#ffffff" d="M 60.8125 45.277344 C 61.421875 44.886719 62.085938 44.691406 62.804688 44.695312 C 74.707031 44.695312 110.589844 44.703125 123.058594 44.703125 C 123.546875 44.703125 124.015625 44.796875 124.464844 44.984375 C 124.914062 45.167969 125.308594 45.433594 125.652344 45.773438 C 126 46.117188 126.261719 46.511719 126.449219 46.960938 C 126.636719 47.40625 126.730469 47.871094 126.730469 48.359375 C 126.734375 55.726562 126.746094 73.074219 126.75 82.914062 L 126.675781 82.914062 C 125.652344 82.972656 64.40625 83.03125 59.238281 83.03125 L 59.222656 83.03125 C 59.199219 73.410156 59.152344 56.390625 59.136719 48.359375 C 59.132812 47.734375 59.28125 47.152344 59.578125 46.605469 C 59.878906 46.058594 60.289062 45.617188 60.8125 45.277344 Z M 60.8125 45.277344 " fill-opacity="1" fill-rule="nonzero"/><g clip-path="url(#a19806f07d)"><path fill="#ffffff" d="M 84.902344 100.085938 L 82.210938 100.085938 C 81.636719 100.085938 81.585938 98.574219 81.757812 98.199219 C 81.933594 97.820312 82.277344 97.582031 82.875 97.46875 C 84.941406 97.078125 85.453125 95.964844 85.625 93.996094 C 85.699219 93.152344 85.773438 92.628906 85.816406 91.785156 C 85.84375 91.242188 85.890625 90.636719 85.972656 89.808594 C 90.550781 89.804688 95.308594 89.796875 99.890625 89.789062 C 99.972656 90.625 100.023438 91.238281 100.046875 91.785156 C 100.089844 92.628906 100.167969 93.152344 100.242188 93.996094 C 100.410156 95.964844 100.921875 97.078125 102.992188 97.46875 C 103.585938 97.582031 103.933594 97.820312 104.105469 98.199219 C 104.28125 98.574219 104.308594 100.089844 103.71875 100.089844 C 102.84375 100.089844 90.566406 100.085938 84.902344 100.085938 Z M 84.902344 100.085938 " fill-opacity="1" fill-rule="nonzero"/></g><path fill="#d9d9d9" d="M 61.25 89.410156 C 61.765625 89.667969 62.3125 89.796875 62.886719 89.800781 C 74.640625 89.84375 111.0625 89.769531 123.085938 89.75 C 123.574219 89.75 124.042969 89.65625 124.492188 89.472656 C 124.941406 89.285156 125.335938 89.019531 125.679688 88.679688 C 126.023438 88.335938 126.289062 87.941406 126.472656 87.492188 C 126.660156 87.042969 126.753906 86.578125 126.753906 86.09375 C 126.753906 85.160156 126.753906 84.089844 126.75 82.914062 L 126.675781 82.914062 C 125.652344 82.972656 64.40625 83.027344 59.238281 83.027344 L 59.222656 83.027344 C 59.226562 84.1875 59.226562 85.234375 59.230469 86.152344 C 59.230469 86.839844 59.414062 87.476562 59.777344 88.066406 C 60.140625 88.652344 60.632812 89.101562 61.25 89.410156 Z M 61.25 89.410156 " fill-opacity="1" fill-rule="nonzero"/><g clip-path="url(#5facee8915)"><path fill="#ffffff" d="M 86.65625 100.085938 L 82.210938 100.085938 C 81.636719 100.085938 81.585938 98.574219 81.757812 98.199219 C 81.933594 97.820312 82.277344 97.582031 82.875 97.46875 C 83.359375 97.390625 83.816406 97.226562 84.246094 96.984375 C 88.894531 96.984375 97.113281 96.984375 101.621094 96.984375 C 102.050781 97.230469 102.503906 97.390625 102.992188 97.46875 C 103.585938 97.582031 103.933594 97.824219 104.105469 98.199219 C 104.28125 98.574219 104.308594 100.089844 103.71875 100.089844 Z M 86.65625 100.085938 " fill-opacity="1" fill-rule="nonzero"/></g><g clip-path="url(#432671ab5c)"><path fill="#211715" d="M 99.386719 90.039062 C 99.507812 91.320312 99.585938 92.609375 99.703125 93.890625 C 99.789062 94.8125 99.898438 95.808594 100.449219 96.589844 C 101.019531 97.398438 101.902344 97.773438 102.851562 97.972656 C 103.058594 98.003906 103.253906 98.074219 103.4375 98.183594 C 103.507812 98.238281 103.5625 98.300781 103.609375 98.378906 C 103.640625 98.425781 103.660156 98.539062 103.621094 98.390625 C 103.628906 98.429688 103.640625 98.464844 103.648438 98.5 C 103.660156 98.542969 103.667969 98.585938 103.671875 98.628906 C 103.65625 98.523438 103.671875 98.636719 103.675781 98.664062 C 103.683594 98.765625 103.6875 98.863281 103.6875 98.96875 C 103.691406 99.144531 103.671875 99.320312 103.625 99.492188 C 103.613281 99.546875 103.609375 99.625 103.570312 99.628906 L 103.605469 99.585938 L 103.578125 99.617188 L 103.628906 99.582031 C 103.578125 99.609375 103.585938 99.609375 103.65625 99.574219 C 103.71875 99.527344 103.71875 99.566406 103.636719 99.5625 C 103.535156 99.558594 103.433594 99.5625 103.335938 99.5625 L 98.609375 99.5625 L 88.898438 99.558594 L 84.722656 99.558594 C 83.921875 99.558594 83.117188 99.539062 82.320312 99.558594 C 82.238281 99.5625 82.195312 99.527344 82.277344 99.570312 C 82.34375 99.605469 82.339844 99.570312 82.359375 99.625 C 82.34375 99.585938 82.3125 99.546875 82.292969 99.503906 C 82.332031 99.589844 82.28125 99.460938 82.277344 99.441406 C 82.230469 99.285156 82.203125 99.128906 82.203125 98.96875 C 82.199219 98.875 82.199219 98.78125 82.203125 98.691406 C 82.203125 98.640625 82.207031 98.589844 82.214844 98.539062 C 82.226562 98.402344 82.191406 98.609375 82.21875 98.5 C 82.230469 98.460938 82.289062 98.320312 82.242188 98.40625 C 82.28125 98.324219 82.335938 98.257812 82.40625 98.203125 C 82.617188 98.070312 82.847656 97.988281 83.09375 97.960938 C 83.585938 97.867188 84.046875 97.699219 84.484375 97.453125 C 85.261719 96.964844 85.75 96.273438 85.941406 95.378906 C 86.058594 94.855469 86.136719 94.324219 86.171875 93.789062 C 86.230469 93.15625 86.304688 92.523438 86.339844 91.890625 C 86.375 91.273438 86.417969 90.65625 86.476562 90.039062 C 86.476562 89.894531 86.425781 89.769531 86.324219 89.667969 C 86.21875 89.566406 86.097656 89.515625 85.949219 89.515625 C 85.804688 89.515625 85.683594 89.570312 85.582031 89.671875 C 85.476562 89.773438 85.425781 89.894531 85.421875 90.039062 C 85.296875 91.355469 85.21875 92.675781 85.097656 93.996094 C 85.066406 94.460938 84.984375 94.914062 84.851562 95.359375 C 84.753906 95.703125 84.578125 96 84.328125 96.257812 C 84.21875 96.371094 84.09375 96.46875 83.949219 96.546875 C 83.75 96.664062 83.539062 96.753906 83.316406 96.820312 C 82.746094 96.996094 82.152344 97.03125 81.683594 97.4375 C 81.027344 98.007812 81.015625 99.105469 81.308594 99.867188 C 81.472656 100.289062 81.765625 100.59375 82.242188 100.609375 C 82.359375 100.613281 82.472656 100.609375 82.589844 100.609375 L 87.601562 100.609375 L 97.632812 100.613281 L 101.6875 100.613281 C 102.355469 100.613281 103.03125 100.640625 103.703125 100.613281 C 104.6875 100.574219 104.800781 99.335938 104.722656 98.585938 C 104.699219 98.101562 104.503906 97.707031 104.132812 97.398438 C 103.648438 97.007812 103.050781 96.980469 102.484375 96.796875 C 102.105469 96.683594 101.777344 96.492188 101.5 96.214844 C 101.257812 95.953125 101.089844 95.648438 101 95.300781 C 100.871094 94.839844 100.789062 94.367188 100.757812 93.886719 C 100.699219 93.238281 100.621094 92.589844 100.585938 91.9375 C 100.550781 91.300781 100.503906 90.667969 100.445312 90.035156 C 100.441406 89.894531 100.386719 89.769531 100.285156 89.667969 C 100.183594 89.566406 100.058594 89.515625 99.914062 89.511719 C 99.769531 89.511719 99.644531 89.5625 99.542969 89.664062 C 99.441406 89.769531 99.390625 89.890625 99.386719 90.035156 Z M 99.386719 90.039062 " fill-opacity="1" fill-rule="nonzero"/></g><path fill="#211715" d="M 86.777344 97.507812 L 99.113281 97.507812 C 99.792969 97.507812 99.792969 96.457031 99.113281 96.457031 L 86.777344 96.457031 C 86.097656 96.457031 86.09375 97.507812 86.777344 97.507812 Z M 86.777344 97.507812 " fill-opacity="1" fill-rule="nonzero"/><path fill="#211715" d="M 58.609375 48.359375 C 58.613281 51.90625 58.621094 55.457031 58.632812 59.007812 C 58.644531 63.332031 58.65625 67.652344 58.667969 71.976562 C 58.675781 75.816406 58.6875 79.652344 58.695312 83.492188 L 58.703125 85.6875 C 58.703125 86.691406 58.839844 87.644531 59.425781 88.488281 C 60.046875 89.394531 60.894531 89.972656 61.964844 90.222656 C 62.644531 90.371094 63.355469 90.328125 64.046875 90.332031 C 66.863281 90.339844 69.679688 90.339844 72.5 90.339844 C 76.164062 90.339844 79.828125 90.339844 83.496094 90.335938 C 87.535156 90.332031 91.578125 90.328125 95.617188 90.320312 C 99.5625 90.316406 103.503906 90.3125 107.445312 90.304688 C 110.828125 90.296875 114.210938 90.292969 117.59375 90.285156 L 121.546875 90.28125 C 122.136719 90.28125 122.734375 90.304688 123.324219 90.269531 C 124.4375 90.203125 125.378906 89.761719 126.144531 88.953125 C 126.910156 88.132812 127.285156 87.160156 127.28125 86.039062 C 127.285156 85.332031 127.28125 84.625 127.28125 83.921875 C 127.28125 82.199219 127.277344 80.476562 127.277344 78.753906 L 127.269531 66.242188 C 127.265625 62.207031 127.261719 58.167969 127.261719 54.132812 C 127.257812 52.546875 127.257812 50.960938 127.257812 49.375 C 127.257812 48.53125 127.296875 47.679688 126.984375 46.878906 C 126.589844 45.855469 125.902344 45.097656 124.917969 44.613281 C 123.585938 43.972656 121.96875 44.179688 120.53125 44.179688 L 105.550781 44.179688 L 93.445312 44.175781 L 81.300781 44.171875 L 64.25 44.171875 C 63.648438 44.171875 63.03125 44.128906 62.429688 44.1875 C 61.910156 44.242188 61.414062 44.382812 60.949219 44.617188 C 60.480469 44.851562 60.070312 45.160156 59.71875 45.546875 C 59.367188 45.929688 59.09375 46.367188 58.902344 46.851562 C 58.710938 47.335938 58.613281 47.835938 58.609375 48.359375 C 58.601562 49.035156 59.65625 49.035156 59.664062 48.359375 C 59.664062 47.875 59.769531 47.414062 59.984375 46.980469 C 60.195312 46.542969 60.492188 46.175781 60.871094 45.875 C 61.570312 45.335938 62.363281 45.21875 63.21875 45.21875 L 66.859375 45.21875 L 76.441406 45.222656 L 87.9375 45.222656 L 100.058594 45.226562 L 111.363281 45.226562 L 120.558594 45.230469 L 122.355469 45.230469 C 123.152344 45.230469 123.90625 45.230469 124.621094 45.640625 C 125.035156 45.878906 125.378906 46.195312 125.652344 46.59375 C 125.921875 46.988281 126.097656 47.421875 126.171875 47.894531 C 126.273438 48.570312 126.203125 49.300781 126.203125 49.984375 C 126.203125 53.523438 126.207031 57.066406 126.210938 60.605469 L 126.21875 73.199219 C 126.21875 76.839844 126.222656 80.480469 126.222656 84.121094 C 126.222656 84.835938 126.253906 85.566406 126.21875 86.28125 C 126.191406 86.746094 126.066406 87.183594 125.84375 87.589844 C 125.621094 88 125.320312 88.34375 124.945312 88.617188 C 123.792969 89.453125 122.234375 89.226562 120.886719 89.226562 L 112.035156 89.242188 C 108.351562 89.25 104.667969 89.253906 100.980469 89.261719 C 97 89.265625 93.019531 89.273438 89.035156 89.277344 C 85.191406 89.28125 81.347656 89.285156 77.503906 89.285156 C 74.265625 89.289062 71.027344 89.285156 67.789062 89.285156 C 66.542969 89.28125 65.292969 89.28125 64.046875 89.277344 C 63.425781 89.273438 62.761719 89.332031 62.15625 89.183594 C 61.695312 89.070312 61.277344 88.859375 60.910156 88.558594 C 60.539062 88.257812 60.253906 87.894531 60.046875 87.460938 C 59.691406 86.710938 59.757812 85.886719 59.753906 85.078125 C 59.753906 84.335938 59.753906 83.59375 59.75 82.851562 C 59.746094 81.046875 59.742188 79.242188 59.738281 77.441406 C 59.726562 73.238281 59.714844 69.035156 59.703125 64.835938 C 59.691406 60.847656 59.683594 56.859375 59.671875 52.871094 C 59.667969 51.367188 59.664062 49.863281 59.664062 48.359375 C 59.660156 47.683594 58.605469 47.679688 58.609375 48.359375 Z M 58.609375 48.359375 " fill-opacity="1" fill-rule="nonzero"/><path fill="#211715" d="M 59.222656 83.554688 C 60.222656 83.554688 61.21875 83.554688 62.21875 83.554688 C 64.078125 83.554688 65.941406 83.550781 67.800781 83.550781 C 70.296875 83.546875 72.789062 83.542969 75.28125 83.542969 C 78.207031 83.539062 81.132812 83.535156 84.058594 83.53125 C 87.175781 83.527344 90.292969 83.523438 93.410156 83.519531 C 96.515625 83.515625 99.617188 83.511719 102.722656 83.507812 C 105.59375 83.503906 108.464844 83.5 111.339844 83.492188 C 113.761719 83.488281 116.1875 83.484375 118.609375 83.476562 C 120.375 83.472656 122.136719 83.46875 123.902344 83.460938 C 124.773438 83.457031 125.644531 83.460938 126.519531 83.445312 C 126.597656 83.441406 126.671875 83.441406 126.75 83.441406 C 127.429688 83.441406 127.429688 82.386719 126.75 82.386719 C 126.105469 82.386719 125.457031 82.402344 124.808594 82.40625 C 123.242188 82.414062 121.675781 82.417969 120.109375 82.421875 C 117.828125 82.429688 115.546875 82.433594 113.265625 82.4375 C 110.472656 82.445312 107.675781 82.449219 104.882812 82.453125 C 101.816406 82.457031 98.75 82.464844 95.679688 82.46875 C 92.546875 82.472656 89.410156 82.476562 86.277344 82.480469 L 77.328125 82.488281 L 69.480469 82.496094 C 67.441406 82.5 65.402344 82.5 63.367188 82.503906 C 62.140625 82.503906 60.914062 82.503906 59.6875 82.503906 L 59.222656 82.503906 C 58.542969 82.503906 58.542969 83.554688 59.222656 83.554688 Z M 59.222656 83.554688 " fill-opacity="1" fill-rule="nonzero"/><path fill="#211715" d="M 94.40625 86.445312 C 94.40625 86.636719 94.371094 86.816406 94.300781 86.992188 C 94.226562 87.164062 94.121094 87.316406 93.984375 87.449219 C 93.847656 87.578125 93.6875 87.675781 93.511719 87.742188 C 93.332031 87.804688 93.148438 87.832031 92.960938 87.820312 C 91.984375 87.820312 91.480469 87.160156 91.480469 86.445312 C 91.480469 86.257812 91.511719 86.074219 91.585938 85.902344 C 91.65625 85.726562 91.757812 85.574219 91.890625 85.441406 C 92.027344 85.304688 92.179688 85.203125 92.355469 85.132812 C 92.53125 85.0625 92.714844 85.027344 92.902344 85.03125 C 93.097656 85.027344 93.28125 85.0625 93.460938 85.128906 C 93.644531 85.199219 93.804688 85.300781 93.945312 85.433594 C 94.085938 85.566406 94.195312 85.71875 94.273438 85.894531 C 94.355469 86.070312 94.398438 86.253906 94.40625 86.445312 Z M 94.40625 86.445312 " fill-opacity="1" fill-rule="nonzero"/><path fill="#ffffff" d="M 73.613281 66.28125 C 73.617188 68.210938 73.628906 72.644531 73.628906 73.273438 C 75.417969 73.269531 77.570312 73.265625 79.945312 73.257812 C 79.945312 72.390625 79.945312 65.773438 79.945312 65.394531 L 73.613281 65.394531 C 73.613281 65.449219 73.613281 65.785156 73.613281 66.28125 Z M 73.613281 66.28125 " fill-opacity="1" fill-rule="nonzero"/><path fill="#ffffff" d="M 84.199219 62.617188 C 84.199219 61.941406 84.199219 61.503906 84.199219 61.453125 L 90.53125 61.453125 L 90.53125 73.234375 L 84.210938 73.25 C 84.210938 72.476562 84.203125 65.445312 84.199219 62.617188 Z M 84.199219 62.617188 " fill-opacity="1" fill-rule="nonzero"/><path fill="#ffffff" d="M 94.785156 58.792969 C 94.785156 58.035156 94.785156 57.558594 94.785156 57.511719 L 101.117188 57.511719 L 101.117188 73.210938 L 94.796875 73.226562 C 94.796875 72.230469 94.789062 62.367188 94.785156 58.792969 Z M 94.785156 58.792969 " fill-opacity="1" fill-rule="nonzero"/><path fill="#3f88c9" d="M 105.371094 56.152344 C 105.371094 54.632812 105.367188 53.632812 105.367188 53.570312 L 111.699219 53.570312 L 111.699219 73.1875 C 109.90625 73.191406 107.753906 73.195312 105.382812 73.203125 C 105.382812 72.054688 105.375 61.21875 105.371094 56.152344 Z M 105.371094 56.152344 " fill-opacity="1" fill-rule="nonzero"/><path fill="#211715" d="M 74.15625 73.273438 C 74.15625 70.980469 74.148438 68.691406 74.140625 66.398438 C 74.140625 66.066406 74.140625 65.730469 74.140625 65.398438 L 73.613281 65.921875 L 79.945312 65.921875 L 79.417969 65.398438 L 79.417969 73.261719 C 79.417969 73.9375 80.472656 73.9375 80.472656 73.261719 L 80.472656 65.394531 C 80.472656 65.25 80.417969 65.128906 80.316406 65.027344 C 80.214844 64.925781 80.089844 64.871094 79.945312 64.871094 L 73.613281 64.871094 C 73.46875 64.871094 73.34375 64.925781 73.242188 65.027344 C 73.136719 65.128906 73.085938 65.25 73.085938 65.394531 C 73.085938 67.601562 73.09375 69.804688 73.097656 72.011719 C 73.097656 72.429688 73.097656 72.851562 73.101562 73.273438 C 73.101562 73.949219 74.15625 73.953125 74.15625 73.273438 Z M 74.15625 73.273438 " fill-opacity="1" fill-rule="nonzero"/><path fill="#211715" d="M 84.738281 73.253906 C 84.738281 71.8125 84.738281 70.371094 84.734375 68.929688 L 84.726562 62.914062 C 84.726562 62.429688 84.726562 61.941406 84.726562 61.453125 L 84.199219 61.980469 L 90.53125 61.980469 L 90.003906 61.453125 L 90.003906 73.238281 C 90.003906 73.914062 91.058594 73.917969 91.058594 73.238281 L 91.058594 61.453125 C 91.058594 61.308594 91.003906 61.1875 90.902344 61.085938 C 90.800781 60.984375 90.675781 60.929688 90.53125 60.929688 L 84.199219 60.929688 C 84.054688 60.929688 83.929688 60.984375 83.828125 61.085938 C 83.726562 61.1875 83.671875 61.308594 83.671875 61.453125 C 83.671875 62.734375 83.671875 64.011719 83.675781 65.292969 C 83.679688 67.34375 83.679688 69.394531 83.683594 71.441406 C 83.683594 72.046875 83.683594 72.648438 83.683594 73.253906 C 83.683594 73.929688 84.738281 73.929688 84.738281 73.253906 Z M 84.738281 73.253906 " fill-opacity="1" fill-rule="nonzero"/><path fill="#211715" d="M 95.328125 73.226562 C 95.328125 71.300781 95.324219 69.375 95.320312 67.449219 C 95.320312 64.773438 95.316406 62.101562 95.3125 59.429688 C 95.3125 58.789062 95.3125 58.152344 95.3125 57.511719 L 94.78125 58.039062 L 101.117188 58.039062 L 100.589844 57.511719 L 100.589844 73.214844 C 100.589844 73.890625 101.644531 73.890625 101.644531 73.214844 L 101.644531 57.511719 C 101.640625 57.367188 101.589844 57.246094 101.488281 57.144531 C 101.382812 57.042969 101.261719 56.988281 101.117188 56.988281 L 94.78125 56.988281 C 94.636719 56.988281 94.515625 57.042969 94.410156 57.144531 C 94.308594 57.246094 94.257812 57.367188 94.253906 57.511719 C 94.253906 59.21875 94.257812 60.925781 94.261719 62.628906 C 94.261719 65.363281 94.265625 68.097656 94.269531 70.832031 C 94.269531 71.632812 94.269531 72.429688 94.269531 73.226562 C 94.269531 73.90625 95.324219 73.90625 95.324219 73.226562 Z M 95.328125 73.226562 " fill-opacity="1" fill-rule="nonzero"/><path fill="#211715" d="M 105.910156 73.203125 C 105.910156 70.792969 105.910156 68.386719 105.90625 65.976562 C 105.902344 62.628906 105.898438 59.285156 105.894531 55.941406 C 105.894531 55.152344 105.894531 54.359375 105.894531 53.570312 L 105.367188 54.097656 L 111.699219 54.097656 L 111.171875 53.570312 L 111.171875 73.1875 C 111.171875 73.863281 112.226562 73.867188 112.226562 73.1875 L 112.226562 53.570312 C 112.226562 53.425781 112.171875 53.304688 112.070312 53.203125 C 111.96875 53.097656 111.84375 53.046875 111.699219 53.046875 L 105.367188 53.046875 C 105.222656 53.046875 105.097656 53.097656 104.996094 53.203125 C 104.894531 53.304688 104.839844 53.425781 104.839844 53.570312 C 104.839844 55.691406 104.839844 57.808594 104.84375 59.929688 C 104.847656 63.355469 104.851562 66.78125 104.851562 70.207031 C 104.851562 71.207031 104.855469 72.207031 104.855469 73.203125 C 104.855469 73.878906 105.910156 73.882812 105.910156 73.203125 Z M 105.910156 73.203125 " fill-opacity="1" fill-rule="nonzero"/><path fill="#211715" d="M 116.890625 72.652344 C 116.21875 72.652344 115.546875 72.65625 114.878906 72.65625 C 113.667969 72.660156 112.460938 72.660156 111.25 72.664062 C 109.636719 72.667969 108.027344 72.671875 106.414062 72.675781 L 100.699219 72.6875 L 94.5 72.703125 L 88.191406 72.714844 L 82.15625 72.730469 C 80.371094 72.734375 78.582031 72.738281 76.796875 72.738281 C 75.339844 72.742188 73.882812 72.746094 72.429688 72.75 C 71.4375 72.75 70.449219 72.75 69.460938 72.753906 L 68.996094 72.753906 C 68.316406 72.753906 68.3125 73.804688 68.996094 73.804688 C 69.851562 73.804688 70.707031 73.800781 71.5625 73.800781 L 75.621094 73.792969 C 77.339844 73.789062 79.054688 73.785156 80.769531 73.78125 L 86.683594 73.769531 L 92.957031 73.753906 L 99.21875 73.742188 L 105.085938 73.726562 L 110.164062 73.714844 L 114.125 73.707031 C 114.941406 73.707031 115.753906 73.707031 116.566406 73.703125 L 116.890625 73.703125 C 117.570312 73.703125 117.570312 72.652344 116.890625 72.652344 Z M 116.890625 72.652344 " fill-opacity="1" fill-rule="nonzero"/><g fill="#32cd99" fill-opacity="1"><g transform="translate(2.445124, 25.303164)"><g><path d="M 7.453125 0.335938 C 11.539062 0.335938 13.953125 -2.125 13.953125 -5.019531 C 13.953125 -7.574219 12.542969 -8.9375 10.394531 -9.820312 L 8.074219 -10.800781 C 6.570312 -11.398438 5.304688 -11.851562 5.304688 -13.117188 C 5.304688 -14.289062 6.308594 -14.980469 7.859375 -14.980469 C 9.320312 -14.980469 10.488281 -14.457031 11.613281 -13.523438 L 13.40625 -15.746094 C 11.972656 -17.203125 9.914062 -18.015625 7.859375 -18.015625 C 4.277344 -18.015625 1.746094 -15.792969 1.746094 -12.902344 C 1.746094 -10.320312 3.535156 -8.886719 5.328125 -8.148438 L 7.695312 -7.144531 C 9.269531 -6.476562 10.347656 -6.070312 10.347656 -4.753906 C 10.347656 -3.511719 9.367188 -2.722656 7.527344 -2.722656 C 5.972656 -2.722656 4.300781 -3.511719 3.035156 -4.683594 L 1.003906 -2.246094 C 2.722656 -0.597656 5.089844 0.335938 7.453125 0.335938 Z M 7.453125 0.335938 "/></g></g></g><g fill="#32cd99" fill-opacity="1"><g transform="translate(17.354893, 25.303164)"><g><path d="M 5.6875 0 L 9.222656 0 L 9.222656 -14.742188 L 14.242188 -14.742188 L 14.242188 -17.679688 L 0.71875 -17.679688 L 0.71875 -14.742188 L 5.6875 -14.742188 Z M 5.6875 0 "/></g></g></g><g fill="#32cd99" fill-opacity="1"><g transform="translate(32.288555, 25.303164)"><g><path d="M 2.175781 0 L 13.285156 0 L 13.285156 -2.960938 L 5.710938 -2.960938 L 5.710938 -7.695312 L 11.921875 -7.695312 L 11.921875 -10.65625 L 5.710938 -10.65625 L 5.710938 -14.742188 L 13.023438 -14.742188 L 13.023438 -17.679688 L 2.175781 -17.679688 Z M 2.175781 0 "/></g></g></g><g fill="#32cd99" fill-opacity="1"><g transform="translate(46.983272, 25.303164)"><g><path d="M 2.175781 0 L 5.710938 0 L 5.710938 -6.285156 L 8.074219 -6.285156 C 11.875 -6.285156 14.910156 -8.101562 14.910156 -12.136719 C 14.910156 -16.320312 11.898438 -17.679688 7.980469 -17.679688 L 2.175781 -17.679688 Z M 5.710938 -9.078125 L 5.710938 -14.886719 L 7.71875 -14.886719 C 10.15625 -14.886719 11.445312 -14.191406 11.445312 -12.136719 C 11.445312 -10.105469 10.273438 -9.078125 7.835938 -9.078125 Z M 5.710938 -9.078125 "/></g></g></g><g fill="#32cd99" fill-opacity="1"><g transform="translate(62.920469, 25.303164)"><g/></g></g><g fill="#32cd99" fill-opacity="1"><g transform="translate(68.344368, 25.303164)"><g><path d="M 6.546875 0.335938 C 9.914062 0.335938 12.757812 -1.554688 12.757812 -4.800781 C 12.757812 -7.121094 11.230469 -8.601562 9.222656 -9.152344 L 9.222656 -9.269531 C 11.109375 -10.011719 12.1875 -11.398438 12.1875 -13.308594 C 12.1875 -16.34375 9.867188 -18.015625 6.453125 -18.015625 C 4.371094 -18.015625 2.675781 -17.179688 1.148438 -15.839844 L 2.9375 -13.691406 C 3.992188 -14.648438 5.019531 -15.246094 6.285156 -15.269531 C 7.789062 -15.246094 8.648438 -14.433594 8.648438 -13.046875 C 8.648438 -11.46875 7.597656 -10.347656 4.347656 -10.347656 L 4.347656 -7.8125 C 8.195312 -7.8125 9.222656 -6.738281 9.222656 -4.992188 C 9.222656 -3.417969 8.003906 -2.53125 6.210938 -2.53125 C 4.613281 -2.53125 3.320312 -3.320312 2.269531 -4.347656 L 0.621094 -2.125 C 1.863281 -0.71875 3.75 0.335938 6.546875 0.335938 Z M 6.546875 0.335938 "/></g></g></g></svg>