<svg xmlns="http://www.w3.org/2000/svg" id="canvas" viewBox="262.863 289.839 1032.877 344.983"><path d="M 265.94,403.64 C 265.68 406.02, 266.12 409.23, 266.60 415.44 C 267.08 421.64, 267.37 426.21, 268.35 434.66 C 269.33 443.12, 270.02 449.01, 271.51 457.72 C 273.00 466.44, 273.91 471.19, 275.79 478.24 C 277.67 485.28, 278.57 488.65, 280.89 492.95 C 283.21 497.26, 284.54 499.10, 287.40 499.77 C 290.27 500.45, 292.14 499.51, 295.20 496.34 C 298.25 493.18, 299.66 490.27, 302.69 483.93 C 305.72 477.60, 307.34 473.06, 310.35 464.69 C 313.37 456.32, 314.98 450.86, 317.77 442.09 C 320.56 433.32, 322.06 428.19, 324.32 420.83 C 326.59 413.48, 327.85 409.60, 329.09 405.32 C 330.33 401.05, 330.35 399.55, 330.54 399.46 C 330.74 399.38, 330.21 400.52, 330.07 404.89 C 329.93 409.25, 330.04 412.91, 329.85 421.31 C 329.67 429.70, 329.52 435.37, 329.15 446.86 C 328.77 458.35, 328.60 465.33, 327.99 478.76 C 327.38 492.19, 327.07 499.89, 326.07 514.01 C 325.08 528.14, 324.53 535.91, 323.03 549.39 C 321.53 562.87, 320.66 569.92, 318.58 581.42 C 316.49 592.91, 315.20 598.50, 312.61 606.87 C 310.02 615.23, 308.37 618.74, 305.63 623.26 C 302.90 627.77, 301.38 628.79, 298.95 629.44 C 296.52 630.09, 295.58 629.46, 293.49 626.50 C 291.40 623.54, 289.96 620.86, 288.49 614.62 C 287.02 608.39, 286.24 603.96, 286.15 595.35 C 286.06 586.74, 286.20 581.41, 288.04 571.57 C 289.88 561.74, 291.43 556.20, 295.35 546.17 C 299.27 536.14, 301.91 530.92, 307.63 521.42 C 313.35 511.93, 316.90 507.28, 323.96 498.70 C 331.03 490.12, 335.23 485.99, 342.96 478.53 C 350.68 471.07, 355.00 467.57, 362.61 461.39 C 370.21 455.21, 374.23 452.46, 380.98 447.63 C 387.73 442.80, 391.09 440.77, 396.36 437.24 C 401.62 433.72, 404.08 432.48, 407.32 430.01 C 410.57 427.54, 411.76 426.75, 412.58 424.90 C 413.40 423.06, 412.96 421.97, 411.44 420.77 C 409.92 419.58, 408.20 418.79, 404.96 418.94 C 401.72 419.10, 399.42 419.76, 395.26 421.55 C 391.09 423.35, 388.53 424.53, 384.11 427.93 C 379.70 431.33, 377.14 433.59, 373.18 438.55 C 369.21 443.51, 367.12 446.85, 364.30 452.73 C 361.47 458.61, 360.25 462.22, 359.06 467.94 C 357.88 473.65, 357.62 476.83, 358.36 481.29 C 359.10 485.76, 360.08 488.12, 362.77 490.25 C 365.47 492.38, 367.85 492.83, 371.83 491.95 C 375.81 491.07, 378.22 489.55, 382.66 485.87 C 387.11 482.18, 389.67 479.27, 394.04 473.53 C 398.41 467.78, 400.81 463.82, 404.51 457.14 C 408.22 450.45, 410.06 445.99, 412.55 440.12 C 415.04 434.24, 416.25 431.06, 416.98 427.75 C 417.70 424.45, 416.92 423.23, 416.19 423.60 C 415.46 423.97, 414.28 425.53, 413.33 429.58 C 412.38 433.63, 411.82 437.47, 411.44 443.85 C 411.06 450.23, 410.89 454.69, 411.44 461.49 C 411.99 468.29, 412.41 472.19, 414.19 477.83 C 415.96 483.46, 417.16 486.33, 420.32 489.67 C 423.48 493.01, 425.69 494.25, 429.97 494.53 C 434.25 494.82, 436.86 493.91, 441.72 491.08 C 446.58 488.25, 449.64 485.16, 454.25 480.40 C 458.86 475.64, 461.33 471.98, 464.75 467.27 C 468.18 462.56, 470.37 459.16, 471.37 456.87 C 472.37 454.57, 471.45 453.99, 469.75 455.79 C 468.05 457.59, 466.32 461.30, 462.86 465.87 C 459.40 470.44, 456.93 474.04, 452.45 478.65 C 447.97 483.27, 444.92 486.26, 440.46 488.94 C 435.99 491.61, 433.78 492.22, 430.12 492.04 C 426.45 491.85, 424.85 490.98, 422.11 488.00 C 419.38 485.01, 418.08 482.46, 416.44 477.13 C 414.80 471.79, 414.34 467.93, 413.91 461.31 C 413.48 454.69, 413.82 450.28, 414.30 444.04 C 414.79 437.81, 415.84 434.17, 416.33 430.11 C 416.81 426.06, 417.11 424.41, 416.72 423.78 C 416.33 423.15, 415.64 423.85, 414.37 426.94 C 413.11 430.03, 412.73 433.39, 410.39 439.23 C 408.05 445.06, 406.30 449.53, 402.67 456.12 C 399.05 462.71, 396.59 466.61, 392.26 472.16 C 387.93 477.71, 385.24 480.47, 381.03 483.87 C 376.81 487.27, 374.47 488.34, 371.18 489.16 C 367.89 489.99, 366.62 489.65, 364.59 487.99 C 362.55 486.33, 361.64 484.77, 361.01 480.86 C 360.38 476.94, 360.36 473.84, 361.43 468.41 C 362.50 462.99, 363.64 459.39, 366.37 453.73 C 369.09 448.06, 371.17 444.78, 375.05 440.07 C 378.93 435.37, 381.48 433.22, 385.79 430.20 C 390.09 427.18, 392.67 426.35, 396.59 424.98 C 400.52 423.62, 402.63 423.83, 405.40 423.39 C 408.17 422.96, 409.37 422.73, 410.44 422.81 C 411.52 422.89, 411.70 422.76, 410.76 423.79 C 409.82 424.82, 408.85 425.57, 405.75 427.95 C 402.65 430.33, 400.41 431.99, 395.27 435.68 C 390.14 439.37, 386.78 441.46, 380.08 446.39 C 373.38 451.33, 369.35 454.10, 361.75 460.35 C 354.15 466.60, 349.83 470.11, 342.08 477.63 C 334.34 485.14, 330.12 489.29, 323.02 497.92 C 315.92 506.55, 312.35 511.23, 306.57 520.78 C 300.78 530.33, 298.12 535.58, 294.12 545.68 C 290.12 555.78, 288.53 561.36, 286.57 571.29 C 284.61 581.22, 284.37 586.59, 284.32 595.35 C 284.27 604.12, 284.86 608.60, 286.31 615.12 C 287.75 621.65, 288.91 624.68, 291.55 627.97 C 294.19 631.27, 296.38 632.35, 299.50 631.59 C 302.62 630.83, 304.27 629.03, 307.16 624.17 C 310.04 619.30, 311.41 615.77, 313.91 607.26 C 316.42 598.75, 317.66 593.17, 319.69 581.62 C 321.72 570.06, 322.57 563.01, 324.06 549.50 C 325.54 535.99, 326.09 528.22, 327.11 514.09 C 328.13 499.95, 328.44 492.24, 329.14 478.81 C 329.84 465.38, 330.06 458.41, 330.59 446.92 C 331.12 435.43, 331.42 429.78, 331.79 421.37 C 332.16 412.96, 332.69 409.35, 332.44 404.86 C 332.18 400.36, 331.62 398.94, 330.52 398.89 C 329.43 398.84, 328.56 400.33, 326.96 404.61 C 325.36 408.90, 324.70 412.91, 322.53 420.30 C 320.37 427.69, 318.92 432.82, 316.13 441.57 C 313.34 450.32, 311.67 455.76, 308.58 464.04 C 305.49 472.31, 303.72 476.83, 300.68 482.95 C 297.63 489.07, 295.88 491.71, 293.34 494.63 C 290.79 497.55, 290.05 498.09, 287.95 497.54 C 285.86 497.00, 284.91 495.88, 282.85 491.91 C 280.78 487.95, 279.54 484.64, 277.64 477.74 C 275.73 470.84, 274.80 466.07, 273.32 457.41 C 271.84 448.75, 271.19 442.87, 270.25 434.45 C 269.31 426.02, 269.08 421.47, 268.61 415.28 C 268.15 409.10, 268.44 405.86, 267.91 403.53 C 267.37 401.20, 266.20 401.26, 265.94 403.64" style="stroke: black; fill: black;"/><path d="M 511.96,293.31 C 511.28 294.04, 510.68 294.42, 510.11 297.26 C 509.55 300.10, 509.63 302.00, 509.14 307.50 C 508.64 313.00, 508.31 316.74, 507.64 324.75 C 506.96 332.76, 506.48 337.94, 505.76 347.54 C 505.05 357.15, 504.61 362.79, 504.07 372.76 C 503.54 382.73, 503.26 388.14, 503.09 397.39 C 502.93 406.65, 502.95 411.32, 503.24 419.04 C 503.52 426.76, 503.96 432.63, 504.54 436.00 C 505.11 439.37, 506.07 439.28, 506.11 435.88 C 506.15 432.47, 505.05 426.67, 504.74 418.98 C 504.44 411.29, 504.43 406.65, 504.59 397.42 C 504.75 388.19, 505.00 382.80, 505.56 372.85 C 506.13 362.90, 506.59 357.26, 507.42 347.68 C 508.25 338.10, 508.81 332.93, 509.72 324.96 C 510.62 316.99, 511.14 313.26, 511.96 307.84 C 512.77 302.41, 513.47 300.67, 513.79 297.83 C 514.10 294.99, 513.90 294.52, 513.53 293.62 C 513.17 292.71, 512.65 292.58, 511.96 293.31" style="stroke: black; fill: black;"/><path d="M 589.36,377.39 C 588.63 377.58, 587.91 377.39, 586.91 379.17 C 585.92 380.96, 585.45 381.95, 584.37 386.30 C 583.28 390.66, 582.81 393.60, 581.50 400.95 C 580.19 408.31, 579.38 413.32, 577.82 423.08 C 576.26 432.84, 575.27 439.11, 573.71 449.76 C 572.14 460.42, 571.23 466.68, 570.01 476.34 C 568.79 486.00, 568.17 491.09, 567.61 498.06 C 567.05 505.03, 566.98 508.54, 567.20 511.18 C 567.42 513.81, 568.33 513.82, 568.71 511.22 C 569.10 508.62, 568.55 505.12, 569.11 498.18 C 569.66 491.24, 570.28 486.17, 571.49 476.53 C 572.71 466.89, 573.57 460.61, 575.17 449.98 C 576.77 439.35, 577.78 433.08, 579.49 423.36 C 581.20 413.65, 582.08 408.63, 583.71 401.40 C 585.33 394.16, 586.34 391.36, 587.61 387.20 C 588.87 383.03, 589.46 382.35, 590.04 380.56 C 590.63 378.77, 590.68 378.87, 590.54 378.24 C 590.40 377.60, 590.08 377.20, 589.36 377.39" style="stroke: black; fill: black;"/><path d="M 594.27,363.88 C 594.03 364.73, 593.93 365.02, 594.54 367.57 C 595.16 370.12, 596.02 371.42, 597.35 376.64 C 598.67 381.85, 599.55 385.43, 601.16 393.64 C 602.78 401.85, 603.72 407.29, 605.43 417.69 C 607.14 428.09, 608.06 434.48, 609.70 445.65 C 611.34 456.82, 612.20 463.21, 613.64 473.53 C 615.08 483.84, 615.79 489.27, 616.90 497.23 C 618.01 505.19, 618.35 509.16, 619.19 513.33 C 620.02 517.49, 620.60 518.05, 621.07 518.05 C 621.54 518.06, 621.88 515.72, 621.53 513.35 C 621.17 510.98, 620.33 507.46, 619.28 506.21 C 618.22 504.96, 616.46 505.48, 616.25 507.10 C 616.04 508.72, 617.25 512.12, 618.24 514.32 C 619.24 516.53, 620.60 518.40, 621.21 518.13 C 621.82 517.86, 621.84 517.21, 621.30 512.98 C 620.77 508.75, 619.79 504.92, 618.53 496.99 C 617.27 489.06, 616.50 483.64, 615.00 473.33 C 613.51 463.03, 612.66 456.63, 611.05 445.45 C 609.44 434.27, 608.54 427.88, 606.95 417.45 C 605.37 407.01, 604.50 401.56, 603.13 393.28 C 601.76 385.00, 601.12 381.37, 600.11 376.03 C 599.10 370.68, 598.94 369.08, 598.06 366.54 C 597.18 364.00, 596.48 363.86, 595.72 363.33 C 594.97 362.80, 594.51 363.03, 594.27 363.88" style="stroke: black; fill: black;"/><path d="M 567.59,456.52 C 568.35 457.14, 568.94 457.89, 571.54 457.97 C 574.14 458.06, 575.98 457.83, 580.58 456.93 C 585.17 456.03, 588.34 455.51, 594.51 453.47 C 600.68 451.43, 604.58 450.14, 611.44 446.73 C 618.29 443.32, 622.15 441.18, 628.79 436.43 C 635.42 431.67, 638.89 428.82, 644.61 422.94 C 650.33 417.06, 653.06 413.64, 657.41 407.02 C 661.75 400.40, 663.63 396.50, 666.33 389.84 C 669.02 383.17, 669.91 379.42, 670.88 373.70 C 671.85 367.98, 672.02 365.02, 671.16 361.25 C 670.30 357.47, 669.02 355.64, 666.60 354.83 C 664.18 354.01, 662.08 354.42, 659.06 357.19 C 656.05 359.95, 654.45 362.41, 651.52 368.67 C 648.58 374.92, 646.88 379.25, 644.37 388.46 C 641.87 397.68, 640.53 403.65, 638.98 414.75 C 637.44 425.85, 636.85 432.70, 636.65 443.97 C 636.45 455.23, 636.68 461.53, 637.98 471.07 C 639.28 480.61, 640.35 485.32, 643.16 491.67 C 645.96 498.01, 647.84 500.71, 652.01 502.82 C 656.19 504.92, 658.96 504.74, 664.04 502.21 C 669.12 499.68, 671.94 496.89, 677.41 490.16 C 682.87 483.43, 685.95 478.56, 691.37 468.56 C 696.78 458.55, 699.75 451.99, 704.48 440.13 C 709.22 428.26, 711.50 421.04, 715.03 409.24 C 718.55 397.45, 720.11 390.98, 722.10 381.15 C 724.10 371.32, 724.71 366.69, 724.98 360.09 C 725.26 353.49, 725.16 350.82, 723.47 348.14 C 721.78 345.46, 719.66 344.96, 716.54 346.70 C 713.42 348.44, 711.49 350.79, 707.86 356.84 C 704.24 362.90, 701.94 367.38, 698.40 376.97 C 694.87 386.56, 692.80 393.03, 690.18 404.80 C 687.57 416.58, 686.34 423.90, 685.33 435.85 C 684.32 447.79, 684.20 454.39, 685.15 464.54 C 686.11 474.68, 687.08 479.54, 690.12 486.56 C 693.15 493.58, 695.20 496.54, 700.32 499.62 C 705.44 502.71, 709.60 502.42, 715.71 501.98 C 721.82 501.54, 725.60 499.56, 730.87 497.42 C 736.13 495.28, 740.00 492.87, 742.04 491.27 C 744.07 489.67, 743.44 488.62, 741.04 489.43 C 738.63 490.25, 735.12 493.23, 730.02 495.34 C 724.92 497.44, 721.30 499.38, 715.54 499.95 C 709.77 500.51, 706.01 500.94, 701.19 498.15 C 696.38 495.36, 694.41 492.72, 691.46 485.97 C 688.52 479.23, 687.43 474.41, 686.46 464.41 C 685.48 454.41, 685.57 447.82, 686.58 435.95 C 687.59 424.09, 688.82 416.78, 691.50 405.10 C 694.17 393.42, 696.33 386.99, 699.95 377.55 C 703.58 368.12, 706.06 363.70, 709.63 357.91 C 713.19 352.13, 715.35 350.38, 717.75 348.63 C 720.16 346.88, 720.55 346.89, 721.66 349.17 C 722.77 351.45, 723.48 353.69, 723.31 360.04 C 723.14 366.38, 722.69 371.12, 720.80 380.89 C 718.91 390.66, 717.37 397.15, 713.88 408.90 C 710.39 420.66, 708.10 427.87, 703.35 439.67 C 698.60 451.47, 695.58 457.99, 690.13 467.88 C 684.68 477.77, 681.50 482.57, 676.11 489.10 C 670.72 495.63, 667.84 498.12, 663.19 500.54 C 658.54 502.95, 656.55 503.08, 652.85 501.18 C 649.14 499.27, 647.34 497.06, 644.65 491.00 C 641.96 484.94, 640.72 480.28, 639.38 470.87 C 638.05 461.47, 637.78 455.17, 637.98 443.99 C 638.19 432.81, 638.78 425.96, 640.39 414.95 C 642.00 403.94, 643.40 397.99, 646.03 388.93 C 648.66 379.87, 650.54 375.59, 653.54 369.65 C 656.53 363.70, 658.55 361.74, 661.01 359.20 C 663.48 356.66, 664.39 356.42, 665.88 356.94 C 667.37 357.46, 667.92 358.50, 668.48 361.79 C 669.04 365.07, 669.46 367.88, 668.68 373.36 C 667.90 378.83, 667.12 382.60, 664.58 389.14 C 662.04 395.69, 660.20 399.55, 655.96 406.08 C 651.72 412.60, 649.04 415.98, 643.39 421.76 C 637.75 427.54, 634.32 430.34, 627.75 434.97 C 621.18 439.59, 617.35 441.69, 610.55 444.90 C 603.75 448.11, 599.86 449.28, 593.75 451.01 C 587.65 452.74, 584.49 452.95, 580.02 453.56 C 575.55 454.16, 573.86 453.79, 571.40 454.05 C 568.94 454.31, 568.49 454.38, 567.73 454.87 C 566.96 455.36, 566.83 455.90, 567.59 456.52" style="stroke: black; fill: black;"/><path d="M 879.99,424.82 C 879.59 423.89, 878.90 422.88, 877.03 421.89 C 875.16 420.90, 873.72 419.95, 870.63 419.87 C 867.54 419.79, 865.31 419.82, 861.58 421.49 C 857.85 423.16, 855.71 424.40, 851.99 428.21 C 848.27 432.02, 846.20 434.63, 842.99 440.54 C 839.79 446.46, 838.05 450.46, 835.97 457.78 C 833.90 465.11, 833.03 469.80, 832.62 477.15 C 832.21 484.51, 832.45 488.74, 833.91 494.55 C 835.37 500.37, 836.71 503.19, 839.92 506.22 C 843.13 509.25, 845.67 510.09, 849.97 509.71 C 854.28 509.34, 856.99 507.93, 861.45 504.34 C 865.90 500.75, 868.37 497.79, 872.23 491.77 C 876.09 485.76, 878.05 481.64, 880.75 474.26 C 883.46 466.88, 884.58 462.25, 885.76 454.88 C 886.93 447.52, 887.07 443.42, 886.63 437.43 C 886.19 431.43, 885.42 428.66, 883.56 424.91 C 881.69 421.15, 880.01 419.83, 877.29 418.66 C 874.57 417.48, 872.39 417.90, 869.96 419.02 C 867.52 420.14, 865.97 421.78, 865.11 424.26 C 864.26 426.74, 864.27 428.95, 865.67 431.41 C 867.07 433.88, 868.70 435.34, 872.12 436.58 C 875.53 437.83, 877.97 438.05, 882.74 437.65 C 887.52 437.25, 890.49 436.47, 895.97 434.58 C 901.45 432.69, 904.68 430.99, 910.14 428.22 C 915.60 425.45, 918.64 423.41, 923.26 420.72 C 927.89 418.03, 930.45 416.40, 933.26 414.78 C 936.07 413.16, 936.65 412.14, 937.31 412.64 C 937.98 413.14, 937.41 413.82, 936.60 417.27 C 935.79 420.72, 935.00 423.64, 933.25 429.88 C 931.50 436.12, 930.00 440.54, 927.83 448.46 C 925.66 456.38, 924.23 461.43, 922.40 469.49 C 920.57 477.55, 919.58 482.10, 918.69 488.77 C 917.81 495.44, 917.35 498.63, 917.97 502.83 C 918.60 507.03, 919.53 508.82, 921.80 509.78 C 924.08 510.73, 926.07 510.11, 929.37 507.61 C 932.67 505.12, 934.55 502.50, 938.33 497.30 C 942.11 492.09, 944.37 488.19, 948.26 481.58 C 952.16 474.97, 954.46 470.39, 957.79 464.23 C 961.12 458.08, 962.95 454.60, 964.90 450.81 C 966.84 447.02, 967.16 445.64, 967.51 445.27 C 967.86 444.91, 966.92 445.88, 966.66 448.99 C 966.40 452.10, 966.21 455.34, 966.22 460.83 C 966.24 466.31, 966.08 470.41, 966.73 476.42 C 967.39 482.43, 967.85 485.99, 969.49 490.87 C 971.13 495.76, 972.15 498.21, 974.94 500.84 C 977.72 503.47, 979.83 504.39, 983.40 504.02 C 986.98 503.66, 989.15 502.35, 992.83 499.00 C 996.50 495.64, 998.50 492.92, 1001.78 487.24 C 1005.07 481.55, 1006.79 477.59, 1009.24 470.58 C 1011.69 463.56, 1012.75 459.05, 1014.01 452.16 C 1015.28 445.27, 1015.50 441.52, 1015.55 436.12 C 1015.60 430.73, 1015.30 428.30, 1014.27 425.17 C 1013.23 422.03, 1011.71 421.24, 1010.38 420.46 C 1009.05 419.69, 1008.13 420.96, 1007.62 421.29 C 1007.11 421.62, 1007.50 422.00, 1007.83 422.12 C 1008.17 422.24, 1008.60 421.08, 1009.28 421.87 C 1009.97 422.66, 1010.48 423.22, 1011.25 426.07 C 1012.02 428.93, 1012.99 431.00, 1013.12 436.14 C 1013.25 441.29, 1013.09 445.04, 1011.91 451.79 C 1010.72 458.53, 1009.64 463.01, 1007.20 469.86 C 1004.76 476.70, 1002.94 480.59, 999.70 486.01 C 996.45 491.43, 994.31 493.94, 990.98 496.97 C 987.65 499.99, 985.88 500.76, 983.07 501.12 C 980.26 501.49, 979.13 501.01, 976.94 498.79 C 974.75 496.56, 973.58 494.54, 972.12 490.01 C 970.67 485.48, 970.20 481.96, 969.66 476.12 C 969.12 470.28, 969.37 466.27, 969.40 460.83 C 969.42 455.39, 970.21 452.20, 969.79 448.91 C 969.36 445.61, 968.69 444.22, 967.26 444.35 C 965.83 444.48, 964.93 445.78, 962.63 449.54 C 960.34 453.30, 959.05 456.98, 955.78 463.16 C 952.52 469.34, 950.22 473.90, 946.31 480.42 C 942.41 486.95, 940.01 490.78, 936.27 495.78 C 932.52 500.78, 930.33 503.00, 927.59 505.43 C 924.85 507.86, 924.00 508.52, 922.56 507.94 C 921.12 507.36, 920.75 506.32, 920.38 502.53 C 920.02 498.75, 919.95 495.55, 920.73 489.02 C 921.50 482.50, 922.43 477.91, 924.26 469.91 C 926.08 461.91, 927.56 456.89, 929.85 449.03 C 932.14 441.17, 933.76 436.85, 935.70 430.61 C 937.64 424.36, 939.05 421.66, 939.57 417.81 C 940.08 413.96, 939.83 412.52, 938.29 411.35 C 936.75 410.18, 935.15 410.56, 931.87 411.97 C 928.58 413.37, 926.44 415.57, 921.86 418.36 C 917.28 421.16, 914.33 423.22, 908.98 425.94 C 903.63 428.66, 900.39 430.27, 895.10 431.96 C 889.82 433.65, 886.86 434.22, 882.54 434.38 C 878.22 434.55, 876.20 433.80, 873.51 432.80 C 870.82 431.79, 870.05 430.82, 869.10 429.36 C 868.15 427.90, 868.28 426.95, 868.76 425.50 C 869.24 424.05, 870.01 422.92, 871.48 422.11 C 872.95 421.31, 874.15 420.68, 876.10 421.48 C 878.04 422.27, 879.54 422.87, 881.21 426.10 C 882.88 429.32, 883.94 431.91, 884.46 437.60 C 884.98 443.30, 884.93 447.39, 883.82 454.58 C 882.71 461.77, 881.59 466.37, 878.90 473.58 C 876.22 480.78, 874.20 484.81, 870.41 490.59 C 866.62 496.37, 864.08 499.14, 859.94 502.47 C 855.81 505.81, 853.41 506.85, 849.73 507.25 C 846.05 507.66, 844.29 507.16, 841.55 504.51 C 838.80 501.87, 837.39 499.47, 836.00 494.02 C 834.62 488.58, 834.25 484.40, 834.64 477.27 C 835.03 470.13, 835.88 465.47, 837.95 458.35 C 840.03 451.23, 841.81 447.29, 845.02 441.67 C 848.22 436.05, 850.39 433.57, 853.98 430.25 C 857.57 426.92, 859.67 426.08, 862.96 425.03 C 866.24 423.97, 867.89 424.80, 870.41 424.97 C 872.94 425.13, 873.87 425.53, 875.59 425.85 C 877.31 426.16, 878.14 426.74, 879.02 426.54 C 879.90 426.33, 880.39 425.75, 879.99 424.82" style="stroke: black; fill: black;"/><path d="M 1039.97,427.56 C 1039.43 428.54, 1039.26 429.44, 1039.02 432.46 C 1038.79 435.48, 1039.11 437.50, 1038.81 442.64 C 1038.51 447.78, 1038.23 451.38, 1037.53 458.14 C 1036.82 464.90, 1036.16 469.33, 1035.27 476.44 C 1034.37 483.54, 1033.69 487.80, 1033.05 493.66 C 1032.40 499.53, 1031.67 502.48, 1032.05 505.76 C 1032.42 509.05, 1033.38 510.34, 1034.92 510.09 C 1036.46 509.85, 1037.56 508.52, 1039.74 504.55 C 1041.92 500.58, 1043.01 496.94, 1045.81 490.25 C 1048.61 483.57, 1050.37 478.69, 1053.75 471.12 C 1057.13 463.54, 1059.22 458.86, 1062.71 452.37 C 1066.20 445.87, 1068.40 442.54, 1071.20 438.65 C 1073.99 434.76, 1075.31 433.55, 1076.70 432.91 C 1078.08 432.28, 1077.72 432.81, 1078.11 435.45 C 1078.50 438.09, 1078.65 440.66, 1078.65 446.11 C 1078.64 451.56, 1078.24 455.71, 1078.09 462.70 C 1077.93 469.70, 1077.61 474.22, 1077.87 481.10 C 1078.14 487.98, 1078.17 491.77, 1079.41 497.12 C 1080.66 502.47, 1081.39 505.13, 1084.10 507.87 C 1086.81 510.61, 1088.95 511.35, 1092.95 510.82 C 1096.96 510.28, 1099.40 508.90, 1104.12 505.19 C 1108.84 501.49, 1111.61 498.52, 1116.55 492.29 C 1121.49 486.05, 1124.37 481.65, 1128.83 474.01 C 1133.28 466.38, 1135.62 461.59, 1138.84 454.10 C 1142.05 446.61, 1143.42 442.54, 1144.89 436.58 C 1146.35 430.62, 1146.82 427.87, 1146.17 424.29 C 1145.52 420.71, 1144.13 419.25, 1141.64 418.69 C 1139.15 418.13, 1136.95 418.81, 1133.71 421.48 C 1130.47 424.15, 1128.53 426.64, 1125.46 432.03 C 1122.38 437.42, 1120.61 441.26, 1118.33 448.42 C 1116.06 455.58, 1114.96 460.22, 1114.08 467.84 C 1113.20 475.46, 1113.03 479.93, 1113.94 486.52 C 1114.84 493.10, 1115.81 496.46, 1118.60 500.75 C 1121.39 505.04, 1123.52 506.79, 1127.88 507.97 C 1132.24 509.15, 1135.10 508.70, 1140.41 506.64 C 1145.72 504.58, 1148.81 502.37, 1154.42 497.67 C 1160.03 492.97, 1163.15 489.41, 1168.46 483.14 C 1173.77 476.87, 1176.55 472.70, 1180.98 466.32 C 1185.40 459.93, 1187.59 455.97, 1190.59 451.21 C 1193.59 446.44, 1194.92 444.27, 1195.97 442.50 C 1197.02 440.72, 1196.18 440.54, 1195.82 442.33 C 1195.46 444.12, 1194.99 446.50, 1194.15 451.47 C 1193.30 456.43, 1192.57 460.54, 1191.60 467.16 C 1190.64 473.78, 1190.04 478.25, 1189.31 484.58 C 1188.58 490.92, 1188.00 494.41, 1187.96 498.85 C 1187.92 503.29, 1188.06 505.28, 1189.13 506.79 C 1190.19 508.31, 1191.66 508.34, 1193.28 506.41 C 1194.89 504.48, 1195.50 502.05, 1197.20 497.16 C 1198.89 492.27, 1199.80 488.47, 1201.75 481.98 C 1203.70 475.49, 1204.83 471.18, 1206.95 464.72 C 1209.07 458.27, 1210.26 454.69, 1212.34 449.72 C 1214.43 444.75, 1215.54 442.68, 1217.37 439.87 C 1219.21 437.06, 1219.86 436.49, 1221.52 435.66 C 1223.19 434.84, 1223.68 435.27, 1225.69 435.75 C 1227.71 436.22, 1228.77 437.20, 1231.60 438.06 C 1234.43 438.91, 1236.30 439.53, 1239.85 440.01 C 1243.40 440.49, 1245.48 440.74, 1249.37 440.45 C 1253.26 440.15, 1255.42 439.75, 1259.30 438.55 C 1263.19 437.36, 1265.29 436.34, 1268.79 434.47 C 1272.30 432.61, 1274.15 431.34, 1276.84 429.24 C 1279.53 427.14, 1280.93 425.92, 1282.24 423.98 C 1283.55 422.04, 1283.75 420.76, 1283.39 419.52 C 1283.03 418.28, 1282.06 417.62, 1280.42 417.78 C 1278.79 417.94, 1277.19 418.41, 1275.22 420.31 C 1273.25 422.20, 1272.15 423.93, 1270.58 427.26 C 1269.01 430.59, 1268.16 432.74, 1267.36 436.94 C 1266.56 441.15, 1266.28 443.59, 1266.59 448.29 C 1266.90 452.99, 1267.45 455.56, 1268.89 460.46 C 1270.33 465.35, 1271.57 467.93, 1273.79 472.76 C 1276.02 477.60, 1277.65 480.10, 1280.02 484.63 C 1282.39 489.16, 1283.89 491.44, 1285.66 495.41 C 1287.44 499.38, 1288.28 501.29, 1288.88 504.46 C 1289.48 507.62, 1289.44 508.90, 1288.65 511.24 C 1287.86 513.58, 1287.25 514.47, 1284.95 516.17 C 1282.65 517.88, 1280.89 518.66, 1277.15 519.75 C 1273.40 520.84, 1270.76 521.26, 1266.22 521.61 C 1261.68 521.97, 1258.81 521.96, 1254.45 521.53 C 1250.10 521.10, 1247.71 520.43, 1244.43 519.47 C 1241.15 518.51, 1240.03 517.66, 1238.06 516.73 C 1236.09 515.80, 1235.45 515.02, 1234.58 514.84 C 1233.70 514.66, 1233.32 514.92, 1233.69 515.84 C 1234.06 516.77, 1234.48 518.03, 1236.42 519.46 C 1238.36 520.89, 1239.84 521.91, 1243.39 522.98 C 1246.94 524.05, 1249.54 524.42, 1254.16 524.80 C 1258.77 525.19, 1261.67 525.24, 1266.46 524.90 C 1271.25 524.57, 1273.97 524.28, 1278.11 523.11 C 1282.25 521.95, 1284.36 521.24, 1287.16 519.09 C 1289.95 516.94, 1291.07 515.42, 1292.06 512.36 C 1293.05 509.31, 1292.86 507.46, 1292.12 503.82 C 1291.38 500.18, 1290.29 498.27, 1288.36 494.17 C 1286.42 490.08, 1284.87 487.85, 1282.45 483.34 C 1280.03 478.83, 1278.42 476.36, 1276.25 471.63 C 1274.09 466.90, 1272.92 464.38, 1271.61 459.68 C 1270.30 454.98, 1269.84 452.52, 1269.71 448.14 C 1269.58 443.76, 1269.93 441.49, 1270.95 437.77 C 1271.97 434.04, 1273.16 432.27, 1274.82 429.50 C 1276.47 426.73, 1277.87 425.75, 1279.24 423.91 C 1280.62 422.08, 1281.19 421.23, 1281.69 420.32 C 1282.20 419.41, 1282.28 419.16, 1281.78 419.36 C 1281.27 419.56, 1280.68 420.01, 1279.17 421.33 C 1277.66 422.65, 1276.66 423.98, 1274.23 425.96 C 1271.80 427.94, 1270.21 429.41, 1267.01 431.24 C 1263.82 433.07, 1261.82 434.03, 1258.25 435.10 C 1254.68 436.18, 1252.70 436.49, 1249.15 436.62 C 1245.61 436.75, 1243.80 436.37, 1240.53 435.75 C 1237.27 435.14, 1235.72 434.26, 1232.84 433.54 C 1229.96 432.83, 1228.67 432.26, 1226.14 432.17 C 1223.61 432.09, 1222.43 431.89, 1220.19 433.12 C 1217.95 434.34, 1216.95 435.15, 1214.92 438.28 C 1212.90 441.42, 1212.11 443.65, 1210.07 448.79 C 1208.03 453.93, 1206.90 457.51, 1204.72 463.98 C 1202.54 470.46, 1201.27 474.74, 1199.18 481.18 C 1197.09 487.61, 1195.91 491.37, 1194.26 496.14 C 1192.60 500.91, 1191.63 503.01, 1190.92 505.02 C 1190.21 507.03, 1190.72 507.39, 1190.71 506.17 C 1190.69 504.95, 1190.62 503.20, 1190.85 498.94 C 1191.09 494.68, 1191.16 491.15, 1191.87 484.88 C 1192.58 478.61, 1193.35 474.18, 1194.40 467.59 C 1195.45 461.00, 1196.42 457.00, 1197.13 451.93 C 1197.84 446.86, 1198.51 444.40, 1197.95 442.23 C 1197.39 440.05, 1196.20 439.52, 1194.33 441.06 C 1192.46 442.61, 1191.59 445.13, 1188.60 449.96 C 1185.61 454.79, 1183.69 458.83, 1179.37 465.22 C 1175.05 471.60, 1172.25 475.73, 1167.00 481.90 C 1161.74 488.07, 1158.57 491.54, 1153.09 496.06 C 1147.61 500.59, 1144.51 502.60, 1139.59 504.53 C 1134.66 506.47, 1132.30 506.73, 1128.48 505.73 C 1124.65 504.74, 1122.96 503.45, 1120.46 499.55 C 1117.96 495.65, 1116.85 492.53, 1115.97 486.23 C 1115.09 479.94, 1115.18 475.50, 1116.07 468.08 C 1116.96 460.65, 1118.09 456.04, 1120.42 449.10 C 1122.75 442.16, 1124.67 438.43, 1127.73 433.36 C 1130.78 428.29, 1132.97 426.24, 1135.68 423.74 C 1138.38 421.24, 1139.65 420.66, 1141.25 420.84 C 1142.84 421.03, 1143.33 421.61, 1143.66 424.66 C 1143.98 427.71, 1144.16 430.35, 1142.86 436.10 C 1141.57 441.85, 1140.29 445.99, 1137.17 453.39 C 1134.05 460.79, 1131.70 465.57, 1127.26 473.10 C 1122.82 480.62, 1119.88 484.96, 1114.96 491.01 C 1110.04 497.06, 1107.14 499.88, 1102.67 503.33 C 1098.19 506.78, 1095.92 507.71, 1092.58 508.27 C 1089.23 508.82, 1088.11 508.44, 1085.94 506.10 C 1083.77 503.76, 1082.89 501.60, 1081.73 496.58 C 1080.57 491.57, 1080.38 487.78, 1080.16 481.02 C 1079.93 474.26, 1080.34 469.76, 1080.60 462.78 C 1080.86 455.80, 1081.41 451.75, 1081.48 446.13 C 1081.55 440.52, 1082.01 437.73, 1080.95 434.72 C 1079.88 431.72, 1078.47 430.60, 1076.14 431.11 C 1073.81 431.61, 1072.34 433.20, 1069.30 437.26 C 1066.26 441.32, 1064.40 444.81, 1060.92 451.41 C 1057.43 458.01, 1055.33 462.69, 1051.86 470.26 C 1048.39 477.83, 1046.48 482.68, 1043.56 489.28 C 1040.63 495.88, 1039.02 499.33, 1037.22 503.28 C 1035.41 507.23, 1035.00 508.54, 1034.53 509.02 C 1034.07 509.50, 1034.70 508.71, 1034.89 505.68 C 1035.09 502.66, 1034.98 499.70, 1035.51 493.91 C 1036.03 488.12, 1036.61 483.82, 1037.51 476.72 C 1038.41 469.63, 1039.14 465.20, 1040.01 458.43 C 1040.88 451.67, 1041.32 448.06, 1041.87 442.89 C 1042.41 437.72, 1042.77 435.65, 1042.75 432.59 C 1042.72 429.52, 1042.28 428.55, 1041.73 427.55 C 1041.17 426.55, 1040.51 426.58, 1039.97 427.56" style="stroke: black; fill: black;"/></svg>