<svg xmlns="http://www.w3.org/2000/svg" id="canvas" viewBox="260.980 370.306 1205.831 119.164"><path d="M 265.60,373.66 C 265.15 374.16, 264.97 374.80, 264.65 376.27 C 264.34 377.75, 264.13 378.63, 264.02 381.05 C 263.92 383.46, 264.03 384.94, 264.12 388.35 C 264.21 391.76, 264.34 393.72, 264.48 398.09 C 264.61 402.46, 264.64 405.00, 264.78 410.21 C 264.93 415.41, 264.98 418.40, 265.20 424.13 C 265.41 429.87, 265.56 433.09, 265.86 438.90 C 266.16 444.70, 266.34 447.79, 266.70 453.14 C 267.06 458.49, 267.27 461.15, 267.64 465.65 C 268.02 470.14, 268.21 472.31, 268.58 475.61 C 268.95 478.92, 269.13 480.23, 269.50 482.19 C 269.87 484.14, 270.07 484.56, 270.43 485.41 C 270.79 486.25, 270.93 486.26, 271.29 486.42 C 271.66 486.57, 271.99 486.35, 272.26 486.18 C 272.52 486.01, 272.84 485.74, 272.60 485.56 C 272.36 485.37, 271.35 485.20, 271.07 485.25 C 270.78 485.31, 271.02 485.66, 271.17 485.84 C 271.32 486.01, 271.64 486.26, 271.83 486.10 C 272.02 485.95, 272.08 485.93, 272.10 485.08 C 272.12 484.22, 272.15 483.78, 271.94 481.83 C 271.73 479.87, 271.52 478.57, 271.06 475.30 C 270.60 472.02, 270.16 469.91, 269.64 465.45 C 269.12 460.99, 268.89 458.34, 268.48 453.01 C 268.06 447.68, 267.88 444.59, 267.58 438.81 C 267.29 433.02, 267.15 429.80, 267.00 424.08 C 266.84 418.35, 266.82 415.37, 266.80 410.17 C 266.79 404.98, 266.82 402.44, 266.92 398.09 C 267.02 393.73, 267.15 391.77, 267.31 388.38 C 267.47 385.00, 267.69 383.55, 267.72 381.16 C 267.76 378.77, 267.66 377.90, 267.50 376.42 C 267.34 374.94, 267.29 374.30, 266.92 373.75 C 266.54 373.20, 266.05 373.15, 265.60 373.66" style="stroke: black; fill: black;"/><path d="M 292.38,386.29 C 292.03 386.49, 291.87 386.46, 291.59 387.31 C 291.31 388.17, 291.02 388.65, 290.99 390.56 C 290.96 392.47, 291.10 393.73, 291.43 396.86 C 291.75 399.99, 292.14 402.02, 292.61 406.21 C 293.09 410.41, 293.29 412.98, 293.80 417.84 C 294.31 422.70, 294.58 425.45, 295.16 430.51 C 295.74 435.57, 296.11 438.31, 296.70 443.14 C 297.30 447.97, 297.59 450.41, 298.12 454.66 C 298.65 458.91, 298.91 460.95, 299.37 464.39 C 299.83 467.83, 299.96 469.40, 300.42 471.86 C 300.89 474.31, 301.27 475.33, 301.69 476.66 C 302.11 477.98, 302.21 478.12, 302.51 478.47 C 302.80 478.81, 302.96 478.81, 303.17 478.39 C 303.38 477.98, 303.54 477.79, 303.56 476.39 C 303.59 474.98, 303.64 473.86, 303.29 471.39 C 302.95 468.91, 302.45 467.41, 301.84 464.01 C 301.23 460.60, 300.88 458.59, 300.25 454.36 C 299.62 450.14, 299.30 447.70, 298.68 442.89 C 298.06 438.08, 297.69 435.34, 297.16 430.29 C 296.62 425.24, 296.37 422.50, 296.00 417.64 C 295.63 412.78, 295.48 410.21, 295.30 406.01 C 295.13 401.80, 295.23 399.73, 295.12 396.60 C 295.01 393.48, 294.99 392.23, 294.76 390.37 C 294.54 388.51, 294.30 388.11, 294.01 387.30 C 293.73 386.50, 293.66 386.55, 293.34 386.35 C 293.01 386.15, 292.72 386.10, 292.38 386.29" style="stroke: black; fill: black;"/><path d="M 273.05,441.46 C 273.45 441.84, 273.76 441.98, 274.99 442.18 C 276.22 442.39, 277.00 442.55, 279.19 442.48 C 281.39 442.41, 282.86 442.17, 285.96 441.83 C 289.06 441.50, 291.01 441.17, 294.70 440.81 C 298.39 440.45, 300.55 440.27, 304.40 440.03 C 308.26 439.79, 310.58 439.75, 313.97 439.62 C 317.35 439.48, 318.99 439.53, 321.35 439.35 C 323.70 439.16, 324.86 439.03, 325.75 438.69 C 326.63 438.36, 326.65 438.04, 325.77 437.67 C 324.89 437.29, 323.73 437.01, 321.35 436.82 C 318.97 436.62, 317.29 436.61, 313.87 436.70 C 310.44 436.79, 308.12 437.06, 304.24 437.28 C 300.36 437.51, 298.20 437.66, 294.48 437.83 C 290.77 438.00, 288.78 437.97, 285.66 438.12 C 282.54 438.28, 281.06 438.35, 278.90 438.62 C 276.73 438.89, 276.02 439.13, 274.85 439.46 C 273.68 439.79, 273.39 439.87, 273.03 440.27 C 272.67 440.67, 272.66 441.07, 273.05 441.46" style="stroke: black; fill: black;"/><path d="M 359.44,432.54 C 359.40 431.90, 359.07 431.25, 358.28 430.35 C 357.50 429.45, 356.93 428.85, 355.51 428.04 C 354.10 427.22, 353.09 426.68, 351.21 426.28 C 349.33 425.87, 348.27 425.79, 346.10 426.01 C 343.94 426.24, 342.73 426.42, 340.40 427.39 C 338.06 428.35, 336.71 428.96, 334.45 430.84 C 332.18 432.72, 330.96 434.02, 329.06 436.80 C 327.16 439.57, 326.20 441.35, 324.94 444.71 C 323.67 448.06, 323.13 450.06, 322.73 453.58 C 322.34 457.09, 322.34 459.10, 322.97 462.28 C 323.60 465.46, 324.27 467.12, 325.86 469.48 C 327.45 471.85, 328.63 472.86, 330.93 474.10 C 333.22 475.35, 334.67 475.71, 337.34 475.70 C 340.00 475.68, 341.57 475.28, 344.24 474.01 C 346.91 472.74, 348.28 471.63, 350.67 469.34 C 353.06 467.05, 354.25 465.55, 356.19 462.58 C 358.14 459.60, 359.03 457.70, 360.39 454.45 C 361.76 451.21, 362.36 449.30, 363.01 446.34 C 363.66 443.38, 363.76 441.80, 363.63 439.65 C 363.51 437.50, 363.10 436.49, 362.37 435.58 C 361.65 434.67, 360.88 434.52, 360.02 435.11 C 359.15 435.69, 358.53 436.54, 358.05 438.52 C 357.56 440.50, 357.41 442.04, 357.58 445.00 C 357.74 447.95, 358.23 449.90, 358.87 453.30 C 359.51 456.70, 359.91 458.74, 360.79 462.00 C 361.67 465.27, 362.10 467.02, 363.28 469.63 C 364.46 472.24, 365.34 473.39, 366.69 475.06 C 368.04 476.72, 368.85 477.22, 370.01 477.95 C 371.18 478.68, 371.92 478.73, 372.51 478.72 C 373.11 478.71, 373.21 478.37, 372.98 477.90 C 372.75 477.42, 372.15 477.25, 371.36 476.34 C 370.57 475.44, 370.05 474.97, 369.04 473.36 C 368.02 471.76, 367.33 470.73, 366.29 468.30 C 365.25 465.87, 364.65 464.30, 363.84 461.20 C 363.03 458.09, 362.64 456.05, 362.24 452.77 C 361.83 449.48, 361.95 447.56, 361.80 444.77 C 361.66 441.99, 361.65 440.63, 361.52 438.84 C 361.38 437.06, 361.27 436.38, 361.14 435.84 C 361.01 435.30, 360.96 435.40, 360.86 436.15 C 360.77 436.90, 360.87 437.69, 360.66 439.59 C 360.45 441.49, 360.42 442.90, 359.82 445.64 C 359.22 448.39, 358.87 450.27, 357.65 453.33 C 356.43 456.39, 355.55 458.20, 353.72 460.95 C 351.89 463.69, 350.70 465.03, 348.51 467.04 C 346.32 469.06, 345.03 469.89, 342.78 471.02 C 340.53 472.15, 339.35 472.58, 337.25 472.70 C 335.15 472.81, 334.07 472.57, 332.29 471.60 C 330.51 470.63, 329.64 469.81, 328.36 467.83 C 327.09 465.85, 326.46 464.49, 325.91 461.70 C 325.36 458.91, 325.25 457.09, 325.61 453.90 C 325.96 450.71, 326.48 448.82, 327.69 445.77 C 328.90 442.72, 329.86 441.08, 331.66 438.64 C 333.46 436.21, 334.68 435.21, 336.70 433.59 C 338.71 431.98, 339.79 431.40, 341.73 430.57 C 343.68 429.73, 344.70 429.57, 346.43 429.43 C 348.15 429.28, 348.90 429.45, 350.36 429.83 C 351.82 430.22, 352.52 430.78, 353.73 431.37 C 354.93 431.96, 355.45 432.34, 356.39 432.78 C 357.34 433.23, 357.86 433.64, 358.47 433.59 C 359.07 433.54, 359.48 433.19, 359.44 432.54" style="stroke: black; fill: black;"/><path d="M 415.64,436.07 C 415.55 435.45, 415.21 434.90, 414.37 434.14 C 413.53 433.37, 412.92 432.83, 411.44 432.24 C 409.96 431.65, 408.91 431.27, 406.97 431.18 C 405.03 431.10, 403.91 431.21, 401.72 431.83 C 399.54 432.46, 398.28 432.90, 396.03 434.32 C 393.78 435.75, 392.46 436.69, 390.48 438.97 C 388.49 441.25, 387.50 442.77, 386.09 445.71 C 384.68 448.66, 383.99 450.44, 383.43 453.69 C 382.86 456.95, 382.74 458.83, 383.26 462.00 C 383.78 465.18, 384.38 466.92, 386.03 469.59 C 387.68 472.25, 388.91 473.52, 391.52 475.31 C 394.12 477.10, 395.80 477.74, 399.06 478.54 C 402.32 479.35, 404.27 479.46, 407.80 479.34 C 411.32 479.21, 413.27 478.86, 416.68 477.92 C 420.09 476.97, 421.84 476.25, 424.86 474.64 C 427.88 473.02, 429.37 472.01, 431.78 469.82 C 434.20 467.64, 435.27 466.33, 436.95 463.70 C 438.63 461.08, 439.22 459.57, 440.16 456.70 C 441.11 453.82, 441.34 452.26, 441.68 449.33 C 442.03 446.40, 441.99 444.84, 441.90 442.04 C 441.80 439.24, 441.55 437.81, 441.23 435.33 C 440.90 432.84, 440.64 431.64, 440.26 429.62 C 439.89 427.60, 439.66 426.70, 439.35 425.22 C 439.05 423.74, 439.00 423.16, 438.73 422.22 C 438.47 421.29, 438.40 420.94, 438.04 420.54 C 437.69 420.13, 437.39 420.08, 436.96 420.20 C 436.52 420.33, 436.14 420.53, 435.88 421.17 C 435.62 421.82, 435.58 422.24, 435.68 423.41 C 435.77 424.58, 436.01 425.29, 436.35 427.03 C 436.68 428.77, 436.90 429.84, 437.33 432.13 C 437.76 434.42, 437.99 435.80, 438.51 438.48 C 439.03 441.17, 439.34 442.72, 439.91 445.55 C 440.48 448.39, 440.73 449.94, 441.37 452.66 C 442.02 455.37, 442.39 456.75, 443.15 459.12 C 443.92 461.49, 444.33 462.63, 445.21 464.50 C 446.08 466.37, 446.56 467.19, 447.52 468.48 C 448.48 469.78, 448.96 470.25, 450.01 470.97 C 451.07 471.69, 451.74 472.12, 452.78 472.07 C 453.82 472.03, 454.84 471.31, 455.21 470.77 C 455.59 470.23, 455.14 469.58, 454.66 469.38 C 454.18 469.17, 453.45 469.83, 452.83 469.76 C 452.20 469.69, 452.14 469.59, 451.55 469.01 C 450.95 468.44, 450.56 468.04, 449.85 466.89 C 449.15 465.74, 448.73 465.01, 448.02 463.27 C 447.31 461.52, 446.94 460.44, 446.29 458.17 C 445.64 455.89, 445.34 454.54, 444.76 451.89 C 444.19 449.23, 443.92 447.70, 443.42 444.88 C 442.93 442.07, 442.72 440.50, 442.27 437.81 C 441.83 435.12, 441.60 433.74, 441.21 431.43 C 440.82 429.13, 440.66 428.03, 440.33 426.28 C 440.00 424.52, 439.90 423.78, 439.55 422.66 C 439.19 421.54, 439.03 421.18, 438.56 420.67 C 438.09 420.17, 437.65 420.11, 437.20 420.14 C 436.74 420.17, 436.48 420.34, 436.27 420.84 C 436.07 421.33, 436.13 421.66, 436.18 422.63 C 436.22 423.60, 436.29 424.20, 436.49 425.70 C 436.68 427.20, 436.85 428.13, 437.15 430.13 C 437.44 432.14, 437.67 433.33, 437.95 435.73 C 438.23 438.14, 438.45 439.51, 438.55 442.16 C 438.65 444.81, 438.72 446.25, 438.44 448.97 C 438.17 451.69, 437.99 453.12, 437.18 455.75 C 436.37 458.37, 435.87 459.71, 434.40 462.10 C 432.93 464.49, 432.00 465.67, 429.83 467.68 C 427.65 469.69, 426.30 470.64, 423.52 472.14 C 420.74 473.65, 419.10 474.33, 415.93 475.19 C 412.77 476.05, 410.93 476.36, 407.70 476.46 C 404.47 476.56, 402.67 476.40, 399.78 475.68 C 396.88 474.95, 395.46 474.36, 393.23 472.82 C 391.00 471.28, 390.02 470.24, 388.63 467.98 C 387.24 465.72, 386.71 464.27, 386.28 461.52 C 385.85 458.77, 385.94 457.12, 386.48 454.25 C 387.03 451.38, 387.68 449.74, 389.01 447.16 C 390.34 444.58, 391.35 443.31, 393.14 441.34 C 394.93 439.38, 396.04 438.56, 397.95 437.33 C 399.86 436.11, 400.92 435.72, 402.69 435.22 C 404.45 434.72, 405.27 434.73, 406.77 434.84 C 408.26 434.94, 408.96 435.36, 410.16 435.75 C 411.37 436.13, 411.87 436.47, 412.80 436.76 C 413.73 437.05, 414.25 437.35, 414.81 437.21 C 415.38 437.07, 415.73 436.68, 415.64 436.07" style="stroke: black; fill: black;"/><path d="M 466.76,422.86 C 466.22 422.68, 465.68 422.72, 464.75 423.11 C 463.82 423.50, 463.20 423.82, 462.11 424.80 C 461.02 425.77, 460.33 426.47, 459.28 428.00 C 458.24 429.53, 457.76 430.52, 456.90 432.45 C 456.04 434.38, 455.60 435.47, 454.99 437.65 C 454.38 439.84, 454.07 441.06, 453.85 443.37 C 453.64 445.69, 453.60 446.94, 453.91 449.22 C 454.21 451.50, 454.51 452.68, 455.38 454.77 C 456.24 456.85, 456.83 457.86, 458.24 459.63 C 459.64 461.40, 460.54 462.22, 462.42 463.61 C 464.29 465.00, 465.41 465.62, 467.61 466.59 C 469.81 467.57, 471.07 467.94, 473.42 468.48 C 475.77 469.01, 477.09 469.12, 479.34 469.28 C 481.59 469.44, 482.74 469.42, 484.67 469.27 C 486.60 469.13, 487.62 468.91, 488.99 468.54 C 490.37 468.18, 490.80 467.87, 491.54 467.46 C 492.29 467.04, 492.53 466.82, 492.71 466.46 C 492.90 466.10, 492.79 465.86, 492.45 465.67 C 492.12 465.48, 491.83 465.54, 491.04 465.53 C 490.24 465.52, 489.81 465.51, 488.50 465.60 C 487.19 465.69, 486.26 465.92, 484.48 465.98 C 482.71 466.03, 481.66 466.07, 479.61 465.89 C 477.55 465.71, 476.32 465.58, 474.19 465.10 C 472.07 464.61, 470.93 464.29, 468.97 463.46 C 467.01 462.62, 466.02 462.09, 464.38 460.92 C 462.73 459.75, 461.95 459.09, 460.75 457.61 C 459.54 456.14, 459.07 455.30, 458.36 453.54 C 457.65 451.78, 457.42 450.78, 457.21 448.82 C 457.00 446.86, 457.05 445.77, 457.30 443.74 C 457.54 441.70, 457.84 440.60, 458.44 438.66 C 459.04 436.71, 459.48 435.70, 460.29 434.01 C 461.10 432.31, 461.59 431.50, 462.49 430.19 C 463.39 428.88, 463.99 428.38, 464.79 427.44 C 465.59 426.50, 465.96 426.18, 466.49 425.50 C 467.02 424.83, 467.39 424.58, 467.44 424.05 C 467.50 423.52, 467.30 423.05, 466.76 422.86" style="stroke: black; fill: black;"/><path d="M 576.31,387.11 C 575.91 387.42, 575.68 387.64, 575.49 388.68 C 575.29 389.73, 575.18 390.45, 575.34 392.32 C 575.50 394.19, 575.61 395.39, 576.28 398.03 C 576.95 400.68, 577.61 402.33, 578.71 405.53 C 579.81 408.73, 580.45 410.65, 581.78 414.02 C 583.11 417.40, 583.84 419.26, 585.35 422.40 C 586.87 425.55, 587.65 427.20, 589.36 429.75 C 591.07 432.30, 592.00 433.44, 593.89 435.15 C 595.78 436.86, 596.79 437.50, 598.80 438.31 C 600.81 439.12, 601.86 439.32, 603.94 439.20 C 606.03 439.09, 607.13 438.80, 609.22 437.72 C 611.32 436.64, 612.44 435.86, 614.42 433.81 C 616.39 431.76, 617.31 430.36, 619.11 427.49 C 620.90 424.61, 621.81 422.84, 623.39 419.43 C 624.97 416.02, 625.73 414.00, 627.01 410.43 C 628.29 406.86, 628.85 404.90, 629.80 401.58 C 630.75 398.26, 631.21 396.60, 631.75 393.81 C 632.30 391.03, 632.34 389.71, 632.54 387.65 C 632.73 385.58, 632.81 384.75, 632.73 383.49 C 632.65 382.23, 632.51 381.78, 632.15 381.36 C 631.78 380.94, 631.31 380.92, 630.90 381.39 C 630.49 381.86, 630.21 382.32, 630.09 383.72 C 629.97 385.12, 630.04 386.06, 630.32 388.40 C 630.60 390.74, 631.00 392.19, 631.49 395.44 C 631.98 398.69, 632.30 400.66, 632.78 404.66 C 633.26 408.65, 633.50 410.96, 633.89 415.41 C 634.29 419.86, 634.47 422.31, 634.76 426.89 C 635.06 431.47, 635.18 433.88, 635.37 438.30 C 635.55 442.71, 635.63 444.95, 635.69 448.96 C 635.75 452.97, 635.74 454.92, 635.66 458.36 C 635.58 461.80, 635.46 463.37, 635.29 466.17 C 635.12 468.96, 635.06 470.18, 634.81 472.34 C 634.57 474.49, 634.37 475.38, 634.06 476.93 C 633.76 478.48, 633.57 479.07, 633.29 480.09 C 633.00 481.12, 632.77 481.45, 632.64 482.08 C 632.50 482.70, 632.56 482.90, 632.60 483.24 C 632.64 483.58, 632.70 483.64, 632.84 483.79 C 632.99 483.94, 633.13 483.99, 633.34 483.99 C 633.55 484.00, 633.60 484.01, 633.89 483.81 C 634.17 483.61, 634.39 483.56, 634.76 482.98 C 635.14 482.40, 635.37 481.99, 635.77 480.90 C 636.17 479.81, 636.39 479.16, 636.77 477.52 C 637.16 475.88, 637.39 474.94, 637.69 472.69 C 637.99 470.45, 638.17 469.18, 638.28 466.31 C 638.38 463.44, 638.27 461.85, 638.21 458.37 C 638.15 454.89, 638.11 452.94, 637.98 448.91 C 637.84 444.87, 637.74 442.63, 637.53 438.20 C 637.32 433.77, 637.19 431.35, 636.93 426.76 C 636.66 422.16, 636.50 419.70, 636.21 415.23 C 635.91 410.76, 635.72 408.44, 635.45 404.41 C 635.18 400.38, 635.07 398.38, 634.88 395.08 C 634.69 391.79, 634.74 390.28, 634.49 387.93 C 634.24 385.57, 634.06 384.66, 633.62 383.31 C 633.18 381.96, 632.83 381.60, 632.30 381.19 C 631.76 380.79, 631.36 380.86, 630.94 381.28 C 630.52 381.70, 630.45 382.10, 630.20 383.30 C 629.94 384.51, 629.98 385.31, 629.66 387.29 C 629.35 389.27, 629.16 390.50, 628.64 393.21 C 628.13 395.93, 627.93 397.59, 627.10 400.85 C 626.26 404.11, 625.72 406.05, 624.47 409.52 C 623.22 412.99, 622.44 414.96, 620.84 418.21 C 619.24 421.46, 618.25 423.13, 616.46 425.76 C 614.67 428.39, 613.63 429.53, 611.88 431.37 C 610.12 433.22, 609.31 433.97, 607.68 434.98 C 606.05 435.99, 605.30 436.27, 603.73 436.44 C 602.16 436.60, 601.42 436.48, 599.85 435.79 C 598.29 435.11, 597.49 434.56, 595.90 433.01 C 594.31 431.46, 593.49 430.42, 591.90 428.05 C 590.31 425.67, 589.41 424.16, 587.94 421.15 C 586.47 418.13, 585.75 416.30, 584.54 412.98 C 583.34 409.66, 582.77 407.72, 581.92 404.55 C 581.06 401.37, 580.82 399.66, 580.26 397.09 C 579.71 394.53, 579.54 393.44, 579.13 391.72 C 578.71 390.00, 578.53 389.40, 578.20 388.49 C 577.86 387.57, 577.83 387.42, 577.45 387.14 C 577.07 386.87, 576.70 386.81, 576.31 387.11" style="stroke: black; fill: black;"/><path d="M 682.81,437.68 C 682.81 437.07, 682.50 436.55, 681.85 435.71 C 681.20 434.86, 680.73 434.29, 679.55 433.44 C 678.36 432.60, 677.53 432.06, 675.92 431.48 C 674.31 430.89, 673.41 430.65, 671.50 430.53 C 669.59 430.40, 668.53 430.37, 666.36 430.84 C 664.20 431.30, 662.94 431.62, 660.68 432.84 C 658.42 434.07, 657.10 434.90, 655.04 436.96 C 652.98 439.03, 651.90 440.40, 650.37 443.17 C 648.84 445.95, 648.09 447.64, 647.38 450.86 C 646.68 454.07, 646.50 455.99, 646.86 459.25 C 647.21 462.51, 647.69 464.34, 649.16 467.17 C 650.63 469.99, 651.74 471.39, 654.19 473.36 C 656.64 475.33, 658.30 476.10, 661.41 477.00 C 664.51 477.90, 666.40 478.04, 669.72 477.86 C 673.05 477.68, 674.90 477.27, 678.03 476.12 C 681.16 474.98, 682.80 474.10, 685.36 472.12 C 687.92 470.15, 689.12 468.87, 690.83 466.27 C 692.54 463.67, 693.20 462.10, 693.93 459.12 C 694.65 456.15, 694.76 454.38, 694.45 451.38 C 694.15 448.39, 693.63 446.75, 692.38 444.14 C 691.14 441.52, 690.11 440.25, 688.21 438.32 C 686.32 436.38, 685.04 435.58, 682.90 434.48 C 680.77 433.38, 679.40 433.08, 677.52 432.81 C 675.64 432.54, 674.72 432.79, 673.49 433.11 C 672.26 433.44, 671.84 433.91, 671.38 434.43 C 670.91 434.94, 671.09 435.39, 671.16 435.69 C 671.24 436.00, 671.55 435.95, 671.75 435.95 C 671.96 435.95, 671.77 435.75, 672.19 435.70 C 672.61 435.65, 672.88 435.68, 673.84 435.70 C 674.80 435.73, 675.47 435.50, 676.98 435.83 C 678.49 436.16, 679.62 436.40, 681.40 437.35 C 683.18 438.31, 684.28 438.96, 685.89 440.59 C 687.50 442.23, 688.37 443.32, 689.43 445.55 C 690.49 447.77, 690.91 449.16, 691.20 451.73 C 691.48 454.30, 691.43 455.82, 690.85 458.39 C 690.26 460.96, 689.72 462.32, 688.25 464.58 C 686.79 466.85, 685.76 467.99, 683.51 469.73 C 681.26 471.47, 679.79 472.28, 677.00 473.30 C 674.21 474.32, 672.51 474.69, 669.56 474.85 C 666.61 475.00, 664.94 474.86, 662.25 474.09 C 659.56 473.31, 658.18 472.65, 656.10 470.98 C 654.02 469.32, 653.11 468.17, 651.87 465.76 C 650.63 463.35, 650.19 461.77, 649.91 458.93 C 649.62 456.09, 649.77 454.38, 650.44 451.56 C 651.12 448.74, 651.84 447.23, 653.27 444.82 C 654.69 442.42, 655.74 441.29, 657.56 439.51 C 659.39 437.74, 660.48 437.02, 662.39 435.95 C 664.30 434.89, 665.34 434.60, 667.11 434.19 C 668.87 433.79, 669.74 433.77, 671.24 433.91 C 672.73 434.05, 673.33 434.35, 674.57 434.89 C 675.81 435.44, 676.38 435.99, 677.44 436.63 C 678.50 437.27, 678.99 437.68, 679.87 438.10 C 680.76 438.53, 681.29 438.83, 681.87 438.74 C 682.46 438.66, 682.82 438.29, 682.81 437.68" style="stroke: black; fill: black;"/><path d="M 712.04,433.16 C 711.50 433.25, 711.00 433.38, 710.34 434.31 C 709.68 435.24, 709.20 435.91, 708.74 437.80 C 708.29 439.70, 708.02 441.01, 708.07 443.76 C 708.13 446.51, 708.41 448.31, 709.01 451.57 C 709.60 454.82, 710.00 456.80, 711.05 460.04 C 712.09 463.29, 712.71 465.10, 714.24 467.80 C 715.77 470.51, 716.76 471.77, 718.71 473.57 C 720.66 475.37, 721.79 476.05, 723.99 476.82 C 726.19 477.60, 727.43 477.72, 729.70 477.45 C 731.98 477.17, 733.21 476.74, 735.36 475.44 C 737.52 474.14, 738.64 473.19, 740.48 470.95 C 742.32 468.70, 743.15 467.18, 744.58 464.21 C 746.00 461.24, 746.63 459.41, 747.59 456.11 C 748.56 452.82, 748.96 450.87, 749.39 447.72 C 749.83 444.57, 749.88 442.87, 749.76 440.36 C 749.63 437.85, 749.34 436.69, 748.78 435.16 C 748.21 433.62, 747.71 433.06, 746.93 432.67 C 746.14 432.27, 745.50 432.41, 744.86 433.16 C 744.22 433.91, 743.89 434.65, 743.72 436.42 C 743.55 438.19, 743.58 439.41, 744.00 442.01 C 744.42 444.61, 744.95 446.27, 745.81 449.40 C 746.66 452.53, 747.19 454.42, 748.26 457.65 C 749.33 460.88, 749.90 462.68, 751.14 465.54 C 752.39 468.40, 753.17 469.86, 754.51 471.95 C 755.84 474.03, 756.68 474.80, 757.83 475.98 C 758.99 477.16, 759.45 477.38, 760.28 477.85 C 761.12 478.32, 761.45 478.30, 762.01 478.32 C 762.57 478.34, 762.81 478.13, 763.08 477.93 C 763.36 477.73, 763.47 477.55, 763.38 477.31 C 763.30 477.07, 762.85 476.83, 762.65 476.73 C 762.45 476.64, 762.46 476.81, 762.38 476.83 C 762.31 476.84, 762.47 476.94, 762.29 476.82 C 762.11 476.69, 761.98 476.72, 761.49 476.21 C 761.00 475.70, 760.71 475.45, 759.85 474.27 C 758.99 473.09, 758.36 472.30, 757.21 470.30 C 756.06 468.30, 755.28 466.98, 754.10 464.25 C 752.92 461.53, 752.26 459.82, 751.30 456.68 C 750.34 453.54, 749.92 451.64, 749.30 448.57 C 748.68 445.50, 748.61 443.80, 748.21 441.33 C 747.81 438.86, 747.65 437.77, 747.30 436.23 C 746.96 434.69, 746.73 434.18, 746.47 433.64 C 746.21 433.09, 746.05 433.07, 746.00 433.49 C 745.95 433.92, 746.12 434.36, 746.23 435.75 C 746.34 437.14, 746.56 438.13, 746.56 440.44 C 746.56 442.75, 746.60 444.33, 746.21 447.29 C 745.82 450.25, 745.53 452.15, 744.62 455.24 C 743.71 458.34, 743.03 460.07, 741.66 462.77 C 740.29 465.47, 739.37 466.75, 737.77 468.74 C 736.17 470.74, 735.33 471.58, 733.64 472.75 C 731.95 473.91, 731.04 474.29, 729.30 474.57 C 727.56 474.86, 726.64 474.82, 724.94 474.19 C 723.23 473.56, 722.36 473.00, 720.78 471.41 C 719.20 469.82, 718.36 468.71, 717.03 466.25 C 715.69 463.79, 715.00 462.14, 714.09 459.10 C 713.18 456.05, 712.87 454.11, 712.48 451.03 C 712.10 447.96, 712.18 446.24, 712.18 443.72 C 712.18 441.20, 712.35 440.09, 712.48 438.41 C 712.61 436.74, 712.72 436.25, 712.83 435.35 C 712.93 434.44, 713.18 434.31, 713.02 433.87 C 712.86 433.43, 712.57 433.07, 712.04 433.16" style="stroke: black; fill: black;"/><path d="M 777.06,443.01 C 776.59 443.38, 776.28 443.78, 775.95 445.04 C 775.63 446.30, 775.44 447.21, 775.43 449.30 C 775.43 451.38, 775.59 452.84, 775.92 455.47 C 776.26 458.10, 776.54 459.76, 777.10 462.46 C 777.66 465.17, 778.06 466.76, 778.73 468.99 C 779.39 471.22, 779.73 472.35, 780.44 473.60 C 781.16 474.85, 781.65 475.22, 782.31 475.25 C 782.96 475.27, 783.41 474.91, 783.72 473.73 C 784.02 472.56, 784.03 471.54, 783.83 469.39 C 783.63 467.24, 783.26 465.73, 782.71 462.98 C 782.16 460.23, 781.62 458.53, 781.06 455.66 C 780.50 452.79, 780.24 451.20, 779.91 448.63 C 779.58 446.06, 779.41 444.84, 779.42 442.80 C 779.42 440.76, 779.48 439.93, 779.94 438.42 C 780.41 436.92, 780.73 436.36, 781.75 435.27 C 782.77 434.19, 783.43 433.77, 785.05 432.99 C 786.66 432.21, 787.65 431.87, 789.84 431.39 C 792.02 430.91, 793.34 430.73, 795.96 430.59 C 798.58 430.46, 800.11 430.48, 802.93 430.71 C 805.75 430.93, 807.42 431.31, 810.04 431.71 C 812.65 432.12, 814.00 432.45, 816.01 432.74 C 818.01 433.04, 819.18 433.31, 820.06 433.18 C 820.94 433.04, 821.07 432.69, 820.41 432.08 C 819.74 431.46, 818.67 430.87, 816.73 430.09 C 814.79 429.31, 813.40 428.76, 810.70 428.18 C 808.00 427.59, 806.21 427.40, 803.22 427.16 C 800.23 426.91, 798.60 426.78, 795.76 426.94 C 792.92 427.09, 791.45 427.30, 789.00 427.94 C 786.55 428.58, 785.40 429.05, 783.52 430.14 C 781.64 431.23, 780.85 431.91, 779.61 433.40 C 778.37 434.88, 777.97 435.71, 777.33 437.56 C 776.69 439.42, 776.57 440.40, 776.40 442.68 C 776.23 444.96, 776.28 446.26, 776.48 448.97 C 776.69 451.69, 777.03 453.29, 777.41 456.25 C 777.79 459.21, 777.94 460.99, 778.40 463.77 C 778.87 466.56, 779.15 468.11, 779.74 470.16 C 780.33 472.22, 780.79 473.09, 781.36 474.03 C 781.93 474.97, 782.28 475.11, 782.60 474.88 C 782.92 474.64, 783.03 474.18, 782.95 472.84 C 782.88 471.49, 782.62 470.37, 782.23 468.16 C 781.84 465.94, 781.43 464.39, 781.01 461.74 C 780.58 459.10, 780.43 457.48, 780.11 454.94 C 779.79 452.40, 779.67 451.00, 779.41 449.05 C 779.15 447.09, 779.03 446.33, 778.81 445.16 C 778.58 443.99, 778.64 443.62, 778.29 443.19 C 777.94 442.76, 777.53 442.64, 777.06 443.01" style="stroke: black; fill: black;"/><path d="M 958.23,397.01 C 958.10 396.43, 957.77 395.97, 956.92 395.32 C 956.07 394.68, 955.43 394.28, 953.99 393.79 C 952.55 393.30, 951.60 393.03, 949.73 392.87 C 947.86 392.71, 946.86 392.73, 944.65 392.98 C 942.45 393.24, 941.26 393.36, 938.71 394.14 C 936.17 394.92, 934.72 395.43, 931.93 396.90 C 929.13 398.37, 927.63 399.31, 924.73 401.48 C 921.83 403.65, 920.24 404.92, 917.44 407.74 C 914.65 410.57, 913.15 412.16, 910.76 415.59 C 908.37 419.02, 907.17 420.99, 905.48 424.89 C 903.78 428.80, 903.03 431.01, 902.29 435.12 C 901.55 439.24, 901.40 441.48, 901.77 445.48 C 902.14 449.49, 902.62 451.59, 904.13 455.13 C 905.64 458.67, 906.78 460.39, 909.31 463.18 C 911.85 465.97, 913.50 467.16, 916.80 469.06 C 920.11 470.96, 922.05 471.63, 925.83 472.67 C 929.60 473.70, 931.71 473.94, 935.67 474.24 C 939.63 474.53, 941.75 474.42, 945.63 474.13 C 949.50 473.83, 951.49 473.49, 955.05 472.76 C 958.62 472.04, 960.35 471.54, 963.47 470.48 C 966.59 469.43, 968.13 468.86, 970.65 467.48 C 973.18 466.10, 974.38 465.12, 976.09 463.57 C 977.81 462.02, 978.38 461.09, 979.23 459.73 C 980.07 458.38, 980.28 457.49, 980.32 456.79 C 980.36 456.09, 980.02 455.94, 979.43 456.24 C 978.85 456.53, 978.47 457.26, 977.41 458.26 C 976.34 459.26, 975.78 459.94, 974.12 461.23 C 972.46 462.53, 971.43 463.40, 969.11 464.72 C 966.79 466.04, 965.44 466.74, 962.52 467.84 C 959.60 468.94, 957.93 469.46, 954.51 470.22 C 951.09 470.98, 949.16 471.33, 945.43 471.64 C 941.70 471.95, 939.64 472.05, 935.85 471.78 C 932.06 471.51, 930.04 471.26, 926.48 470.28 C 922.92 469.31, 921.11 468.66, 918.04 466.91 C 914.97 465.16, 913.47 464.06, 911.13 461.52 C 908.79 458.97, 907.75 457.43, 906.34 454.18 C 904.94 450.93, 904.47 448.99, 904.11 445.27 C 903.75 441.54, 903.86 439.42, 904.56 435.53 C 905.26 431.64, 905.96 429.53, 907.60 425.82 C 909.23 422.11, 910.39 420.23, 912.72 416.98 C 915.05 413.73, 916.51 412.21, 919.25 409.58 C 921.99 406.95, 923.58 405.76, 926.41 403.82 C 929.24 401.88, 930.74 401.12, 933.41 399.87 C 936.07 398.62, 937.41 398.22, 939.74 397.55 C 942.06 396.87, 943.11 396.68, 945.03 396.49 C 946.95 396.29, 947.77 396.39, 949.35 396.58 C 950.93 396.78, 951.65 397.15, 952.92 397.45 C 954.19 397.75, 954.76 397.94, 955.69 398.09 C 956.61 398.24, 957.05 398.41, 957.56 398.19 C 958.07 397.98, 958.35 397.58, 958.23 397.01" style="stroke: black; fill: black;"/><path d="M 984.82,427.56 C 984.28 427.78, 983.83 428.03, 983.22 429.19 C 982.60 430.34, 982.15 431.19, 981.75 433.34 C 981.36 435.49, 981.12 437.00, 981.23 439.93 C 981.34 442.86, 981.68 444.75, 982.31 448.00 C 982.94 451.25, 983.31 453.16, 984.37 456.18 C 985.44 459.20, 986.09 460.76, 987.62 463.10 C 989.16 465.44, 990.12 466.46, 992.04 467.89 C 993.96 469.32, 995.09 469.81, 997.23 470.24 C 999.38 470.68, 1000.58 470.63, 1002.78 470.05 C 1004.98 469.46, 1006.15 468.89, 1008.22 467.32 C 1010.30 465.75, 1011.39 464.64, 1013.16 462.21 C 1014.92 459.77, 1015.69 458.13, 1017.04 455.15 C 1018.38 452.16, 1019.00 450.32, 1019.86 447.29 C 1020.73 444.26, 1021.06 442.55, 1021.35 439.98 C 1021.64 437.42, 1021.58 436.16, 1021.31 434.47 C 1021.05 432.79, 1020.68 432.13, 1020.03 431.56 C 1019.39 430.98, 1018.76 431.03, 1018.09 431.61 C 1017.42 432.20, 1016.99 432.88, 1016.69 434.47 C 1016.40 436.07, 1016.40 437.22, 1016.61 439.60 C 1016.83 441.98, 1017.14 443.55, 1017.76 446.38 C 1018.38 449.21, 1018.84 450.88, 1019.71 453.74 C 1020.58 456.60, 1021.03 458.17, 1022.12 460.66 C 1023.21 463.15, 1023.97 464.38, 1025.16 466.17 C 1026.36 467.97, 1027.06 468.61, 1028.11 469.65 C 1029.16 470.68, 1029.62 470.90, 1030.40 471.34 C 1031.19 471.79, 1031.51 471.81, 1032.05 471.87 C 1032.59 471.92, 1032.83 471.79, 1033.12 471.63 C 1033.41 471.48, 1033.51 471.36, 1033.51 471.11 C 1033.50 470.86, 1033.23 470.55, 1033.08 470.39 C 1032.94 470.22, 1032.89 470.32, 1032.77 470.27 C 1032.65 470.23, 1032.72 470.29, 1032.50 470.15 C 1032.28 470.01, 1032.14 470.03, 1031.66 469.57 C 1031.18 469.12, 1030.86 468.88, 1030.10 467.88 C 1029.33 466.87, 1028.78 466.25, 1027.82 464.54 C 1026.87 462.83, 1026.24 461.69, 1025.32 459.33 C 1024.39 456.97, 1023.91 455.50, 1023.19 452.75 C 1022.48 450.01, 1022.20 448.33, 1021.74 445.61 C 1021.28 442.88, 1021.21 441.35, 1020.91 439.12 C 1020.60 436.90, 1020.52 435.88, 1020.23 434.48 C 1019.94 433.08, 1019.74 432.59, 1019.46 432.11 C 1019.18 431.63, 1019.02 431.59, 1018.84 432.08 C 1018.65 432.57, 1018.71 433.07, 1018.55 434.57 C 1018.39 436.06, 1018.43 437.17, 1018.05 439.53 C 1017.67 441.90, 1017.46 443.53, 1016.65 446.38 C 1015.85 449.22, 1015.29 451.02, 1014.02 453.77 C 1012.74 456.52, 1011.85 457.94, 1010.27 460.12 C 1008.70 462.31, 1007.80 463.29, 1006.13 464.70 C 1004.47 466.11, 1003.60 466.61, 1001.93 467.17 C 1000.25 467.73, 999.40 467.81, 997.77 467.50 C 996.15 467.19, 995.29 466.84, 993.80 465.62 C 992.31 464.40, 991.58 463.50, 990.32 461.40 C 989.05 459.30, 988.39 457.92, 987.48 455.12 C 986.56 452.33, 986.15 450.49, 985.72 447.43 C 985.29 444.38, 985.36 442.56, 985.34 439.84 C 985.32 437.11, 985.51 435.79, 985.63 433.82 C 985.74 431.85, 985.84 431.12, 985.90 429.97 C 985.96 428.82, 986.14 428.55, 985.93 428.07 C 985.71 427.59, 985.37 427.34, 984.82 427.56" style="stroke: black; fill: black;"/><path d="M 1070.53,432.11 C 1070.35 431.48, 1069.95 430.90, 1068.90 430.12 C 1067.86 429.34, 1067.08 428.80, 1065.32 428.20 C 1063.55 427.60, 1062.30 427.27, 1060.07 427.12 C 1057.83 426.98, 1056.49 427.08, 1054.13 427.48 C 1051.78 427.88, 1050.43 428.22, 1048.30 429.13 C 1046.17 430.04, 1045.00 430.65, 1043.48 432.03 C 1041.97 433.41, 1041.28 434.32, 1040.71 436.03 C 1040.13 437.74, 1040.08 438.78, 1040.60 440.57 C 1041.12 442.36, 1041.70 443.30, 1043.31 444.99 C 1044.91 446.69, 1046.13 447.57, 1048.64 449.04 C 1051.16 450.51, 1052.91 451.06, 1055.89 452.35 C 1058.88 453.64, 1060.66 454.22, 1063.57 455.47 C 1066.49 456.73, 1068.04 457.45, 1070.45 458.65 C 1072.86 459.85, 1074.03 460.40, 1075.62 461.48 C 1077.21 462.56, 1077.77 463.08, 1078.39 464.03 C 1079.00 464.98, 1079.02 465.41, 1078.71 466.24 C 1078.40 467.07, 1077.97 467.42, 1076.82 468.18 C 1075.67 468.93, 1074.80 469.35, 1072.97 470.03 C 1071.14 470.71, 1069.99 471.13, 1067.68 471.59 C 1065.37 472.04, 1063.94 472.23, 1061.43 472.31 C 1058.92 472.39, 1057.46 472.31, 1055.11 472.00 C 1052.75 471.68, 1051.53 471.42, 1049.65 470.75 C 1047.77 470.07, 1046.95 469.58, 1045.72 468.61 C 1044.49 467.64, 1044.19 466.97, 1043.48 465.90 C 1042.77 464.83, 1042.68 463.73, 1042.17 463.27 C 1041.66 462.81, 1041.12 462.83, 1040.92 463.59 C 1040.72 464.35, 1040.59 465.62, 1041.16 467.08 C 1041.73 468.53, 1042.33 469.55, 1043.79 470.88 C 1045.25 472.21, 1046.32 472.81, 1048.48 473.72 C 1050.64 474.63, 1051.97 474.98, 1054.58 475.43 C 1057.18 475.89, 1058.74 476.02, 1061.50 475.99 C 1064.27 475.97, 1065.83 475.81, 1068.41 475.30 C 1070.99 474.79, 1072.31 474.40, 1074.40 473.45 C 1076.48 472.50, 1077.52 471.88, 1078.83 470.56 C 1080.14 469.24, 1080.63 468.39, 1080.97 466.86 C 1081.30 465.33, 1081.20 464.45, 1080.49 462.91 C 1079.77 461.37, 1079.10 460.61, 1077.41 459.16 C 1075.71 457.71, 1074.50 456.98, 1071.99 455.65 C 1069.48 454.32, 1067.80 453.79, 1064.85 452.52 C 1061.91 451.24, 1060.15 450.63, 1057.29 449.27 C 1054.43 447.91, 1052.91 447.07, 1050.57 445.72 C 1048.23 444.38, 1047.09 443.75, 1045.61 442.54 C 1044.12 441.34, 1043.64 440.80, 1043.16 439.68 C 1042.68 438.57, 1042.74 438.02, 1043.20 436.97 C 1043.66 435.93, 1044.20 435.37, 1045.47 434.46 C 1046.75 433.54, 1047.75 433.06, 1049.59 432.40 C 1051.44 431.74, 1052.66 431.42, 1054.70 431.14 C 1056.74 430.87, 1057.88 430.87, 1059.79 431.02 C 1061.70 431.17, 1062.69 431.53, 1064.25 431.89 C 1065.81 432.25, 1066.46 432.55, 1067.57 432.83 C 1068.68 433.10, 1069.21 433.41, 1069.80 433.27 C 1070.39 433.13, 1070.71 432.74, 1070.53 432.11" style="stroke: black; fill: black;"/><path d="M 1097.01,396.84 C 1096.60 397.24, 1096.41 397.54, 1096.16 398.86 C 1095.91 400.17, 1095.67 401.02, 1095.75 403.40 C 1095.84 405.79, 1096.15 407.34, 1096.58 410.79 C 1097.00 414.25, 1097.36 416.40, 1097.88 420.66 C 1098.41 424.93, 1098.67 427.49, 1099.22 432.12 C 1099.76 436.75, 1100.06 439.32, 1100.61 443.82 C 1101.16 448.32, 1101.45 450.66, 1101.96 454.61 C 1102.47 458.56, 1102.65 460.48, 1103.17 463.58 C 1103.69 466.67, 1104.02 468.14, 1104.56 470.07 C 1105.10 472.01, 1105.42 472.50, 1105.87 473.25 C 1106.32 474.00, 1106.59 473.83, 1106.82 473.83 C 1107.06 473.82, 1107.11 473.34, 1107.05 473.25 C 1106.99 473.16, 1106.53 473.27, 1106.52 473.37 C 1106.51 473.48, 1106.78 473.88, 1106.98 473.78 C 1107.18 473.67, 1107.48 473.69, 1107.53 472.84 C 1107.57 471.98, 1107.53 471.44, 1107.21 469.49 C 1106.89 467.53, 1106.51 466.12, 1105.93 463.08 C 1105.35 460.04, 1104.91 458.18, 1104.28 454.27 C 1103.65 450.37, 1103.35 448.03, 1102.79 443.55 C 1102.23 439.07, 1101.94 436.50, 1101.47 431.87 C 1101.01 427.24, 1100.78 424.68, 1100.46 420.41 C 1100.14 416.13, 1100.05 413.95, 1099.87 410.51 C 1099.70 407.06, 1099.78 405.51, 1099.58 403.17 C 1099.38 400.84, 1099.15 400.08, 1098.88 398.83 C 1098.60 397.57, 1098.55 397.28, 1098.18 396.89 C 1097.81 396.49, 1097.41 396.45, 1097.01 396.84" style="stroke: black; fill: black;"/><path d="M 1091.03,442.04 C 1091.48 442.29, 1091.74 442.23, 1092.86 442.18 C 1093.99 442.13, 1094.67 442.07, 1096.63 441.80 C 1098.59 441.53, 1099.90 441.26, 1102.66 440.82 C 1105.42 440.37, 1107.15 439.93, 1110.43 439.56 C 1113.70 439.19, 1115.65 439.08, 1119.04 438.96 C 1122.43 438.85, 1124.42 438.99, 1127.38 438.99 C 1130.34 438.99, 1131.78 439.05, 1133.85 438.97 C 1135.93 438.89, 1136.95 438.88, 1137.75 438.60 C 1138.55 438.33, 1138.59 438.01, 1137.85 437.58 C 1137.10 437.15, 1136.11 436.83, 1134.03 436.46 C 1131.95 436.08, 1130.46 435.82, 1127.44 435.71 C 1124.43 435.59, 1122.40 435.78, 1118.94 435.89 C 1115.48 436.00, 1113.53 436.08, 1110.15 436.26 C 1106.78 436.44, 1104.95 436.43, 1102.09 436.77 C 1099.22 437.12, 1097.83 437.44, 1095.84 437.99 C 1093.84 438.54, 1093.13 438.95, 1092.09 439.54 C 1091.04 440.12, 1090.82 440.42, 1090.61 440.93 C 1090.39 441.43, 1090.58 441.79, 1091.03 442.04" style="stroke: black; fill: black;"/><path d="M 1160.60,439.04 C 1160.52 438.41, 1160.18 437.82, 1159.35 436.99 C 1158.52 436.16, 1157.89 435.59, 1156.45 434.89 C 1155.01 434.18, 1154.00 433.72, 1152.14 433.46 C 1150.28 433.20, 1149.19 433.20, 1147.13 433.58 C 1145.08 433.97, 1143.96 434.29, 1141.87 435.40 C 1139.77 436.52, 1138.54 437.25, 1136.67 439.17 C 1134.79 441.09, 1133.78 442.38, 1132.50 445.01 C 1131.22 447.64, 1130.64 449.30, 1130.27 452.32 C 1129.90 455.34, 1129.89 457.11, 1130.65 460.11 C 1131.40 463.11, 1132.14 464.82, 1134.05 467.32 C 1135.95 469.81, 1137.36 471.00, 1140.17 472.59 C 1142.97 474.19, 1144.77 474.70, 1148.06 475.28 C 1151.36 475.86, 1153.31 475.91, 1156.65 475.50 C 1159.99 475.09, 1161.82 474.59, 1164.77 473.24 C 1167.71 471.89, 1169.19 470.89, 1171.37 468.75 C 1173.55 466.61, 1174.49 465.23, 1175.67 462.54 C 1176.85 459.85, 1177.17 458.19, 1177.28 455.28 C 1177.39 452.36, 1177.07 450.70, 1176.21 447.97 C 1175.34 445.25, 1174.57 443.85, 1172.96 441.66 C 1171.36 439.47, 1170.18 438.40, 1168.17 437.02 C 1166.16 435.64, 1164.79 435.18, 1162.92 434.75 C 1161.05 434.32, 1159.67 434.60, 1158.82 434.87 C 1157.96 435.14, 1157.99 435.61, 1158.63 436.10 C 1159.28 436.60, 1160.52 436.63, 1162.04 437.35 C 1163.56 438.07, 1164.60 438.43, 1166.25 439.69 C 1167.90 440.94, 1168.94 441.75, 1170.30 443.61 C 1171.66 445.47, 1172.31 446.67, 1173.06 448.98 C 1173.81 451.30, 1174.10 452.72, 1174.05 455.18 C 1174.00 457.64, 1173.77 459.03, 1172.80 461.29 C 1171.83 463.56, 1171.04 464.69, 1169.18 466.52 C 1167.32 468.36, 1166.07 469.28, 1163.49 470.48 C 1160.91 471.68, 1159.26 472.15, 1156.28 472.52 C 1153.30 472.88, 1151.51 472.83, 1148.59 472.31 C 1145.67 471.80, 1144.10 471.30, 1141.69 469.92 C 1139.29 468.54, 1138.15 467.53, 1136.58 465.41 C 1135.00 463.29, 1134.41 461.87, 1133.83 459.35 C 1133.25 456.82, 1133.30 455.32, 1133.67 452.77 C 1134.04 450.21, 1134.57 448.80, 1135.68 446.57 C 1136.79 444.35, 1137.64 443.26, 1139.21 441.64 C 1140.78 440.01, 1141.81 439.38, 1143.51 438.45 C 1145.22 437.51, 1146.13 437.22, 1147.74 436.95 C 1149.34 436.68, 1150.11 436.81, 1151.54 437.09 C 1152.97 437.37, 1153.66 437.86, 1154.88 438.35 C 1156.10 438.85, 1156.67 439.22, 1157.64 439.57 C 1158.60 439.93, 1159.13 440.26, 1159.72 440.15 C 1160.32 440.04, 1160.67 439.67, 1160.60 439.04" style="stroke: black; fill: black;"/><path d="M 1193.82,434.19 C 1193.36 434.40, 1193.04 434.54, 1192.58 435.58 C 1192.12 436.62, 1191.75 437.37, 1191.51 439.42 C 1191.26 441.46, 1191.21 442.93, 1191.36 445.81 C 1191.51 448.69, 1191.89 450.53, 1192.26 453.81 C 1192.64 457.09, 1192.80 459.10, 1193.23 462.22 C 1193.67 465.34, 1193.89 467.06, 1194.45 469.42 C 1195.01 471.78, 1195.36 472.78, 1196.05 474.01 C 1196.74 475.23, 1197.19 475.56, 1197.90 475.53 C 1198.61 475.49, 1199.10 475.12, 1199.59 473.81 C 1200.09 472.51, 1200.28 471.42, 1200.38 469.01 C 1200.47 466.59, 1200.21 464.89, 1200.07 461.75 C 1199.93 458.60, 1199.73 456.58, 1199.69 453.27 C 1199.66 449.97, 1199.75 448.09, 1199.90 445.23 C 1200.05 442.37, 1200.13 441.01, 1200.44 438.97 C 1200.75 436.94, 1200.91 436.18, 1201.44 435.06 C 1201.96 433.94, 1202.27 433.66, 1203.06 433.39 C 1203.85 433.11, 1204.31 433.20, 1205.38 433.67 C 1206.45 434.14, 1207.11 434.51, 1208.42 435.72 C 1209.73 436.93, 1210.54 437.75, 1211.93 439.72 C 1213.31 441.69, 1214.14 443.01, 1215.35 445.57 C 1216.57 448.14, 1217.14 449.80, 1218.01 452.54 C 1218.87 455.27, 1219.12 456.88, 1219.66 459.25 C 1220.20 461.62, 1220.30 462.83, 1220.72 464.39 C 1221.13 465.96, 1221.29 466.55, 1221.75 467.07 C 1222.22 467.60, 1222.55 467.61, 1223.04 467.02 C 1223.53 466.43, 1223.83 465.79, 1224.20 464.10 C 1224.57 462.41, 1224.63 461.13, 1224.88 458.57 C 1225.14 456.02, 1225.04 454.26, 1225.48 451.32 C 1225.92 448.38, 1226.36 446.59, 1227.09 443.87 C 1227.82 441.14, 1228.27 439.73, 1229.14 437.70 C 1230.01 435.66, 1230.50 434.82, 1231.42 433.70 C 1232.35 432.58, 1232.83 432.29, 1233.77 432.08 C 1234.71 431.88, 1235.14 432.03, 1236.12 432.70 C 1237.09 433.37, 1237.60 433.88, 1238.64 435.43 C 1239.68 436.99, 1240.24 438.08, 1241.32 440.45 C 1242.39 442.83, 1243.06 444.36, 1244.01 447.32 C 1244.96 450.27, 1245.34 452.16, 1246.06 455.23 C 1246.78 458.31, 1246.96 460.01, 1247.61 462.68 C 1248.26 465.35, 1248.57 466.58, 1249.32 468.57 C 1250.08 470.56, 1250.55 471.43, 1251.40 472.63 C 1252.24 473.83, 1252.77 474.13, 1253.54 474.59 C 1254.31 475.05, 1254.82 475.02, 1255.24 474.93 C 1255.66 474.85, 1255.73 474.49, 1255.63 474.15 C 1255.53 473.80, 1255.15 473.78, 1254.74 473.21 C 1254.34 472.65, 1254.13 472.45, 1253.61 471.33 C 1253.09 470.21, 1252.68 469.51, 1252.14 467.63 C 1251.59 465.74, 1251.45 464.55, 1250.88 461.92 C 1250.30 459.29, 1249.97 457.61, 1249.25 454.49 C 1248.54 451.37, 1248.18 449.45, 1247.30 446.32 C 1246.41 443.20, 1246.00 441.46, 1244.82 438.86 C 1243.63 436.26, 1242.86 435.04, 1241.37 433.32 C 1239.89 431.61, 1239.01 430.99, 1237.40 430.29 C 1235.78 429.58, 1234.88 429.49, 1233.30 429.81 C 1231.72 430.12, 1230.93 430.56, 1229.52 431.86 C 1228.11 433.17, 1227.43 434.11, 1226.26 436.31 C 1225.09 438.51, 1224.57 440.00, 1223.67 442.87 C 1222.77 445.73, 1222.41 447.58, 1221.75 450.63 C 1221.08 453.68, 1220.63 455.45, 1220.36 458.12 C 1220.09 460.78, 1220.17 462.17, 1220.41 463.96 C 1220.65 465.75, 1221.04 466.45, 1221.56 467.06 C 1222.09 467.68, 1222.62 467.63, 1223.04 467.02 C 1223.45 466.41, 1223.66 465.71, 1223.65 464.01 C 1223.65 462.32, 1223.49 461.06, 1223.03 458.56 C 1222.57 456.06, 1222.25 454.41, 1221.38 451.50 C 1220.50 448.60, 1219.93 446.84, 1218.66 444.04 C 1217.39 441.24, 1216.63 439.71, 1215.03 437.50 C 1213.44 435.29, 1212.44 434.30, 1210.67 432.98 C 1208.90 431.66, 1207.88 431.24, 1206.19 430.90 C 1204.49 430.56, 1203.58 430.70, 1202.22 431.29 C 1200.85 431.89, 1200.28 432.44, 1199.35 433.86 C 1198.42 435.28, 1198.10 436.16, 1197.55 438.39 C 1196.99 440.62, 1196.79 442.04, 1196.56 445.01 C 1196.32 447.99, 1196.44 449.90, 1196.37 453.26 C 1196.30 456.62, 1196.24 458.65, 1196.21 461.81 C 1196.18 464.97, 1196.04 466.69, 1196.20 469.06 C 1196.35 471.43, 1196.64 472.46, 1196.99 473.66 C 1197.33 474.86, 1197.68 475.11, 1197.92 475.04 C 1198.17 474.98, 1198.27 474.61, 1198.22 473.36 C 1198.17 472.11, 1198.02 471.12, 1197.69 468.80 C 1197.37 466.49, 1196.98 464.83, 1196.59 461.77 C 1196.20 458.71, 1195.94 456.72, 1195.73 453.50 C 1195.53 450.27, 1195.61 448.44, 1195.55 445.66 C 1195.50 442.88, 1195.53 441.52, 1195.46 439.59 C 1195.40 437.67, 1195.34 437.04, 1195.22 436.03 C 1195.11 435.01, 1195.17 434.89, 1194.89 434.53 C 1194.61 434.16, 1194.28 433.98, 1193.82 434.19" style="stroke: black; fill: black;"/><path d="M 1271.77,457.43 C 1272.05 457.86, 1272.38 458.14, 1273.32 458.34 C 1274.26 458.53, 1274.91 458.63, 1276.45 458.39 C 1277.99 458.14, 1279.04 457.86, 1281.02 457.11 C 1283.00 456.35, 1284.22 455.78, 1286.37 454.62 C 1288.52 453.46, 1289.79 452.71, 1291.78 451.30 C 1293.78 449.89, 1294.83 449.10, 1296.35 447.56 C 1297.87 446.02, 1298.58 445.21, 1299.38 443.61 C 1300.18 442.00, 1300.43 441.11, 1300.35 439.53 C 1300.28 437.94, 1299.99 437.03, 1299.00 435.68 C 1298.00 434.34, 1297.18 433.61, 1295.36 432.78 C 1293.55 431.95, 1292.30 431.64, 1289.92 431.53 C 1287.54 431.42, 1286.10 431.56, 1283.46 432.25 C 1280.81 432.94, 1279.28 433.52, 1276.70 435.00 C 1274.12 436.48, 1272.72 437.50, 1270.57 439.67 C 1268.42 441.83, 1267.35 443.14, 1265.96 445.81 C 1264.57 448.47, 1264.01 450.04, 1263.61 453.00 C 1263.21 455.96, 1263.25 457.67, 1263.97 460.62 C 1264.69 463.57, 1265.39 465.18, 1267.20 467.77 C 1269.01 470.36, 1270.31 471.63, 1273.02 473.57 C 1275.72 475.51, 1277.44 476.32, 1280.73 477.47 C 1284.03 478.62, 1285.96 478.96, 1289.51 479.32 C 1293.07 479.69, 1295.02 479.62, 1298.51 479.29 C 1301.99 478.97, 1303.81 478.59, 1306.94 477.68 C 1310.08 476.78, 1311.64 476.17, 1314.17 474.77 C 1316.71 473.37, 1317.83 472.45, 1319.63 470.71 C 1321.44 468.97, 1322.13 467.97, 1323.21 466.06 C 1324.29 464.16, 1324.56 463.11, 1325.02 461.18 C 1325.49 459.24, 1325.49 458.22, 1325.54 456.38 C 1325.58 454.54, 1325.43 453.61, 1325.25 451.97 C 1325.07 450.33, 1324.86 449.51, 1324.63 448.18 C 1324.40 446.85, 1324.34 446.20, 1324.12 445.31 C 1323.91 444.42, 1323.82 444.07, 1323.56 443.73 C 1323.29 443.39, 1322.98 443.33, 1322.79 443.61 C 1322.60 443.89, 1322.46 444.15, 1322.60 445.13 C 1322.74 446.12, 1322.97 446.81, 1323.49 448.51 C 1324.02 450.21, 1324.45 451.39, 1325.21 453.64 C 1325.97 455.88, 1326.44 457.34, 1327.28 459.75 C 1328.12 462.15, 1328.59 463.57, 1329.41 465.65 C 1330.24 467.72, 1330.58 468.79, 1331.39 470.13 C 1332.20 471.47, 1332.66 471.98, 1333.45 472.34 C 1334.25 472.70, 1334.79 472.60, 1335.38 471.93 C 1335.97 471.26, 1336.24 470.57, 1336.40 469.00 C 1336.57 467.42, 1336.44 466.31, 1336.20 464.07 C 1335.97 461.83, 1335.63 460.38, 1335.23 457.79 C 1334.83 455.21, 1334.57 453.66, 1334.20 451.15 C 1333.84 448.63, 1333.61 447.32, 1333.39 445.20 C 1333.18 443.08, 1333.07 442.11, 1333.13 440.53 C 1333.18 438.96, 1333.23 438.35, 1333.65 437.31 C 1334.07 436.27, 1334.35 435.96, 1335.23 435.32 C 1336.10 434.69, 1336.65 434.48, 1338.03 434.12 C 1339.42 433.76, 1340.27 433.66, 1342.16 433.53 C 1344.05 433.40, 1345.22 433.36, 1347.47 433.48 C 1349.73 433.59, 1351.01 433.76, 1353.45 434.10 C 1355.90 434.45, 1357.38 434.82, 1359.68 435.20 C 1361.98 435.57, 1363.18 435.81, 1364.94 436.00 C 1366.69 436.19, 1367.69 436.33, 1368.46 436.14 C 1369.22 435.95, 1369.33 435.61, 1368.76 435.05 C 1368.19 434.49, 1367.28 434.02, 1365.61 433.34 C 1363.95 432.66, 1362.75 432.22, 1360.43 431.63 C 1358.10 431.05, 1356.54 430.77, 1353.98 430.40 C 1351.43 430.03, 1350.08 429.87, 1347.64 429.77 C 1345.21 429.67, 1343.95 429.65, 1341.82 429.90 C 1339.69 430.15, 1338.67 430.37, 1337.00 431.03 C 1335.33 431.69, 1334.61 432.15, 1333.46 433.20 C 1332.31 434.25, 1331.90 434.86, 1331.26 436.28 C 1330.61 437.70, 1330.47 438.47, 1330.24 440.30 C 1330.01 442.12, 1330.05 443.15, 1330.11 445.41 C 1330.17 447.66, 1330.32 448.98, 1330.53 451.56 C 1330.74 454.14, 1330.91 455.70, 1331.17 458.31 C 1331.43 460.92, 1331.52 462.42, 1331.84 464.62 C 1332.17 466.82, 1332.37 467.90, 1332.79 469.30 C 1333.20 470.70, 1333.56 471.18, 1333.92 471.61 C 1334.27 472.03, 1334.50 471.94, 1334.55 471.41 C 1334.59 470.88, 1334.47 470.35, 1334.12 468.97 C 1333.78 467.58, 1333.42 466.57, 1332.80 464.48 C 1332.19 462.39, 1331.78 460.96, 1331.06 458.53 C 1330.35 456.10, 1329.95 454.63, 1329.24 452.33 C 1328.53 450.04, 1328.23 448.78, 1327.49 447.05 C 1326.76 445.31, 1326.36 444.55, 1325.55 443.65 C 1324.74 442.75, 1324.20 442.59, 1323.45 442.53 C 1322.69 442.47, 1322.24 442.75, 1321.77 443.35 C 1321.31 443.95, 1321.20 444.47, 1321.13 445.53 C 1321.05 446.59, 1321.23 447.29, 1321.41 448.66 C 1321.58 450.02, 1321.80 450.81, 1321.99 452.35 C 1322.18 453.89, 1322.33 454.72, 1322.35 456.36 C 1322.36 457.99, 1322.41 458.86, 1322.07 460.52 C 1321.73 462.17, 1321.55 463.02, 1320.65 464.62 C 1319.75 466.22, 1319.17 467.04, 1317.57 468.51 C 1315.96 469.99, 1314.94 470.73, 1312.65 472.00 C 1310.35 473.27, 1308.98 473.96, 1306.10 474.86 C 1303.21 475.76, 1301.49 476.15, 1298.23 476.49 C 1294.97 476.82, 1293.11 476.88, 1289.80 476.53 C 1286.49 476.19, 1284.70 475.84, 1281.69 474.76 C 1278.69 473.68, 1277.16 472.89, 1274.78 471.14 C 1272.40 469.38, 1271.31 468.24, 1269.78 465.99 C 1268.25 463.74, 1267.71 462.38, 1267.11 459.87 C 1266.51 457.36, 1266.44 455.94, 1266.80 453.44 C 1267.15 450.94, 1267.64 449.63, 1268.88 447.36 C 1270.11 445.09, 1271.04 443.94, 1272.96 442.09 C 1274.88 440.25, 1276.19 439.41, 1278.48 438.14 C 1280.76 436.88, 1282.12 436.39, 1284.39 435.79 C 1286.66 435.19, 1287.87 435.13, 1289.81 435.15 C 1291.76 435.17, 1292.70 435.43, 1294.10 435.90 C 1295.50 436.37, 1296.08 436.75, 1296.82 437.49 C 1297.56 438.24, 1297.79 438.68, 1297.81 439.62 C 1297.83 440.57, 1297.66 441.11, 1296.92 442.21 C 1296.18 443.31, 1295.54 443.94, 1294.10 445.14 C 1292.67 446.34, 1291.65 447.03, 1289.73 448.22 C 1287.82 449.41, 1286.58 450.08, 1284.54 451.09 C 1282.50 452.10, 1281.34 452.55, 1279.53 453.26 C 1277.73 453.97, 1276.79 454.19, 1275.51 454.66 C 1274.23 455.13, 1273.85 455.29, 1273.13 455.60 C 1272.41 455.90, 1272.18 455.82, 1271.91 456.19 C 1271.63 456.56, 1271.49 457.01, 1271.77 457.43" style="stroke: black; fill: black;"/><path d="M 1404.69,437.39 C 1404.61 436.77, 1404.33 436.17, 1403.45 435.34 C 1402.56 434.52, 1401.88 433.97, 1400.26 433.26 C 1398.64 432.55, 1397.49 432.13, 1395.34 431.79 C 1393.20 431.45, 1391.91 431.45, 1389.52 431.58 C 1387.13 431.71, 1385.70 431.88, 1383.37 432.46 C 1381.05 433.03, 1379.76 433.46, 1377.89 434.46 C 1376.01 435.47, 1375.08 436.11, 1374.00 437.49 C 1372.92 438.88, 1372.50 439.77, 1372.49 441.38 C 1372.48 442.99, 1372.78 443.95, 1373.94 445.56 C 1375.10 447.18, 1376.08 448.01, 1378.30 449.46 C 1380.51 450.92, 1382.10 451.51, 1385.02 452.83 C 1387.94 454.16, 1389.78 454.75, 1392.89 456.09 C 1396.00 457.42, 1397.79 458.11, 1400.59 459.51 C 1403.39 460.92, 1404.80 461.72, 1406.89 463.10 C 1408.98 464.47, 1409.87 465.12, 1411.05 466.38 C 1412.24 467.65, 1412.56 468.28, 1412.82 469.42 C 1413.08 470.56, 1412.97 471.09, 1412.36 472.07 C 1411.75 473.06, 1411.22 473.47, 1409.79 474.34 C 1408.35 475.20, 1407.37 475.67, 1405.17 476.40 C 1402.98 477.12, 1401.59 477.49, 1398.80 477.97 C 1396.01 478.45, 1394.31 478.69, 1391.23 478.79 C 1388.15 478.88, 1386.36 478.78, 1383.38 478.44 C 1380.40 478.11, 1378.81 477.70, 1376.32 477.12 C 1373.82 476.53, 1372.58 476.21, 1370.91 475.52 C 1369.24 474.82, 1368.50 474.58, 1367.96 473.64 C 1367.41 472.70, 1367.80 471.97, 1368.19 470.82 C 1368.58 469.67, 1369.26 469.05, 1369.90 467.87 C 1370.54 466.69, 1371.34 465.72, 1371.41 464.93 C 1371.48 464.14, 1371.08 463.68, 1370.25 463.91 C 1369.42 464.15, 1368.23 464.85, 1367.25 466.10 C 1366.27 467.36, 1365.63 468.43, 1365.36 470.17 C 1365.08 471.91, 1365.03 473.21, 1365.88 474.79 C 1366.74 476.37, 1367.71 476.96, 1369.63 478.07 C 1371.56 479.17, 1372.83 479.62, 1375.51 480.33 C 1378.19 481.05, 1379.87 481.30, 1383.03 481.65 C 1386.18 481.99, 1388.02 482.08, 1391.29 482.05 C 1394.56 482.03, 1396.34 481.95, 1399.36 481.52 C 1402.38 481.08, 1403.93 480.78, 1406.39 479.88 C 1408.85 478.97, 1410.00 478.33, 1411.67 477.00 C 1413.33 475.68, 1414.00 474.88, 1414.71 473.26 C 1415.42 471.65, 1415.53 470.67, 1415.22 468.94 C 1414.90 467.21, 1414.46 466.31, 1413.15 464.61 C 1411.85 462.92, 1410.92 462.04, 1408.68 460.47 C 1406.45 458.89, 1404.89 458.18, 1401.99 456.73 C 1399.08 455.28, 1397.25 454.63, 1394.16 453.21 C 1391.07 451.80, 1389.31 451.04, 1386.54 449.66 C 1383.76 448.27, 1382.35 447.48, 1380.29 446.27 C 1378.23 445.05, 1377.31 444.57, 1376.22 443.59 C 1375.13 442.61, 1374.88 442.20, 1374.83 441.35 C 1374.79 440.50, 1375.11 440.10, 1376.00 439.33 C 1376.90 438.55, 1377.68 438.13, 1379.32 437.46 C 1380.95 436.80, 1382.11 436.43, 1384.18 436.00 C 1386.26 435.58, 1387.58 435.41, 1389.69 435.34 C 1391.80 435.27, 1392.89 435.34, 1394.73 435.64 C 1396.57 435.95, 1397.47 436.40, 1398.90 436.85 C 1400.34 437.29, 1400.91 437.56, 1401.90 437.88 C 1402.88 438.19, 1403.27 438.54, 1403.83 438.44 C 1404.39 438.34, 1404.77 438.01, 1404.69 437.39" style="stroke: black; fill: black;"/><path d="M 1453.77,397.03 C 1453.31 397.34, 1453.08 397.67, 1452.70 398.77 C 1452.31 399.86, 1452.07 400.58, 1451.83 402.51 C 1451.59 404.44, 1451.49 405.73, 1451.49 408.42 C 1451.49 411.10, 1451.68 412.74, 1451.84 415.94 C 1452.00 419.13, 1452.08 420.96, 1452.31 424.40 C 1452.53 427.84, 1452.66 429.71, 1452.98 433.13 C 1453.29 436.55, 1453.47 438.30, 1453.89 441.50 C 1454.31 444.69, 1454.51 446.26, 1455.07 449.12 C 1455.62 451.99, 1455.98 453.36, 1456.66 455.84 C 1457.35 458.32, 1457.76 459.49, 1458.50 461.52 C 1459.24 463.55, 1459.70 464.58, 1460.38 465.99 C 1461.05 467.41, 1461.36 467.81, 1461.86 468.58 C 1462.37 469.35, 1462.54 469.64, 1462.91 469.84 C 1463.27 470.04, 1463.52 469.96, 1463.69 469.57 C 1463.85 469.18, 1463.84 468.83, 1463.73 467.90 C 1463.62 466.97, 1463.58 466.42, 1463.13 464.93 C 1462.68 463.44, 1462.17 462.44, 1461.48 460.46 C 1460.80 458.47, 1460.37 457.39, 1459.70 455.00 C 1459.03 452.61, 1458.72 451.29, 1458.13 448.51 C 1457.55 445.73, 1457.25 444.22, 1456.79 441.09 C 1456.33 437.97, 1456.14 436.25, 1455.84 432.88 C 1455.55 429.51, 1455.43 427.64, 1455.31 424.24 C 1455.20 420.84, 1455.21 419.03, 1455.26 415.87 C 1455.30 412.72, 1455.47 411.11, 1455.55 408.48 C 1455.64 405.85, 1455.69 404.62, 1455.67 402.74 C 1455.66 400.86, 1455.61 400.19, 1455.47 399.09 C 1455.34 397.99, 1455.33 397.65, 1454.99 397.23 C 1454.65 396.82, 1454.23 396.73, 1453.77 397.03" style="stroke: black; fill: black;"/><path d="M 1458.90,467.11 C 1458.62 466.66, 1458.20 466.51, 1457.89 466.61 C 1457.58 466.71, 1457.42 467.12, 1457.37 467.60 C 1457.32 468.09, 1457.39 468.61, 1457.63 469.04 C 1457.87 469.47, 1458.24 469.80, 1458.58 469.76 C 1458.92 469.72, 1459.27 469.36, 1459.33 468.82 C 1459.40 468.29, 1459.19 467.55, 1458.90 467.11" style="stroke: black; fill: black;"/></svg>